<?xml version="1.0" encoding="UTF-8" standalone="no"?>
<svg width="45px" height="45px" viewBox="0 0 45 45" version="1.1" xmlns="http://www.w3.org/2000/svg" xmlns:xlink="http://www.w3.org/1999/xlink">
    <!-- Generator: Sketch 39.1 (31720) - http://www.bohemiancoding.com/sketch -->
    <title>Group 10</title>
    <desc>Created with Sketch.</desc>
    <defs></defs>
    <g id="Page-1" stroke="none" stroke-width="1" fill="none" fill-rule="evenodd">
        <g id="XtermeCheckout" transform="translate(-381.000000, -194.000000)">
            <g id="Group-10" transform="translate(381.000000, 194.000000)">
                <circle id="Oval-5-Copy" fill="#e20b7c" cx="22.5" cy="22.5" r="22.5"></circle>
                <path d="M28.7412109,31 L18.0634766,31 L18.0634766,28.9482422 L23.1230469,23.5234375 C23.8535193,22.6855427 24.3727198,21.9783557 24.6806641,21.4018555 C24.9886083,20.8253552 25.1425781,20.2900415 25.1425781,19.7958984 C25.1425781,19.137041 24.9653338,18.5981466 24.6108398,18.1791992 C24.2563459,17.7602518 23.7532585,17.5507812 23.1015625,17.5507812 C22.3782516,17.5507812 21.8286152,17.7960587 21.4526367,18.2866211 C21.0766583,18.7771834 20.8886719,19.43066 20.8886719,20.2470703 L17.8378906,20.2470703 L17.8164063,20.1826172 C17.7805988,18.7718028 18.2442986,17.5776416 19.2075195,16.6000977 C20.1707405,15.6225537 21.4687418,15.1337891 23.1015625,15.1337891 C24.7128987,15.1337891 25.9786738,15.5527302 26.8989258,16.390625 C27.8191778,17.2285198 28.2792969,18.3456961 28.2792969,19.7421875 C28.2792969,20.6875047 28.0196966,21.5594036 27.5004883,22.3579102 C26.98128,23.1564168 26.1237039,24.2037696 24.9277344,25.5 L22.1455078,28.5400391 L22.1669922,28.59375 L28.7412109,28.59375 L28.7412109,31 Z" id="2" fill="#FFFFFF"></path>
            </g>
        </g>
    </g>
</svg>