<?xml version="1.0" encoding="UTF-8" standalone="no"?>
<svg width="45px" height="45px" viewBox="0 0 45 45" version="1.1" xmlns="http://www.w3.org/2000/svg" xmlns:xlink="http://www.w3.org/1999/xlink">
    <!-- Generator: Sketch 39.1 (31720) - http://www.bohemiancoding.com/sketch -->
    <title>Group 11</title>
    <desc>Created with Sketch.</desc>
    <defs></defs>
    <g id="Page-1" stroke="none" stroke-width="1" fill="none" fill-rule="evenodd">
        <g id="XtermeCheckout" transform="translate(-381.000000, -525.000000)">
            <g id="Group-11" transform="translate(381.000000, 525.000000)">
                <circle id="Oval-5-Copy-2" fill="#e20b7c" cx="22.5" cy="22.5" r="22.5"></circle>
                <path d="M21.2324219,21.8476562 L22.9941406,21.8476562 C23.738936,21.8476562 24.2903628,21.6525085 24.6484375,21.262207 C25.0065122,20.8719056 25.1855469,20.3294306 25.1855469,19.6347656 C25.1855469,19.0045541 25.0065122,18.4996764 24.6484375,18.1201172 C24.2903628,17.740558 23.7711623,17.5507812 23.0908203,17.5507812 C22.5035778,17.5507812 22.0094421,17.7226545 21.6083984,18.0664062 C21.2073548,18.410158 21.0068359,18.8613253 21.0068359,19.4199219 L17.9667969,19.4199219 L17.9453125,19.3554688 C17.9023435,18.1308533 18.3714144,17.1210977 19.3525391,16.3261719 C20.3336638,15.531246 21.5510995,15.1337891 23.0048828,15.1337891 C24.6233805,15.1337891 25.9142204,15.5205039 26.8774414,16.2939453 C27.8406624,17.0673867 28.3222656,18.1702402 28.3222656,19.6025391 C28.3222656,20.282881 28.107424,20.9291962 27.6777344,21.5415039 C27.2480447,22.1538117 26.6572303,22.6318342 25.9052734,22.9755859 C26.7718142,23.2835302 27.4324522,23.7561817 27.887207,24.3935547 C28.3419619,25.0309277 28.5693359,25.7721312 28.5693359,26.6171875 C28.5693359,28.0494863 28.0483451,29.1756144 27.0063477,29.9956055 C25.9643503,30.8155965 24.630542,31.2255859 23.0048828,31.2255859 C21.5510995,31.2255859 20.3032279,30.8406614 19.2612305,30.0708008 C18.2192331,29.3009402 17.7161457,28.2141997 17.7519531,26.8105469 L17.7734375,26.7460938 L20.8134766,26.7460938 C20.8134766,27.3476593 21.0283182,27.8435853 21.4580078,28.2338867 C21.8876975,28.6241881 22.4319629,28.8193359 23.0908203,28.8193359 C23.8141312,28.8193359 24.3852518,28.6188171 24.8041992,28.2177734 C25.2231466,27.8167298 25.4326172,27.2724644 25.4326172,26.5849609 C25.4326172,25.7613891 25.2267273,25.1580423 24.8149414,24.7749023 C24.4031555,24.3917624 23.796228,24.2001953 22.9941406,24.2001953 L21.2324219,24.2001953 L21.2324219,21.8476562 Z" id="3" fill="#FFFFFF"></path>
            </g>
        </g>
    </g>
</svg>