<?xml version="1.0" encoding="utf-8"?>
<!-- Generator: Adobe Illustrator 15.0.0, SVG Export Plug-In . SVG Version: 6.00 Build 0)  -->
<!DOCTYPE svg PUBLIC "-//W3C//DTD SVG 1.1//EN" "http://www.w3.org/Graphics/SVG/1.1/DTD/svg11.dtd">
<svg version="1.1" id="Layer_1" xmlns="http://www.w3.org/2000/svg" xmlns:xlink="http://www.w3.org/1999/xlink" x="0px" y="0px"
	 width="100px" height="100px" viewBox="0 0 100 100" enable-background="new 0 0 100 100" xml:space="preserve">
<path fill="#B8B7B8" d="M50,1.149c-26.978,0-48.851,21.872-48.851,48.852C1.149,76.98,23.022,98.852,50,98.852
	c26.98,0,48.852-21.871,48.852-48.851C98.852,23.021,76.98,1.149,50,1.149z M46.296,75.5c-0.827,1.051-2.137,1.398-2.137,1.398
	s-3.93,6.281-4.801,7.504c-0.024,0.031-0.049,0.056-0.073,0.086c-1.707-1.04-9.072-5.532-9.514-5.863
	c-0.5-0.375-0.313-0.626-0.313-0.626l3.882-5.936l-2.008-1.222l-3.894,5.846l-0.362,0.544l12.031,7.464
	c-1.413,1.518-2.892,0.625-2.892,0.625s-9.776-5.98-10.737-6.811c-0.957-0.828,0.395-2.484,0.395-2.484l5.025-6.914l2.914,1.639
	c0,0,1.42,0.637,2.054-0.572l24.353-44.69l-2.705-1.57l-23.69,44.275l-0.011-0.006l-0.646,1.037c0,0-0.296,0.49-0.792,0.244
	S31.11,68.82,31.11,68.82s-0.83-0.564,0.131-2.615c0.959-2.049,27.758-49.884,27.758-49.884l21.34,14.272
	C80.338,30.593,47.126,74.453,46.296,75.5z"/>
</svg>
