<?xml version="1.0" encoding="UTF-8" standalone="no"?>
<svg width="450px" height="144px" viewBox="0 0 450 144" version="1.1" xmlns="http://www.w3.org/2000/svg" xmlns:xlink="http://www.w3.org/1999/xlink">
    <!-- Generator: Sketch 39.1 (31720) - http://www.bohemiancoding.com/sketch -->
    <title>Group 4</title>
    <desc>Created with Sketch.</desc>
    <defs>
        <polygon id="path-1" points="0 0.0984837463 0 64.6216572 64.9683984 64.6216572 64.9683984 0.0984837463"></polygon>
    </defs>
    <g id="Page-1" stroke="none" stroke-width="1" fill="none" fill-rule="evenodd">
        <g id="QuemSomos_1024" transform="translate(-287.000000, -457.000000)">
            <g id="Group-4" transform="translate(287.000000, 457.000000)">
                <g id="Page-1-Copy-7">
                    <path d="M144.560039,109.675777 C145.512773,109.675777 146.307305,110.035423 146.941875,110.752967 C147.576445,111.470512 147.894609,112.233449 147.894609,113.040033 C147.894609,113.949621 147.550078,114.747475 146.862773,115.431849 C146.173711,116.114477 145.407305,116.456664 144.560039,116.456664 L135.456328,116.456664 C135.032695,116.456664 134.670586,116.578873 134.371758,116.825038 C134.071172,117.069458 133.92,117.420374 133.92,117.876041 C133.92,118.366625 134.071172,118.741983 134.371758,119.005607 C134.670586,119.26923 135.032695,119.400169 135.456328,119.400169 L141.436406,119.400169 C142.529766,119.400169 143.545781,119.62713 144.480937,120.084543 C145.414336,120.54021 146.228203,121.144275 146.915508,121.896737 C147.602812,122.65269 148.140703,123.448798 148.52918,124.290299 C148.917656,125.131799 149.112773,126.07805 149.112773,127.129053 C149.146172,128.284807 148.944023,129.370726 148.502812,130.386812 C148.061602,131.404643 147.470977,132.263602 146.730937,132.963688 C145.989141,133.66552 145.124297,134.217209 144.136406,134.618755 C143.148516,135.023793 142.03582,135.224566 140.801836,135.224566 L131.061797,135.224566 C130.144219,135.224566 129.351445,134.908566 128.679961,134.278314 C128.010234,133.646316 127.67625,132.857191 127.67625,131.91094 C127.67625,131.036268 127.992656,130.238414 128.628984,129.519123 C129.263555,128.801579 130.03875,128.424475 130.956328,128.391303 L140.696367,128.391303 C141.649102,128.391303 142.125469,127.970553 142.125469,127.129053 C142.125469,126.182802 141.649102,125.709676 140.696367,125.709676 L134.872734,125.709676 C133.814531,125.709676 132.817852,125.491444 131.882695,125.05149 C130.947539,124.615027 130.13543,124.009217 129.448125,123.239296 C128.76082,122.46763 128.221172,121.627875 127.834453,120.714795 C127.445977,119.805207 127.250859,118.822292 127.250859,117.77129 C127.250859,116.720287 127.454766,115.704202 127.86082,114.723033 C128.265117,113.740119 128.820586,112.882906 129.527227,112.146157 C130.233867,111.409408 131.061797,110.822802 132.014531,110.384593 C132.967266,109.946384 134.009648,109.710694 135.138164,109.675777 L144.560039,109.675777 Z" id="Fill-1" fill="#911373"></path>
                    <path d="M168.431309,119.559216 C167.830137,118.471551 167.125254,117.708614 166.313145,117.270405 C165.501035,116.832196 164.601035,116.613965 163.614902,116.613965 C162.590098,116.613965 161.683066,116.832196 160.888535,117.270405 C160.094004,117.708614 159.39791,118.471551 158.798496,119.559216 L168.431309,119.559216 Z M163.614902,109.780703 C165.309434,109.780703 166.930137,110.131619 168.484043,110.831705 C170.036191,111.531792 171.40377,112.469314 172.586777,113.642526 C173.768027,114.81923 174.711973,116.167027 175.418613,117.692901 C176.123496,119.217029 176.476816,120.821467 176.476816,122.502722 C176.476816,123.414056 176.132285,124.131601 175.44498,124.657102 C174.755918,125.184349 173.899863,125.428768 172.876816,125.393851 L158.798496,125.393851 C159.962168,127.391105 161.567051,128.391478 163.614902,128.391478 C164.17916,128.391478 164.655527,128.337357 165.044004,128.232606 C165.430723,128.126109 165.775254,128.005645 166.07584,127.864231 C166.374668,127.726309 166.675254,127.600607 166.97584,127.495856 C167.274668,127.391105 167.619199,127.33873 168.007676,127.33873 C168.749473,127.375393 169.391074,127.584895 169.939512,127.968982 C170.486191,128.356561 170.892246,128.834924 171.157676,129.414547 C171.421348,129.99417 171.509238,130.615693 171.421348,131.280862 C171.333457,131.947777 171.02584,132.560571 170.49498,133.122735 C169.542246,133.892656 168.484043,134.426886 167.320371,134.725427 C166.154941,135.022221 164.919199,135.189823 163.614902,135.22474 C161.920371,135.294574 160.29791,134.987304 158.744004,134.302931 C157.191855,133.620303 155.824277,132.69151 154.643027,131.518298 C153.46002,130.34334 152.524863,128.969355 151.837559,127.391105 C151.148496,125.814602 150.805723,124.183976 150.805723,122.502722 C150.805723,120.854638 151.148496,119.260676 151.837559,117.717343 C152.524863,116.177502 153.45123,114.81923 154.61666,113.642526 C155.780332,112.469314 157.139121,111.531792 158.69127,110.831705 C160.245176,110.131619 161.885215,109.780703 163.614902,109.780703 L163.614902,109.780703 Z" id="Fill-3" fill="#911373"></path>
                    <path d="M197.966426,110.778806 C198.636152,110.113637 199.421895,109.790654 200.321895,109.806367 C201.221895,109.823825 202.023457,110.164266 202.730098,110.831182 C203.364668,111.46318 203.682832,112.252305 203.682832,113.198556 C203.682832,114.144807 203.364668,114.949645 202.730098,115.61656 L195.848262,122.502198 L202.730098,129.387835 C203.364668,130.019834 203.70041,130.817688 203.735566,131.779652 C203.770723,132.745108 203.43498,133.577879 202.730098,134.277965 C202.095527,134.908217 201.292207,135.224216 200.321895,135.224216 C199.351582,135.224216 198.513105,134.855842 197.808223,134.119093 L190.926387,127.392327 L184.046309,134.277965 C183.40998,134.838383 182.617207,135.154382 181.664473,135.224216 C180.711738,135.29405 179.880293,134.979797 179.17541,134.277965 C178.54084,133.647713 178.196309,132.865571 178.143574,131.936778 C178.09084,131.009731 178.398457,130.196165 179.069941,129.494332 L186.10998,122.502198 L179.069941,115.510063 C178.398457,114.844894 178.099629,114.074973 178.169941,113.198556 C178.240254,112.322139 178.575996,111.533014 179.17541,110.831182 C179.952363,110.061261 180.780293,109.710345 181.664473,109.781925 C182.545137,109.850013 183.339668,110.200929 184.046309,110.831182 L190.926387,117.66619 L197.966426,110.778806 Z" id="Fill-5" fill="#911373"></path>
                    <path d="M234.062578,109.675777 C235.015312,109.675777 235.809844,110.035423 236.444414,110.752967 C237.078984,111.470512 237.397148,112.233449 237.397148,113.040033 C237.397148,113.949621 237.054375,114.747475 236.365312,115.431849 C235.67625,116.114477 234.908086,116.456664 234.062578,116.456664 L224.958867,116.456664 C224.535234,116.456664 224.173125,116.578873 223.874297,116.825038 C223.573711,117.069458 223.422539,117.420374 223.422539,117.876041 C223.422539,118.366625 223.573711,118.741983 223.874297,119.005607 C224.173125,119.26923 224.535234,119.400169 224.958867,119.400169 L230.938945,119.400169 C232.034062,119.400169 233.04832,119.62713 233.983477,120.084543 C234.916875,120.54021 235.730742,121.144275 236.418047,121.896737 C237.105352,122.65269 237.645,123.448798 238.031719,124.290299 C238.420195,125.131799 238.613555,126.07805 238.613555,127.129053 C238.650469,128.284807 238.446562,129.370726 238.007109,130.386812 C237.564141,131.404643 236.973516,132.263602 236.231719,132.963688 C235.49168,133.66552 234.626836,134.217209 233.638945,134.618755 C232.651055,135.023793 231.538359,135.224566 230.304375,135.224566 L220.564336,135.224566 C219.646758,135.224566 218.852227,134.908566 218.1825,134.278314 C217.512773,133.646316 217.178789,132.857191 217.178789,131.91094 C217.178789,131.036268 217.495195,130.238414 218.131523,129.519123 C218.766094,128.801579 219.541289,128.424475 220.458867,128.391303 L230.198906,128.391303 C231.151641,128.391303 231.628008,127.970553 231.628008,127.129053 C231.628008,126.182802 231.151641,125.709676 230.198906,125.709676 L224.375273,125.709676 C223.31707,125.709676 222.320391,125.491444 221.386992,125.05149 C220.450078,124.615027 219.639727,124.009217 218.950664,123.239296 C218.263359,122.46763 217.723711,121.627875 217.336992,120.714795 C216.946758,119.805207 216.753398,118.822292 216.753398,117.77129 C216.753398,116.720287 216.957305,115.704202 217.363359,114.723033 C217.767656,113.740119 218.323125,112.882906 219.029766,112.146157 C219.736406,111.409408 220.564336,110.822802 221.51707,110.384593 C222.469805,109.946384 223.51043,109.710694 224.640703,109.675777 L234.062578,109.675777 Z" id="Fill-7" fill="#A51383"></path>
                    <path d="M244.330488,101.841619 C245.246309,101.841619 246.032051,102.157618 246.685957,102.78787 C247.338105,103.418122 247.700215,104.242164 247.770527,105.259995 L247.770527,111.305879 C248.580879,110.778632 249.533613,110.412003 250.62873,110.200755 C251.72209,109.991253 252.762715,109.884756 253.752363,109.884756 C255.482051,109.884756 257.12209,110.200755 258.674238,110.831007 C260.226387,111.463005 261.585176,112.339423 262.750605,113.460259 C263.914277,114.581096 264.840645,115.895722 265.529707,117.402391 C266.217012,118.910807 266.559785,120.522228 266.559785,122.240145 L266.559785,131.859786 C266.559785,132.806038 266.23459,133.612621 265.582441,134.27779 C264.928535,134.944706 264.107637,135.293876 263.119746,135.330539 C262.202168,135.330539 261.426973,135.023269 260.790645,134.408729 C260.156074,133.795935 259.769355,133.01554 259.626973,132.069288 L259.626973,122.60852 C259.626973,121.836854 259.477559,121.091375 259.176973,120.372085 C258.876387,119.65454 258.463301,119.024287 257.932441,118.479582 C257.40334,117.938368 256.786348,117.508888 256.081465,117.192889 C255.374824,116.87689 254.597871,116.719764 253.752363,116.719764 C252.165059,116.719764 250.815059,117.262723 249.704121,118.348643 C248.591426,119.436308 247.946309,120.768393 247.770527,122.344897 L247.770527,131.859786 C247.770527,132.806038 247.443574,133.612621 246.791426,134.27779 C246.139277,134.944706 245.318379,135.293876 244.330488,135.330539 C243.448066,135.330539 242.69748,135.023269 242.082246,134.408729 C241.463496,133.795935 241.06623,133.01554 240.890449,132.069288 L240.890449,105.050493 C240.960762,104.17233 241.305293,103.418122 241.922285,102.78787 C242.539277,102.157618 243.342598,101.841619 244.330488,101.841619" id="Fill-9" fill="#BC138C"></path>
                    <path d="M281.275488,116.614838 C280.463379,116.614838 279.704004,116.763235 278.999121,117.061776 C278.29248,117.360316 277.666699,117.770591 277.12002,118.297839 C276.57334,118.82334 276.140918,119.444863 275.822754,120.162408 C275.506348,120.879953 275.346387,121.662094 275.346387,122.501849 C275.346387,123.310178 275.506348,124.071369 275.822754,124.788914 C276.140918,125.508205 276.57334,126.138457 277.12002,126.681417 C277.666699,127.224376 278.29248,127.653856 278.999121,127.969855 C279.704004,128.285854 280.463379,128.441235 281.275488,128.441235 C282.08584,128.441235 282.854004,128.285854 283.578223,127.969855 C284.300684,127.653856 284.928223,127.224376 285.455566,126.681417 C285.986426,126.138457 286.408301,125.508205 286.726465,124.788914 C287.044629,124.071369 287.202832,123.310178 287.202832,122.501849 C287.134277,120.888682 286.550684,119.523426 285.455566,118.400844 C284.362207,117.281753 282.968262,116.684672 281.275488,116.614838 M281.275488,109.7292 C283.005176,109.7292 284.645215,110.060912 286.197363,110.727827 C287.749512,111.392997 289.108301,112.304331 290.27373,113.460085 C291.437402,114.615838 292.365527,115.967127 293.052832,117.508714 C293.740137,119.050301 294.084668,120.715843 294.084668,122.501849 C294.084668,124.256429 293.748926,125.892292 293.077441,127.41642 C292.407715,128.942294 291.498926,130.283108 290.352832,131.438862 C289.206738,132.594615 287.85498,133.507695 286.302832,134.172865 C284.752441,134.838034 283.07373,135.171492 281.275488,135.171492 C279.510645,135.171492 277.85127,134.855493 276.299121,134.22524 C274.746973,133.594988 273.388184,132.709841 272.224512,131.5698 C271.059082,130.431505 270.141504,129.090692 269.471777,127.549105 C268.800293,126.007518 268.466309,124.324517 268.466309,122.501849 C268.466309,120.75076 268.791504,119.111405 269.447168,117.587277 C270.099316,116.063149 270.997559,114.731064 272.14541,113.592769 C273.291504,112.452728 274.650293,111.541394 276.221777,110.85702 C277.789746,110.174392 279.475488,109.799034 281.275488,109.7292" id="Fill-11" fill="#D1188B"></path>
                    <g id="Group-15" transform="translate(0.000000, 14.876731)">
                        <mask id="mask-2" fill="white">
                            <use xlink:href="#path-1"></use>
                        </mask>
                        <g id="Clip-14"></g>
                        <path d="M32.4822656,50.003644 C22.6701563,50.003644 14.7178125,42.1054126 14.7178125,32.3600705 C14.7178125,22.6147283 22.6701563,14.7164969 32.4822656,14.7164969 C42.2908594,14.7164969 50.2414453,22.6112366 50.2467188,32.3495954 L50.1975,32.3495954 L50.1975,33.6101 C49.550625,42.770582 41.8689844,50.003644 32.4822656,50.003644 M64.9613672,57.0219664 L64.9613672,32.576556 C64.9613672,32.5049761 64.9648828,32.4333962 64.9648828,32.3600705 C64.9648828,14.5419118 50.4225,0.0984837463 32.4822656,0.0984837463 C14.5420313,0.0984837463 -0.000351562492,14.5419118 -0.000351562492,32.3600705 C-0.000351562492,50.1782291 14.5420313,64.6216572 32.4822656,64.6216572 C39.1531641,64.6216572 45.3529688,62.6226574 50.5103906,59.1955513 C51.3910547,62.263012 54.2264063,64.5116686 57.5961328,64.5116686 C61.6672266,64.5116686 64.9683984,61.2329598 64.9683984,57.1895681 C64.9683984,57.131955 64.963125,57.0778336 64.9613672,57.0219664" id="Fill-13" fill="#6B1951" mask="url(#mask-2)"></path>
                    </g>
                    <path d="M204.096445,64.8803746 C194.284336,64.8803746 186.331992,56.9821432 186.331992,47.2368011 C186.331992,37.491459 194.284336,29.5932276 204.096445,29.5932276 C213.905039,29.5932276 221.855625,37.4879673 221.860898,47.226326 L221.81168,47.226326 L221.81168,48.4868306 C221.164805,57.6473126 213.483164,64.8803746 204.096445,64.8803746 M236.575547,71.898697 L236.575547,47.4532867 C236.575547,47.3817068 236.579062,47.3101268 236.579062,47.2368011 C236.579062,29.4186424 222.03668,14.9752144 204.096445,14.9752144 C186.156211,14.9752144 171.613828,29.4186424 171.613828,47.2368011 C171.613828,65.0549598 186.156211,79.4983878 204.096445,79.4983878 C210.767344,79.4983878 216.967148,77.499388 222.12457,74.0722819 C223.005234,77.1397427 225.840586,79.3883992 229.210312,79.3883992 C233.281406,79.3883992 236.58082,76.1096904 236.58082,72.0662987 C236.58082,72.0086856 236.577305,71.9545642 236.575547,71.898697" id="Fill-16" fill="#911373"></path>
                    <path d="M120.121523,57.3018086 C118.089492,57.3018086 116.25082,58.118867 114.916641,59.4404765 L114.893789,59.4177804 C111.659414,62.7820359 107.103164,64.8805492 102.049453,64.8805492 C92.2725,64.8805492 84.34125,57.0364392 84.2867578,47.3382351 L84.3043359,47.3382351 L84.3043359,29.5375349 L108.655312,29.5375349 L108.655312,29.5061096 C108.688711,29.5061096 108.722109,29.5113471 108.755508,29.5113471 C112.828359,29.5113471 116.127773,26.2343842 116.127773,22.1892466 C116.127773,18.145855 112.828359,14.8671462 108.755508,14.8671462 C108.708047,14.8671462 108.662344,14.8741296 108.614883,14.8758754 L84.3043359,14.8758754 L84.3043359,7.68995135 L84.2726953,7.68995135 C84.2744531,7.65678018 84.2779687,7.623609 84.2779687,7.59043783 C84.2779687,3.5453003 80.9785547,0.268337349 76.9074609,0.268337349 C72.8363672,0.268337349 69.5351953,3.5453003 69.5351953,7.59043783 C69.5351953,7.63757581 69.5422266,7.68296795 69.5422266,7.73010593 L69.5422266,47.3382351 L69.5685937,47.3382351 C69.6248437,65.1092557 84.144375,79.4985624 102.049453,79.4985624 C110.820937,79.4985624 118.769766,76.0330475 124.614492,70.4201355 C126.361758,69.0810675 127.493789,66.9860459 127.493789,64.6239091 C127.493789,60.5805174 124.192617,57.3018086 120.121523,57.3018086" id="Fill-18" fill="#7F1965"></path>
                    <path d="M399.708105,47.2368011 C399.708105,37.491459 407.662207,29.5932276 417.472559,29.5932276 C427.284668,29.5932276 435.23877,37.491459 435.23877,47.2368011 C435.23877,56.9821432 427.284668,64.8803746 417.472559,64.8803746 C407.662207,64.8803746 399.708105,56.9821432 399.708105,47.2368011 M449.955176,47.2368011 C449.955176,29.4186424 435.412793,14.9752144 417.472559,14.9752144 C399.534082,14.9752144 384.991699,29.4186424 384.991699,47.2368011 C384.991699,63.2776831 396.77959,76.5775785 412.218457,79.0724001 L412.218457,82.9935822 L403.69834,82.9935822 L403.69834,83.0337368 C401.019434,83.136742 398.874902,85.3103269 398.874902,87.9954462 C398.874902,90.6805656 401.019434,92.8541505 403.69834,92.9571557 L403.69834,92.9676308 L403.807324,92.9676308 C403.837207,92.9676308 403.861816,92.9763601 403.889941,92.9763601 C403.919824,92.9763601 403.944434,92.9676308 403.972559,92.9676308 L412.218457,92.9676308 L412.218457,101.43501 L412.260645,101.43501 C412.364355,104.095687 414.551074,106.225626 417.25459,106.225626 C419.959863,106.225626 422.14834,104.095687 422.250293,101.43501 L422.262598,101.43501 L422.262598,101.326767 C422.262598,101.297088 422.269629,101.272646 422.269629,101.244712 C422.269629,101.215033 422.262598,101.190591 422.262598,101.162657 L422.262598,92.9676308 L430.341504,92.9676308 L430.341504,92.9239845 C430.427637,92.9292221 430.506738,92.9501723 430.594629,92.9501723 C433.363184,92.9501723 435.609668,90.7207202 435.609668,87.9692585 C435.609668,85.2195426 433.363184,82.9900905 430.594629,82.9900905 C430.506738,82.9900905 430.427637,83.0110407 430.341504,83.0145324 L430.341504,82.9935822 L422.262598,82.9935822 L422.262598,79.1457258 C437.92998,76.8464396 449.955176,63.4383014 449.955176,47.2368011" id="Fill-20" fill="#E20B7C"></path>
                    <path d="M164.116582,14.260812 C163.337871,14.260812 162.585527,14.3830216 161.882402,14.6064906 L161.878887,14.5942696 C145.617363,18.51196 134.253105,31.2566747 134.253105,46.6550834 L134.226738,46.6550834 L134.226738,72.0362701 C134.22498,72.083408 134.219707,72.1288002 134.219707,72.1759382 C134.219707,76.2193298 137.519121,79.4980386 141.591973,79.4980386 C145.661309,79.4980386 148.96248,76.2193298 148.96248,72.1759382 C148.96248,72.142767 148.957207,72.1095958 148.957207,72.0746788 L148.988848,72.0746788 L148.988848,46.6550834 L148.97127,46.6550834 C149.009941,39.9335558 153.202324,31.9654903 165.137871,28.8264496 C168.723809,28.3323737 171.488848,25.2806256 171.488848,21.5829125 C171.488848,17.5395208 168.187676,14.260812 164.116582,14.260812" id="Fill-22" fill="#891268"></path>
                    <path d="M298.387441,54.6891421 C295.828066,54.6891421 293.574551,55.9863096 292.252676,57.9538841 C289.005996,62.1631316 283.896035,64.8796763 278.144473,64.8796763 C268.332363,64.8796763 260.38002,56.9814449 260.38002,47.2361028 C260.38002,37.4925065 268.332363,29.5925292 278.144473,29.5925292 C284.024355,29.5925292 289.232754,32.4312835 292.467129,36.8011494 L292.504043,36.7732157 C293.850527,38.5452548 295.980996,39.6975167 298.387441,39.6975167 C302.458535,39.6975167 305.759707,36.4188079 305.759707,32.3754162 C305.759707,30.3240409 304.907168,28.4734385 303.541348,27.1448456 C297.589395,19.7337068 288.431191,14.974516 278.144473,14.974516 C260.204238,14.974516 245.661855,29.4196899 245.661855,47.2361028 C245.661855,62.4459595 256.263223,75.1889284 270.522598,78.5968302 L270.522598,83.9356436 L270.522598,83.9618313 L270.522598,83.9862732 L270.522598,84.0316654 L270.526113,84.0316654 C270.563027,88.0418859 273.846621,91.282186 277.894863,91.282186 C281.941348,91.282186 285.224941,88.0418859 285.261855,84.0316654 L285.272402,84.0316654 L285.272402,78.705073 C292.758926,77.037785 299.250527,72.7953662 303.797988,66.972952 C305.012637,65.6670552 305.759707,63.9281873 305.759707,62.0112426 C305.759707,57.9678509 302.458535,54.6891421 298.387441,54.6891421" id="Fill-24" fill="#BC138C"></path>
                    <path d="M361.848164,47.2266752 L361.848164,48.4871798 C361.203047,57.6476617 353.521406,64.8807238 344.13293,64.8807238 C334.322578,64.8807238 326.368477,56.9807465 326.368477,47.2371503 C326.368477,37.4918081 334.322578,29.5918309 344.13293,29.5918309 C353.941523,29.5918309 361.892109,37.4865706 361.897383,47.2266752 L361.848164,47.2266752 Z M386.763398,1.46965765 C385.861641,0.563560809 384.611836,-0.000349170252 383.237227,-0.000349170252 C383.11418,-0.000349170252 382.996406,0.027584451 382.875117,0.0363137077 L363.182344,0.0363137077 C360.447187,0.0363137077 358.213008,2.25878245 358.21125,4.97358127 C358.213008,7.68838009 360.447187,9.90910298 363.182344,9.90910298 L371.236641,9.90910298 L361.255781,19.8237927 C356.28293,16.7528402 350.418867,14.9755635 344.13293,14.9755635 C326.194453,14.9755635 311.650312,29.4189916 311.650312,47.2371503 C311.650312,65.0535631 326.194453,79.498737 344.13293,79.498737 C350.803828,79.498737 357.003633,77.4979914 362.162812,74.0726311 C363.041719,77.1400918 365.87707,79.3870025 369.246797,79.3870025 C373.317891,79.3870025 376.617305,76.1100396 376.617305,72.0666479 C376.617305,72.0090348 376.612031,71.9549134 376.610273,71.8973003 L376.610273,47.4536358 C376.612031,47.3803101 376.615547,47.3087302 376.615547,47.2371503 C376.615547,39.2324219 373.674727,31.915559 368.816133,26.2764592 L378.266133,16.8907624 L378.266133,24.8919991 C378.266133,27.6067979 380.50207,29.8275208 383.237227,29.8275208 C385.970625,29.8275208 388.206562,27.6067979 388.206562,24.8919991 L388.206562,5.33148079 C388.217109,5.2127629 388.245234,5.09579086 388.245234,4.97358127 C388.245234,3.60657968 387.675703,2.36702523 386.763398,1.46965765 L386.763398,1.46965765 Z" id="Fill-26" fill="#D1188B"></path>
                    <path d="M314.224102,124.788216 C313.923516,125.507506 313.508672,126.137759 312.97957,126.680718 C312.450469,127.225424 311.831719,127.654903 311.126836,127.969157 C310.421953,128.285156 309.645,128.442282 308.797734,128.442282 C308.020781,128.442282 307.271953,128.293885 306.549492,127.995344 C305.825273,127.69855 305.190703,127.286529 304.644023,126.761028 C304.095586,126.23378 303.664922,125.612257 303.346758,124.894712 C303.028594,124.175422 302.870391,123.377568 302.870391,122.50115 C302.870391,121.696313 303.019805,120.942105 303.320391,120.242019 C303.619219,119.541932 304.034063,118.929138 304.563164,118.401891 C305.094023,117.87639 305.719805,117.45564 306.444023,117.139641 C307.166484,116.823642 307.952227,116.668261 308.797734,116.668261 C309.609844,116.668261 310.369219,116.816658 311.074102,117.113453 C311.778984,117.410248 312.397734,117.824015 312.926836,118.349516 C313.455938,118.875017 313.87957,119.498286 314.195977,120.215831 C314.514141,120.933376 314.672344,121.696313 314.672344,122.50115 C314.672344,123.309479 314.52293,124.070671 314.224102,124.788216 M320.575078,117.560391 C319.887773,116.02055 318.959648,114.669261 317.795977,113.513508 C316.632305,112.356008 315.273516,111.442928 313.719609,110.779504 C312.169219,110.114335 310.527422,109.780877 308.797734,109.780877 C307.032891,109.780877 305.375273,110.123064 303.823125,110.803946 C302.269219,111.48832 300.912188,112.408384 299.746758,113.565883 C298.583086,114.721637 297.656719,116.072926 296.969414,117.614512 C296.280352,119.154353 295.93582,120.784978 295.93582,122.50115 L295.93582,140.111553 C295.970977,141.024633 296.334844,141.785824 297.022148,142.400364 C297.709453,143.011412 298.493438,143.318682 299.377617,143.318682 C300.36375,143.318682 301.193438,142.985224 301.864922,142.320055 C302.534648,141.654885 302.870391,140.86576 302.870391,139.956172 L302.870391,133.910289 C304.633477,134.786706 306.609258,135.224915 308.797734,135.224915 C310.597734,135.224915 312.283477,134.891457 313.853203,134.224542 C315.42293,133.559373 316.781719,132.648038 317.92957,131.492285 C319.075664,130.334785 319.973906,128.986988 320.62957,127.443655 C321.281719,125.902069 321.606914,124.255731 321.606914,122.50115 C321.606914,120.750061 321.264141,119.101978 320.575078,117.560391" id="Fill-28" fill="#D8138D"></path>
                </g>
            </g>
        </g>
    </g>
</svg>