<?xml version="1.0" encoding="UTF-8" standalone="no"?>
<svg width="310px" height="59px" viewBox="0 0 310 59" version="1.1" xmlns="http://www.w3.org/2000/svg" xmlns:xlink="http://www.w3.org/1999/xlink">
    <!-- Generator: Sketch 39.1 (31720) - http://www.bohemiancoding.com/sketch -->
    <title>Group 20</title>
    <desc>Created with Sketch.</desc>
    <defs></defs>
    <g id="Page-1" stroke="none" stroke-width="1" fill="none" fill-rule="evenodd">
        <g id="Detalhes_grade_1024" transform="translate(-526.000000, -927.000000)">
            <g id="Group-20" transform="translate(526.000000, 927.000000)">
                <g id="Group-12" fill="#F17824">
                    <g id="Group-4">
                        <g id="Group-14-Copy-4">
                            <rect id="Rectangle-17" x="0" y="0" width="310" height="59" rx="6"></rect>
                        </g>
                    </g>
                </g>
                <path d="M55.2246094,23.5546875 L55.2246094,30 L51.6601562,30 L51.6601562,12.2265625 L58.7402344,12.2265625 C60.7828878,12.2265625 62.3901309,12.7473906 63.5620117,13.7890625 C64.7338926,14.8307344 65.3198242,16.2019772 65.3198242,17.902832 C65.3198242,19.6036869 64.7338926,20.9708607 63.5620117,22.0043945 C62.3901309,23.0379283 60.7828878,23.5546875 58.7402344,23.5546875 L55.2246094,23.5546875 Z M55.2246094,20.8081055 L58.7402344,20.8081055 C59.7330779,20.8081055 60.4858373,20.537519 60.9985352,19.9963379 C61.511233,19.4551568 61.7675781,18.7654664 61.7675781,17.9272461 C61.7675781,17.0727496 61.5132675,16.3667834 61.0046387,15.8093262 C60.4960098,15.251869 59.7412159,14.9731445 58.7402344,14.9731445 L55.2246094,14.9731445 L55.2246094,20.8081055 Z M71.5287891,22.8955078 L71.5287891,30 L67.9643359,30 L67.9643359,12.2265625 L74.6659961,12.2265625 C76.6923734,12.2265625 78.2772371,12.6883906 79.4206348,13.6120605 C80.5640324,14.5357305 81.1357227,15.8235594 81.1357227,17.4755859 C81.1357227,18.3951869 80.8956534,19.184567 80.4155078,19.84375 C79.9353622,20.502933 79.2314304,21.035968 78.3036914,21.4428711 C79.3535013,21.7521174 80.1082952,22.2688766 80.5680957,22.9931641 C81.0278962,23.7174515 81.257793,24.6126249 81.257793,25.6787109 L81.257793,26.9848633 C81.257793,27.481285 81.324931,28.0000787 81.459209,28.5412598 C81.593487,29.0824409 81.8233838,29.4832344 82.1489062,29.7436523 L82.1489062,30 L78.4745898,30 C78.1490674,29.739582 77.937481,29.3042023 77.8398242,28.6938477 C77.7421675,28.083493 77.6933398,27.5056993 77.6933398,26.9604492 L77.6933398,25.703125 C77.6933398,24.8160763 77.4512361,24.1263859 76.9670215,23.6340332 C76.4828068,23.1416805 75.8012544,22.8955078 74.9223437,22.8955078 L71.5287891,22.8955078 Z M71.5287891,20.1489258 L74.6049609,20.1489258 C75.6059425,20.1489258 76.3525984,19.9373394 76.8449512,19.5141602 C77.3373039,19.090981 77.5834766,18.4643596 77.5834766,17.6342773 C77.5834766,16.8204712 77.3373039,16.173505 76.8449512,15.6933594 C76.3525984,15.2132137 75.6262874,14.9731445 74.6659961,14.9731445 L71.5287891,14.9731445 L71.5287891,20.1489258 Z M98.8070898,22.7124023 C98.8070898,24.8934028 98.1173995,26.6959564 96.737998,28.1201172 C95.3585966,29.544278 93.5662155,30.2563477 91.3608008,30.2563477 C89.1716622,30.2563477 87.3935225,29.544278 86.0263281,28.1201172 C84.6591338,26.6959564 83.9755469,24.8934028 83.9755469,22.7124023 L83.9755469,19.5141602 C83.9755469,17.3412977 84.6570993,15.5407786 86.0202246,14.1125488 C87.3833499,12.684319 89.1594552,11.9702148 91.3485937,11.9702148 C93.5540084,11.9702148 95.3484241,12.684319 96.7318945,14.1125488 C98.115365,15.5407786 98.8070898,17.3412977 98.8070898,19.5141602 L98.8070898,22.7124023 Z M95.2426367,19.4897461 C95.2426367,18.1062756 94.8967743,16.9710331 94.2050391,16.0839844 C93.5133038,15.1969357 92.5611649,14.753418 91.3485937,14.753418 C90.1360226,14.753418 89.1960906,15.1949012 88.5287695,16.0778809 C87.8614485,16.9608605 87.527793,18.0981376 87.527793,19.4897461 L87.527793,22.7124023 C87.527793,24.120287 87.8655175,25.2677365 88.5409766,26.1547852 C89.2164357,27.0418339 90.1563677,27.4853516 91.3608008,27.4853516 C92.58151,27.4853516 93.5336489,27.0418339 94.2172461,26.1547852 C94.9008433,25.2677365 95.2426367,24.120287 95.2426367,22.7124023 L95.2426367,19.4897461 Z M101.610293,30 L101.610293,12.2265625 L107.713809,12.2265625 C109.886671,12.2265625 111.677018,12.9203218 113.084902,14.3078613 C114.492787,15.6954008 115.196719,17.4755751 115.196719,19.6484375 L115.196719,22.590332 C115.196719,24.7713325 114.492787,26.5515068 113.084902,27.9309082 C111.677018,29.3103096 109.886671,30 107.713809,30 L101.610293,30 Z M105.174746,14.9731445 L105.174746,27.265625 L107.530703,27.265625 C108.808379,27.265625 109.809345,26.8343142 110.533633,25.9716797 C111.25792,25.1090452 111.620059,23.9819406 111.620059,22.590332 L111.620059,19.6240234 C111.620059,18.248691 111.25792,17.1297244 110.533633,16.2670898 C109.809345,15.4044553 108.808379,14.9731445 107.530703,14.9731445 L105.174746,14.9731445 Z M132.074629,12.2265625 L132.074629,24.0185547 C132.074629,26.0123798 131.415456,27.5504503 130.09709,28.6328125 C128.778724,29.7151747 127.053481,30.2563477 124.921309,30.2563477 C122.797275,30.2563477 121.082204,29.7151747 119.776045,28.6328125 C118.469886,27.5504503 117.816816,26.0123798 117.816816,24.0185547 L117.816816,12.2265625 L121.393477,12.2265625 L121.393477,24.0185547 C121.393477,25.1904355 121.706787,26.0672985 122.333418,26.6491699 C122.960049,27.2310413 123.82267,27.5219727 124.921309,27.5219727 C126.036223,27.5219727 126.911052,27.2330758 127.54582,26.6552734 C128.180589,26.0774711 128.497969,25.1985736 128.497969,24.0185547 L128.497969,12.2265625 L132.074629,12.2265625 Z M147.487695,14.9731445 L142.458398,14.9731445 L142.458398,30 L138.893945,30 L138.893945,14.9731445 L133.889062,14.9731445 L133.889062,12.2265625 L147.487695,12.2265625 L147.487695,14.9731445 Z M163.389043,22.7124023 C163.389043,24.8934028 162.699353,26.6959564 161.319951,28.1201172 C159.94055,29.544278 158.148169,30.2563477 155.942754,30.2563477 C153.753615,30.2563477 151.975476,29.544278 150.608281,28.1201172 C149.241087,26.6959564 148.5575,24.8934028 148.5575,22.7124023 L148.5575,19.5141602 C148.5575,17.3412977 149.239052,15.5407786 150.602178,14.1125488 C151.965303,12.684319 153.741408,11.9702148 155.930547,11.9702148 C158.135962,11.9702148 159.930377,12.684319 161.313848,14.1125488 C162.697318,15.5407786 163.389043,17.3412977 163.389043,19.5141602 L163.389043,22.7124023 Z M159.82459,19.4897461 C159.82459,18.1062756 159.478727,16.9710331 158.786992,16.0839844 C158.095257,15.1969357 157.143118,14.753418 155.930547,14.753418 C154.717976,14.753418 153.778044,15.1949012 153.110723,16.0778809 C152.443402,16.9608605 152.109746,18.0981376 152.109746,19.4897461 L152.109746,22.7124023 C152.109746,24.120287 152.447471,25.2677365 153.12293,26.1547852 C153.798389,27.0418339 154.738321,27.4853516 155.942754,27.4853516 C157.163463,27.4853516 158.115602,27.0418339 158.799199,26.1547852 C159.482796,25.2677365 159.82459,24.120287 159.82459,22.7124023 L159.82459,19.4897461 Z M183.363125,22.1875 L176.002285,22.1875 L176.002285,27.265625 L184.608242,27.265625 L184.608242,30 L172.437832,30 L172.437832,12.2265625 L184.583828,12.2265625 L184.583828,14.9731445 L176.002285,14.9731445 L176.002285,19.440918 L183.363125,19.440918 L183.363125,22.1875 Z M196.408027,25.3613281 C196.408027,24.677731 196.165924,24.12842 195.681709,23.7133789 C195.197494,23.2983378 194.349114,22.9077167 193.136543,22.5415039 C191.020647,21.9311493 189.421542,21.2068727 188.33918,20.3686523 C187.256818,19.530432 186.715645,18.3829825 186.715645,16.9262695 C186.715645,15.4695565 187.336162,14.2793829 188.577217,13.3557129 C189.818271,12.4320429 191.403135,11.9702148 193.331855,11.9702148 C195.28499,11.9702148 196.875957,12.4890085 198.104805,13.5266113 C199.333652,14.5642142 199.927722,15.8439052 199.887031,17.3657227 L199.862617,17.4389648 L196.408027,17.4389648 C196.408027,16.6170206 196.133372,15.9517441 195.584053,15.4431152 C195.034734,14.9344864 194.263664,14.6801758 193.27082,14.6801758 C192.318667,14.6801758 191.582184,14.8917622 191.061348,15.3149414 C190.540512,15.7381206 190.280098,16.2792936 190.280098,16.9384766 C190.280098,17.5406931 190.558822,18.0350729 191.116279,18.4216309 C191.673737,18.8081888 192.636048,19.2171202 194.003242,19.6484375 C195.964515,20.1936876 197.449689,20.9138953 198.458809,21.809082 C199.467928,22.7042688 199.97248,23.880201 199.97248,25.3369141 C199.97248,26.8587316 199.372307,28.0590776 198.171943,28.9379883 C196.971579,29.8168989 195.386716,30.2563477 193.417305,30.2563477 C191.480446,30.2563477 189.791824,29.7578989 188.351387,28.7609863 C186.91095,27.7640738 186.211087,26.3663827 186.251777,24.5678711 L186.276191,24.4946289 L189.742988,24.4946289 C189.742988,25.5525769 190.066471,26.3277156 190.713447,26.8200684 C191.360423,27.3124211 192.2617,27.5585938 193.417305,27.5585938 C194.385734,27.5585938 195.126286,27.3592142 195.638984,26.9604492 C196.151682,26.5616842 196.408027,26.0286492 196.408027,25.3613281 L196.408027,25.3613281 Z M216.337695,27.5708008 C215.808721,28.2706741 214.984755,28.8932264 213.865771,29.4384766 C212.746788,29.9837267 211.332821,30.2563477 209.623828,30.2563477 C207.450966,30.2563477 205.676895,29.5808987 204.301562,28.2299805 C202.92623,26.8790623 202.238574,25.1253363 202.238574,22.96875 L202.238574,19.2578125 C202.238574,17.1093643 202.899782,15.3576728 204.222217,14.0026855 C205.544652,12.6476983 207.247516,11.9702148 209.330859,11.9702148 C211.495584,11.9702148 213.153689,12.4971464 214.305225,13.5510254 C215.45676,14.6049044 216.044726,15.9903885 216.069141,17.7075195 L216.044727,17.7807617 L212.687793,17.7807617 C212.622688,16.8367466 212.321585,16.0900906 211.784473,15.5407715 C211.247361,14.9914523 210.462049,14.7167969 209.428516,14.7167969 C208.338015,14.7167969 207.459118,15.1379352 206.791797,15.9802246 C206.124476,16.822514 205.79082,17.9068944 205.79082,19.2333984 L205.79082,22.96875 C205.79082,24.3196682 206.136683,25.4162556 206.828418,26.2585449 C207.520153,27.1008343 208.451947,27.5219727 209.623828,27.5219727 C210.45391,27.5219727 211.121221,27.4365243 211.625781,27.265625 C212.130341,27.0947257 212.512824,26.8831393 212.773242,26.6308594 L212.773242,23.3349609 L209.623828,23.3349609 L209.623828,20.8691406 L216.337695,20.8691406 L216.337695,27.5708008 Z M233.716094,22.7124023 C233.716094,24.8934028 233.026403,26.6959564 231.647002,28.1201172 C230.267601,29.544278 228.475219,30.2563477 226.269805,30.2563477 C224.080666,30.2563477 222.302526,29.544278 220.935332,28.1201172 C219.568138,26.6959564 218.884551,24.8934028 218.884551,22.7124023 L218.884551,19.5141602 C218.884551,17.3412977 219.566103,15.5407786 220.929229,14.1125488 C222.292354,12.684319 224.068459,11.9702148 226.257598,11.9702148 C228.463012,11.9702148 230.257428,12.684319 231.640898,14.1125488 C233.024369,15.5407786 233.716094,17.3412977 233.716094,19.5141602 L233.716094,22.7124023 Z M230.151641,19.4897461 C230.151641,18.1062756 229.805778,16.9710331 229.114043,16.0839844 C228.422308,15.1969357 227.470169,14.753418 226.257598,14.753418 C225.045026,14.753418 224.105094,15.1949012 223.437773,16.0778809 C222.770452,16.9608605 222.436797,18.0981376 222.436797,19.4897461 L222.436797,22.7124023 C222.436797,24.120287 222.774521,25.2677365 223.44998,26.1547852 C224.12544,27.0418339 225.065372,27.4853516 226.269805,27.4853516 C227.490514,27.4853516 228.442653,27.0418339 229.12625,26.1547852 C229.809847,25.2677365 230.151641,24.120287 230.151641,22.7124023 L230.151641,19.4897461 Z M248.421152,14.9731445 L243.391855,14.9731445 L243.391855,30 L239.827402,30 L239.827402,14.9731445 L234.82252,14.9731445 L234.82252,12.2265625 L248.421152,12.2265625 L248.421152,14.9731445 Z M258.743887,26.1669922 L252.506094,26.1669922 L251.297598,30 L247.696523,30 L253.812246,12.2265625 L257.462148,12.2265625 L263.553457,30 L259.952383,30 L258.743887,26.1669922 Z M253.385,23.371582 L257.86498,23.371582 L255.667715,16.3891602 L255.594473,16.3891602 L253.385,23.371582 Z M265.233613,30 L265.233613,12.2265625 L271.337129,12.2265625 C273.509991,12.2265625 275.300338,12.9203218 276.708223,14.3078613 C278.116107,15.6954008 278.820039,17.4755751 278.820039,19.6484375 L278.820039,22.590332 C278.820039,24.7713325 278.116107,26.5515068 276.708223,27.9309082 C275.300338,29.3103096 273.509991,30 271.337129,30 L265.233613,30 Z M268.798066,14.9731445 L268.798066,27.265625 L271.154023,27.265625 C272.431699,27.265625 273.432666,26.8343142 274.156953,25.9716797 C274.881241,25.1090452 275.243379,23.9819406 275.243379,22.590332 L275.243379,19.6240234 C275.243379,18.248691 274.881241,17.1297244 274.156953,16.2670898 C273.432666,15.4044553 272.431699,14.9731445 271.154023,14.9731445 L268.798066,14.9731445 Z M295.929883,22.7124023 C295.929883,24.8934028 295.240192,26.6959564 293.860791,28.1201172 C292.48139,29.544278 290.689008,30.2563477 288.483594,30.2563477 C286.294455,30.2563477 284.516315,29.544278 283.149121,28.1201172 C281.781927,26.6959564 281.09834,24.8934028 281.09834,22.7124023 L281.09834,19.5141602 C281.09834,17.3412977 281.779892,15.5407786 283.143018,14.1125488 C284.506143,12.684319 286.282248,11.9702148 288.471387,11.9702148 C290.676801,11.9702148 292.471217,12.684319 293.854687,14.1125488 C295.238158,15.5407786 295.929883,17.3412977 295.929883,19.5141602 L295.929883,22.7124023 Z M292.36543,19.4897461 C292.36543,18.1062756 292.019567,16.9710331 291.327832,16.0839844 C290.636097,15.1969357 289.683958,14.753418 288.471387,14.753418 C287.258816,14.753418 286.318884,15.1949012 285.651562,16.0778809 C284.984241,16.9608605 284.650586,18.0981376 284.650586,19.4897461 L284.650586,22.7124023 C284.650586,24.120287 284.98831,25.2677365 285.66377,26.1547852 C286.339229,27.0418339 287.279161,27.4853516 288.483594,27.4853516 C289.704303,27.4853516 290.656442,27.0418339 291.340039,26.1547852 C292.023636,25.2677365 292.36543,24.120287 292.36543,22.7124023 L292.36543,19.4897461 Z" id="PRODUTO-ESGOTADO" fill="#FFFFFF"></path>
                <path d="M57.1015625,48 C57.0429685,47.7128892 56.9975588,47.4594738 56.965332,47.2397461 C56.9331053,47.0200184 56.9140625,46.7988292 56.9082031,46.5761719 C56.5859359,47.0332054 56.1655299,47.4155258 55.6469727,47.7231445 C55.1284154,48.0307633 54.5703155,48.1845703 53.9726562,48.1845703 C52.9824169,48.1845703 52.2280299,47.9311549 51.7094727,47.4243164 C51.1909154,46.9174779 50.9316406,46.2187545 50.9316406,45.328125 C50.9316406,44.4199173 51.2993127,43.7094752 52.034668,43.1967773 C52.7700232,42.6840795 53.7675718,42.4277344 55.0273438,42.4277344 L56.9082031,42.4277344 L56.9082031,41.4873047 C56.9082031,40.9306613 56.7382829,40.4897477 56.3984375,40.1645508 C56.0585921,39.8393538 55.5781281,39.6767578 54.9570312,39.6767578 C54.4003878,39.6767578 53.9477556,39.8188462 53.5991211,40.1030273 C53.2504865,40.3872085 53.0761719,40.7285136 53.0761719,41.1269531 L51.4238281,41.1269531 L51.40625,41.0742188 C51.3710936,40.382809 51.6977505,39.7500029 52.3862305,39.1757812 C53.0747105,38.6015596 53.9638617,38.3144531 55.0537109,38.3144531 C56.1318413,38.3144531 56.9990202,38.5883762 57.6552734,39.1362305 C58.3115267,39.6840848 58.6396484,40.4736277 58.6396484,41.5048828 L58.6396484,46.0839844 C58.6396484,46.4238298 58.6572264,46.7519515 58.6923828,47.0683594 C58.7275392,47.3847672 58.7919917,47.695311 58.8857422,48 L57.1015625,48 Z M54.2275391,46.734375 C54.8544953,46.734375 55.4199194,46.5732438 55.9238281,46.2509766 C56.4277369,45.9287093 56.7558586,45.5595724 56.9082031,45.1435547 L56.9082031,43.5966797 L54.9658203,43.5966797 C54.2685512,43.5966797 53.7104513,43.7724592 53.2915039,44.1240234 C52.8725565,44.4755877 52.6630859,44.8886695 52.6630859,45.3632812 C52.6630859,45.7851584 52.7949206,46.1191394 53.0585938,46.3652344 C53.3222669,46.6113294 53.7119115,46.734375 54.2275391,46.734375 L54.2275391,46.734375 Z M64.7163359,45.1962891 L64.86575,45.8642578 L64.9184843,45.8642578 L65.0854765,45.1962891 L67.2739531,38.4902344 L69.0405546,38.4902344 L65.5425078,48 L64.2329375,48 L60.6909453,38.4902344 L62.4663359,38.4902344 L64.7163359,45.1962891 Z M72.990289,48 L71.2588437,48 L71.2588437,38.4902344 L72.990289,38.4902344 L72.990289,48 Z M72.990289,36.0556641 L71.2588437,36.0556641 L71.2588437,34.2890625 L72.990289,34.2890625 L72.990289,36.0556641 Z M81.7036952,45.4775391 C81.7036952,45.0966778 81.5586771,44.7832044 81.2686366,44.5371094 C80.9785961,44.2910144 80.4292852,44.0771493 79.6206874,43.8955078 C78.4663847,43.6435534 77.5977411,43.3022482 77.0147303,42.871582 C76.4317196,42.4409158 76.1402186,41.8535193 76.1402186,41.109375 C76.1402186,40.3359336 76.4683403,39.6767605 77.1245936,39.1318359 C77.7808469,38.5869113 78.6363071,38.3144531 79.6909999,38.3144531 C80.7984273,38.3144531 81.6787896,38.59863 82.3321131,39.1669922 C82.9854367,39.7353544 83.2974453,40.4267537 83.2681483,41.2412109 L83.2505702,41.2939453 L81.5982264,41.2939453 C81.5982264,40.8779276 81.4239118,40.5043962 81.0752772,40.1733398 C80.7266427,39.8422835 80.2652215,39.6767578 79.6909999,39.6767578 C79.0757624,39.6767578 78.6187357,39.8115221 78.3199061,40.0810547 C78.0210765,40.3505873 77.8716639,40.6757793 77.8716639,41.0566406 C77.8716639,41.4316425 78.0034985,41.727538 78.2671717,41.9443359 C78.5308449,42.1611339 79.0669724,42.3544913 79.8755702,42.5244141 C81.0767481,42.7822279 81.9702938,43.132322 82.5562342,43.574707 C83.1421747,44.0170921 83.4351405,44.6103478 83.4351405,45.3544922 C83.4351405,46.1982464 83.0938353,46.8808568 82.4112147,47.4023438 C81.7285941,47.9238307 80.8365132,48.1845703 79.7349452,48.1845703 C78.5220485,48.1845703 77.5669799,47.8769562 76.8697108,47.2617188 C76.1724417,46.6464813 75.8413903,45.928715 75.8765467,45.1083984 L75.8941249,45.0556641 L77.5464686,45.0556641 C77.5757656,45.6709015 77.804279,46.120604 78.2320155,46.4047852 C78.659752,46.6889663 79.1607236,46.8310547 79.7349452,46.8310547 C80.3501826,46.8310547 80.8321114,46.7065442 81.180746,46.4575195 C81.5293805,46.2084948 81.7036952,45.881838 81.7036952,45.4775391 L81.7036952,45.4775391 Z M90.0567498,48.1845703 C88.7325244,48.1845703 87.6793123,47.7436568 86.8970819,46.8618164 C86.1148514,45.9799761 85.723742,44.8359445 85.723742,43.4296875 L85.723742,43.0429688 C85.723742,41.6894464 86.12657,40.5629928 86.9322381,39.6635742 C87.7379062,38.7641557 88.6915099,38.3144531 89.7930779,38.3144531 C91.0762875,38.3144531 92.0460044,38.701168 92.7022576,39.4746094 C93.3585109,40.2480507 93.6866326,41.2792904 93.6866326,42.5683594 L93.6866326,43.6494141 L87.5167108,43.6494141 L87.4903436,43.6933594 C87.5079218,44.6074264 87.7393648,45.3588838 88.1846795,45.9477539 C88.6299942,46.536624 89.2540114,46.8310547 90.0567498,46.8310547 C90.6426903,46.8310547 91.1568453,46.7475594 91.5992303,46.5805664 C92.0416153,46.4135734 92.4239357,46.1835952 92.7462029,45.890625 L93.4229608,47.015625 C93.0831153,47.349611 92.6348776,47.6279286 92.0782342,47.8505859 C91.5215908,48.0732433 90.8477694,48.1845703 90.0567498,48.1845703 L90.0567498,48.1845703 Z M89.7930779,39.6767578 C89.2129969,39.6767578 88.7178847,39.9213843 88.3077264,40.4106445 C87.8975681,40.8999048 87.6456175,41.5136682 87.551867,42.2519531 L87.5694451,42.2958984 L91.9551873,42.2958984 L91.9551873,42.0673828 C91.9551873,41.3876919 91.7735485,40.8193382 91.4102654,40.3623047 C91.0469824,39.9052712 90.5079253,39.6767578 89.7930779,39.6767578 L89.7930779,39.6767578 Z M99.5084373,43.2714844 L95.2017967,43.2714844 L95.2017967,41.9179688 L99.5084373,41.9179688 L99.5084373,43.2714844 Z M103.150554,38.4902344 L103.273601,39.7382812 C103.58415,39.2871071 103.978189,38.937013 104.45573,38.6879883 C104.933272,38.4389636 105.488442,38.3144531 106.121258,38.3144531 C106.754073,38.3144531 107.297525,38.460936 107.751629,38.7539062 C108.205732,39.0468765 108.547038,39.4863252 108.775554,40.0722656 C109.074384,39.5332004 109.469888,39.1054703 109.962078,38.7890625 C110.454268,38.4726547 111.028481,38.3144531 111.684734,38.3144531 C112.651536,38.3144531 113.416177,38.6469693 113.978679,39.3120117 C114.541182,39.9770541 114.822429,40.9775324 114.822429,42.3134766 L114.822429,48 L113.090984,48 L113.090984,42.2958984 C113.090984,41.3583938 112.929853,40.6948262 112.607586,40.3051758 C112.285318,39.9155254 111.804854,39.7207031 111.166179,39.7207031 C110.57438,39.7207031 110.09538,39.9257792 109.729168,40.3359375 C109.362955,40.7460958 109.147625,41.2646453 109.083172,41.8916016 L109.083172,41.9619141 L109.083172,48 L107.342937,48 L107.342937,42.2958984 C107.342937,41.405269 107.177412,40.75342 106.846355,40.340332 C106.515299,39.927244 106.039229,39.7207031 105.418133,39.7207031 C104.890786,39.7207031 104.457197,39.8291005 104.117351,40.0458984 C103.777506,40.2626964 103.516766,40.5673808 103.335125,40.9599609 L103.335125,48 L101.603679,48 L101.603679,38.4902344 L103.150554,38.4902344 Z M121.80439,48.1845703 C120.480165,48.1845703 119.426953,47.7436568 118.644722,46.8618164 C117.862492,45.9799761 117.471382,44.8359445 117.471382,43.4296875 L117.471382,43.0429688 C117.471382,41.6894464 117.874211,40.5629928 118.679879,39.6635742 C119.485547,38.7641557 120.43915,38.3144531 121.540718,38.3144531 C122.823928,38.3144531 123.793645,38.701168 124.449898,39.4746094 C125.106151,40.2480507 125.434273,41.2792904 125.434273,42.5683594 L125.434273,43.6494141 L119.264351,43.6494141 L119.237984,43.6933594 C119.255562,44.6074264 119.487005,45.3588838 119.93232,45.9477539 C120.377635,46.536624 121.001652,46.8310547 121.80439,46.8310547 C122.390331,46.8310547 122.904486,46.7475594 123.346871,46.5805664 C123.789256,46.4135734 124.171576,46.1835952 124.493843,45.890625 L125.170601,47.015625 C124.830756,47.349611 124.382518,47.6279286 123.825875,47.8505859 C123.269231,48.0732433 122.59541,48.1845703 121.80439,48.1845703 L121.80439,48.1845703 Z M121.540718,39.6767578 C120.960637,39.6767578 120.465525,39.9213843 120.055367,40.4106445 C119.645209,40.8999048 119.393258,41.5136682 119.299507,42.2519531 L119.317086,42.2958984 L123.702828,42.2958984 L123.702828,42.0673828 C123.702828,41.3876919 123.521189,40.8193382 123.157906,40.3623047 C122.794623,39.9052712 122.255566,39.6767578 121.540718,39.6767578 L121.540718,39.6767578 Z M132.498781,43.4208984 C132.498781,41.8915939 132.825438,40.6582078 133.478761,39.7207031 C134.132085,38.7831984 135.047603,38.3144531 136.225343,38.3144531 C136.805424,38.3144531 137.315185,38.4243153 137.75464,38.644043 C138.194096,38.8637706 138.566162,39.1845682 138.870851,39.6064453 L139.125734,38.4902344 L140.444093,38.4902344 L140.444093,51.65625 L138.712648,51.65625 L138.712648,47.1035156 C138.407959,47.4609393 138.047611,47.7304678 137.631593,47.9121094 C137.215576,48.0937509 136.740971,48.1845703 136.207765,48.1845703 C135.047603,48.1845703 134.139409,47.7641644 133.483156,46.9233398 C132.826903,46.0825153 132.498781,44.9765694 132.498781,43.6054688 L132.498781,43.4208984 Z M134.230226,43.6054688 C134.230226,44.5664111 134.427978,45.3442353 134.823488,45.9389648 C135.218998,46.5336944 135.826902,46.8310547 136.647218,46.8310547 C137.12183,46.8310547 137.527588,46.725587 137.864504,46.5146484 C138.201419,46.3037099 138.484131,46.0078144 138.712648,45.6269531 L138.712648,40.828125 C138.484131,40.4707013 138.201419,40.1894542 137.864504,39.984375 C137.527588,39.7792958 137.127689,39.6767578 136.664796,39.6767578 C135.83862,39.6767578 135.226322,40.026852 134.827882,40.7270508 C134.429443,41.4272496 134.230226,42.3251898 134.230226,43.4208984 L134.230226,43.6054688 Z M149.684843,46.59375 C149.386014,47.1035182 149.002228,47.4960924 148.533476,47.7714844 C148.064724,48.0468764 147.522737,48.1845703 146.9075,48.1845703 C145.870385,48.1845703 145.061799,47.8535189 144.481718,47.1914062 C143.901637,46.5292936 143.611601,45.4980539 143.611601,44.0976562 L143.611601,38.4902344 L145.343046,38.4902344 L145.343046,44.1152344 C145.343046,45.1289113 145.492459,45.82617 145.791289,46.2070312 C146.090118,46.5878925 146.555934,46.7783203 147.18875,46.7783203 C147.803987,46.7783203 148.312283,46.6538098 148.713652,46.4047852 C149.115021,46.1557605 149.418241,45.8027367 149.62332,45.3457031 L149.62332,38.4902344 L151.354765,38.4902344 L151.354765,48 L149.799101,48 L149.684843,46.59375 Z M160.243953,48 C160.185359,47.7128892 160.139949,47.4594738 160.107722,47.2397461 C160.075495,47.0200184 160.056453,46.7988292 160.050593,46.5761719 C159.728326,47.0332054 159.30792,47.4155258 158.789363,47.7231445 C158.270806,48.0307633 157.712706,48.1845703 157.115046,48.1845703 C156.124807,48.1845703 155.37042,47.9311549 154.851863,47.4243164 C154.333306,46.9174779 154.074031,46.2187545 154.074031,45.328125 C154.074031,44.4199173 154.441703,43.7094752 155.177058,43.1967773 C155.912413,42.6840795 156.909962,42.4277344 158.169734,42.4277344 L160.050593,42.4277344 L160.050593,41.4873047 C160.050593,40.9306613 159.880673,40.4897477 159.540828,40.1645508 C159.200982,39.8393538 158.720518,39.6767578 158.099421,39.6767578 C157.542778,39.6767578 157.090146,39.8188462 156.741511,40.1030273 C156.392877,40.3872085 156.218562,40.7285136 156.218562,41.1269531 L154.566218,41.1269531 L154.54864,41.0742188 C154.513484,40.382809 154.840141,39.7500029 155.528621,39.1757812 C156.217101,38.6015596 157.106252,38.3144531 158.196101,38.3144531 C159.274231,38.3144531 160.14141,38.5883762 160.797664,39.1362305 C161.453917,39.6840848 161.782039,40.4736277 161.782039,41.5048828 L161.782039,46.0839844 C161.782039,46.4238298 161.799617,46.7519515 161.834773,47.0683594 C161.869929,47.3847672 161.934382,47.695311 162.028132,48 L160.243953,48 Z M157.369929,46.734375 C157.996885,46.734375 158.562309,46.5732438 159.066218,46.2509766 C159.570127,45.9287093 159.898249,45.5595724 160.050593,45.1435547 L160.050593,43.5966797 L158.10821,43.5966797 C157.410941,43.5966797 156.852841,43.7724592 156.433894,44.1240234 C156.014947,44.4755877 155.805476,44.8886695 155.805476,45.3632812 C155.805476,45.7851584 155.937311,46.1191394 156.200984,46.3652344 C156.464657,46.6113294 156.854302,46.734375 157.369929,46.734375 L157.369929,46.734375 Z M166.364585,38.4902344 L166.487632,39.9052734 C166.80404,39.4013647 167.201009,39.0102553 167.67855,38.7319336 C168.156092,38.4536119 168.699543,38.3144531 169.308921,38.3144531 C170.334317,38.3144531 171.128254,38.6147431 171.690757,39.215332 C172.25326,39.815921 172.534507,40.7431578 172.534507,41.9970703 L172.534507,48 L170.803062,48 L170.803062,42.0322266 C170.803062,41.1943317 170.637536,40.5996111 170.30648,40.2480469 C169.975424,39.8964826 169.470058,39.7207031 168.790367,39.7207031 C168.292317,39.7207031 167.851404,39.8408191 167.467613,40.0810547 C167.083822,40.3212903 166.777672,40.649412 166.549156,41.0654297 L166.549156,48 L164.81771,48 L164.81771,38.4902344 L166.364585,38.4902344 Z M175.174671,43.4208984 C175.174671,41.8915939 175.501328,40.6582078 176.154652,39.7207031 C176.807975,38.7831984 177.723494,38.3144531 178.901234,38.3144531 C179.457877,38.3144531 179.951525,38.4169912 180.382191,38.6220703 C180.812857,38.8271495 181.180529,39.1259746 181.485218,39.5185547 L181.485218,34.2890625 L183.216663,34.2890625 L183.216663,48 L181.801624,48 L181.599476,46.8310547 C181.288928,47.2763694 180.908072,47.6132801 180.456898,47.8417969 C180.005724,48.0703136 179.481315,48.1845703 178.883656,48.1845703 C177.723494,48.1845703 176.8153,47.7641644 176.159046,46.9233398 C175.502793,46.0825153 175.174671,44.9765694 175.174671,43.6054688 L175.174671,43.4208984 Z M176.906117,43.6054688 C176.906117,44.5664111 177.102404,45.3354463 177.494984,45.9125977 C177.887564,46.489749 178.496933,46.7783203 179.323109,46.7783203 C179.838736,46.7783203 180.272326,46.661134 180.62389,46.4267578 C180.975454,46.1923816 181.262561,45.8642599 181.485218,45.4423828 L181.485218,41.0039062 C181.262561,40.6113262 180.973989,40.2993176 180.619496,40.0678711 C180.265002,39.8364246 179.838736,39.7207031 179.340687,39.7207031 C178.508652,39.7207031 177.894888,40.0634731 177.499378,40.7490234 C177.103869,41.4345737 176.906117,42.3251898 176.906117,43.4208984 L176.906117,43.6054688 Z M185.918351,43.1572266 C185.918351,41.7509695 186.299207,40.5922897 187.060929,39.6811523 C187.822652,38.770015 188.856821,38.3144531 190.163468,38.3144531 C191.481834,38.3144531 192.523328,38.7685501 193.28798,39.6767578 C194.052632,40.5849655 194.434952,41.7451101 194.434952,43.1572266 L194.434952,43.3505859 C194.434952,44.7685618 194.054097,45.9287064 193.292374,46.8310547 C192.530652,47.7334029 191.493553,48.1845703 190.181046,48.1845703 C188.86854,48.1845703 187.829976,47.7319381 187.065324,46.8266602 C186.300671,45.9213822 185.918351,44.7627024 185.918351,43.3505859 L185.918351,43.1572266 Z M187.649796,43.3505859 C187.649796,44.3584035 187.862196,45.1904264 188.287003,45.8466797 C188.71181,46.502933 189.343151,46.8310547 190.181046,46.8310547 C191.007222,46.8310547 191.634169,46.502933 192.061906,45.8466797 C192.489642,45.1904264 192.703507,44.3584035 192.703507,43.3505859 L192.703507,43.1572266 C192.703507,42.1611278 192.488177,41.3320346 192.057511,40.6699219 C191.626845,40.0078092 190.995504,39.6767578 190.163468,39.6767578 C189.337292,39.6767578 188.71181,40.0078092 188.287003,40.6699219 C187.862196,41.3320346 187.649796,42.1611278 187.649796,43.1572266 L187.649796,43.3505859 Z M201.675241,43.4208984 C201.675241,41.8915939 202.001898,40.6582078 202.655222,39.7207031 C203.308546,38.7831984 204.224064,38.3144531 205.401804,38.3144531 C205.958447,38.3144531 206.452095,38.4169912 206.882761,38.6220703 C207.313427,38.8271495 207.681099,39.1259746 207.985788,39.5185547 L207.985788,34.2890625 L209.717234,34.2890625 L209.717234,48 L208.302195,48 L208.100046,46.8310547 C207.789498,47.2763694 207.408642,47.6132801 206.957468,47.8417969 C206.506294,48.0703136 205.981885,48.1845703 205.384226,48.1845703 C204.224064,48.1845703 203.31587,47.7641644 202.659616,46.9233398 C202.003363,46.0825153 201.675241,44.9765694 201.675241,43.6054688 L201.675241,43.4208984 Z M203.406687,43.6054688 C203.406687,44.5664111 203.602974,45.3354463 203.995554,45.9125977 C204.388134,46.489749 204.997503,46.7783203 205.823679,46.7783203 C206.339307,46.7783203 206.772896,46.661134 207.12446,46.4267578 C207.476024,46.1923816 207.763131,45.8642599 207.985788,45.4423828 L207.985788,41.0039062 C207.763131,40.6113262 207.47456,40.2993176 207.120066,40.0678711 C206.765572,39.8364246 206.339306,39.7207031 205.841257,39.7207031 C205.009222,39.7207031 204.395458,40.0634731 203.999949,40.7490234 C203.604439,41.4345737 203.406687,42.3251898 203.406687,43.4208984 L203.406687,43.6054688 Z M214.695288,48 L212.963843,48 L212.963843,38.4902344 L214.695288,38.4902344 L214.695288,48 Z M214.695288,36.0556641 L212.963843,36.0556641 L212.963843,34.2890625 L214.695288,34.2890625 L214.695288,36.0556641 Z M223.408695,45.4775391 C223.408695,45.0966778 223.263676,44.7832044 222.973636,44.5371094 C222.683595,44.2910144 222.134284,44.0771493 221.325687,43.8955078 C220.171384,43.6435534 219.30274,43.3022482 218.71973,42.871582 C218.136719,42.4409158 217.845218,41.8535193 217.845218,41.109375 C217.845218,40.3359336 218.17334,39.6767605 218.829593,39.1318359 C219.485846,38.5869113 220.341306,38.3144531 221.395999,38.3144531 C222.503427,38.3144531 223.383789,38.59863 224.037112,39.1669922 C224.690436,39.7353544 225.002445,40.4267537 224.973148,41.2412109 L224.95557,41.2939453 L223.303226,41.2939453 C223.303226,40.8779276 223.128911,40.5043962 222.780277,40.1733398 C222.431642,39.8422835 221.970221,39.6767578 221.395999,39.6767578 C220.780762,39.6767578 220.323735,39.8115221 220.024905,40.0810547 C219.726076,40.3505873 219.576663,40.6757793 219.576663,41.0566406 C219.576663,41.4316425 219.708498,41.727538 219.972171,41.9443359 C220.235844,42.1611339 220.771972,42.3544913 221.58057,42.5244141 C222.781747,42.7822279 223.675293,43.132322 224.261234,43.574707 C224.847174,44.0170921 225.14014,44.6103478 225.14014,45.3544922 C225.14014,46.1982464 224.798835,46.8808568 224.116214,47.4023438 C223.433593,47.9238307 222.541513,48.1845703 221.439945,48.1845703 C220.227048,48.1845703 219.271979,47.8769562 218.57471,47.2617188 C217.877441,46.6464813 217.54639,45.928715 217.581546,45.1083984 L217.599124,45.0556641 L219.251468,45.0556641 C219.280765,45.6709015 219.509278,46.120604 219.937015,46.4047852 C220.364751,46.6889663 220.865723,46.8310547 221.439945,46.8310547 C222.055182,46.8310547 222.537111,46.7065442 222.885745,46.4575195 C223.23438,46.2084948 223.408695,45.881838 223.408695,45.4775391 L223.408695,45.4775391 Z M235.918976,43.6054688 C235.918976,44.9765694 235.590854,46.0825153 234.934601,46.9233398 C234.278347,47.7641644 233.373083,48.1845703 232.21878,48.1845703 C231.63284,48.1845703 231.118685,48.0864268 230.6763,47.8901367 C230.233915,47.6938467 229.857454,47.399416 229.546905,47.0068359 L229.546905,51.65625 L227.81546,51.65625 L227.81546,38.4902344 L229.142609,38.4902344 L229.415069,39.7207031 C229.725618,39.2636696 230.112333,38.9150403 230.575226,38.6748047 C231.038119,38.4345691 231.577176,38.3144531 232.192413,38.3144531 C233.370153,38.3144531 234.285672,38.7817336 234.938995,39.7163086 C235.592319,40.6508836 235.918976,41.8857345 235.918976,43.4208984 L235.918976,43.6054688 Z M234.18753,43.4208984 C234.18753,42.342768 233.97513,41.4565464 233.550323,40.762207 C233.125517,40.0678676 232.500035,39.7207031 231.673859,39.7207031 C231.175809,39.7207031 230.751009,39.833495 230.399444,40.059082 C230.04788,40.2846691 229.763703,40.593748 229.546905,40.9863281 L229.546905,45.5830078 C229.763703,45.9755879 230.04788,46.2817372 230.399444,46.5014648 C230.751009,46.7211925 231.181668,46.8310547 231.691437,46.8310547 C232.511753,46.8310547 233.132841,46.5307647 233.554718,45.9301758 C233.976595,45.3295868 234.18753,44.5546922 234.18753,43.6054688 L234.18753,43.4208984 Z M238.163632,43.1572266 C238.163632,41.7509695 238.544487,40.5922897 239.30621,39.6811523 C240.067933,38.770015 241.102102,38.3144531 242.408749,38.3144531 C243.727115,38.3144531 244.768609,38.7685501 245.533261,39.6767578 C246.297913,40.5849655 246.680233,41.7451101 246.680233,43.1572266 L246.680233,43.3505859 C246.680233,44.7685618 246.299378,45.9287064 245.537655,46.8310547 C244.775933,47.7334029 243.738834,48.1845703 242.426327,48.1845703 C241.113821,48.1845703 240.075257,47.7319381 239.310605,46.8266602 C238.545952,45.9213822 238.163632,44.7627024 238.163632,43.3505859 L238.163632,43.1572266 Z M239.895077,43.3505859 C239.895077,44.3584035 240.107477,45.1904264 240.532284,45.8466797 C240.957091,46.502933 241.588432,46.8310547 242.426327,46.8310547 C243.252503,46.8310547 243.87945,46.502933 244.307187,45.8466797 C244.734923,45.1904264 244.948788,44.3584035 244.948788,43.3505859 L244.948788,43.1572266 C244.948788,42.1611278 244.733458,41.3320346 244.302792,40.6699219 C243.872126,40.0078092 243.240785,39.6767578 242.408749,39.6767578 C241.582573,39.6767578 240.957091,40.0078092 240.532284,40.6699219 C240.107477,41.3320346 239.895077,42.1611278 239.895077,43.1572266 L239.895077,43.3505859 Z M250.867272,38.4902344 L250.990319,39.9052734 C251.306727,39.4013647 251.703696,39.0102553 252.181237,38.7319336 C252.658779,38.4536119 253.20223,38.3144531 253.811608,38.3144531 C254.837004,38.3144531 255.630942,38.6147431 256.193444,39.215332 C256.755947,39.815921 257.037194,40.7431578 257.037194,41.9970703 L257.037194,48 L255.305749,48 L255.305749,42.0322266 C255.305749,41.1943317 255.140223,40.5996111 254.809167,40.2480469 C254.478111,39.8964826 253.972745,39.7207031 253.293054,39.7207031 C252.795004,39.7207031 252.354091,39.8408191 251.9703,40.0810547 C251.586509,40.3212903 251.28036,40.649412 251.051843,41.0654297 L251.051843,48 L249.320397,48 L249.320397,38.4902344 L250.867272,38.4902344 Z M261.892202,48 L260.160757,48 L260.160757,38.4902344 L261.892202,38.4902344 L261.892202,48 Z M261.865835,35.0009766 L263.887319,35.0009766 L263.904897,35.0537109 L261.531851,37.3388672 L260.239858,37.3388672 L261.865835,35.0009766 Z M268.294085,45.1962891 L268.443499,45.8642578 L268.496233,45.8642578 L268.663226,45.1962891 L270.851702,38.4902344 L272.618304,38.4902344 L269.120257,48 L267.810686,48 L264.268694,38.4902344 L266.044085,38.4902344 L268.294085,45.1962891 Z M278.527999,48.1845703 C277.203774,48.1845703 276.150561,47.7436568 275.368331,46.8618164 C274.5861,45.9799761 274.194991,44.8359445 274.194991,43.4296875 L274.194991,43.0429688 C274.194991,41.6894464 274.597819,40.5629928 275.403487,39.6635742 C276.209155,38.7641557 277.162759,38.3144531 278.264327,38.3144531 C279.547537,38.3144531 280.517253,38.701168 281.173507,39.4746094 C281.82976,40.2480507 282.157882,41.2792904 282.157882,42.5683594 L282.157882,43.6494141 L275.98796,43.6494141 L275.961593,43.6933594 C275.979171,44.6074264 276.210614,45.3588838 276.655929,45.9477539 C277.101243,46.536624 277.725261,46.8310547 278.527999,46.8310547 C279.113939,46.8310547 279.628094,46.7475594 280.070479,46.5805664 C280.512864,46.4135734 280.895185,46.1835952 281.217452,45.890625 L281.89421,47.015625 C281.554364,47.349611 281.106127,47.6279286 280.549483,47.8505859 C279.99284,48.0732433 279.319019,48.1845703 278.527999,48.1845703 L278.527999,48.1845703 Z M278.264327,39.6767578 C277.684246,39.6767578 277.189134,39.9213843 276.778975,40.4106445 C276.368817,40.8999048 276.116867,41.5136682 276.023116,42.2519531 L276.040694,42.2958984 L280.426436,42.2958984 L280.426436,42.0673828 C280.426436,41.3876919 280.244798,40.8193382 279.881515,40.3623047 C279.518231,39.9052712 278.979174,39.6767578 278.264327,39.6767578 L278.264327,39.6767578 Z M286.494335,48 L284.76289,48 L284.76289,34.2890625 L286.494335,34.2890625 L286.494335,48 Z" id="avise-me-quando-disp" fill="#FFFFFF"></path>
                <g id="Group-11" transform="translate(11.000000, 14.000000)">
                    <rect id="Rectangle-55" fill="#D6600D" transform="translate(16.154670, 16.154670) rotate(45.000000) translate(-16.154670, -16.154670) " x="12.346978" y="-2.88379123" width="7.61538462" height="38.0769231"></rect>
                    <rect id="Rectangle-55-Copy" fill="#D7600D" transform="translate(16.154670, 16.154670) rotate(-45.000000) translate(-16.154670, -16.154670) " x="12.346978" y="-2.88379123" width="7.61538462" height="38.0769231"></rect>
                </g>
            </g>
        </g>
    </g>
</svg>