<?xml version="1.0" encoding="UTF-8" standalone="no"?>
<svg width="233px" height="41px" viewBox="0 0 233 41" version="1.1" xmlns="http://www.w3.org/2000/svg" xmlns:xlink="http://www.w3.org/1999/xlink">
    <!-- Generator: Sketch 39.1 (31720) - http://www.bohemiancoding.com/sketch -->
    <title>Group 2 Copy</title>
    <desc>Created with Sketch.</desc>
    <defs></defs>
    <g id="Page-1" stroke="none" stroke-width="1" fill="none" fill-rule="evenodd">
        <g id="Carrinho-768" transform="translate(-498.000000, -491.000000)">
            <g id="Group-2-Copy" transform="translate(498.000000, 491.000000)">
                <g id="Group-14">
                    <rect id="Rectangle-11" fill="#52D14C" x="0" y="0" width="233" height="41" rx="6"></rect>
                    <path d="M72.9195133,22.5071786 L72.9409977,22.5716317 C72.9696436,24.2545828 72.4558141,25.5883911 71.3994938,26.5730966 C70.3431734,27.557802 68.8768794,28.0501473 67.000568,28.0501473 C65.117095,28.0501473 63.5881389,27.4450102 62.4136539,26.2347177 C61.2391689,25.0244251 60.6519352,23.4668235 60.6519352,21.5618661 L60.6519352,18.4573739 C60.6519352,16.559578 61.2248461,15.0019763 62.3706852,13.7845223 C63.5165242,12.5670683 65.0060927,11.9583505 66.8394352,11.9583505 C68.7730386,11.9583505 70.2840912,12.4542765 71.3726383,13.4461434 C72.4611854,14.4380104 72.991128,15.7897221 72.962482,17.5013192 L72.9409977,17.5657723 L69.8902164,17.5657723 C69.8902164,16.5345172 69.6431486,15.7449743 69.1490055,15.19712 C68.6548624,14.6492657 67.8850133,14.3753427 66.8394352,14.3753427 C65.9012794,14.3753427 65.1564952,14.7566865 64.6050602,15.5193856 C64.0536251,16.2820847 63.7779117,17.254243 63.7779117,18.4358895 L63.7779117,21.5618661 C63.7779117,22.7578356 64.0679479,23.7371552 64.6480289,24.4998544 C65.2281099,25.2625535 66.0122818,25.6438973 67.000568,25.6438973 C67.9816927,25.6438973 68.7067831,25.3807164 69.1758609,24.8543466 C69.6449388,24.3279767 69.8794742,23.5455952 69.8794742,22.5071786 L72.9195133,22.5071786 Z M88.3924742,21.4114755 C88.3924742,23.3307559 87.7855467,24.9170031 86.5716734,26.1702645 C85.3578001,27.423526 83.7805047,28.0501473 81.8397398,28.0501473 C79.9132979,28.0501473 78.3485349,27.423526 77.1454039,26.1702645 C75.9422728,24.9170031 75.3407164,23.3307559 75.3407164,21.4114755 L75.3407164,18.5970223 C75.3407164,16.6849034 75.9404825,15.1004466 77.1400328,13.8436044 C78.339583,12.5867622 79.9025557,11.9583505 81.8289976,11.9583505 C83.7697625,11.9583505 85.3488483,12.5867622 86.5663023,13.8436044 C87.7837563,15.1004466 88.3924742,16.6849034 88.3924742,18.5970223 L88.3924742,21.4114755 Z M85.2557554,18.575538 C85.2557554,17.358084 84.9513965,16.3590705 84.3426695,15.5784677 C83.7339425,14.7978648 82.8960602,14.4075692 81.8289976,14.4075692 C80.761935,14.4075692 79.9347948,14.7960744 79.3475523,15.5730966 C78.7603098,16.3501187 78.4666929,17.3509225 78.4666929,18.575538 L78.4666929,21.4114755 C78.4666929,22.650414 78.7638905,23.6601695 79.3582945,24.4407723 C79.9526985,25.2213752 80.7798387,25.6116708 81.8397398,25.6116708 C82.9139639,25.6116708 83.7518462,25.2213752 84.3534117,24.4407723 C84.9549772,23.6601695 85.2557554,22.650414 85.2557554,21.4114755 L85.2557554,18.575538 Z M95.5724663,12.1839364 L99.5578179,23.7103036 L99.622271,23.7103036 L103.639849,12.1839364 L107.743365,12.1839364 L107.743365,27.8245614 L104.606646,27.8245614 L104.606646,23.162452 L104.907427,16.2552255 L104.842974,16.2444833 L100.653521,27.8245614 L98.5480523,27.8245614 L94.3800835,16.287452 L94.3156304,16.2981942 L94.6164116,23.162452 L94.6164116,27.8245614 L91.4796929,27.8245614 L91.4796929,12.1839364 L95.5724663,12.1839364 Z M114.450701,22.1526864 L114.450701,27.8245614 L111.313982,27.8245614 L111.313982,12.1839364 L117.544451,12.1839364 C119.341986,12.1839364 120.75636,12.6422652 121.787615,13.5589364 C122.81887,14.4756077 123.33449,15.6823013 123.33449,17.1790536 C123.33449,18.6758059 122.81887,19.8789188 121.787615,20.7884286 C120.75636,21.6979383 119.341986,22.1526864 117.544451,22.1526864 L114.450701,22.1526864 Z M114.450701,19.7356942 L117.544451,19.7356942 C118.418153,19.7356942 119.080581,19.4975781 119.531755,19.0213387 C119.982929,18.5450994 120.208513,17.9381719 120.208513,17.200538 C120.208513,16.4485811 119.98472,15.8273308 119.537126,15.3367684 C119.089533,14.8462061 118.425314,14.6009286 117.544451,14.6009286 L114.450701,14.6009286 L114.450701,19.7356942 Z M129.418779,21.5726083 L129.418779,27.8245614 L126.28206,27.8245614 L126.28206,12.1839364 L132.179521,12.1839364 C133.962733,12.1839364 135.357413,12.5903451 136.363603,13.4031747 C137.369793,14.2160043 137.87288,15.3492937 137.87288,16.803077 C137.87288,17.6123259 137.661619,18.3069804 137.239091,18.8870614 C136.816563,19.4671424 136.197103,19.9362133 135.380693,20.294288 C136.304526,20.5664247 136.968744,21.0211728 137.373369,21.6585458 C137.777993,22.2959188 137.980302,23.0836713 137.980302,24.021827 L137.980302,25.1712411 C137.980302,25.6080922 138.039384,26.0646306 138.157548,26.54087 C138.275713,27.0171094 138.478022,27.3698077 138.764482,27.5989755 L138.764482,27.8245614 L135.531083,27.8245614 C135.244624,27.5953936 135.058428,27.2122594 134.97249,26.6751473 C134.886552,26.1380353 134.843583,25.6295768 134.843583,25.1497567 L134.843583,24.0433114 C134.843583,23.2627085 134.630532,22.655781 134.204423,22.2225106 C133.778314,21.7892402 133.178548,21.5726083 132.405107,21.5726083 L129.418779,21.5726083 Z M129.418779,19.1556161 L132.12581,19.1556161 C133.006674,19.1556161 133.663731,18.96942 134.097001,18.5970223 C134.530272,18.2246246 134.746904,17.6731979 134.746904,16.9427255 C134.746904,16.2265761 134.530272,15.6572458 134.097001,15.2347177 C133.663731,14.8121895 133.024577,14.6009286 132.179521,14.6009286 L129.418779,14.6009286 L129.418779,19.1556161 Z M149.85463,24.4515145 L144.365372,24.4515145 L143.301896,27.8245614 L140.132951,27.8245614 L145.514786,12.1839364 L148.726701,12.1839364 L154.087052,27.8245614 L150.918107,27.8245614 L149.85463,24.4515145 Z M145.13881,21.9915536 L149.081193,21.9915536 L147.147599,15.8470223 L147.083146,15.8470223 L145.13881,21.9915536 Z M159.322708,21.5726083 L159.322708,27.8245614 L156.18599,27.8245614 L156.18599,12.1839364 L162.08345,12.1839364 C163.866663,12.1839364 165.261343,12.5903451 166.267533,13.4031747 C167.273722,14.2160043 167.77681,15.3492937 167.77681,16.803077 C167.77681,17.6123259 167.565549,18.3069804 167.143021,18.8870614 C166.720493,19.4671424 166.101033,19.9362133 165.284622,20.294288 C166.208455,20.5664247 166.872674,21.0211728 167.277298,21.6585458 C167.681923,22.2959188 167.884232,23.0836713 167.884232,24.021827 L167.884232,25.1712411 C167.884232,25.6080922 167.943313,26.0646306 168.061478,26.54087 C168.179642,27.0171094 168.381952,27.3698077 168.668411,27.5989755 L168.668411,27.8245614 L165.435013,27.8245614 C165.148553,27.5953936 164.962357,27.2122594 164.876419,26.6751473 C164.790481,26.1380353 164.747513,25.6295768 164.747513,25.1497567 L164.747513,24.0433114 C164.747513,23.2627085 164.534462,22.655781 164.108353,22.2225106 C163.682244,21.7892402 163.082478,21.5726083 162.309036,21.5726083 L159.322708,21.5726083 Z M159.322708,19.1556161 L162.02974,19.1556161 C162.910603,19.1556161 163.567661,18.96942 164.000931,18.5970223 C164.434201,18.2246246 164.650833,17.6731979 164.650833,16.9427255 C164.650833,16.2265761 164.434201,15.6572458 164.000931,15.2347177 C163.567661,14.8121895 162.928507,14.6009286 162.08345,14.6009286 L159.322708,14.6009286 L159.322708,19.1556161 Z" id="COMPRAR" fill="#FFFFFF"></path>
                </g>
            </g>
        </g>
    </g>
</svg>