<?xml version="1.0" encoding="UTF-8" standalone="no"?>
<svg width="200px" height="42px" viewBox="0 0 200 42" version="1.1" xmlns="http://www.w3.org/2000/svg" xmlns:xlink="http://www.w3.org/1999/xlink">
    <!-- Generator: Sketch 39.1 (31720) - http://www.bohemiancoding.com/sketch -->
    <title>Group</title>
    <desc>Created with Sketch.</desc>
    <defs>
        <polygon id="path-1" points="14.1701565 28.227087 0 28.227087 0 0 14.1701565 0 28.340313 0 28.340313 28.227087 14.1701565 28.227087"></polygon>
    </defs>
    <g id="Page-1" stroke="none" stroke-width="1" fill="none" fill-rule="evenodd">
        <g id="Group">
            <rect id="Rectangle-2" fill="#FFFFFF" x="0" y="0" width="200" height="42" rx="5"></rect>
            <g id="Page-1" transform="translate(9.000000, 7.000000)">
                <mask id="mask-2" fill="white">
                    <use xlink:href="#path-1"></use>
                </mask>
                <g id="Clip-2"></g>
                <path d="M14.1694,0 C6.34318261,0 -0.000252173913,6.34343478 -0.000252173913,14.1696522 C-0.000252173913,21.188913 5.10753043,27.0053043 11.8052696,28.1287391 L11.8052696,17.1301739 L8.38705217,17.1301739 L8.38705217,13.1710435 L11.8052696,13.1710435 L11.8052696,10.2496087 C11.8052696,6.86165217 13.8743565,5.01447826 16.8991826,5.01447826 C18.3466609,5.01447826 19.5873565,5.12291304 19.9517478,5.17208696 L19.9517478,8.7126087 L17.8536609,8.7126087 C16.2145304,8.7126087 15.8942696,9.4956087 15.8942696,10.6392174 L15.8942696,13.166 L19.814313,13.166 L19.3024,17.1251304 L15.8942696,17.1251304 L15.8942696,28.227087 C22.9072261,27.3696957 28.340313,21.4108261 28.340313,14.1658696 C28.340313,6.34343478 21.9968783,0 14.1694,0" id="Fill-1" fill="#3D58A4" mask="url(#mask-2)"></path>
            </g>
            <path d="M51.0478516,20.625 L46.9257812,20.625 L46.9257812,23.46875 L51.7451172,23.46875 L51.7451172,25 L44.9296875,25 L44.9296875,15.046875 L51.7314453,15.046875 L51.7314453,16.5849609 L46.9257812,16.5849609 L46.9257812,19.0869141 L51.0478516,19.0869141 L51.0478516,20.625 Z M55.0358828,17.6035156 L55.12475,18.6630859 C55.370845,18.2848288 55.6739019,17.9908865 56.0339297,17.78125 C56.3939575,17.5716135 56.7972738,17.4667969 57.2438906,17.4667969 C57.9912902,17.4667969 58.5746177,17.701495 58.9938906,18.1708984 C59.4131636,18.6403018 59.6227969,19.3762971 59.6227969,20.3789062 L59.6227969,25 L57.6198672,25 L57.6198672,20.3857422 C57.6198672,19.8889949 57.5196078,19.5369477 57.319086,19.3295898 C57.1185641,19.122232 56.8155073,19.0185547 56.4099063,19.0185547 C56.145582,19.0185547 55.9086052,19.0721023 55.6989688,19.1791992 C55.4893323,19.2862961 55.3138783,19.4378245 55.1726016,19.6337891 L55.1726016,25 L53.1765078,25 L53.1765078,17.6035156 L55.0358828,17.6035156 Z M63.8911016,15.7919922 L63.8911016,17.6035156 L65.1352422,17.6035156 L65.1352422,19.0048828 L63.8911016,19.0048828 L63.8911016,22.7714844 C63.8911016,23.0585952 63.9503458,23.2636713 64.068836,23.3867188 C64.1873261,23.5097662 64.3468298,23.5712891 64.5473516,23.5712891 C64.6521698,23.5712891 64.7421754,23.5655925 64.8173711,23.5541992 C64.8925668,23.5428059 64.9802938,23.5234376 65.0805547,23.4960938 L65.2514532,24.9384766 C65.0509313,25.0068363 64.8549697,25.0581053 64.6635625,25.0922852 C64.4721553,25.126465 64.2648006,25.1435547 64.0414922,25.1435547 C63.3533377,25.1435547 62.8235579,24.954429 62.4521368,24.5761719 C62.0807156,24.1979148 61.8950078,23.5986369 61.8950078,22.7783203 L61.8950078,19.0048828 L60.8149297,19.0048828 L60.8149297,17.6035156 L61.8950078,17.6035156 L61.8950078,15.7919922 L63.8911016,15.7919922 Z M70.7023751,19.3193359 L69.9709297,19.2988281 C69.6747043,19.2988281 69.4308916,19.3603509 69.2394844,19.4833984 C69.0480772,19.6064459 68.9022453,19.7796213 68.8019844,20.0029297 L68.8019844,25 L66.8127266,25 L66.8127266,17.6035156 L68.6652657,17.6035156 L68.7541329,18.6972656 C68.9273108,18.3098939 69.1517552,18.0079763 69.4274727,17.7915039 C69.7031902,17.5750315 70.0210582,17.4667969 70.381086,17.4667969 C70.4813469,17.4667969 70.5736311,17.4747721 70.6579415,17.4907227 C70.7422518,17.5066733 70.8277001,17.5260416 70.9142891,17.5488281 L70.7023751,19.3193359 Z M76.4609141,25 C76.3879971,24.8313794 76.325335,24.6536468 76.2729259,24.4667969 C76.2205167,24.279947 76.1829195,24.0885426 76.1601329,23.8925781 C75.9550537,24.252606 75.6850369,24.5511056 75.3500743,24.7880859 C75.0151117,25.0250663 74.6152133,25.1435547 74.1503673,25.1435547 C73.3756238,25.1435547 72.7786246,24.9441752 72.3593516,24.5454102 C71.9400787,24.1466451 71.7304454,23.6031935 71.7304454,22.9150391 C71.7304454,22.1904261 72.0095767,21.6287455 72.5678477,21.2299805 C73.1261187,20.8312155 73.9407265,20.6318359 75.0116954,20.6318359 L76.1259532,20.6318359 L76.1259532,20.0439453 C76.1259532,19.6884748 76.0325297,19.4127614 75.8456798,19.2167969 C75.6588299,19.0208324 75.3831165,18.9228516 75.0185313,18.9228516 C74.694962,18.9228516 74.4454528,19.0014641 74.2699962,19.1586914 C74.0945396,19.3159188 74.0068126,19.5335273 74.0068126,19.8115234 L72.0790782,19.8046875 L72.0722423,19.7636719 C72.0403411,19.1393198 72.3114972,18.6004254 72.8857188,18.1469727 C73.4599404,17.6935199 74.2141647,17.4667969 75.1484141,17.4667969 C76.0325331,17.4667969 76.7502994,17.6912412 77.3017344,18.1401367 C77.8531695,18.5890322 78.1288829,19.228186 78.1288829,20.0576172 L78.1288829,23.1132812 C78.1288829,23.4596371 78.1550871,23.7854802 78.2074962,24.0908203 C78.2599053,24.3961604 78.343075,24.6992172 78.4570079,25 L76.4609141,25 Z M74.6357188,23.6669922 C74.986632,23.6669922 75.2988034,23.5804045 75.5722423,23.4072266 C75.8456811,23.2340486 76.0302496,23.0335298 76.1259532,22.8056641 L76.1259532,21.7597656 L75.0116954,21.7597656 C74.5878651,21.7597656 74.2665793,21.8657216 74.0478282,22.0776367 C73.8290771,22.2895518 73.7197032,22.5458969 73.7197032,22.8466797 C73.7197032,23.0927747 73.8017336,23.2910149 73.9657969,23.4414062 C74.1298603,23.5917976 74.3531653,23.6669922 74.6357188,23.6669922 L74.6357188,23.6669922 Z M83.9352735,19.3193359 L83.2038282,19.2988281 C82.9076028,19.2988281 82.6637901,19.3603509 82.4723829,19.4833984 C82.2809757,19.6064459 82.1351438,19.7796213 82.0348829,20.0029297 L82.0348829,25 L80.0456251,25 L80.0456251,17.6035156 L81.8981642,17.6035156 L81.9870313,18.6972656 C82.1602093,18.3098939 82.3846537,18.0079763 82.6603712,17.7915039 C82.9360887,17.5750315 83.2539566,17.4667969 83.6139845,17.4667969 C83.7142454,17.4667969 83.8065296,17.4747721 83.8908399,17.4907227 C83.9751503,17.5066733 84.0605986,17.5260416 84.1471876,17.5488281 L83.9352735,19.3193359 Z M92.3488361,23.6123047 C92.7043066,23.6123047 92.9891345,23.5086273 93.2033283,23.3012695 C93.417522,23.0939117 93.5246173,22.817059 93.5246173,22.4707031 L95.3361408,22.4707031 L95.3566486,22.5117188 C95.3748778,23.2591183 95.0934679,23.8846003 94.5124103,24.3881836 C93.9313527,24.8917668 93.2101685,25.1435547 92.3488361,25.1435547 C91.245966,25.1435547 90.3960396,24.7949254 89.7990314,24.0976562 C89.2020232,23.4003871 88.9035236,22.5048883 88.9035236,21.4111328 L88.9035236,21.2060547 C88.9035236,20.1168565 89.2008839,19.2213577 89.7956134,18.5195312 C90.3903429,17.8177048 91.23913,17.4667969 92.3420001,17.4667969 C93.253463,17.4667969 93.988319,17.7265599 94.54659,18.2460938 C95.104861,18.7656276 95.3748778,19.4492145 95.3566486,20.296875 L95.3429767,20.3378906 L93.5246173,20.3378906 C93.5246173,19.9550762 93.4198007,19.6372083 93.2101642,19.3842773 C93.0005277,19.1313464 92.7111426,19.0048828 92.3420001,19.0048828 C91.8133517,19.0048828 91.4407968,19.2099589 91.2243243,19.6201172 C91.0078519,20.0302755 90.8996173,20.558916 90.8996173,21.2060547 L90.8996173,21.4111328 C90.8996173,22.0719434 91.0078519,22.6040019 91.2243243,23.0073242 C91.4407968,23.4106465 91.8156303,23.6123047 92.3488361,23.6123047 L92.3488361,23.6123047 Z M96.589797,21.2333984 C96.589797,20.1305283 96.8974111,19.2270543 97.5126486,18.5229492 C98.127886,17.8188441 98.9800911,17.4667969 100.069289,17.4667969 C101.163045,17.4667969 102.019807,17.8177048 102.639602,18.5195312 C103.259396,19.2213577 103.569289,20.125971 103.569289,21.2333984 L103.569289,21.3769531 C103.569289,22.4889379 103.260536,23.3946905 102.64302,24.0942383 C102.025504,24.793786 101.172159,25.1435547 100.082961,25.1435547 C98.9892056,25.1435547 98.1335827,24.793786 97.5160666,24.0942383 C96.8985504,23.3946905 96.589797,22.4889379 96.589797,21.3769531 L96.589797,21.2333984 Z M98.5790548,21.3769531 C98.5790548,22.0514357 98.6975432,22.5926086 98.9345236,23.0004883 C99.1715039,23.4083679 99.5543126,23.6123047 100.082961,23.6123047 C100.597938,23.6123047 100.97505,23.4072286 101.214309,22.9970703 C101.453568,22.586912 101.573195,22.0468783 101.573195,21.3769531 L101.573195,21.2333984 C101.573195,20.5771452 101.452428,20.0416687 101.210891,19.6269531 C100.969353,19.2122375 100.588823,19.0048828 100.069289,19.0048828 C99.5543127,19.0048828 99.1772006,19.2133768 98.9379416,19.6303711 C98.6986825,20.0473654 98.5790548,20.5817025 98.5790548,21.2333984 L98.5790548,21.3769531 Z M107.058297,17.6035156 L107.140328,18.5810547 C107.377309,18.2255842 107.674669,17.9510101 108.032418,17.7573242 C108.390167,17.5636384 108.803737,17.4667969 109.273141,17.4667969 C109.747101,17.4667969 110.152696,17.5716135 110.489938,17.78125 C110.827179,17.9908865 111.082385,18.3076151 111.255563,18.7314453 C111.483428,18.334959 111.779649,18.0250662 112.144235,17.8017578 C112.50882,17.5784494 112.937201,17.4667969 113.429391,17.4667969 C114.158561,17.4667969 114.733913,17.7185847 115.155465,18.222168 C115.577017,18.7257512 115.787789,19.4925079 115.787789,20.5224609 L115.787789,25 L113.791695,25 L113.791695,20.515625 C113.791695,19.9550753 113.700551,19.5654308 113.518258,19.3466797 C113.335965,19.1279286 113.064809,19.0185547 112.704781,19.0185547 C112.422228,19.0185547 112.177276,19.0812168 111.969918,19.206543 C111.76256,19.3318691 111.59736,19.5061838 111.474313,19.7294922 C111.474313,19.8160812 111.476591,19.8901364 111.481149,19.9516602 C111.485706,20.0131839 111.487985,20.075846 111.487985,20.1396484 L111.487985,25 L109.498727,25 L109.498727,20.515625 C109.498727,19.9687473 109.407582,19.5825207 109.225289,19.3569336 C109.042997,19.1313465 108.769562,19.0185547 108.404977,19.0185547 C108.136095,19.0185547 107.900258,19.0698237 107.697457,19.1723633 C107.494657,19.2749029 107.327178,19.4195954 107.195016,19.6064453 L107.195016,25 L105.205758,25 L105.205758,17.6035156 L107.058297,17.6035156 Z M127.947446,20.8642578 L123.777524,20.8642578 L123.777524,25 L121.78143,25 L121.78143,15.046875 L128.644711,15.046875 L128.644711,16.5849609 L123.777524,16.5849609 L123.777524,19.3261719 L127.947446,19.3261719 L127.947446,20.8642578 Z M133.979422,25 C133.906505,24.8313794 133.843843,24.6536468 133.791434,24.4667969 C133.739025,24.279947 133.701427,24.0885426 133.678641,23.8925781 C133.473562,24.252606 133.203545,24.5511056 132.868582,24.7880859 C132.53362,25.0250663 132.133721,25.1435547 131.668875,25.1435547 C130.894132,25.1435547 130.297133,24.9441752 129.87786,24.5454102 C129.458587,24.1466451 129.248953,23.6031935 129.248953,22.9150391 C129.248953,22.1904261 129.528085,21.6287455 130.086356,21.2299805 C130.644627,20.8312155 131.459234,20.6318359 132.530203,20.6318359 L133.644461,20.6318359 L133.644461,20.0439453 C133.644461,19.6884748 133.551038,19.4127614 133.364188,19.2167969 C133.177338,19.0208324 132.901624,18.9228516 132.537039,18.9228516 C132.21347,18.9228516 131.963961,19.0014641 131.788504,19.1586914 C131.613048,19.3159188 131.525321,19.5335273 131.525321,19.8115234 L129.597586,19.8046875 L129.59075,19.7636719 C129.558849,19.1393198 129.830005,18.6004254 130.404227,18.1469727 C130.978448,17.6935199 131.732673,17.4667969 132.666922,17.4667969 C133.551041,17.4667969 134.268807,17.6912412 134.820242,18.1401367 C135.371677,18.5890322 135.647391,19.228186 135.647391,20.0576172 L135.647391,23.1132812 C135.647391,23.4596371 135.673595,23.7854802 135.726004,24.0908203 C135.778413,24.3961604 135.861583,24.6992172 135.975516,25 L133.979422,25 Z M132.154227,23.6669922 C132.50514,23.6669922 132.817311,23.5804045 133.09075,23.4072266 C133.364189,23.2340486 133.548758,23.0335298 133.644461,22.8056641 L133.644461,21.7597656 L132.530203,21.7597656 C132.106373,21.7597656 131.785087,21.8657216 131.566336,22.0776367 C131.347585,22.2895518 131.238211,22.5458969 131.238211,22.8466797 C131.238211,23.0927747 131.320242,23.2910149 131.484305,23.4414062 C131.648368,23.5917976 131.871673,23.6669922 132.154227,23.6669922 L132.154227,23.6669922 Z M140.667649,23.6123047 C141.023119,23.6123047 141.307947,23.5086273 141.522141,23.3012695 C141.736335,23.0939117 141.84343,22.817059 141.84343,22.4707031 L143.654953,22.4707031 L143.675461,22.5117188 C143.69369,23.2591183 143.41228,23.8846003 142.831223,24.3881836 C142.250165,24.8917668 141.528981,25.1435547 140.667649,25.1435547 C139.564779,25.1435547 138.714852,24.7949254 138.117844,24.0976562 C137.520836,23.4003871 137.222336,22.5048883 137.222336,21.4111328 L137.222336,21.2060547 C137.222336,20.1168565 137.519696,19.2213577 138.114426,18.5195312 C138.709156,17.8177048 139.557943,17.4667969 140.660813,17.4667969 C141.572276,17.4667969 142.307132,17.7265599 142.865403,18.2460938 C143.423674,18.7656276 143.69369,19.4492145 143.675461,20.296875 L143.661789,20.3378906 L141.84343,20.3378906 C141.84343,19.9550762 141.738613,19.6372083 141.528977,19.3842773 C141.31934,19.1313464 141.029955,19.0048828 140.660813,19.0048828 C140.132164,19.0048828 139.759609,19.2099589 139.543137,19.6201172 C139.326665,20.0302755 139.21843,20.558916 139.21843,21.2060547 L139.21843,21.4111328 C139.21843,22.0719434 139.326665,22.6040019 139.543137,23.0073242 C139.759609,23.4106465 140.134443,23.6123047 140.667649,23.6123047 L140.667649,23.6123047 Z M148.490641,25.1435547 C147.424229,25.1435547 146.572024,24.8017612 145.934,24.1181641 C145.295976,23.4345669 144.976969,22.5664115 144.976969,21.5136719 L144.976969,21.2402344 C144.976969,20.1419216 145.278887,19.2373082 145.882731,18.5263672 C146.486575,17.8154261 147.296625,17.4622396 148.312907,17.4667969 C149.310958,17.4667969 150.08569,17.7675751 150.637125,18.3691406 C151.18856,18.9707061 151.464274,19.7841746 151.464274,20.8095703 L151.464274,21.8964844 L147.048258,21.8964844 L147.034586,21.9375 C147.071045,22.4251326 147.233966,22.8261703 147.523356,23.140625 C147.812745,23.4550797 148.205808,23.6123047 148.702555,23.6123047 C149.144614,23.6123047 149.511473,23.5678715 149.803141,23.4790039 C150.094809,23.3901363 150.413816,23.250001 150.760172,23.0585938 L151.300211,24.2890625 C150.999428,24.5351575 150.605227,24.7390942 150.117594,24.9008789 C149.629961,25.0626636 149.087649,25.1435547 148.490641,25.1435547 L148.490641,25.1435547 Z M148.312907,19.0048828 C147.943764,19.0048828 147.6521,19.1461574 147.437907,19.4287109 C147.223713,19.7112644 147.091553,20.08268 147.041422,20.5429688 L147.06193,20.5771484 L149.509196,20.5771484 L149.509196,20.3994141 C149.509196,19.9755838 149.410075,19.6372083 149.211832,19.3842773 C149.013589,19.1313464 148.71395,19.0048828 148.312907,19.0048828 L148.312907,19.0048828 Z M159.704258,21.5068359 C159.704258,22.609706 159.458167,23.4915332 158.965977,24.1523438 C158.473787,24.8131543 157.762856,25.1435547 156.833164,25.1435547 C156.404777,25.1435547 156.029943,25.0535491 155.708653,24.8735352 C155.387362,24.6935212 155.115066,24.4303403 154.891758,24.0839844 L154.741367,25 L153.032383,25 L153.032383,14.3359375 L155.021641,14.3359375 L155.021641,18.3896484 C155.235835,18.093423 155.49218,17.8655607 155.790684,17.7060547 C156.089188,17.5465487 156.432121,17.4667969 156.819492,17.4667969 C157.758299,17.4667969 158.473787,17.8211228 158.965977,18.5297852 C159.458167,19.2384476 159.704258,20.1829368 159.704258,21.3632812 L159.704258,21.5068359 Z M157.715,21.3632812 C157.715,20.6432256 157.609044,20.0724305 157.397129,19.6508789 C157.185214,19.2293273 156.824052,19.0185547 156.313633,19.0185547 C156.003736,19.0185547 155.741694,19.0834954 155.5275,19.2133789 C155.313306,19.3432624 155.144688,19.5289701 155.021641,19.7705078 L155.021641,22.9013672 C155.144688,23.1246756 155.314446,23.2955723 155.530918,23.4140625 C155.747391,23.5325527 156.01285,23.5917969 156.327305,23.5917969 C156.842281,23.5917969 157.202304,23.4106463 157.407383,23.0483398 C157.612462,22.6860333 157.715,22.1722038 157.715,21.5068359 L157.715,21.3632812 Z M161.03311,21.2333984 C161.03311,20.1305283 161.340724,19.2270543 161.955961,18.5229492 C162.571199,17.8188441 163.423404,17.4667969 164.512602,17.4667969 C165.606357,17.4667969 166.46312,17.8177048 167.082914,18.5195312 C167.702709,19.2213577 168.012602,20.125971 168.012602,21.2333984 L168.012602,21.3769531 C168.012602,22.4889379 167.703848,23.3946905 167.086332,24.0942383 C166.468816,24.793786 165.615472,25.1435547 164.526274,25.1435547 C163.432518,25.1435547 162.576895,24.793786 161.959379,24.0942383 C161.341863,23.3946905 161.03311,22.4889379 161.03311,21.3769531 L161.03311,21.2333984 Z M163.022367,21.3769531 C163.022367,22.0514357 163.140856,22.5926086 163.377836,23.0004883 C163.614817,23.4083679 163.997625,23.6123047 164.526274,23.6123047 C165.04125,23.6123047 165.418362,23.4072286 165.657621,22.9970703 C165.89688,22.586912 166.016508,22.0468783 166.016508,21.3769531 L166.016508,21.2333984 C166.016508,20.5771452 165.895741,20.0416687 165.654203,19.6269531 C165.412666,19.2122375 165.032136,19.0048828 164.512602,19.0048828 C163.997625,19.0048828 163.620513,19.2133768 163.381254,19.6303711 C163.141995,20.0473654 163.022367,20.5817025 163.022367,21.2333984 L163.022367,21.3769531 Z M169.341453,21.2333984 C169.341453,20.1305283 169.649068,19.2270543 170.264305,18.5229492 C170.879542,17.8188441 171.731747,17.4667969 172.820946,17.4667969 C173.914701,17.4667969 174.771463,17.8177048 175.391258,18.5195312 C176.011053,19.2213577 176.320946,20.125971 176.320946,21.2333984 L176.320946,21.3769531 C176.320946,22.4889379 176.012192,23.3946905 175.394676,24.0942383 C174.77716,24.793786 173.923816,25.1435547 172.834617,25.1435547 C171.740862,25.1435547 170.885239,24.793786 170.267723,24.0942383 C169.650207,23.3946905 169.341453,22.4889379 169.341453,21.3769531 L169.341453,21.2333984 Z M171.330711,21.3769531 C171.330711,22.0514357 171.4492,22.5926086 171.68618,23.0004883 C171.92316,23.4083679 172.305969,23.6123047 172.834617,23.6123047 C173.349594,23.6123047 173.726706,23.4072286 173.965965,22.9970703 C174.205224,22.586912 174.324852,22.0468783 174.324852,21.3769531 L174.324852,21.2333984 C174.324852,20.5771452 174.204085,20.0416687 173.962547,19.6269531 C173.72101,19.2122375 173.340479,19.0048828 172.820946,19.0048828 C172.305969,19.0048828 171.928857,19.2133768 171.689598,19.6303711 C171.450339,20.0473654 171.330711,20.5817025 171.330711,21.2333984 L171.330711,21.3769531 Z M180.500383,21.9033203 L179.953508,21.9033203 L179.953508,25 L177.957414,25 L177.957414,14.3359375 L179.953508,14.3359375 L179.953508,20.3857422 L180.445696,20.3857422 L182.161516,17.6035156 L184.472063,17.6035156 L182.106828,20.953125 L184.834368,25 L182.544328,25 L180.500383,21.9033203 Z" id="Entrar-com-Facebook" fill="#514C4C"></path>
        </g>
    </g>
</svg>