<?xml version="1.0" encoding="UTF-8" standalone="no"?>
<svg width="200px" height="42px" viewBox="0 0 200 42" version="1.1" xmlns="http://www.w3.org/2000/svg" xmlns:xlink="http://www.w3.org/1999/xlink">
    <!-- Generator: Sketch 39.1 (31720) - http://www.bohemiancoding.com/sketch -->
    <title>Group 4</title>
    <desc>Created with Sketch.</desc>
    <defs>
        <rect id="path-1" x="0" y="0" width="200" height="42" rx="5"></rect>
        <mask id="mask-2" maskContentUnits="userSpaceOnUse" maskUnits="objectBoundingBox" x="0" y="0" width="200" height="42" fill="white">
            <use xlink:href="#path-1"></use>
        </mask>
        <polygon id="path-3" points="5.97040584e-21 0.0146671875 5.97040584e-21 13.0877141 6.2484671 13.0877141 6.2484671 0.0146671875 0 0.0146671875"></polygon>
        <polygon id="path-5" points="13.8218859 13.5426922 13.8218859 0.0096140625 0.0344886339 0.0096140625 0.0344886339 13.5426922 13.8218859 13.5426922"></polygon>
    </defs>
    <g id="Page-1" stroke="none" stroke-width="1" fill="none" fill-rule="evenodd">
        <g id="Artboard">
            <g id="Group-4">
                <g id="Group-2">
                    <g id="Group" stroke="transparent" stroke-width="2">
                        <use id="Rectangle-2" mask="url(#mask-2)" xlink:href="#path-1"></use>
                    </g>
                    <path d="M51.0478516,20.625 L46.9257812,20.625 L46.9257812,23.46875 L51.7451172,23.46875 L51.7451172,25 L44.9296875,25 L44.9296875,15.046875 L51.7314453,15.046875 L51.7314453,16.5849609 L46.9257812,16.5849609 L46.9257812,19.0869141 L51.0478516,19.0869141 L51.0478516,20.625 Z M55.0358828,17.6035156 L55.12475,18.6630859 C55.370845,18.2848288 55.6739019,17.9908865 56.0339297,17.78125 C56.3939575,17.5716135 56.7972738,17.4667969 57.2438906,17.4667969 C57.9912902,17.4667969 58.5746177,17.701495 58.9938906,18.1708984 C59.4131636,18.6403018 59.6227969,19.3762971 59.6227969,20.3789062 L59.6227969,25 L57.6198672,25 L57.6198672,20.3857422 C57.6198672,19.8889949 57.5196078,19.5369477 57.319086,19.3295898 C57.1185641,19.122232 56.8155073,19.0185547 56.4099063,19.0185547 C56.145582,19.0185547 55.9086052,19.0721023 55.6989688,19.1791992 C55.4893323,19.2862961 55.3138783,19.4378245 55.1726016,19.6337891 L55.1726016,25 L53.1765078,25 L53.1765078,17.6035156 L55.0358828,17.6035156 Z M63.8911016,15.7919922 L63.8911016,17.6035156 L65.1352422,17.6035156 L65.1352422,19.0048828 L63.8911016,19.0048828 L63.8911016,22.7714844 C63.8911016,23.0585952 63.9503458,23.2636713 64.068836,23.3867188 C64.1873261,23.5097662 64.3468298,23.5712891 64.5473516,23.5712891 C64.6521698,23.5712891 64.7421754,23.5655925 64.8173711,23.5541992 C64.8925668,23.5428059 64.9802938,23.5234376 65.0805547,23.4960938 L65.2514532,24.9384766 C65.0509313,25.0068363 64.8549697,25.0581053 64.6635625,25.0922852 C64.4721553,25.126465 64.2648006,25.1435547 64.0414922,25.1435547 C63.3533377,25.1435547 62.8235579,24.954429 62.4521368,24.5761719 C62.0807156,24.1979148 61.8950078,23.5986369 61.8950078,22.7783203 L61.8950078,19.0048828 L60.8149297,19.0048828 L60.8149297,17.6035156 L61.8950078,17.6035156 L61.8950078,15.7919922 L63.8911016,15.7919922 Z M70.7023751,19.3193359 L69.9709297,19.2988281 C69.6747043,19.2988281 69.4308916,19.3603509 69.2394844,19.4833984 C69.0480772,19.6064459 68.9022453,19.7796213 68.8019844,20.0029297 L68.8019844,25 L66.8127266,25 L66.8127266,17.6035156 L68.6652657,17.6035156 L68.7541329,18.6972656 C68.9273108,18.3098939 69.1517552,18.0079763 69.4274727,17.7915039 C69.7031902,17.5750315 70.0210582,17.4667969 70.381086,17.4667969 C70.4813469,17.4667969 70.5736311,17.4747721 70.6579415,17.4907227 C70.7422518,17.5066733 70.8277001,17.5260416 70.9142891,17.5488281 L70.7023751,19.3193359 Z M76.4609141,25 C76.3879971,24.8313794 76.325335,24.6536468 76.2729259,24.4667969 C76.2205167,24.279947 76.1829195,24.0885426 76.1601329,23.8925781 C75.9550537,24.252606 75.6850369,24.5511056 75.3500743,24.7880859 C75.0151117,25.0250663 74.6152133,25.1435547 74.1503673,25.1435547 C73.3756238,25.1435547 72.7786246,24.9441752 72.3593516,24.5454102 C71.9400787,24.1466451 71.7304454,23.6031935 71.7304454,22.9150391 C71.7304454,22.1904261 72.0095767,21.6287455 72.5678477,21.2299805 C73.1261187,20.8312155 73.9407265,20.6318359 75.0116954,20.6318359 L76.1259532,20.6318359 L76.1259532,20.0439453 C76.1259532,19.6884748 76.0325297,19.4127614 75.8456798,19.2167969 C75.6588299,19.0208324 75.3831165,18.9228516 75.0185313,18.9228516 C74.694962,18.9228516 74.4454528,19.0014641 74.2699962,19.1586914 C74.0945396,19.3159188 74.0068126,19.5335273 74.0068126,19.8115234 L72.0790782,19.8046875 L72.0722423,19.7636719 C72.0403411,19.1393198 72.3114972,18.6004254 72.8857188,18.1469727 C73.4599404,17.6935199 74.2141647,17.4667969 75.1484141,17.4667969 C76.0325331,17.4667969 76.7502994,17.6912412 77.3017344,18.1401367 C77.8531695,18.5890322 78.1288829,19.228186 78.1288829,20.0576172 L78.1288829,23.1132812 C78.1288829,23.4596371 78.1550871,23.7854802 78.2074962,24.0908203 C78.2599053,24.3961604 78.343075,24.6992172 78.4570079,25 L76.4609141,25 Z M74.6357188,23.6669922 C74.986632,23.6669922 75.2988034,23.5804045 75.5722423,23.4072266 C75.8456811,23.2340486 76.0302496,23.0335298 76.1259532,22.8056641 L76.1259532,21.7597656 L75.0116954,21.7597656 C74.5878651,21.7597656 74.2665793,21.8657216 74.0478282,22.0776367 C73.8290771,22.2895518 73.7197032,22.5458969 73.7197032,22.8466797 C73.7197032,23.0927747 73.8017336,23.2910149 73.9657969,23.4414062 C74.1298603,23.5917976 74.3531653,23.6669922 74.6357188,23.6669922 L74.6357188,23.6669922 Z M83.9352735,19.3193359 L83.2038282,19.2988281 C82.9076028,19.2988281 82.6637901,19.3603509 82.4723829,19.4833984 C82.2809757,19.6064459 82.1351438,19.7796213 82.0348829,20.0029297 L82.0348829,25 L80.0456251,25 L80.0456251,17.6035156 L81.8981642,17.6035156 L81.9870313,18.6972656 C82.1602093,18.3098939 82.3846537,18.0079763 82.6603712,17.7915039 C82.9360887,17.5750315 83.2539566,17.4667969 83.6139845,17.4667969 C83.7142454,17.4667969 83.8065296,17.4747721 83.8908399,17.4907227 C83.9751503,17.5066733 84.0605986,17.5260416 84.1471876,17.5488281 L83.9352735,19.3193359 Z M92.3488361,23.6123047 C92.7043066,23.6123047 92.9891345,23.5086273 93.2033283,23.3012695 C93.417522,23.0939117 93.5246173,22.817059 93.5246173,22.4707031 L95.3361408,22.4707031 L95.3566486,22.5117188 C95.3748778,23.2591183 95.0934679,23.8846003 94.5124103,24.3881836 C93.9313527,24.8917668 93.2101685,25.1435547 92.3488361,25.1435547 C91.245966,25.1435547 90.3960396,24.7949254 89.7990314,24.0976562 C89.2020232,23.4003871 88.9035236,22.5048883 88.9035236,21.4111328 L88.9035236,21.2060547 C88.9035236,20.1168565 89.2008839,19.2213577 89.7956134,18.5195312 C90.3903429,17.8177048 91.23913,17.4667969 92.3420001,17.4667969 C93.253463,17.4667969 93.988319,17.7265599 94.54659,18.2460938 C95.104861,18.7656276 95.3748778,19.4492145 95.3566486,20.296875 L95.3429767,20.3378906 L93.5246173,20.3378906 C93.5246173,19.9550762 93.4198007,19.6372083 93.2101642,19.3842773 C93.0005277,19.1313464 92.7111426,19.0048828 92.3420001,19.0048828 C91.8133517,19.0048828 91.4407968,19.2099589 91.2243243,19.6201172 C91.0078519,20.0302755 90.8996173,20.558916 90.8996173,21.2060547 L90.8996173,21.4111328 C90.8996173,22.0719434 91.0078519,22.6040019 91.2243243,23.0073242 C91.4407968,23.4106465 91.8156303,23.6123047 92.3488361,23.6123047 L92.3488361,23.6123047 Z M96.589797,21.2333984 C96.589797,20.1305283 96.8974111,19.2270543 97.5126486,18.5229492 C98.127886,17.8188441 98.9800911,17.4667969 100.069289,17.4667969 C101.163045,17.4667969 102.019807,17.8177048 102.639602,18.5195312 C103.259396,19.2213577 103.569289,20.125971 103.569289,21.2333984 L103.569289,21.3769531 C103.569289,22.4889379 103.260536,23.3946905 102.64302,24.0942383 C102.025504,24.793786 101.172159,25.1435547 100.082961,25.1435547 C98.9892056,25.1435547 98.1335827,24.793786 97.5160666,24.0942383 C96.8985504,23.3946905 96.589797,22.4889379 96.589797,21.3769531 L96.589797,21.2333984 Z M98.5790548,21.3769531 C98.5790548,22.0514357 98.6975432,22.5926086 98.9345236,23.0004883 C99.1715039,23.4083679 99.5543126,23.6123047 100.082961,23.6123047 C100.597938,23.6123047 100.97505,23.4072286 101.214309,22.9970703 C101.453568,22.586912 101.573195,22.0468783 101.573195,21.3769531 L101.573195,21.2333984 C101.573195,20.5771452 101.452428,20.0416687 101.210891,19.6269531 C100.969353,19.2122375 100.588823,19.0048828 100.069289,19.0048828 C99.5543127,19.0048828 99.1772006,19.2133768 98.9379416,19.6303711 C98.6986825,20.0473654 98.5790548,20.5817025 98.5790548,21.2333984 L98.5790548,21.3769531 Z M107.058297,17.6035156 L107.140328,18.5810547 C107.377309,18.2255842 107.674669,17.9510101 108.032418,17.7573242 C108.390167,17.5636384 108.803737,17.4667969 109.273141,17.4667969 C109.747101,17.4667969 110.152696,17.5716135 110.489938,17.78125 C110.827179,17.9908865 111.082385,18.3076151 111.255563,18.7314453 C111.483428,18.334959 111.779649,18.0250662 112.144235,17.8017578 C112.50882,17.5784494 112.937201,17.4667969 113.429391,17.4667969 C114.158561,17.4667969 114.733913,17.7185847 115.155465,18.222168 C115.577017,18.7257512 115.787789,19.4925079 115.787789,20.5224609 L115.787789,25 L113.791695,25 L113.791695,20.515625 C113.791695,19.9550753 113.700551,19.5654308 113.518258,19.3466797 C113.335965,19.1279286 113.064809,19.0185547 112.704781,19.0185547 C112.422228,19.0185547 112.177276,19.0812168 111.969918,19.206543 C111.76256,19.3318691 111.59736,19.5061838 111.474313,19.7294922 C111.474313,19.8160812 111.476591,19.8901364 111.481149,19.9516602 C111.485706,20.0131839 111.487985,20.075846 111.487985,20.1396484 L111.487985,25 L109.498727,25 L109.498727,20.515625 C109.498727,19.9687473 109.407582,19.5825207 109.225289,19.3569336 C109.042997,19.1313465 108.769562,19.0185547 108.404977,19.0185547 C108.136095,19.0185547 107.900258,19.0698237 107.697457,19.1723633 C107.494657,19.2749029 107.327178,19.4195954 107.195016,19.6064453 L107.195016,25 L105.205758,25 L105.205758,17.6035156 L107.058297,17.6035156 Z M129.424008,23.6396484 C129.127783,24.0315775 128.666361,24.3802068 128.039731,24.6855469 C127.4131,24.9908869 126.621278,25.1435547 125.664242,25.1435547 C124.447439,25.1435547 123.45396,24.7653033 122.683774,24.0087891 C121.913587,23.2522749 121.5285,22.2701883 121.5285,21.0625 L121.5285,18.984375 C121.5285,17.781244 121.898776,16.8002968 122.63934,16.0415039 C123.379904,15.282711 124.333507,14.9033203 125.50018,14.9033203 C126.712426,14.9033203 127.640964,15.198402 128.285824,15.7885742 C128.930684,16.3787464 129.259945,17.1546176 129.273617,18.1162109 L129.259946,18.1572266 L127.380063,18.1572266 C127.343604,17.6285781 127.174986,17.2104508 126.874203,16.902832 C126.573421,16.5952133 126.133646,16.4414062 125.554867,16.4414062 C124.944187,16.4414062 124.452005,16.6772437 124.078305,17.1489258 C123.704605,17.6206078 123.517758,18.2278609 123.517758,18.9707031 L123.517758,21.0625 C123.517758,21.8190142 123.711441,22.4331031 124.098813,22.9047852 C124.486184,23.3764672 125.007989,23.6123047 125.664242,23.6123047 C126.129088,23.6123047 126.502783,23.5644536 126.785336,23.46875 C127.06789,23.3730464 127.28208,23.254558 127.427914,23.1132812 L127.427914,21.2675781 L125.664242,21.2675781 L125.664242,19.8867188 L129.424008,19.8867188 L129.424008,23.6396484 Z M131.074149,21.2333984 C131.074149,20.1305283 131.381763,19.2270543 131.997,18.5229492 C132.612238,17.8188441 133.464443,17.4667969 134.553641,17.4667969 C135.647396,17.4667969 136.504159,17.8177048 137.123953,18.5195312 C137.743748,19.2213577 138.053641,20.125971 138.053641,21.2333984 L138.053641,21.3769531 C138.053641,22.4889379 137.744887,23.3946905 137.127371,24.0942383 C136.509855,24.793786 135.656511,25.1435547 134.567313,25.1435547 C133.473557,25.1435547 132.617934,24.793786 132.000418,24.0942383 C131.382902,23.3946905 131.074149,22.4889379 131.074149,21.3769531 L131.074149,21.2333984 Z M133.063406,21.3769531 C133.063406,22.0514357 133.181895,22.5926086 133.418875,23.0004883 C133.655856,23.4083679 134.038664,23.6123047 134.567313,23.6123047 C135.082289,23.6123047 135.459401,23.4072286 135.69866,22.9970703 C135.937919,22.586912 136.057547,22.0468783 136.057547,21.3769531 L136.057547,21.2333984 C136.057547,20.5771452 135.93678,20.0416687 135.695242,19.6269531 C135.453705,19.2122375 135.073175,19.0048828 134.553641,19.0048828 C134.038664,19.0048828 133.661552,19.2133768 133.422293,19.6303711 C133.183034,20.0473654 133.063406,20.5817025 133.063406,21.2333984 L133.063406,21.3769531 Z M139.382492,21.2333984 C139.382492,20.1305283 139.690107,19.2270543 140.305344,18.5229492 C140.920581,17.8188441 141.772786,17.4667969 142.861985,17.4667969 C143.95574,17.4667969 144.812502,17.8177048 145.432297,18.5195312 C146.052092,19.2213577 146.361985,20.125971 146.361985,21.2333984 L146.361985,21.3769531 C146.361985,22.4889379 146.053231,23.3946905 145.435715,24.0942383 C144.818199,24.793786 143.964855,25.1435547 142.875656,25.1435547 C141.781901,25.1435547 140.926278,24.793786 140.308762,24.0942383 C139.691246,23.3946905 139.382492,22.4889379 139.382492,21.3769531 L139.382492,21.2333984 Z M141.37175,21.3769531 C141.37175,22.0514357 141.490239,22.5926086 141.727219,23.0004883 C141.964199,23.4083679 142.347008,23.6123047 142.875656,23.6123047 C143.390633,23.6123047 143.767745,23.4072286 144.007004,22.9970703 C144.246263,22.586912 144.365891,22.0468783 144.365891,21.3769531 L144.365891,21.2333984 C144.365891,20.5771452 144.245124,20.0416687 144.003586,19.6269531 C143.762049,19.2122375 143.381518,19.0048828 142.861985,19.0048828 C142.347008,19.0048828 141.969896,19.2133768 141.730637,19.6303711 C141.491378,20.0473654 141.37175,20.5817025 141.37175,21.2333984 L141.37175,21.3769531 Z M147.690836,21.3632812 C147.690836,20.1966087 147.944903,19.2555374 148.453043,18.5400391 C148.961184,17.8245407 149.673253,17.4667969 150.589274,17.4667969 C151.003989,17.4667969 151.368569,17.5602204 151.683024,17.7470703 C151.997478,17.9339202 152.266356,18.2005191 152.489664,18.546875 L152.646891,17.6035156 L154.369547,17.6035156 L154.369547,24.9658203 C154.369547,25.9274137 154.053958,26.6713841 153.42277,27.1977539 C152.791582,27.7241237 151.913173,27.9873047 150.787516,27.9873047 C150.413816,27.9873047 150.017336,27.9360357 149.598063,27.8334961 C149.17879,27.7309565 148.791424,27.5908212 148.435953,27.4130859 L148.805094,25.9228516 C149.110434,26.0686856 149.421466,26.1791988 149.738199,26.2543945 C150.054933,26.3295902 150.400144,26.3671875 150.773844,26.3671875 C151.320722,26.3671875 151.722899,26.2532563 151.980387,26.0253906 C152.237875,25.7975249 152.366617,25.4420597 152.366617,24.9589844 L152.366617,24.2890625 C152.147866,24.5670587 151.890382,24.7789706 151.594157,24.9248047 C151.297931,25.0706388 150.958416,25.1435547 150.575602,25.1435547 C149.668696,25.1435547 148.961184,24.8097364 148.453043,24.1420898 C147.944903,23.4744433 147.690836,22.5960341 147.690836,21.5068359 L147.690836,21.3632812 Z M149.68693,21.5068359 C149.68693,22.1539746 149.796304,22.6632468 150.015055,23.034668 C150.233806,23.4060891 150.589271,23.5917969 151.081461,23.5917969 C151.386801,23.5917969 151.645425,23.5359706 151.85734,23.4243164 C152.069255,23.3126622 152.239013,23.1497407 152.366617,22.9355469 L152.366617,19.7226562 C152.239013,19.4993478 152.069255,19.3261725 151.85734,19.203125 C151.645425,19.0800775 151.391359,19.0185547 151.095133,19.0185547 C150.6075,19.0185547 150.250896,19.2350239 150.025309,19.6679688 C149.799722,20.1009136 149.68693,20.6660121 149.68693,21.3632812 L149.68693,21.5068359 Z M158.40543,25 L156.409336,25 L156.409336,14.3359375 L158.40543,14.3359375 L158.40543,25 Z M163.726469,25.1435547 C162.660057,25.1435547 161.807852,24.8017612 161.169828,24.1181641 C160.531804,23.4345669 160.212797,22.5664115 160.212797,21.5136719 L160.212797,21.2402344 C160.212797,20.1419216 160.514715,19.2373082 161.118559,18.5263672 C161.722403,17.8154261 162.532454,17.4622396 163.548735,17.4667969 C164.546787,17.4667969 165.321518,17.7675751 165.872953,18.3691406 C166.424388,18.9707061 166.700102,19.7841746 166.700102,20.8095703 L166.700102,21.8964844 L162.284086,21.8964844 L162.270414,21.9375 C162.306873,22.4251326 162.469794,22.8261703 162.759184,23.140625 C163.048573,23.4550797 163.441636,23.6123047 163.938383,23.6123047 C164.380443,23.6123047 164.747301,23.5678715 165.038969,23.4790039 C165.330637,23.3901363 165.649644,23.250001 165.996,23.0585938 L166.536039,24.2890625 C166.235257,24.5351575 165.841055,24.7390942 165.353422,24.9008789 C164.86579,25.0626636 164.323477,25.1435547 163.726469,25.1435547 L163.726469,25.1435547 Z M163.548735,19.0048828 C163.179592,19.0048828 162.887928,19.1461574 162.673735,19.4287109 C162.459541,19.7112644 162.327381,20.08268 162.27725,20.5429688 L162.297758,20.5771484 L164.745024,20.5771484 L164.745024,20.3994141 C164.745024,19.9755838 164.645904,19.6372083 164.44766,19.3842773 C164.249417,19.1313464 163.949778,19.0048828 163.548735,19.0048828 L163.548735,19.0048828 Z" id="Entrar-com-Google" fill="#514C4C"></path>
                    <g id="Page-1" transform="translate(9.000000, 7.000000)">
                        <g id="Group-3" transform="translate(0.000000, 7.546875)">
                            <mask id="mask-4" fill="white">
                                <use xlink:href="#path-3"></use>
                            </mask>
                            <g id="Clip-2"></g>
                            <path d="M6.2484671,9.37388594 L5.2671132,13.0123547 L1.68003095,13.0877141 C0.608036323,11.1131672 -1.65201823e-05,8.8538625 -1.65201823e-05,6.45313594 C-1.65201823e-05,4.13159687 0.56849802,1.94234687 1.57622914,0.0146671875 L1.57700008,0.0146671875 L4.77051652,0.596104687 L6.16944556,3.74851094 C5.87670793,4.59622187 5.71712297,5.50622187 5.71712297,6.45313594 C5.71712297,7.48082344 5.90457197,8.46547187 6.2484671,9.37388594" id="Fill-1" fill="#FBBB00" mask="url(#mask-4)"></path>
                        </g>
                        <g id="Group-6" transform="translate(14.372559, 11.375000)">
                            <mask id="mask-6" fill="white">
                                <use xlink:href="#path-5"></use>
                            </mask>
                            <g id="Clip-5"></g>
                            <path d="M13.5755865,0.0096140625 C13.7374292,0.856559375 13.8219024,1.73112188 13.8219024,2.62498906 C13.8219024,3.62730156 13.7157877,4.60500469 13.5135807,5.54803594 C12.8273323,8.75731719 11.0342317,11.5596141 8.550147,13.5426922 L8.54937606,13.5419266 L4.52704207,13.3381063 L3.95770152,9.80884844 C5.60597518,8.84886406 6.89410886,7.34654375 7.57259275,5.54803594 L0.0344886339,5.54803594 L0.0344886339,0.0096140625 L7.68261716,0.0096140625 L13.5755865,0.0096140625 Z" id="Fill-4" fill="#518EF9" mask="url(#mask-6)"></path>
                        </g>
                        <path d="M22.9219126,24.9169375 L22.9227386,24.9177031 C20.5068272,26.8461484 17.437928,28 14.0972167,28 C8.72865308,28 4.06109584,25.0200234 1.68004197,20.6345781 L6.24847811,16.92075 C7.43897751,20.0761094 10.5039669,22.3223437 14.0972167,22.3223437 C15.6417436,22.3223437 17.0885812,21.9077031 18.3302381,21.1838047 L22.9219126,24.9169375 Z" id="Fill-7" fill="#28B446"></path>
                        <path d="M23.0954516,3.2230625 L18.5285574,6.936125 C17.2435075,6.13845312 15.7245868,5.67771094 14.0972387,5.67771094 C10.4226546,5.67771094 7.30034014,8.02692187 6.1694786,11.295375 L1.57703312,7.56153125 L1.57626218,7.56153125 C3.92245847,3.06922656 8.64888262,0 14.0972387,0 C17.5177425,0 20.653989,1.20996094 23.0954516,3.2230625" id="Fill-9" fill="#F14336"></path>
                    </g>
                </g>
            </g>
        </g>
    </g>
</svg>