<?xml version="1.0" encoding="UTF-8" standalone="no"?>
<svg width="310px" height="59px" viewBox="0 0 310 59" version="1.1" xmlns="http://www.w3.org/2000/svg" xmlns:xlink="http://www.w3.org/1999/xlink">
    <!-- Generator: Sketch 39.1 (31720) - http://www.bohemiancoding.com/sketch -->
    <title>Group 4</title>
    <desc>Created with Sketch.</desc>
    <defs></defs>
    <g id="Page-1" stroke="none" stroke-width="1" fill="none" fill-rule="evenodd">
        <g id="Detalhes-768" transform="translate(-423.000000, -732.000000)">
            <g id="Group-4" transform="translate(423.000000, 732.000000)">
                <rect id="Rectangle-17" fill="#62D7E6" x="0" y="0" width="310" height="59" rx="6"></rect>
                <path d="M28.0268375,32.6004586 C28.0268375,31.9168614 27.7847338,31.3675505 27.3005191,30.9525093 C26.8163044,30.5374682 25.9679243,30.1468471 24.7553531,29.7806343 C22.6394571,29.1702797 21.040352,28.4460031 19.9579898,27.6077828 C18.8756276,26.7695624 18.3344546,25.622113 18.3344546,24.1654 C18.3344546,22.708687 18.9549725,21.5185133 20.1960269,20.5948433 C21.4370813,19.6711733 23.021945,19.2093453 24.9506656,19.2093453 C26.9038003,19.2093453 28.4947675,19.7281389 29.7236148,20.7657418 C30.9524621,21.8033446 31.5465317,23.0830356 31.5058414,24.6048531 L31.4814273,24.6780953 L28.0268375,24.6780953 C28.0268375,23.8561511 27.752182,23.1908745 27.2028628,22.6822457 C26.6535437,22.1736168 25.8824739,21.9193062 24.8896304,21.9193062 C23.9374772,21.9193062 23.2009937,22.1308926 22.6801578,22.5540718 C22.1593218,22.977251 21.8989078,23.518424 21.8989078,24.177607 C21.8989078,24.7798236 22.1776322,25.2742034 22.7350894,25.6607613 C23.2925466,26.0473192 24.254858,26.4562507 25.6220523,26.8875679 C27.5833251,27.4328181 29.0684991,28.1530257 30.0776187,29.0482125 C31.0867383,29.9433992 31.5912906,31.1193315 31.5912906,32.5760445 C31.5912906,34.097862 30.9911175,35.2982081 29.7907535,36.1771187 C28.5903894,37.0560294 27.0055257,37.4954781 25.0361148,37.4954781 C23.0992562,37.4954781 21.4106337,36.9970293 19.9701968,36.0001168 C18.5297599,35.0032042 17.8298972,33.6055131 17.8705875,31.8070015 L17.8950015,31.7337593 L21.3617984,31.7337593 C21.3617984,32.7917073 21.6852815,33.5668461 22.3322574,34.0591988 C22.9792333,34.5515515 23.8805101,34.7977242 25.0361148,34.7977242 C26.0045441,34.7977242 26.7450966,34.5983447 27.2577945,34.1995797 C27.7704924,33.8008146 28.0268375,33.2677796 28.0268375,32.6004586 L28.0268375,32.6004586 Z M39.7632437,37.4954781 C37.8589373,37.4954781 36.3371426,36.8851326 35.197814,35.6644234 C34.0584854,34.4437142 33.4888296,32.8934367 33.4888296,31.0135445 L33.4888296,30.5252632 C33.4888296,28.5639904 34.0279681,26.9486094 35.1062613,25.6790718 C36.1845544,24.4095342 37.6310732,23.7788439 39.4458609,23.786982 C41.2280964,23.786982 42.6115461,24.324086 43.5962515,25.3983101 C44.580957,26.4725342 45.0733023,27.9251564 45.0733023,29.7562203 L45.0733023,31.6971382 L37.1875601,31.6971382 L37.1631461,31.7703804 C37.2282505,32.641153 37.5191819,33.3572917 38.0359488,33.9188179 C38.5527157,34.4803442 39.254613,34.7611031 40.1416617,34.7611031 C40.9310536,34.7611031 41.5861578,34.6817582 42.1069937,34.523066 C42.6278296,34.3643738 43.1974854,34.1141321 43.8159781,33.7723336 L44.7803336,35.9695992 C44.2432215,36.4090545 43.5392897,36.7732273 42.6685171,37.0621285 C41.7977446,37.3510297 40.8293298,37.4954781 39.7632437,37.4954781 L39.7632437,37.4954781 Z M39.4458609,26.533564 C38.7866779,26.533564 38.2658498,26.7858402 37.8833609,27.2904 C37.500872,27.7949598 37.2648718,28.4582018 37.1753531,29.2801461 L37.2119742,29.3411812 L41.5820914,29.3411812 L41.5820914,29.0237984 C41.5820914,28.2669587 41.4050912,27.6627167 41.0510855,27.2110543 C40.6970798,26.7593918 40.1620103,26.533564 39.4458609,26.533564 L39.4458609,26.533564 Z M50.8160562,37.2391304 L47.2516031,37.2391304 L47.2516031,18.1961617 L50.8160562,18.1961617 L50.8160562,37.2391304 Z M59.5129117,37.4954781 C57.6086053,37.4954781 56.0868106,36.8851326 54.947482,35.6644234 C53.8081534,34.4437142 53.2384976,32.8934367 53.2384976,31.0135445 L53.2384976,30.5252632 C53.2384976,28.5639904 53.7776361,26.9486094 54.8559293,25.6790718 C55.9342224,24.4095342 57.3807412,23.7788439 59.1955289,23.786982 C60.9777643,23.786982 62.3612141,24.324086 63.3459195,25.3983101 C64.3306249,26.4725342 64.8229703,27.9251564 64.8229703,29.7562203 L64.8229703,31.6971382 L56.9372281,31.6971382 L56.912814,31.7703804 C56.9779185,32.641153 57.2688499,33.3572917 57.7856168,33.9188179 C58.3023837,34.4803442 59.0042809,34.7611031 59.8913297,34.7611031 C60.6807216,34.7611031 61.3358257,34.6817582 61.8566617,34.523066 C62.3774976,34.3643738 62.9471534,34.1141321 63.5656461,33.7723336 L64.5300015,35.9695992 C63.9928895,36.4090545 63.2889577,36.7732273 62.4181851,37.0621285 C61.5474125,37.3510297 60.5789977,37.4954781 59.5129117,37.4954781 L59.5129117,37.4954781 Z M59.1955289,26.533564 C58.5363459,26.533564 58.0155178,26.7858402 57.6330289,27.2904 C57.25054,27.7949598 57.0145397,28.4582018 56.9250211,29.2801461 L56.9616422,29.3411812 L61.3317593,29.3411812 L61.3317593,29.0237984 C61.3317593,28.2669587 61.1547592,27.6627167 60.8007535,27.2110543 C60.4467478,26.7593918 59.9116783,26.533564 59.1955289,26.533564 L59.1955289,26.533564 Z M72.3601578,34.7611031 C72.9949266,34.7611031 73.5035478,34.575965 73.8860367,34.2056832 C74.2685256,33.8354014 74.4597672,33.3410215 74.4597672,32.7225289 L77.6946304,32.7225289 L77.7312515,32.7957711 C77.7638038,34.1304131 77.261286,35.2473453 76.2236832,36.1466011 C75.1860803,37.0458569 73.8982514,37.4954781 72.3601578,37.4954781 C70.3907469,37.4954781 68.8730212,36.8729257 67.8069351,35.6278023 C66.7408491,34.3826789 66.207814,32.7835738 66.207814,30.830439 L66.207814,30.4642281 C66.207814,28.5192314 66.7388146,26.9201263 67.8008316,25.6668648 C68.8628486,24.4136033 70.3785399,23.786982 72.3479507,23.786982 C73.9755631,23.786982 75.2878058,24.2508445 76.2847183,25.1785836 C77.2816309,26.1063226 77.7638038,27.3270135 77.7312515,28.8406929 L77.7068375,28.9139351 L74.4597672,28.9139351 C74.4597672,28.230338 74.2725945,27.6627167 73.8982437,27.2110543 C73.5238929,26.7593918 73.0071337,26.533564 72.3479507,26.533564 C71.4039356,26.533564 70.7386591,26.8997713 70.3521011,27.6321968 C69.9655432,28.3646224 69.7722672,29.3086234 69.7722672,30.4642281 L69.7722672,30.830439 C69.7722672,32.0104579 69.9655432,32.9605624 70.3521011,33.6807808 C70.7386591,34.4009993 71.4080046,34.7611031 72.3601578,34.7611031 L72.3601578,34.7611031 Z M83.4251773,37.2391304 L79.8607242,37.2391304 L79.8607242,24.0311226 L83.4251773,24.0311226 L83.4251773,37.2391304 Z M83.4251773,20.8695015 L79.8607242,20.8695015 L79.8607242,18.1961617 L83.4251773,18.1961617 L83.4251773,20.8695015 Z M85.7255484,30.5130562 C85.7255484,28.5436453 86.2748593,26.9302988 87.3734976,25.6729683 C88.4721359,24.4156378 89.9939306,23.786982 91.9389273,23.786982 C93.8920621,23.786982 95.4219947,24.4136033 96.5287711,25.6668648 C97.6355474,26.9201263 98.1889273,28.5355073 98.1889273,30.5130562 L98.1889273,30.7694039 C98.1889273,32.7550909 97.6375819,34.3725064 96.5348746,35.6216988 C95.4321672,36.8708912 93.9083381,37.4954781 91.9633414,37.4954781 C90.0102066,37.4954781 88.4823085,36.8708912 87.3796011,35.6216988 C86.2768938,34.3725064 85.7255484,32.7550909 85.7255484,30.7694039 L85.7255484,30.5130562 Z M89.2777945,30.7694039 C89.2777945,31.973837 89.4893809,32.9402173 89.9125601,33.6685738 C90.3357393,34.3969303 91.0193262,34.7611031 91.9633414,34.7611031 C92.8829423,34.7611031 93.5563568,34.3948958 93.983605,33.6624703 C94.4108533,32.9300447 94.6244742,31.9656989 94.6244742,30.7694039 L94.6244742,30.5130562 C94.6244742,29.3411754 94.4088188,28.3849675 93.9775015,27.6444039 C93.5461843,26.9038403 92.8666663,26.533564 91.9389273,26.533564 C91.0193264,26.533564 90.3459119,26.9058748 89.9186636,27.6505074 C89.4914154,28.39514 89.2777945,29.3493134 89.2777945,30.5130562 L89.2777945,30.7694039 Z M103.56547,24.0311226 L103.724162,25.9232125 C104.163617,25.2477534 104.70479,24.7228563 105.347697,24.3485054 C105.990604,23.9741546 106.710811,23.786982 107.508341,23.786982 C108.842983,23.786982 109.88464,24.2060859 110.633341,25.0443062 C111.382043,25.8825266 111.756388,27.1968038 111.756388,28.9871773 L111.756388,37.2391304 L108.179728,37.2391304 L108.179728,28.9993843 C108.179728,28.1123356 108.000693,27.4836798 107.642619,27.113398 C107.284544,26.7431162 106.743371,26.5579781 106.019084,26.5579781 C105.547076,26.5579781 105.123903,26.6535989 104.749552,26.8448433 C104.375201,27.0360878 104.061891,27.3066743 103.809611,27.6566109 L103.809611,37.2391304 L100.245158,37.2391304 L100.245158,24.0311226 L103.56547,24.0311226 Z M120.184689,37.4954781 C118.280383,37.4954781 116.758588,36.8851326 115.619259,35.6644234 C114.479931,34.4437142 113.910275,32.8934367 113.910275,31.0135445 L113.910275,30.5252632 C113.910275,28.5639904 114.449413,26.9486094 115.527707,25.6790718 C116.606,24.4095342 118.052519,23.7788439 119.867306,23.786982 C121.649542,23.786982 123.032991,24.324086 124.017697,25.3983101 C125.002402,26.4725342 125.494748,27.9251564 125.494748,29.7562203 L125.494748,31.6971382 L117.609005,31.6971382 L117.584591,31.7703804 C117.649696,32.641153 117.940627,33.3572917 118.457394,33.9188179 C118.974161,34.4803442 119.676058,34.7611031 120.563107,34.7611031 C121.352499,34.7611031 122.007603,34.6817582 122.528439,34.523066 C123.049275,34.3643738 123.618931,34.1141321 124.237423,33.7723336 L125.201779,35.9695992 C124.664667,36.4090545 123.960735,36.7732273 123.089962,37.0621285 C122.21919,37.3510297 121.250775,37.4954781 120.184689,37.4954781 L120.184689,37.4954781 Z M119.867306,26.533564 C119.208123,26.533564 118.687295,26.7858402 118.304806,27.2904 C117.922317,27.7949598 117.686317,28.4582018 117.596798,29.2801461 L117.63342,29.3411812 L122.003537,29.3411812 L122.003537,29.0237984 C122.003537,28.2669587 121.826537,27.6627167 121.472531,27.2110543 C121.118525,26.7593918 120.583456,26.533564 119.867306,26.533564 L119.867306,26.533564 Z M148.222931,29.9515328 C148.222931,32.1325333 147.533241,33.9350869 146.153839,35.3592476 C144.774438,36.7834084 142.982057,37.4954781 140.776642,37.4954781 C138.587504,37.4954781 136.809364,36.7834084 135.44217,35.3592476 C134.074975,33.9350869 133.391388,32.1325333 133.391388,29.9515328 L133.391388,26.7532906 C133.391388,24.5804282 134.072941,22.7799091 135.436066,21.3516793 C136.799191,19.9234495 138.575297,19.2093453 140.764435,19.2093453 C142.96985,19.2093453 144.764265,19.9234495 146.147736,21.3516793 C147.531206,22.7799091 148.222931,24.5804282 148.222931,26.7532906 L148.222931,29.9515328 Z M144.658478,26.7288765 C144.658478,25.3454061 144.312616,24.2101635 143.62088,23.3231148 C142.929145,22.4360661 141.977006,21.9925484 140.764435,21.9925484 C139.551864,21.9925484 138.611932,22.4340316 137.944611,23.3170113 C137.27729,24.199991 136.943634,25.337268 136.943634,26.7288765 L136.943634,29.9515328 C136.943634,31.3594174 137.281359,32.5068669 137.956818,33.3939156 C138.632277,34.2809643 139.572209,34.724482 140.776642,34.724482 C141.997351,34.724482 142.94949,34.2809643 143.633087,33.3939156 C144.316685,32.5068669 144.658478,31.3594174 144.658478,29.9515328 L144.658478,26.7288765 Z M162.547228,31.0013375 C162.547228,32.9544722 162.095572,34.5250945 161.192248,35.7132515 C160.288923,36.9014085 159.027542,37.4954781 157.408068,37.4954781 C156.716333,37.4954781 156.101918,37.3673055 155.564806,37.1109566 C155.027694,36.8546077 154.567901,36.478228 154.185412,35.9818062 L154.185412,42.3172554 L150.633166,42.3172554 L150.633166,24.0311226 L153.843615,24.0311226 L154.051134,25.5936226 C154.441761,25.0158203 154.911727,24.5702681 155.461046,24.2569527 C156.010366,23.9436373 156.651228,23.786982 157.383654,23.786982 C159.019404,23.786982 160.288923,24.4258102 161.192248,25.7034859 C162.095572,26.9811616 162.547228,28.6616461 162.547228,30.7449898 L162.547228,31.0013375 Z M158.982775,30.7449898 C158.982775,29.4998664 158.775258,28.4907619 158.360216,27.7176461 C157.945175,26.9445302 157.310416,26.5579781 156.45592,26.5579781 C155.918807,26.5579781 155.461048,26.6678403 155.082628,26.8875679 C154.704209,27.1072956 154.405139,27.4206063 154.185412,27.8275093 L154.185412,33.6136422 C154.405139,33.987993 154.704209,34.2728209 155.082628,34.4681343 C155.461048,34.6634478 155.926945,34.7611031 156.480334,34.7611031 C157.342968,34.7611031 157.975693,34.4233786 158.378527,33.7479195 C158.781361,33.0724604 158.982775,32.1569422 158.982775,31.0013375 L158.982775,30.7449898 Z M170.206486,34.7611031 C170.841255,34.7611031 171.349876,34.575965 171.732365,34.2056832 C172.114854,33.8354014 172.306095,33.3410215 172.306095,32.7225289 L175.540959,32.7225289 L175.57758,32.7957711 C175.610132,34.1304131 175.107614,35.2473453 174.070011,36.1466011 C173.032408,37.0458569 171.74458,37.4954781 170.206486,37.4954781 C168.237075,37.4954781 166.719349,36.8729257 165.653263,35.6278023 C164.587177,34.3826789 164.054142,32.7835738 164.054142,30.830439 L164.054142,30.4642281 C164.054142,28.5192314 164.585143,26.9201263 165.64716,25.6668648 C166.709177,24.4136033 168.224868,23.786982 170.194279,23.786982 C171.821891,23.786982 173.134134,24.2508445 174.131046,25.1785836 C175.127959,26.1063226 175.610132,27.3270135 175.57758,28.8406929 L175.553166,28.9139351 L172.306095,28.9139351 C172.306095,28.230338 172.118923,27.6627167 171.744572,27.2110543 C171.370221,26.7593918 170.853462,26.533564 170.194279,26.533564 C169.250264,26.533564 168.584987,26.8997713 168.198429,27.6321968 C167.811871,28.3646224 167.618595,29.3086234 167.618595,30.4642281 L167.618595,30.830439 C167.618595,32.0104579 167.811871,32.9605624 168.198429,33.6807808 C168.584987,34.4009993 169.254333,34.7611031 170.206486,34.7611031 L170.206486,34.7611031 Z M171.414982,37.1780953 L171.280705,37.8738961 C171.801541,37.9634147 172.23692,38.1750012 172.586857,38.5086617 C172.936794,38.8423222 173.111759,39.3346675 173.111759,39.9857125 C173.111759,40.856485 172.739449,41.5522789 171.994816,42.0731148 C171.250183,42.5939507 170.194286,42.8543648 168.827091,42.8543648 L168.741642,40.8890328 C169.156683,40.8890328 169.48627,40.8056189 169.730412,40.6387886 C169.974554,40.4719584 170.096623,40.2176478 170.096623,39.8758492 C170.096623,39.5421887 169.966416,39.3082229 169.705998,39.1739449 C169.44558,39.0396669 168.997993,38.952184 168.363224,38.9114937 L168.741642,37.1780953 L171.414982,37.1780953 Z M176.97463,30.5130562 C176.97463,28.5436453 177.523941,26.9302988 178.62258,25.6729683 C179.721218,24.4156378 181.243013,23.786982 183.188009,23.786982 C185.141144,23.786982 186.671077,24.4136033 187.777853,25.6668648 C188.884629,26.9201263 189.438009,28.5355073 189.438009,30.5130562 L189.438009,30.7694039 C189.438009,32.7550909 188.886664,34.3725064 187.783957,35.6216988 C186.681249,36.8708912 185.15742,37.4954781 183.212423,37.4954781 C181.259289,37.4954781 179.731391,36.8708912 178.628683,35.6216988 C177.525976,34.3725064 176.97463,32.7550909 176.97463,30.7694039 L176.97463,30.5130562 Z M180.526877,30.7694039 C180.526877,31.973837 180.738463,32.9402173 181.161642,33.6685738 C181.584821,34.3969303 182.268408,34.7611031 183.212423,34.7611031 C184.132024,34.7611031 184.805439,34.3948958 185.232687,33.6624703 C185.659935,32.9300447 185.873556,31.9656989 185.873556,30.7694039 L185.873556,30.5130562 C185.873556,29.3411754 185.657901,28.3849675 185.226584,27.6444039 C184.795266,26.9038403 184.115748,26.533564 183.188009,26.533564 C182.268408,26.533564 181.594994,26.9058748 181.167746,27.6505074 C180.740497,28.39514 180.526877,29.3493134 180.526877,30.5130562 L180.526877,30.7694039 Z M187.765646,18.5135445 C187.765646,19.2947984 187.523542,19.960075 187.039328,20.5093941 C186.555113,21.0587133 185.942733,21.3333687 185.20217,21.3333687 C184.632505,21.3333687 183.987574,21.1563685 183.267355,20.8023629 C182.547137,20.4483572 181.975446,20.271357 181.552267,20.271357 C181.259297,20.271357 181.015159,20.4035985 180.819845,20.6680855 C180.624532,20.9325725 180.526877,21.2479177 180.526877,21.6141304 L178.62258,21.1014351 C178.62258,20.3364573 178.864683,19.6711808 179.348898,19.1055855 C179.833113,18.5399902 180.441424,18.2571968 181.173849,18.2571968 C181.629581,18.2571968 182.248064,18.434197 183.029318,18.7882027 C183.810572,19.1422084 184.412779,19.3192086 184.835959,19.3192086 C185.112653,19.3192086 185.356791,19.1890015 185.56838,18.9285836 C185.77997,18.6681656 185.885763,18.346717 185.885763,17.9642281 L187.765646,18.5135445 Z M197.402443,37.4954781 C195.498137,37.4954781 193.976342,36.8851326 192.837013,35.6644234 C191.697685,34.4437142 191.128029,32.8934367 191.128029,31.0135445 L191.128029,30.5252632 C191.128029,28.5639904 191.667167,26.9486094 192.745461,25.6790718 C193.823754,24.4095342 195.270272,23.7788439 197.08506,23.786982 C198.867296,23.786982 200.250745,24.324086 201.235451,25.3983101 C202.220156,26.4725342 202.712502,27.9251564 202.712502,29.7562203 L202.712502,31.6971382 L194.826759,31.6971382 L194.802345,31.7703804 C194.86745,32.641153 195.158381,33.3572917 195.675148,33.9188179 C196.191915,34.4803442 196.893812,34.7611031 197.780861,34.7611031 C198.570253,34.7611031 199.225357,34.6817582 199.746193,34.523066 C200.267029,34.3643738 200.836685,34.1141321 201.455177,33.7723336 L202.419533,35.9695992 C201.882421,36.4090545 201.178489,36.7732273 200.307716,37.0621285 C199.436944,37.3510297 198.468529,37.4954781 197.402443,37.4954781 L197.402443,37.4954781 Z M197.08506,26.533564 C196.425877,26.533564 195.905049,26.7858402 195.52256,27.2904 C195.140071,27.7949598 194.904071,28.4582018 194.814552,29.2801461 L194.851173,29.3411812 L199.221291,29.3411812 L199.221291,29.0237984 C199.221291,28.2669587 199.04429,27.6627167 198.690285,27.2110543 C198.336279,26.7593918 197.80121,26.533564 197.08506,26.533564 L197.08506,26.533564 Z M211.84881,33.6014351 C211.84881,33.2108082 211.659603,32.8730837 211.281183,32.5882515 C210.902763,32.3034194 210.200866,32.0511433 209.17547,31.8314156 C207.612962,31.5140312 206.434996,31.0440652 205.641535,30.4215035 C204.848074,29.7989418 204.451349,28.9505616 204.451349,27.8763375 C204.451349,26.7370089 204.929453,25.7706285 205.885675,24.9771675 C206.841898,24.1837065 208.121589,23.786982 209.724787,23.786982 C211.409365,23.786982 212.750091,24.1816721 213.747004,24.971064 C214.743916,25.760456 215.22202,26.7573536 215.18133,27.9617867 L215.156916,28.0350289 L211.714533,28.0350289 C211.714533,27.5060549 211.545671,27.0747441 211.207941,26.7410836 C210.870211,26.407423 210.375832,26.2405953 209.724787,26.2405953 C209.146984,26.2405953 208.693294,26.3809747 208.363703,26.6617379 C208.034111,26.942501 207.869318,27.2944669 207.869318,27.7176461 C207.869318,28.1245491 208.042249,28.4582047 208.388117,28.7186226 C208.733984,28.9790406 209.435882,29.2109719 210.49383,29.4144234 C212.121442,29.7399459 213.329926,30.2180498 214.119318,30.8487496 C214.90871,31.4794493 215.3034,32.3481744 215.3034,33.4549507 C215.3034,34.6431077 214.794779,35.613557 213.777521,36.3663277 C212.760263,37.1190984 211.417503,37.4954781 209.749201,37.4954781 C207.991379,37.4954781 206.601826,37.0499259 205.5805,36.1588082 C204.559173,35.2676904 204.072931,34.2524825 204.121759,33.1131539 L204.146173,33.0399117 L207.405451,33.0399117 C207.429865,33.747923 207.661796,34.2606132 208.101252,34.5779976 C208.540707,34.895382 209.114432,35.0540718 209.822443,35.0540718 C210.481626,35.0540718 210.984144,34.9238648 211.330011,34.6634468 C211.675879,34.4030289 211.84881,34.0490285 211.84881,33.6014351 L211.84881,33.6014351 Z M233.490568,33.4061226 L227.252775,33.4061226 L226.044279,37.2391304 L222.443205,37.2391304 L228.558927,19.4656929 L232.20883,19.4656929 L238.300138,37.2391304 L234.699064,37.2391304 L233.490568,33.4061226 Z M228.131681,30.6107125 L232.611662,30.6107125 L230.414396,23.6282906 L230.341154,23.6282906 L228.131681,30.6107125 Z M245.129318,34.7611031 C245.764087,34.7611031 246.272708,34.575965 246.655197,34.2056832 C247.037686,33.8354014 247.228927,33.3410215 247.228927,32.7225289 L250.463791,32.7225289 L250.500412,32.7957711 C250.532964,34.1304131 250.030446,35.2473453 248.992843,36.1466011 C247.955241,37.0458569 246.667412,37.4954781 245.129318,37.4954781 C243.159907,37.4954781 241.642181,36.8729257 240.576095,35.6278023 C239.510009,34.3826789 238.976974,32.7835738 238.976974,30.830439 L238.976974,30.4642281 C238.976974,28.5192314 239.507975,26.9201263 240.569992,25.6668648 C241.632009,24.4136033 243.1477,23.786982 245.117111,23.786982 C246.744723,23.786982 248.056966,24.2508445 249.053879,25.1785836 C250.050791,26.1063226 250.532964,27.3270135 250.500412,28.8406929 L250.475998,28.9139351 L247.228927,28.9139351 C247.228927,28.230338 247.041755,27.6627167 246.667404,27.2110543 C246.293053,26.7593918 245.776294,26.533564 245.117111,26.533564 C244.173096,26.533564 243.507819,26.8997713 243.121261,27.6321968 C242.734703,28.3646224 242.541427,29.3086234 242.541427,30.4642281 L242.541427,30.830439 C242.541427,32.0104579 242.734703,32.9605624 243.121261,33.6807808 C243.507819,34.4009993 244.177165,34.7611031 245.129318,34.7611031 L245.129318,34.7611031 Z M256.194337,37.2391304 L252.629884,37.2391304 L252.629884,24.0311226 L256.194337,24.0311226 L256.194337,37.2391304 Z M256.194337,20.8695015 L252.629884,20.8695015 L252.629884,18.1961617 L256.194337,18.1961617 L256.194337,20.8695015 Z M262.35213,24.0311226 L262.498615,25.7767281 C262.921794,25.1419593 263.452795,24.6516484 264.091632,24.3057808 C264.73047,23.9599132 265.468988,23.786982 266.307209,23.786982 C267.153567,23.786982 267.877844,23.9741546 268.48006,24.3485054 C269.082277,24.7228563 269.538001,25.2884431 269.847248,26.0452828 C270.254151,25.3372714 270.783117,24.7838915 271.434162,24.3851265 C272.085207,23.9863615 272.850173,23.786982 273.729084,23.786982 C275.031173,23.786982 276.058588,24.2366032 276.811359,25.135859 C277.56413,26.0351147 277.940509,27.4043231 277.940509,29.243525 L277.940509,37.2391304 L274.376056,37.2391304 L274.376056,29.2313179 C274.376056,28.2303364 274.213297,27.5345425 273.887775,27.1439156 C273.562253,26.7532886 273.078045,26.5579781 272.435138,26.5579781 C271.930578,26.5579781 271.493164,26.6698748 271.122882,26.8936715 C270.752601,27.1174681 270.4576,27.4287443 270.237873,27.8275093 C270.237873,27.9821325 270.241942,28.114374 270.25008,28.2242379 C270.258218,28.3341017 270.262287,28.4459984 270.262287,28.5599312 L270.262287,37.2391304 L266.710041,37.2391304 L266.710041,29.2313179 C266.710041,28.2547506 266.547282,27.5650602 266.221759,27.1622261 C265.896237,26.7593921 265.407961,26.5579781 264.756916,26.5579781 C264.27677,26.5579781 263.855632,26.6495299 263.493488,26.8326363 C263.131344,27.0157427 262.832275,27.2741223 262.596271,27.6077828 L262.596271,37.2391304 L259.044025,37.2391304 L259.044025,24.0311226 L262.35213,24.0311226 Z M288.346349,37.2391304 C288.21614,36.9380222 288.104244,36.6206425 288.010656,36.286982 C287.917068,35.9533215 287.84993,35.611528 287.80924,35.2615914 C287.443027,35.9044982 286.960854,36.4375333 286.362707,36.8607125 C285.764559,37.2838917 285.050455,37.4954781 284.220373,37.4954781 C282.836902,37.4954781 281.770832,37.1394432 281.02213,36.4273629 C280.273429,35.7152825 279.899084,34.7448332 279.899084,33.5159859 C279.899084,32.2220341 280.397532,31.2190331 281.394445,30.5069527 C282.391357,29.7948723 283.846014,29.4388375 285.758459,29.4388375 L287.748205,29.4388375 L287.748205,28.3890328 C287.748205,27.754264 287.581377,27.2619186 287.247716,26.911982 C286.914056,26.5620454 286.421711,26.3870797 285.770666,26.3870797 C285.192863,26.3870797 284.747311,26.5274591 284.433996,26.8082222 C284.12068,27.0889854 283.964025,27.477572 283.964025,27.9739937 L280.521642,27.9617867 L280.509435,27.8885445 C280.452469,26.7736301 280.936676,25.8113187 281.962072,25.0015816 C282.987468,24.1918445 284.334297,23.786982 286.002599,23.786982 C287.581383,23.786982 288.863109,24.1877755 289.847814,24.9893746 C290.83252,25.7909736 291.324865,26.9323196 291.324865,28.4134468 L291.324865,33.8699898 C291.324865,34.4884825 291.371658,35.0703452 291.465246,35.6155953 C291.558833,36.1608454 291.707351,36.7020184 291.910802,37.2391304 L288.346349,37.2391304 Z M285.087072,34.8587593 C285.713703,34.8587593 286.271151,34.7041385 286.759435,34.3948922 C287.247719,34.0856458 287.577305,33.7275765 287.748205,33.3206734 L287.748205,31.4529976 L285.758459,31.4529976 C285.001619,31.4529976 284.427894,31.6422047 284.037267,32.0206246 C283.64664,32.3990444 283.45133,32.8568035 283.45133,33.3939156 C283.45133,33.8333709 283.597813,34.1873713 283.890783,34.4559273 C284.183753,34.7244833 284.582512,34.8587593 285.087072,34.8587593 L285.087072,34.8587593 Z" id="Selecione-Opções-Aci" fill="#FFFFFF"></path>
            </g>
        </g>
    </g>
</svg>