<?xml version="1.0" encoding="utf-8"?>
<!-- Generator: Adobe Illustrator 15.0.0, SVG Export Plug-In . SVG Version: 6.00 Build 0)  -->
<!DOCTYPE svg PUBLIC "-//W3C//DTD SVG 1.1//EN" "http://www.w3.org/Graphics/SVG/1.1/DTD/svg11.dtd">
<svg version="1.1" id="Layer_1" xmlns="http://www.w3.org/2000/svg" xmlns:xlink="http://www.w3.org/1999/xlink" x="0px" y="0px"
     width="100px" height="100px" viewBox="0 0 100 100" enable-background="new 0 0 100 100" xml:space="preserve">
<g>
    <path fill="#B8B7B8" d="M57.334,52.753c-0.539,0.948-1.147,2.028-1.147,2.028s6.962-0.879,9.936-0.338
        c8.652,1.216,13.451-6.219,13.451-6.219s-3.177-0.338-6.285-1.149C72.003,46.873,62.134,43.087,57.334,52.753z"/>
    <path fill="#B8B7B8" d="M27.188,47.075c-3.11,0.811-6.288,1.149-6.288,1.149s4.8,7.435,13.452,6.219
        c2.975-0.541,9.937,0.338,9.937,0.338s-0.607-1.08-1.15-2.028C38.339,43.087,28.471,46.873,27.188,47.075z"/>
    <path fill="#B8B7B8" d="M50,1.149c-26.978,0-48.851,21.872-48.851,48.852c0,26.979,21.873,48.85,48.851,48.85
        c26.98,0,48.851-21.871,48.851-48.85C98.851,23.021,76.98,1.149,50,1.149z M77.883,61c-6.826,3.921-15.074,1.285-16.154,0.879
        c-9.532-2.839-19.874-0.404-21.361,0c-11.76,3.854-17.914-0.607-19.467-1.556c-7.437-4.797-9.734-18.79-9.734-18.79
        s2.365,0.474,5.679-1.15c16.086-7.504,25.281-2.095,25.281-2.095s5.475,2.704,6.217,3.515c1.962,1.488,3.313,0,3.313,0
        s4.394-2.906,6.625-3.786c12.232-4.596,22.44,1.149,23.521,1.893c5.072,2.501,7.031,1.285,7.031,1.285S87.889,55.322,77.883,61z"/>
</g>
</svg>
