<?xml version="1.0" encoding="UTF-8" standalone="no"?>
<svg width="45px" height="42px" viewBox="0 0 45 42" version="1.1" xmlns="http://www.w3.org/2000/svg" xmlns:xlink="http://www.w3.org/1999/xlink">
    <!-- Generator: Sketch 39.1 (31720) - http://www.bohemiancoding.com/sketch -->
    <title>Page 1 Copy 3</title>
    <desc>Created with Sketch.</desc>
    <defs>
        <polygon id="path-1" points="44.9007955 31.5112 44.9007955 0.2715 0.000102272737 0.2715 0.000102272737 31.5112"></polygon>
    </defs>
    <g id="Page-1" stroke="none" stroke-width="1" fill="none" fill-rule="evenodd">
        <g id="Home-1024-Copy-6" transform="translate(-956.000000, -78.000000)">
            <g id="Page-1-Copy-3" transform="translate(956.000000, 78.000000)">
                <g id="Group-3" transform="translate(0.000000, 0.228700)">
                    <mask id="mask-2" fill="white">
                        <use xlink:href="#path-1"></use>
                    </mask>
                    <g id="Clip-2"></g>
                    <path d="M35.7490227,27.2542 L23.9385682,27.2542 C23.9390795,27.2537 23.9390795,27.2532 23.9395909,27.2527 L18.0420341,27.2527 C18.0369205,27.2527 18.0323182,27.2537 18.0272045,27.2542 L18.0041932,27.2542 L18.0041932,27.2562 C17.9949886,27.2577 17.9862955,27.2592 17.9765795,27.2592 C17.9540795,27.2592 17.9331136,27.2532 17.9106136,27.2527 L17.866125,27.2527 L17.866125,27.2482 C17.0796477,27.2037 16.4312386,26.6972 16.1791364,26.0032 L12.6358977,10.5977 L38.8013523,10.5977 C39.7535114,10.6782 40.5041932,11.4282 40.5507273,12.3687 L37.5285682,25.5047 L37.5035114,25.5122 C37.4421477,26.4407 36.6950455,27.1782 35.7490227,27.2542 L35.7490227,27.2542 Z M44.877375,12.9237 C44.8896477,12.7697 44.9008977,12.6162 44.9008977,12.4587 C44.9008977,9.2122 42.3159545,6.5632 39.049875,6.3542 L39.049875,6.3477 L38.9189659,6.3477 C38.8253864,6.3437 38.7323182,6.3337 38.6366932,6.3337 C38.5190795,6.3337 38.403,6.3417 38.2869205,6.3477 L11.6581705,6.3477 L11.3958409,5.2077 L11.3922614,5.2087 C10.8231136,2.4232 8.33021591,0.3197 5.32084091,0.2922 L5.32084091,0.2837 L2.30379545,0.2837 C2.26288636,0.2812 2.223,0.2712 2.18106818,0.2712 C0.976806818,0.2712 0.000102272737,1.2262 0.000102272737,2.4042 C0.000102272737,3.5592 0.941011364,4.4942 2.11356818,4.5302 L2.11356818,4.5337 L2.14680682,4.5337 C2.15856818,4.5337 2.16930682,4.5367 2.18106818,4.5367 C2.19334091,4.5367 2.20407955,4.5337 2.21584091,4.5337 L4.47555682,4.5337 L4.47555682,4.5407 L5.19606818,4.5407 C5.21856818,4.5397 5.23902273,4.5342 5.26152273,4.5342 C5.28402273,4.5342 5.30498864,4.5397 5.32748864,4.5407 L5.37197727,4.5407 L5.37197727,4.5452 C6.32567045,4.5987 7.08657955,5.3282 7.16839773,6.2532 L7.18118182,6.2532 L11.8018636,26.3387 C12.2733409,29.2642 14.8521477,31.5037 17.9765795,31.5037 C17.9857841,31.5037 17.9944773,31.5027 18.0041932,31.5027 L18.0041932,31.5042 L35.7024886,31.5042 L35.7024886,31.5112 C38.5175455,31.4632 40.8754432,29.6007 41.6133409,27.0697 L41.6235682,27.0722 L41.7043636,26.7202 C41.7156136,26.6697 41.7283977,26.6207 41.738625,26.5702 L44.8538523,13.0297 L44.87175,13.0317 C44.8748182,12.9977 44.8743068,12.9627 44.8768636,12.9287 L44.8783977,12.9237 L44.877375,12.9237 Z" id="Fill-1" fill="#7B7B7B" mask="url(#mask-2)"></path>
                </g>
                <path d="M17.3948523,34.0874 C15.2363864,34.0874 13.4865,35.7979 13.4865,37.9084 C13.4865,40.0179 15.2363864,41.7284 17.3948523,41.7284 C19.5528068,41.7284 21.3021818,40.0179 21.3021818,37.9084 C21.3021818,35.7979 19.5528068,34.0874 17.3948523,34.0874" id="Fill-4" fill="#7B7B7B"></path>
                <path d="M34.9000568,34.0874 C32.7421023,34.0874 30.9927273,35.7979 30.9927273,37.9084 C30.9927273,40.0179 32.7421023,41.7284 34.9000568,41.7284 C37.0585227,41.7284 38.8084091,40.0179 38.8084091,37.9084 C38.8084091,35.7979 37.0585227,34.0874 34.9000568,34.0874" id="Fill-6" fill="#7B7B7B"></path>
            </g>
        </g>
    </g>
</svg>