<?xml version="1.0" encoding="UTF-8" standalone="no"?>
<svg width="193px" height="41px" viewBox="0 0 193 41" version="1.1" xmlns="http://www.w3.org/2000/svg" xmlns:xlink="http://www.w3.org/1999/xlink">
    <!-- Generator: Sketch 39.1 (31720) - http://www.bohemiancoding.com/sketch -->
    <title>Group 8 Copy</title>
    <desc>Created with Sketch.</desc>
    <defs>
        <polygon id="path-1" points="17.8007599 7.84222592 17.8007599 3.41060513e-13 5.03728512e-05 3.41060513e-13 5.03728512e-05 7.84222592 17.8007599 7.84222592"></polygon>
    </defs>
    <g id="Page-1" stroke="none" stroke-width="1" fill="none" fill-rule="evenodd">
        <g id="Minha-Conta-login" transform="translate(-394.000000, -681.000000)">
            <g id="Group-8-Copy" transform="translate(394.000000, 681.000000)">
                <g id="Group-4">
                    <g id="Group-10">
                        <g id="Group-2">
                            <g id="Group-2-Copy">
                                <rect id="Rectangle-11" fill="#19CE3F" x="0" y="0" width="193" height="41" rx="6"></rect>
                                <text id="CONTINUAR" font-family="Roboto-Bold, Roboto" font-size="18" font-weight="bold" line-spacing="16" letter-spacing="0.521999955" fill="#FFFFFF">
                                    <tspan x="29.0179419" y="26.8370762">CONTINUAR</tspan>
                                </text>
                            </g>
                            <g id="Page-1-Copy" transform="translate(178.751678, 21.067114) rotate(-90.000000) translate(-178.751678, -21.067114) translate(169.751678, 17.067114)">
                                <mask id="mask-2" fill="white">
                                    <use xlink:href="#path-1"></use>
                                </mask>
                                <g id="Clip-2"></g>
                                <path d="M17.40043,0.307690323 L17.40043,0.307690323 C16.8664777,-0.102632258 15.9930124,-0.102632258 15.4590601,0.307690323 L8.90017845,5.34769032 L2.34196841,0.307690323 C1.80801613,-0.102632258 0.934214989,-0.102632258 0.400262714,0.307690323 C-0.133353741,0.718012903 -0.133353741,1.38949677 0.400262714,1.79981935 L7.8675349,7.53814194 C8.15063035,7.75517419 8.52809095,7.8540129 8.90017845,7.84110968 C9.27260176,7.8540129 9.65039819,7.75517419 9.93315782,7.53814194 L17.40043,1.79981935 C17.9343823,1.38949677 17.9343823,0.718012903 17.40043,0.307690323" id="Fill-1" fill="#FFFFFF" mask="url(#mask-2)"></path>
                            </g>
                        </g>
                    </g>
                </g>
            </g>
        </g>
    </g>
</svg>