<?xml version="1.0" encoding="iso-8859-1"?>
<!-- Generator: Adobe Illustrator 18.0.0, SVG Export Plug-In . SVG Version: 6.00 Build 0)  -->
<!DOCTYPE svg PUBLIC "-//W3C//DTD SVG 1.1//EN" "http://www.w3.org/Graphics/SVG/1.1/DTD/svg11.dtd">
<svg xmlns="http://www.w3.org/2000/svg" xmlns:xlink="http://www.w3.org/1999/xlink" version="1.1" id="Capa_1" x="0px" y="0px" viewBox="0 0 495.636 495.636" xml:space="preserve" width="512px" height="512px">
<path id="XMLID_67_" d="M408.016,167.758C405.168,74.757,334.507,0,247.836,0C160.38,0,89.163,76.105,87.539,170.286  c-15.523,14.241-23.594,35.876-19.089,58.037c6.262,30.836,34.393,51.365,64.936,49.348c3.717,4.545,9.158,7.509,15.203,7.509  c1.309,0,2.646-0.133,3.969-0.401c5.609-1.139,10.079-4.589,12.879-9.11c11.152,18.352,24.932,34.15,40.537,44.709V334.2  c0,24.271-15.037,45.998-37.76,54.554c-1.99,0.746-3.566,2.303-4.354,4.287c-0.77,1.976-0.686,4.195,0.268,6.104l31.816,64.316  c9.746,19.708,29.838,32.174,51.825,32.174c21.986,0,42.079-12.466,51.825-32.174l31.813-64.316  c0.955-1.909,1.039-4.128,0.269-6.104c-0.786-1.984-2.36-3.541-4.353-4.287c-11.469-4.319-20.947-11.997-27.561-21.651  c-5.946,3.726-12.727,5.836-19.843,5.836h-32.084c-21.266,0-38.58-17.306-38.58-38.58c0-18.277,12.81-33.548,29.889-37.509  c2.814-0.652,5.694-1.072,8.691-1.072h32.084c2.846,0,5.624,0.443,8.354,1.072c0.435,0.101,0.853,0.226,1.29,0.335  c4.99,1.349,9.694,3.6,13.815,6.882c2.293-0.21,4.47-0.83,6.697-1.264c7.753-8.331,14.735-18.018,20.946-28.407  c2.815,3.909,6.95,6.897,12.041,7.935c1.289,0.268,2.578,0.385,3.835,0.394c0.052,0,0.099,0.017,0.15,0.017  c6.045,0,11.485-2.964,15.205-7.509c3.583,0.234,7.1,0.15,10.581-0.218c-14.301,27.478-42.716,46.484-75.769,46.484h-0.436  c-3.92-5.082-9.797-8.574-16.711-8.574h-32.084c-11.839,0-21.434,9.595-21.434,21.434c0,11.838,9.595,21.433,21.434,21.433h32.084  c6.914,0,12.791-3.491,16.711-8.573h0.436c52.612,0,96.717-36.68,108.354-85.783c9.479-7.72,16.627-18.193,20.242-30.626  c0.487-1.658,1.173-3.198,1.524-4.915C431.694,203.683,423.604,182.008,408.016,167.758z M355.087,145.696  c-13.112-51.255-56.112-88.898-107.251-88.898c-51.808,0-95.245,38.639-107.735,90.924c-4.236-3.407-9.68-5.107-15.389-4.219  c12.49-62.375,62.909-109.21,123.124-109.21c59.409,0,109.243,45.638,122.555,106.781  C364.598,140.321,359.224,142.138,355.087,145.696z" fill="#FFFFFF"/>
<g>
</g>
<g>
</g>
<g>
</g>
<g>
</g>
<g>
</g>
<g>
</g>
<g>
</g>
<g>
</g>
<g>
</g>
<g>
</g>
<g>
</g>
<g>
</g>
<g>
</g>
<g>
</g>
<g>
</g>
</svg>
