<?xml version="1.0" encoding="utf-8"?>
<!-- Generator: Adobe Illustrator 15.0.0, SVG Export Plug-In . SVG Version: 6.00 Build 0)  -->
<!DOCTYPE svg PUBLIC "-//W3C//DTD SVG 1.1//EN" "http://www.w3.org/Graphics/SVG/1.1/DTD/svg11.dtd">
<svg version="1.1" id="Layer_1" xmlns="http://www.w3.org/2000/svg" xmlns:xlink="http://www.w3.org/1999/xlink" x="0px" y="0px"
	 width="100px" height="100px" viewBox="0 0 100 100" enable-background="new 0 0 100 100" xml:space="preserve">
<g>
	<path fill="#B8B7B8" d="M50,1.149c-26.978,0-48.851,21.872-48.851,48.852c0,26.979,21.873,48.85,48.851,48.85
		c26.98,0,48.851-21.871,48.851-48.85C98.851,23.021,76.98,1.149,50,1.149z M44.945,16.464h10.452v13.63H44.945V16.464z
		 M71.811,53.666H33.277c-0.286,0.113-0.487,0.389-0.487,0.715c0,0.423,0.343,0.769,0.77,0.769h36.874h0.672
		c-1.314,10.216-10.023,18.111-20.594,18.111c-11.079,0-20.107-8.671-20.728-19.595h-0.403c-0.563,0-1.021-0.585-1.021-1.307
		s0.458-1.305,1.021-1.305h1.079c0.728-10.442,9.424-18.688,20.052-18.688c10.627,0,19.322,8.246,20.049,18.688h1.25
		c0.564,0,1.021,0.583,1.021,1.305S72.375,53.666,71.811,53.666z"/>
	<path fill="#B8B7B8" d="M67.74,47.132c0,0-2.961-10.128-13.607-12.14c-0.115-0.039-0.221-0.054-0.318-0.056
		c-0.076-0.012-0.152-0.027-0.232-0.029c-0.934-0.023-1.709,0.714-1.73,1.646c-0.02,0.728,0.426,1.354,1.062,1.607
		c0.012,0.013,0.021,0.033,0.033,0.042c10.432,2.003,11.447,9.786,11.447,9.786l0.059-0.015c0.201,0.688,0.82,1.2,1.574,1.218
		c0.932,0.023,1.707-0.713,1.729-1.647c0.004-0.14-0.014-0.275-0.043-0.406L67.74,47.132z"/>
</g>
</svg>
