<?xml version="1.0" encoding="UTF-8" standalone="no"?>
<svg width="31px" height="31px" viewBox="0 0 31 31" version="1.1" xmlns="http://www.w3.org/2000/svg" xmlns:xlink="http://www.w3.org/1999/xlink">
    <!-- Generator: Sketch 39.1 (31720) - http://www.bohemiancoding.com/sketch -->
    <title>Page 1</title>
    <desc>Created with Sketch.</desc>
    <defs>
        <polygon id="path-1" points="31 30.9999 31 0 0.000399999997 0 0.000399999997 30.9999 31 30.9999"></polygon>
    </defs>
    <g id="Page-1" stroke="none" stroke-width="1" fill="none" fill-rule="evenodd">
        <g id="Home-320" transform="translate(-185.000000, -2479.000000)">
            <g id="Group-10" transform="translate(0.000000, 2199.000000)">
                <g id="Page-1" transform="translate(185.000000, 280.000000)">
                    <mask id="mask-2" fill="white">
                        <use xlink:href="#path-1"></use>
                    </mask>
                    <g id="Clip-2"></g>
                    <path d="M24.8564,15.1079 C24.0544,18.6229 21.5844,21.0279 18.2324,21.0279 C16.8564,21.0279 15.5544,20.3059 15.1094,19.4839 C15.1094,19.4839 14.3714,22.3359 14.2124,22.8909 C13.6584,24.8309 12.0294,26.7759 11.9064,26.9349 C11.8164,27.0489 11.6194,27.0149 11.5994,26.8649 C11.5644,26.6179 11.1484,24.1669 11.6384,22.1619 C11.8804,21.1569 13.2824,15.4199 13.2824,15.4199 C13.2824,15.4199 13.0794,15.0279 12.9604,14.3849 C12.9114,14.1179 12.8714,13.8059 12.8714,13.4589 C12.8714,11.6279 13.9704,10.2609 15.3414,10.2609 C16.5044,10.2609 17.0644,11.1029 17.0644,12.1179 C17.0644,12.7069 16.8614,13.4539 16.6094,14.2559 C16.3864,14.9839 16.1194,15.7609 15.9354,16.5089 C15.6144,17.8199 16.6194,18.8899 17.9564,18.8899 C19.8364,18.8899 21.2384,17.0779 21.7724,14.5979 C21.9254,13.8799 22.0094,13.1079 22.0094,12.3109 C22.0094,9.5979 20.1194,7.5679 16.6884,7.5679 C12.8114,7.5679 10.3904,10.3699 10.3904,13.4989 C10.3904,13.9299 10.4454,14.3059 10.5404,14.6429 C10.6874,15.1519 10.9254,15.5679 11.2374,15.9249 C11.4754,16.1919 11.5044,16.3009 11.4204,16.6129 C11.3564,16.8399 11.2174,17.3899 11.1584,17.6079 C11.0744,17.9199 10.8114,18.0329 10.5194,17.9149 C9.2774,17.4249 8.5004,16.3599 8.1384,15.0439 C7.9804,14.4639 7.9004,13.8399 7.9004,13.1869 C7.9004,9.6719 10.9654,5.4589 17.0404,5.4589 C21.9204,5.4589 25.1334,8.8749 25.1334,12.5479 C25.1334,13.4489 25.0404,14.3059 24.8564,15.1079 M15.5004,-9.99999975e-05 C6.9394,-9.99999975e-05 0.000399999997,6.9399 0.000399999997,15.4999 C0.000399999997,24.0609 6.9394,30.9999 15.5004,30.9999 C24.0604,30.9999 31.0004,24.0609 31.0004,15.4999 C31.0004,6.9399 24.0604,-9.99999975e-05 15.5004,-9.99999975e-05" id="Fill-1" fill="#424242" mask="url(#mask-2)"></path>
                </g>
            </g>
        </g>
    </g>
</svg>