<?xml version="1.0" encoding="UTF-8" standalone="no"?>
<svg width="31px" height="31px" viewBox="0 0 31 31" version="1.1" xmlns="http://www.w3.org/2000/svg" xmlns:xlink="http://www.w3.org/1999/xlink">
    <!-- Generator: Sketch 39.1 (31720) - http://www.bohemiancoding.com/sketch -->
    <title>Page 1</title>
    <desc>Created with Sketch.</desc>
    <defs>
        <polygon id="path-1" points="15.4998 31 0 31 0 0 15.4998 0 30.9996 0 30.9996 31"></polygon>
    </defs>
    <g id="Page-1" stroke="none" stroke-width="1" fill="none" fill-rule="evenodd">
        <g id="Home-320" transform="translate(-61.000000, -2479.000000)">
            <g id="Group-10" transform="translate(0.000000, 2199.000000)">
                <g id="Page-1" transform="translate(61.000000, 280.000000)">
                    <mask id="mask-2" fill="white">
                        <use xlink:href="#path-1"></use>
                    </mask>
                    <g id="Clip-2"></g>
                    <path d="M25.6346,16.144 L25.6346,18.403 L23.8266,18.403 L23.8266,16.144 L21.5676,16.144 L21.5676,14.336 L23.8266,14.336 L23.8266,12.077 L25.6346,12.077 L25.6346,14.336 L27.8936,14.336 L27.8936,16.144 L25.6346,16.144 Z M19.7596,15.817 C19.7596,20.261 16.8076,23.247 12.4136,23.247 C8.1166,23.247 4.6196,19.814 4.6196,15.593 C4.6196,11.372 8.1166,7.939 12.4136,7.939 C14.2936,7.939 16.1086,8.606 17.5256,9.816 L15.5436,12.053 C14.6766,11.312 13.5646,10.904 12.4136,10.904 C9.7806,10.904 7.6386,13.008 7.6386,15.593 C7.6386,18.178 9.7806,20.281 12.4136,20.281 C14.6406,20.281 16.0986,19.215 16.5726,17.3 L12.4506,17.3 L12.4506,14.335 L19.7596,14.335 L19.7596,15.817 Z M15.4996,0 C6.9396,0 -0.000399999997,6.939 -0.000399999997,15.5 C-0.000399999997,24.061 6.9396,31 15.4996,31 C24.0606,31 30.9996,24.061 30.9996,15.5 C30.9996,6.939 24.0606,0 15.4996,0 L15.4996,0 Z" id="Fill-1" fill="#424242" mask="url(#mask-2)"></path>
                </g>
            </g>
        </g>
    </g>
</svg>