<?xml version="1.0" encoding="UTF-8" standalone="no"?>
<svg width="31px" height="31px" viewBox="0 0 31 31" version="1.1" xmlns="http://www.w3.org/2000/svg" xmlns:xlink="http://www.w3.org/1999/xlink">
    <!-- Generator: Sketch 39.1 (31720) - http://www.bohemiancoding.com/sketch -->
    <title>Page 1</title>
    <desc>Created with Sketch.</desc>
    <defs>
        <polygon id="path-1" points="0 31 31 31 31 0 0 0"></polygon>
    </defs>
    <g id="Page-1" stroke="none" stroke-width="1" fill="none" fill-rule="evenodd">
        <g id="Artboard" transform="translate(-539.000000, -445.000000)">
            <g id="Page-1" transform="translate(539.000000, 445.000000)">
                <path d="M15.8005,16.1966 C15.9155,16.1066 21.5595,10.8246 23.2735,9.2196 L7.9225,9.2196 L15.2475,16.1966 C15.2475,16.1966 15.5145,16.3956 15.8005,16.1966" id="Fill-1" fill="#FEFEFE"></path>
                <path d="M16.9534,17.2533 C15.3004,18.5583 14.0714,17.2533 14.0714,17.2533 L13.2904,16.5223 L7.7724,21.7213 L23.2514,21.7213 L17.7354,16.5233 C17.2824,16.9473 16.9894,17.2233 16.9534,17.2533" id="Fill-3" fill="#FEFEFE"></path>
                <polygon id="Fill-5" fill="#FEFEFE" points="6.6726 10.3207 6.6726 20.7047 12.2066 15.5067"></polygon>
                <path d="M24.3518,20.7045 L24.3518,10.2895 C23.3668,11.2185 20.6718,13.7605 18.8168,15.5055 L24.3518,20.7045 Z" id="Fill-7" fill="#FEFEFE"></path>
                <g id="Group-11">
                    <mask id="mask-2" fill="white">
                        <use xlink:href="#path-1"></use>
                    </mask>
                    <g id="Clip-10"></g>
                    <path d="M25.865,22.2474 C25.865,22.8044 25.41,23.2594 24.854,23.2594 L6.146,23.2594 C5.59,23.2594 5.135,22.8044 5.135,22.2474 L5.135,8.7524 C5.135,8.1964 5.59,7.7414 6.146,7.7414 L24.854,7.7414 C25.41,7.7414 25.865,8.1964 25.865,8.7524 L25.865,22.2474 Z M15.5,-0.0006 C6.94,-0.0006 0,6.9384 0,15.4994 C0,24.0604 6.94,31.0004 15.5,31.0004 C24.061,31.0004 31,24.0604 31,15.4994 C31,6.9384 24.061,-0.0006 15.5,-0.0006 L15.5,-0.0006 Z" id="Fill-9" fill="#FEFEFE" mask="url(#mask-2)"></path>
                </g>
            </g>
        </g>
    </g>
</svg>