<?xml version="1.0" encoding="utf-8"?>
<!-- Generator: Adobe Illustrator 15.0.0, SVG Export Plug-In . SVG Version: 6.00 Build 0)  -->
<!DOCTYPE svg PUBLIC "-//W3C//DTD SVG 1.1//EN" "http://www.w3.org/Graphics/SVG/1.1/DTD/svg11.dtd">
<svg version="1.1" id="Layer_1" xmlns="http://www.w3.org/2000/svg" xmlns:xlink="http://www.w3.org/1999/xlink" x="0px" y="0px"
	 width="100px" height="100px" viewBox="0 0 100 100" enable-background="new 0 0 100 100" xml:space="preserve">
<g>
	<path fill="#B8B7B8" d="M63.026,40.878c-0.68,0-1.23,0.551-1.23,1.231v24.349c0,0.68,0.551,1.231,1.23,1.231
		s1.232-0.552,1.232-1.231V42.109C64.259,41.43,63.706,40.878,63.026,40.878z"/>
	<circle fill="#B8B7B8" cx="62.98" cy="38.095" r="1.231"/>
	<path fill="#B8B7B8" d="M50,1.149c-26.978,0-48.851,21.872-48.851,48.852c0,26.979,21.873,48.85,48.851,48.85
		c26.98,0,48.851-21.871,48.851-48.85C98.851,23.021,76.98,1.149,50,1.149z M67.167,79.338c0,1.135-0.787,2.093-1.881,2.456
		c-1.023,0.493-3.466,0.842-6.318,0.842c-3.313,0-6.078-0.471-6.7-1.094c-0.789-0.465-1.316-1.276-1.316-2.204v-8.938
		c0-0.89,0.481-1.671,1.214-2.145V37.843c0-2.387,2.161-4.38,5.035-4.841v-2.311c0,0,0.544-5.745-2.516-10.129
		c-2.032-2.913-11.048-7.139-13.766,5.303c-2.517,10.914,6.83,20.091,8.258,26.208c1.146,4.913-2.76,10.341-4.35,12.296
		c1.357,2.814,0.173,6.723-2.995,9.256c-3.179,2.546-7.272,2.833-9.716,0.865l-1.295,2.026c0,0-0.458,0.696-1.222,0.137
		c-0.766-0.561-0.987-0.951-1.582-2.398c-0.46-1.12,0.56-1.58,0.56-1.58l1.9-0.486c-1.003-2.764,0.218-6.368,3.202-8.757
		c3.045-2.436,6.925-2.804,9.395-1.104c1.292-1.713,3.886-5.705,3.248-9.438c-1.222-7.173-10.808-12.135-8.292-28.11
		c1.633-11.322,13.393-14.687,19.817-4.931c2.652,4.691,2.45,11.219,2.45,11.219l-0.082,1.856c3.216,0.225,5.739,2.342,5.739,4.919
		v30.411c0.732,0.474,1.214,1.256,1.214,2.146V79.338z"/>
</g>
</svg>
