<?xml version="1.0" encoding="UTF-8" standalone="no"?>
<svg width="256px" height="82px" viewBox="0 0 256 82" version="1.1" xmlns="http://www.w3.org/2000/svg" xmlns:xlink="http://www.w3.org/1999/xlink">
    <!-- Generator: Sketch 39.1 (31720) - http://www.bohemiancoding.com/sketch -->
    <title>Page 1 Copy 12</title>
    <desc>Created with Sketch.</desc>
    <defs>
        <polygon id="path-1" points="36.975 52.753 36.975 0.486 0.0171 0.486 0.0171 52.753 36.975 52.753"></polygon>
        <polygon id="path-3" points="0.3553 20 14.9583 20 14.9583 0.7894 0.3553 0.7894"></polygon>
    </defs>
    <g id="Page-1" stroke="none" stroke-width="1" fill="none" fill-rule="evenodd">
        <g id="MegaMenu-1024" transform="translate(-718.000000, -5229.000000)">
            <g id="Page-1-Copy-12" transform="translate(718.000000, 5229.000000)">
                <path d="M82.2387,62.8208 C82.7807,62.8208 83.2327,63.0268 83.5937,63.4378 C83.9557,63.8488 84.1357,64.2858 84.1357,64.7478 C84.1357,65.2698 83.9397,65.7258 83.5487,66.1168 C83.1567,66.5088 82.7197,66.7048 82.2387,66.7048 L77.0587,66.7048 C76.8187,66.7048 76.6127,66.7748 76.4417,66.9158 C76.2717,67.0568 76.1857,67.2568 76.1857,67.5178 C76.1857,67.7988 76.2717,68.0138 76.4417,68.1648 C76.6127,68.3158 76.8187,68.3908 77.0587,68.3908 L80.4617,68.3908 C81.0837,68.3908 81.6617,68.5218 82.1937,68.7828 C82.7247,69.0438 83.1867,69.3898 83.5787,69.8208 C83.9697,70.2528 84.2757,70.7098 84.4977,71.1918 C84.7177,71.6738 84.8287,72.2158 84.8287,72.8178 C84.8477,73.4798 84.7327,74.1028 84.4817,74.6848 C84.2307,75.2668 83.8947,75.7588 83.4727,76.1598 C83.0517,76.5618 82.5587,76.8778 81.9977,77.1078 C81.4347,77.3388 80.8027,77.4548 80.0997,77.4548 L74.5597,77.4548 C74.0377,77.4548 73.5867,77.2738 73.2057,76.9128 C72.8237,76.5508 72.6337,76.0998 72.6337,75.5578 C72.6337,75.0558 72.8137,74.5988 73.1757,74.1868 C73.5367,73.7768 73.9777,73.5608 74.4997,73.5398 L80.0407,73.5398 C80.5827,73.5398 80.8537,73.2998 80.8537,72.8178 C80.8537,72.2758 80.5827,72.0048 80.0407,72.0048 L76.7277,72.0048 C76.1257,72.0048 75.5587,71.8788 75.0267,71.6278 C74.4947,71.3768 74.0327,71.0308 73.6417,70.5898 C73.2507,70.1478 72.9437,69.6668 72.7227,69.1438 C72.5027,68.6218 72.3917,68.0598 72.3917,67.4578 C72.3917,66.8558 72.5077,66.2738 72.7387,65.7118 C72.9687,65.1488 73.2857,64.6568 73.6867,64.2358 C74.0887,63.8148 74.5597,63.4778 75.1017,63.2268 C75.6437,62.9758 76.2357,62.8408 76.8787,62.8208 L82.2387,62.8208 Z" id="Fill-1" fill="#FFFFFF"></path>
                <path d="M95.8188,68.4814 C95.4768,67.8584 95.0758,67.4224 94.6148,67.1714 C94.1518,66.9204 93.6398,66.7954 93.0788,66.7954 C92.4958,66.7954 91.9788,66.9204 91.5278,67.1714 C91.0758,67.4224 90.6788,67.8584 90.3388,68.4814 L95.8188,68.4814 Z M93.0788,62.8804 C94.0428,62.8804 94.9648,63.0814 95.8488,63.4824 C96.7318,63.8844 97.5088,64.4214 98.1818,65.0934 C98.8548,65.7664 99.3908,66.5394 99.7938,67.4124 C100.1948,68.2854 100.3958,69.2044 100.3958,70.1674 C100.3958,70.6894 100.1998,71.1014 99.8078,71.4024 C99.4178,71.7034 98.9298,71.8444 98.3478,71.8234 L90.3388,71.8234 C91.0008,72.9684 91.9148,73.5404 93.0788,73.5404 C93.3988,73.5404 93.6708,73.5104 93.8908,73.4494 C94.1118,73.3894 94.3078,73.3194 94.4788,73.2394 C94.6488,73.1594 94.8198,73.0884 94.9908,73.0284 C95.1608,72.9684 95.3568,72.9384 95.5778,72.9384 C95.9998,72.9584 96.3658,73.0784 96.6768,73.2994 C96.9878,73.5204 97.2188,73.7954 97.3698,74.1274 C97.5198,74.4584 97.5698,74.8154 97.5198,75.1964 C97.4688,75.5784 97.2948,75.9294 96.9928,76.2504 C96.4508,76.6914 95.8488,76.9984 95.1858,77.1684 C94.5238,77.3384 93.8208,77.4354 93.0788,77.4544 C92.1148,77.4944 91.1918,77.3184 90.3078,76.9274 C89.4238,76.5354 88.6468,76.0044 87.9738,75.3314 C87.3018,74.6594 86.7698,73.8714 86.3788,72.9684 C85.9868,72.0644 85.7918,71.1314 85.7918,70.1674 C85.7918,69.2244 85.9868,68.3104 86.3788,67.4274 C86.7698,66.5444 87.2978,65.7664 87.9598,65.0934 C88.6218,64.4214 89.3948,63.8844 90.2778,63.4824 C91.1618,63.0814 92.0948,62.8804 93.0788,62.8804 L93.0788,62.8804 Z" id="Fill-3" fill="#FFFFFF"></path>
                <path d="M112.6206,63.4531 C113.0016,63.0711 113.4486,62.8861 113.9616,62.8951 C114.4736,62.9061 114.9296,63.1011 115.3306,63.4831 C115.6916,63.8441 115.8726,64.2961 115.8726,64.8381 C115.8726,65.3801 115.6916,65.8411 115.3306,66.2231 L111.4166,70.1671 L115.3306,74.1121 C115.6916,74.4741 115.8826,74.9301 115.9026,75.4821 C115.9226,76.0351 115.7316,76.5111 115.3306,76.9121 C114.9696,77.2741 114.5136,77.4541 113.9616,77.4541 C113.4086,77.4541 112.9326,77.2441 112.5306,76.8221 L108.6156,72.9681 L104.7016,76.9121 C104.3406,77.2341 103.8886,77.4141 103.3466,77.4541 C102.8046,77.4951 102.3326,77.3141 101.9316,76.9121 C101.5696,76.5511 101.3746,76.1041 101.3446,75.5721 C101.3136,75.0411 101.4896,74.5751 101.8706,74.1721 L105.8756,70.1671 L101.8706,66.1631 C101.4896,65.7811 101.3186,65.3401 101.3586,64.8381 C101.3986,64.3361 101.5906,63.8841 101.9316,63.4831 C102.3726,63.0411 102.8446,62.8401 103.3466,62.8811 C103.8486,62.9211 104.3006,63.1211 104.7016,63.4831 L108.6156,67.3971 L112.6206,63.4531 Z" id="Fill-5" fill="#FFFFFF"></path>
                <path d="M133.1557,62.8208 C133.6977,62.8208 134.1487,63.0268 134.5097,63.4378 C134.8717,63.8488 135.0517,64.2858 135.0517,64.7478 C135.0517,65.2698 134.8567,65.7258 134.4657,66.1168 C134.0737,66.5088 133.6367,66.7048 133.1557,66.7048 L127.9757,66.7048 C127.7357,66.7048 127.5297,66.7748 127.3597,66.9158 C127.1887,67.0568 127.1027,67.2568 127.1027,67.5178 C127.1027,67.7988 127.1887,68.0138 127.3597,68.1648 C127.5297,68.3158 127.7357,68.3908 127.9757,68.3908 L131.3787,68.3908 C132.0017,68.3908 132.5787,68.5218 133.1107,68.7828 C133.6417,69.0438 134.1037,69.3898 134.4957,69.8208 C134.8867,70.2528 135.1927,70.7098 135.4137,71.1918 C135.6347,71.6738 135.7447,72.2158 135.7447,72.8178 C135.7647,73.4798 135.6497,74.1028 135.3987,74.6848 C135.1477,75.2668 134.8107,75.7588 134.3897,76.1598 C133.9677,76.5618 133.4767,76.8778 132.9147,77.1078 C132.3517,77.3388 131.7197,77.4548 131.0167,77.4548 L125.4767,77.4548 C124.9547,77.4548 124.5037,77.2738 124.1227,76.9128 C123.7407,76.5508 123.5507,76.0998 123.5507,75.5578 C123.5507,75.0558 123.7307,74.5988 124.0927,74.1868 C124.4537,73.7768 124.8937,73.5608 125.4167,73.5398 L130.9577,73.5398 C131.4997,73.5398 131.7697,73.2998 131.7697,72.8178 C131.7697,72.2758 131.4997,72.0048 130.9577,72.0048 L127.6447,72.0048 C127.0427,72.0048 126.4757,71.8788 125.9437,71.6278 C125.4117,71.3768 124.9507,71.0308 124.5587,70.5898 C124.1677,70.1478 123.8607,69.6668 123.6397,69.1438 C123.4197,68.6218 123.3087,68.0598 123.3087,67.4578 C123.3087,66.8558 123.4247,66.2738 123.6557,65.7118 C123.8857,65.1488 124.2017,64.6568 124.6037,64.2358 C125.0057,63.8148 125.4767,63.4778 126.0187,63.2268 C126.5607,62.9758 127.1527,62.8408 127.7957,62.8208 L133.1557,62.8208 Z" id="Fill-7" fill="#FFFFFF"></path>
                <path d="M138.9965,58.3335 C139.5185,58.3335 139.9655,58.5145 140.3375,58.8755 C140.7085,59.2365 140.9135,59.7085 140.9545,60.2915 L140.9545,63.7535 C141.4155,63.4535 141.9575,63.2425 142.5805,63.1215 C143.2015,63.0015 143.7945,62.9405 144.3565,62.9405 C145.3405,62.9405 146.2735,63.1215 147.1565,63.4825 C148.0395,63.8445 148.8125,64.3455 149.4755,64.9885 C150.1385,65.6305 150.6655,66.3835 151.0575,67.2475 C151.4475,68.1105 151.6425,69.0335 151.6425,70.0175 L151.6425,75.5275 C151.6425,76.0695 151.4575,76.5315 151.0865,76.9125 C150.7155,77.2945 150.2485,77.4945 149.6855,77.5145 C149.1645,77.5145 148.7235,77.3385 148.3615,76.9875 C148.0005,76.6365 147.7795,76.1895 147.6985,75.6475 L147.6985,70.2285 C147.6985,69.7865 147.6135,69.3595 147.4435,68.9475 C147.2725,68.5365 147.0365,68.1755 146.7355,67.8635 C146.4335,67.5525 146.0825,67.3075 145.6815,67.1265 C145.2805,66.9455 144.8385,66.8555 144.3565,66.8555 C143.4535,66.8555 142.6855,67.1665 142.0535,67.7895 C141.4215,68.4115 141.0545,69.1735 140.9545,70.0775 L140.9545,75.5275 C140.9545,76.0695 140.7685,76.5315 140.3975,76.9125 C140.0255,77.2945 139.5585,77.4945 138.9965,77.5145 C138.4945,77.5145 138.0685,77.3385 137.7175,76.9875 C137.3655,76.6365 137.1405,76.1895 137.0395,75.6475 L137.0395,60.1705 C137.0795,59.6685 137.2755,59.2365 137.6275,58.8755 C137.9775,58.5145 138.4345,58.3335 138.9965,58.3335" id="Fill-9" fill="#FFFFFF"></path>
                <path d="M160.0141,66.7954 C159.5521,66.7954 159.1201,66.8804 158.7191,67.0504 C158.3181,67.2214 157.9611,67.4574 157.6511,67.7584 C157.3391,68.0604 157.0931,68.4164 156.9121,68.8274 C156.7321,69.2394 156.6421,69.6864 156.6421,70.1674 C156.6421,70.6294 156.7321,71.0664 156.9121,71.4774 C157.0931,71.8884 157.3391,72.2504 157.6511,72.5614 C157.9611,72.8734 158.3181,73.1184 158.7191,73.2994 C159.1201,73.4804 159.5521,73.5704 160.0141,73.5704 C160.4761,73.5704 160.9121,73.4804 161.3251,73.2994 C161.7361,73.1184 162.0921,72.8734 162.3931,72.5614 C162.6941,72.2504 162.9351,71.8884 163.1161,71.4774 C163.2961,71.0664 163.3861,70.6294 163.3861,70.1674 C163.3471,69.2444 163.0151,68.4614 162.3931,67.8184 C161.7701,67.1764 160.9781,66.8354 160.0141,66.7954 M160.0141,62.8504 C160.9981,62.8504 161.9311,63.0414 162.8151,63.4224 C163.6981,63.8034 164.4701,64.3264 165.1331,64.9884 C165.7951,65.6504 166.3231,66.4244 166.7141,67.3074 C167.1061,68.1904 167.3011,69.1444 167.3011,70.1674 C167.3011,71.1714 167.1111,72.1094 166.7291,72.9824 C166.3481,73.8564 165.8301,74.6244 165.1791,75.2864 C164.5261,75.9494 163.7571,76.4714 162.8741,76.8524 C161.9921,77.2334 161.0371,77.4244 160.0141,77.4244 C159.0101,77.4244 158.0671,77.2434 157.1841,76.8824 C156.3001,76.5214 155.5281,76.0144 154.8661,75.3614 C154.2021,74.7094 153.6801,73.9424 153.2991,73.0584 C152.9171,72.1754 152.7271,71.2124 152.7271,70.1674 C152.7271,69.1644 152.9121,68.2254 153.2851,67.3524 C153.6561,66.4784 154.1671,65.7164 154.8211,65.0634 C155.4721,64.4114 156.2451,63.8894 157.1391,63.4974 C158.0321,63.1064 158.9911,62.8904 160.0141,62.8504" id="Fill-11" fill="#FFFFFF"></path>
                <path d="M18.479,37.1626 C12.897,37.1626 8.373,32.6386 8.373,27.0566 C8.373,21.4746 12.897,16.9506 18.479,16.9506 C24.058,16.9506 28.582,21.4726 28.585,27.0506 L28.557,27.0506 L28.557,27.7726 C28.189,33.0196 23.82,37.1626 18.479,37.1626 M36.956,41.1826 L36.956,27.1806 C36.956,27.1396 36.958,27.0986 36.958,27.0566 C36.958,16.8506 28.685,8.5776 18.479,8.5776 C8.273,8.5776 0,16.8506 0,27.0566 C0,37.2626 8.273,45.5356 18.479,45.5356 C22.274,45.5356 25.801,44.3906 28.736,42.4276 C29.236,44.1846 30.849,45.4726 32.766,45.4726 C35.082,45.4726 36.959,43.5946 36.959,41.2786 C36.959,41.2456 36.957,41.2146 36.956,41.1826" id="Fill-13" fill="#FFFFFF"></path>
                <path d="M116.1079,37.1626 C110.5269,37.1626 106.0029,32.6386 106.0029,27.0566 C106.0029,21.4746 110.5269,16.9506 116.1079,16.9506 C121.6879,16.9506 126.2119,21.4726 126.2139,27.0506 L126.1859,27.0506 L126.1859,27.7726 C125.8189,33.0196 121.4489,37.1626 116.1079,37.1626 M134.5849,41.1826 L134.5849,27.1806 C134.5859,27.1396 134.5869,27.0986 134.5869,27.0566 C134.5869,16.8506 126.3139,8.5776 116.1079,8.5776 C105.9029,8.5776 97.6289,16.8506 97.6289,27.0566 C97.6289,37.2626 105.9029,45.5356 116.1079,45.5356 C119.9039,45.5356 123.4299,44.3906 126.3649,42.4276 C126.8649,44.1846 128.4779,45.4726 130.3949,45.4726 C132.7119,45.4726 134.5889,43.5946 134.5889,41.2786 C134.5889,41.2456 134.5859,41.2146 134.5849,41.1826" id="Fill-15" fill="#FFFFFF"></path>
                <path d="M68.3364,32.8217 C67.1804,32.8217 66.1334,33.2897 65.3744,34.0467 L65.3614,34.0337 C63.5224,35.9607 60.9294,37.1627 58.0544,37.1627 C52.4924,37.1627 47.9814,32.6697 47.9494,27.1147 L47.9604,27.1147 L47.9604,16.9187 L61.8124,16.9187 L61.8124,16.9007 C61.8314,16.9007 61.8514,16.9037 61.8704,16.9037 C64.1864,16.9037 66.0644,15.0267 66.0644,12.7097 C66.0644,10.3937 64.1864,8.5157 61.8704,8.5157 C61.8434,8.5157 61.8164,8.5197 61.7894,8.5207 L47.9604,8.5207 L47.9604,4.4047 L47.9414,4.4047 C47.9424,4.3857 47.9444,4.3667 47.9444,4.3477 C47.9444,2.0307 46.0674,0.1537 43.7514,0.1537 C41.4354,0.1537 39.5584,2.0307 39.5584,4.3477 C39.5584,4.3747 39.5614,4.4007 39.5624,4.4277 L39.5624,27.1147 L39.5764,27.1147 C39.6084,37.2937 47.8684,45.5357 58.0544,45.5357 C63.0444,45.5357 67.5664,43.5507 70.8914,40.3357 C71.8864,39.5687 72.5294,38.3687 72.5294,37.0157 C72.5294,34.6997 70.6514,32.8217 68.3364,32.8217" id="Fill-17" fill="#FFFFFF"></path>
                <g id="Group-21" transform="translate(219.000000, 8.091600)">
                    <mask id="mask-2" fill="white">
                        <use xlink:href="#path-1"></use>
                    </mask>
                    <g id="Clip-20"></g>
                    <path d="M8.3901,18.965 C8.3901,13.383 12.9141,8.859 18.4951,8.859 C24.0781,8.859 28.6021,13.383 28.6021,18.965 C28.6021,24.547 24.0781,29.071 18.4951,29.071 C12.9141,29.071 8.3901,24.547 8.3901,18.965 M36.9751,18.965 C36.9751,8.759 28.7021,0.486 18.4951,0.486 C8.2901,0.486 0.0171,8.759 0.0171,18.965 C0.0171,28.153 6.7231,35.771 15.5071,37.2 L15.5071,39.446 L10.6591,39.446 L10.6591,39.469 C9.1351,39.528 7.9151,40.773 7.9151,42.311 C7.9151,43.849 9.1351,45.094 10.6591,45.153 L10.6591,45.159 L10.7221,45.159 C10.7381,45.159 10.7521,45.164 10.7691,45.164 C10.7851,45.164 10.7991,45.159 10.8161,45.159 L15.5071,45.159 L15.5071,50.009 L15.5311,50.009 C15.5891,51.533 16.8341,52.753 18.3711,52.753 C19.9101,52.753 21.1551,51.533 21.2131,50.009 L21.2201,50.009 L21.2201,49.946 C21.2201,49.93 21.2251,49.916 21.2251,49.9 C21.2251,49.883 21.2201,49.869 21.2201,49.853 L21.2201,45.159 L25.8171,45.159 L25.8171,45.134 C25.8661,45.137 25.9111,45.149 25.9601,45.149 C27.5361,45.149 28.8131,43.872 28.8131,42.296 C28.8131,40.721 27.5361,39.444 25.9601,39.444 C25.9111,39.444 25.8661,39.456 25.8171,39.458 L25.8171,39.446 L21.2201,39.446 L21.2201,37.242 C30.1341,35.925 36.9751,28.245 36.9751,18.965" id="Fill-19" fill="#FFFFFF" mask="url(#mask-2)"></path>
                </g>
                <path d="M93.3637,8.1684 C92.9207,8.1684 92.4937,8.2384 92.0927,8.3664 L92.0917,8.3594 C82.8397,10.6034 76.3757,17.9034 76.3757,26.7234 L76.3597,26.7234 L76.3597,41.2614 C76.3587,41.2884 76.3557,41.3144 76.3557,41.3414 C76.3557,43.6574 78.2337,45.5354 80.5497,45.5354 C82.8657,45.5354 84.7437,43.6574 84.7437,41.3414 C84.7437,41.3224 84.7407,41.3034 84.7407,41.2834 L84.7587,41.2834 L84.7587,26.7234 L84.7477,26.7234 C84.7697,22.8734 87.1547,18.3094 93.9447,16.5114 C95.9847,16.2284 97.5577,14.4804 97.5577,12.3624 C97.5577,10.0464 95.6797,8.1684 93.3637,8.1684" id="Fill-22" fill="#FFFFFF"></path>
                <path d="M169.7495,31.3252 C168.2935,31.3252 167.0115,32.0682 166.2595,33.1952 C164.4125,35.6062 161.5055,37.1622 158.2335,37.1622 C152.6515,37.1622 148.1275,32.6382 148.1275,27.0562 C148.1275,21.4752 152.6515,16.9502 158.2335,16.9502 C161.5785,16.9502 164.5425,18.5762 166.3815,21.0792 L166.4025,21.0632 C167.1685,22.0782 168.3805,22.7382 169.7495,22.7382 C172.0655,22.7382 173.9425,20.8602 173.9425,18.5442 C173.9425,17.3692 173.4595,16.3092 172.6815,15.5482 C169.2955,11.3032 164.0855,8.5772 158.2335,8.5772 C148.0275,8.5772 139.7545,16.8512 139.7545,27.0562 C139.7545,35.7682 145.7845,43.0672 153.8975,45.0192 L153.8975,48.0772 C153.8975,48.0822 153.8965,48.0872 153.8965,48.0922 C153.8965,48.0962 153.8975,48.1012 153.8975,48.1062 L153.8975,48.1322 L153.8985,48.1322 C153.9215,50.4292 155.7885,52.2852 158.0915,52.2852 C160.3945,52.2852 162.2615,50.4292 162.2825,48.1322 L162.2885,48.1322 L162.2885,45.0812 C166.5475,44.1262 170.2395,41.6962 172.8275,38.3612 C173.5185,37.6132 173.9425,36.6172 173.9425,35.5192 C173.9425,33.2032 172.0655,31.3252 169.7495,31.3252" id="Fill-24" fill="#FFFFFF"></path>
                <path d="M205.852,27.0508 L205.852,27.7728 C205.484,33.0198 201.114,37.1628 195.774,37.1628 C190.192,37.1628 185.667,32.6378 185.667,27.0568 C185.667,21.4748 190.192,16.9498 195.774,16.9498 C201.353,16.9498 205.876,21.4718 205.879,27.0508 L205.852,27.0508 Z M220.026,0.8418 C219.512,0.3228 218.802,-0.0002 218.019,-0.0002 C217.949,-0.0002 217.882,0.0158 217.813,0.0208 L206.61,0.0208 C205.055,0.0208 203.783,1.2938 203.783,2.8488 C203.783,4.4038 205.055,5.6758 206.61,5.6758 L211.193,5.6758 L205.514,11.3548 C202.686,9.5958 199.349,8.5778 195.774,8.5778 C185.568,8.5778 177.294,16.8508 177.294,27.0568 C177.294,37.2618 185.568,45.5358 195.774,45.5358 C199.569,45.5358 203.095,44.3898 206.03,42.4278 C206.53,44.1848 208.143,45.4718 210.06,45.4718 C212.376,45.4718 214.254,43.5948 214.254,41.2788 C214.254,41.2458 214.25,41.2148 214.25,41.1818 L214.25,27.1808 C214.25,27.1388 214.252,27.0978 214.252,27.0568 C214.252,22.4718 212.58,18.2808 209.815,15.0508 L215.192,9.6748 L215.192,14.2578 C215.192,15.8128 216.464,17.0848 218.019,17.0848 C219.575,17.0848 220.847,15.8128 220.847,14.2578 L220.847,3.0538 C220.852,2.9858 220.868,2.9188 220.868,2.8488 C220.868,2.0658 220.544,1.3558 220.026,0.8418 L220.026,0.8418 Z" id="Fill-26" fill="#FFFFFF"></path>
                <g id="Group-30" transform="translate(168.000000, 62.091600)">
                    <mask id="mask-4" fill="white">
                        <use xlink:href="#path-3"></use>
                    </mask>
                    <g id="Clip-29"></g>
                    <path d="M10.7583,9.3854 C10.5873,9.7974 10.3523,10.1584 10.0503,10.4694 C9.7493,10.7814 9.3983,11.0274 8.9963,11.2074 C8.5953,11.3884 8.1543,11.4784 7.6723,11.4784 C7.2303,11.4784 6.8033,11.3934 6.3933,11.2224 C5.9813,11.0524 5.6193,10.8164 5.3093,10.5154 C4.9963,10.2144 4.7513,9.8574 4.5713,9.4464 C4.3903,9.0344 4.2993,8.5784 4.2993,8.0764 C4.2993,7.6144 4.3853,7.1824 4.5563,6.7814 C4.7263,6.3804 4.9623,6.0284 5.2633,5.7274 C5.5643,5.4264 5.9203,5.1854 6.3323,5.0044 C6.7433,4.8234 7.1903,4.7334 7.6723,4.7334 C8.1333,4.7334 8.5663,4.8194 8.9663,4.9894 C9.3673,5.1604 9.7193,5.3964 10.0213,5.6974 C10.3213,5.9984 10.5633,6.3544 10.7433,6.7654 C10.9243,7.1774 11.0143,7.6144 11.0143,8.0764 C11.0143,8.5384 10.9293,8.9744 10.7583,9.3854 M14.3713,5.2454 C13.9813,4.3624 13.4533,3.5894 12.7903,2.9274 C12.1283,2.2644 11.3553,1.7424 10.4723,1.3614 C9.5893,0.9794 8.6553,0.7894 7.6723,0.7894 C6.6673,0.7894 5.7243,0.9844 4.8413,1.3764 C3.9573,1.7674 3.1853,2.2944 2.5233,2.9574 C1.8613,3.6194 1.3343,4.3924 0.9433,5.2754 C0.5513,6.1584 0.3553,7.0924 0.3553,8.0764 L0.3553,18.1634 C0.3743,18.6844 0.5813,19.1214 0.9733,19.4734 C1.3633,19.8244 1.8103,20.0004 2.3123,20.0004 C2.8733,20.0004 3.3463,19.8084 3.7273,19.4274 C4.1083,19.0464 4.2993,18.5944 4.2993,18.0734 L4.2993,14.6104 C5.3033,15.1124 6.4273,15.3634 7.6723,15.3634 C8.6953,15.3634 9.6543,15.1724 10.5483,14.7904 C11.4413,14.4094 12.2133,13.8874 12.8663,13.2254 C13.5183,12.5624 14.0293,11.7904 14.4023,10.9064 C14.7733,10.0234 14.9583,9.0804 14.9583,8.0764 C14.9583,7.0724 14.7633,6.1284 14.3713,5.2454" id="Fill-28" fill="#FFFFFF" mask="url(#mask-4)"></path>
                </g>
            </g>
        </g>
    </g>
</svg>