<?xml version="1.0" encoding="UTF-8" standalone="no"?>
<svg width="42px" height="42px" viewBox="0 0 42 42" version="1.1" xmlns="http://www.w3.org/2000/svg" xmlns:xlink="http://www.w3.org/1999/xlink">
    <!-- Generator: Sketch 39.1 (31720) - http://www.bohemiancoding.com/sketch -->
    <title>Group 8</title>
    <desc>Created with Sketch.</desc>
    <defs>
        <polygon id="path-1" points="2.992932 5.96925 5.98584 5.96925 5.98584 8.8817842e-16 2.992932 8.8817842e-16 2.40000008e-05 0 2.40000008e-05 5.96925 2.992932 5.96925"></polygon>
    </defs>
    <g id="Page-1" stroke="none" stroke-width="1" fill="none" fill-rule="evenodd">
        <g id="QuemSomos_1024" transform="translate(-548.000000, -96.000000)">
            <g id="Group-8" transform="translate(548.000000, 96.000000)">
                <path d="M21,42 C32.5979797,42 42,32.5979797 42,21 C42,9.40202025 32.5979797,0 21,0 C9.40202025,0 0,9.40202025 0,21 C0,32.5979797 9.40202025,42 21,42 Z M27.6955914,21.5421527 L27.7045951,21.5421527 L20.7325372,9 L13.8714281,21.5421527 L13.876656,21.5421527 C13.1008857,22.7881485 12.6515721,24.2583654 12.6515721,25.8343032 C12.6515721,30.3268585 16.2934231,33.969 20.7859785,33.969 C25.2788243,33.969 28.9206753,30.3268585 28.9206753,25.8343032 C28.9206753,24.2583654 28.4713617,22.7881485 27.6955914,21.5421527 Z" id="Combined-Shape" fill="#B8B8B8"></path>
                <g id="Page-1" transform="translate(15.000000, 26.000000)">
                    <mask id="mask-2" fill="white">
                        <use xlink:href="#path-1"></use>
                    </mask>
                    <g id="Clip-2"></g>
                    <path d="M5.302824,4.264 C3.412104,4.051 1.903224,2.52725 1.621704,0.58275 L1.610424,0.5865 C1.499064,0.24625 1.193064,0 0.828984,0 C0.371304,0 2.40000008e-05,0.3865 2.40000008e-05,0.8635 C2.40000008e-05,0.94375 0.013944,1.01975 0.033384,1.0935 L0.029784,1.09475 C0.504504,3.63825 2.501544,5.61125 4.992744,5.9515 C4.994184,5.95175 4.995384,5.95175 4.996824,5.952 C5.024184,5.956 5.050824,5.96225 5.078424,5.9655 L5.079144,5.96075 C5.106264,5.9635 5.132664,5.96925 5.160264,5.96925 C5.616264,5.96925 5.985864,5.584 5.985864,5.10925 C5.985864,4.68525 5.690664,4.33475 5.302824,4.264" id="Fill-1" fill="#B8B8B8" mask="url(#mask-2)"></path>
                </g>
            </g>
        </g>
    </g>
</svg>