<?xml version="1.0" encoding="UTF-8" standalone="no"?>
<svg width="32px" height="33px" viewBox="0 0 32 33" version="1.1" xmlns="http://www.w3.org/2000/svg" xmlns:xlink="http://www.w3.org/1999/xlink">
    <!-- Generator: Sketch 39.1 (31720) - http://www.bohemiancoding.com/sketch -->
    <title>Page 1</title>
    <desc>Created with Sketch.</desc>
    <defs>
        <polygon id="path-1" points="0 0.257781818 0 32.4542364 31.7452952 32.4542364 31.7452952 0.257781818 1.0325735e-20 0.257781818"></polygon>
    </defs>
    <g id="Page-1" stroke="none" stroke-width="1" fill="none" fill-rule="evenodd" opacity="0.5">
        <g id="MegaMenu-1024" transform="translate(-25.000000, -2589.000000)">
            <g id="Page-1" transform="translate(25.000000, 2589.000000)">
                <path d="M22.9032381,14.9606182 C22.9032381,14.9606182 21.7245714,10.8698 17.4845714,10.0568909 C17.4472381,10.0445273 17.4182857,10.0538 17.3855238,10.0507091 C17.344381,10.0422091 17.3070476,10.0236636 17.2651429,10.0228909 C16.8925714,10.0136182 16.584,10.3111182 16.5748571,10.6882091 C16.568,10.9826182 16.7478095,11.2329818 17.0022857,11.3349818 C17.0060952,11.3388455 17.008381,11.3512091 17.0129524,11.3543 C21.1668571,12.1633455 21.5714286,15.3068 21.5714286,15.3068 L21.600381,15.2990727 C21.680381,15.5764818 21.920381,15.7851182 22.2205714,15.7928455 C22.592381,15.8021182 22.9009524,15.5046182 22.9100952,15.1275273 C22.911619,15.0711182 22.8940952,15.0193455 22.8826667,14.9660273 L22.9032381,14.9606182 Z" id="Fill-1" fill="#707171"></path>
                <g id="Group-5" transform="translate(0.000000, 0.515023)">
                    <mask id="mask-2" fill="white">
                        <use xlink:href="#path-1"></use>
                    </mask>
                    <g id="Clip-4"></g>
                    <path d="M24.6123429,17.0615091 L9.2912,17.0615091 C9.12129524,17.0615091 8.98339048,17.2013727 8.98339048,17.3736909 C8.98339048,17.5444636 9.12129524,17.6843273 9.2912,17.6843273 L24.227581,17.6843273 C23.7041524,21.8083727 20.2504381,24.9989636 16.0416762,24.9989636 C11.6302476,24.9989636 8.04167619,21.4961909 7.79329524,17.0846909 L7.6272,17.0846909 C7.4024381,17.0846909 7.21958095,16.8482364 7.21958095,16.5569182 C7.21958095,16.2656 7.4024381,16.0299182 7.6272,16.0299182 L8.06224762,16.0299182 C8.35329524,11.8131455 11.8092952,8.48191818 16.0416762,8.48191818 C20.2732952,8.48191818 23.7300571,11.8131455 24.0211048,16.0299182 L24.5247238,16.0299182 C24.7487238,16.0299182 24.931581,16.2656 24.931581,16.5569182 C24.931581,16.8080545 24.7929143,17.0081909 24.6123429,17.0615091 L24.6123429,17.0615091 Z M13.8245333,7.56391818 L17.986819,7.56391818 L17.986819,2.05823636 L13.8245333,2.05823636 L13.8245333,7.56391818 Z M15.8725333,0.257781818 C7.10605714,0.257781818 -0.000228571429,7.46500909 -0.000228571429,16.3560091 C-0.000228571429,25.2470091 7.10605714,32.4542364 15.8725333,32.4542364 C24.6390095,32.4542364 31.7452952,25.2470091 31.7452952,16.3560091 C31.7452952,7.46500909 24.6390095,0.257781818 15.8725333,0.257781818 L15.8725333,0.257781818 Z" id="Fill-3" fill="#707171" mask="url(#mask-2)"></path>
                </g>
            </g>
        </g>
    </g>
</svg>