<?xml version="1.0" encoding="UTF-8" standalone="no"?>
<svg width="40px" height="80px" viewBox="0 0 18 24" version="1.1" xmlns="http://www.w3.org/2000/svg" xmlns:xlink="http://www.w3.org/1999/xlink">
    <!-- Generator: Sketch 39.1 (31720) - http://www.bohemiancoding.com/sketch -->
    <title>Page 1 Copy 13</title>
    <desc>Created with Sketch.</desc>
    <defs>
        <polygon id="path-1" points="17.8042041 17.2769143 17.8042041 0 0.00011020407 0 0.00011020407 17.2769143 17.8042041 17.2769143"></polygon>
    </defs>
    <g id="Page-1" stroke="none" stroke-width="1" fill="none" fill-rule="evenodd">
        <g id="Home-768-Copy" transform="translate(-169.000000, -11.000000)">
            <g id="Page-1-Copy-13" transform="translate(169.000000, 11.000000)">
                <g id="Group-3" transform="translate(0.000000, -0.000038)">
                    <mask id="mask-2" fill="white">
                        <use xlink:href="#path-1"></use>
                    </mask>
                    <g id="Clip-2"></g>
                    <path d="M17.8043143,4.4624381 L17.7907224,4.4624381 C17.6908041,2.08339048 15.8783143,0.169866667 13.5970898,0.0155809524 L13.5970898,0.0106285714 L13.5037837,0.0106285714 C13.4358245,0.00758095238 13.3693347,-3.80952406e-05 13.3006408,-3.80952406e-05 C13.2157837,-3.80952406e-05 13.1323959,0.00605714285 13.0490082,0.0106285714 L4.75174286,0.0106285714 C4.66798776,0.00605714285 4.58496735,-3.80952406e-05 4.5001102,-3.80952406e-05 C2.12300816,-3.80952406e-05 0.181579592,1.91234286 0.0162734694,4.33329524 L0.0100285714,4.33329524 L0.0100285714,4.46472381 C0.00708979591,4.53215238 0.00011020407,4.5984381 0.00011020407,4.66662857 C0.00011020407,4.73558095 0.00672244897,4.80300952 0.0100285714,4.87081905 L0.0100285714,6.81710476 C0.0100285714,6.8224381 0.00855918366,6.82739048 0.00855918366,6.83272381 C0.00855918366,7.73024762 0.70982449,8.45748571 1.57492653,8.45748571 C2.44076327,8.45748571 3.14202857,7.73024762 3.14202857,6.83272381 C3.14202857,6.79805714 3.13431429,6.76529524 3.13247755,6.73100952 L3.13247755,4.52186667 C3.20080408,3.82777143 3.74264082,3.28300952 4.42076327,3.24262857 L4.42076327,3.2392 L4.45272245,3.2392 C4.46374286,3.23881905 4.47402857,3.23691429 4.48431429,3.23577143 L4.48431429,3.24872381 L13.4189265,3.24872381 C14.1246,3.3119619 14.6811306,3.91729524 14.6818653,4.66548571 L14.6818653,4.66777143 C14.681498,4.6879619 14.6767224,4.70700952 14.6759878,4.72681905 L14.6818653,4.7279619 L14.6818653,7.18167619 L14.6759878,7.18281905 C14.6767224,7.20262857 14.681498,7.22167619 14.6818653,7.24224762 L14.6818653,7.24415238 C14.6811306,7.99272381 14.1246,8.59767619 13.4189265,8.66091429 L11.0576204,8.66091429 C10.9782735,8.6559619 10.8992939,8.65100952 10.8184776,8.65100952 C10.7552939,8.65100952 10.6935796,8.65824762 10.6311306,8.66091429 L10.4672939,8.66091429 L10.4672939,8.66967619 C8.19966122,8.85139048 6.40737551,10.7744381 6.32692653,13.1527238 L6.31076327,13.1527238 L6.31076327,15.6361524 C6.31076327,15.6414857 6.30929388,15.6464381 6.30929388,15.6521524 C6.30929388,16.5496762 7.01055918,17.2769143 7.87639592,17.2769143 C8.74149796,17.2769143 9.44276327,16.5496762 9.44276327,15.6521524 C9.44276327,15.6171048 9.43541633,15.5847238 9.43321224,15.5504381 L9.43321224,13.3801524 L9.44313061,13.3778667 C9.44202857,13.3576762 9.43762041,13.3386286 9.43762041,13.3176762 C9.43762041,12.566819 9.99672245,11.9599619 10.705702,11.8990095 L13.0754571,11.8990095 C13.1503959,11.902819 13.2246,11.9096762 13.3006408,11.9096762 C13.3689673,11.9096762 13.4354571,11.9020571 13.5034163,11.8990095 L13.5970898,11.8990095 L13.5970898,11.8940571 C15.8290898,11.742819 17.6140286,9.90815238 17.7830082,7.5999619 L17.8043143,7.5999619 L17.8043143,4.4624381 Z" id="Fill-1" fill="#FFFFFF" mask="url(#mask-2)"></path>
                </g>
                <path d="M5.27653469,21.3038857 C5.27653469,22.7926476 6.4402898,23.9998857 7.87624898,23.9998857 C9.31184082,23.9998857 10.4755959,22.7926476 10.4755959,21.3038857 C10.4755959,19.8151238 9.31184082,18.6078857 7.87624898,18.6078857 C6.4402898,18.6078857 5.27653469,19.8151238 5.27653469,21.3038857 Z" id="Fill-4" fill="#FFFFFF"></path>
            </g>
        </g>
    </g>
</svg>