<?xml version="1.0" encoding="UTF-8" standalone="no"?>
<svg width="30px" height="32px" viewBox="0 0 30 32" version="1.1" xmlns="http://www.w3.org/2000/svg" xmlns:xlink="http://www.w3.org/1999/xlink">
    <!-- Generator: Sketch 39.1 (31720) - http://www.bohemiancoding.com/sketch -->
    <title>Page 1</title>
    <desc>Created with Sketch.</desc>
    <defs></defs>
    <g id="Page-1" stroke="none" stroke-width="1" fill="none" fill-rule="evenodd">
        <g id="MegaMenu-1024" transform="translate(-707.000000, -598.000000)" fill="#B8B8B8">
            <g id="Page-1" transform="translate(707.000000, 598.000000)">
                <path d="M24.5111278,8.18846897 C16.1278195,10.2850207 5.90210526,8.18846897 5.90210526,8.18846897 C5.90210526,8.18846897 7.40593985,3.14924138 9.09766917,1.31023448 C9.62390977,0.795365517 10.2631579,-0.528772414 13.3082707,0.611310345 C15.3554887,1.37798621 16.2027068,0.942344828 16.9547368,0.611310345 C19.9247368,-0.786317241 20.7893233,0.574675862 21.3909023,1.1264 C23.8721053,4.54708966 24.5111278,8.04148966 24.5111278,8.18846897" id="Fill-1"></path>
                <path d="M25.7092105,10.7011752 C23.1075564,11.3040993 19.3659023,11.6825821 15.2065038,11.6825821 C11.1461278,11.6825821 7.48567669,11.3215338 4.89304511,10.7431062 C-1.91650376,11.8048441 1.57883459,12.9332303 1.57883459,12.9332303 C1.57883459,12.9332303 10.6765038,16.5746097 28.6465038,13.1905545 C28.9794361,12.9374234 32.2954511,11.6872166 25.7092105,10.7011752" id="Fill-3"></path>
                <path d="M14.1728571,16.5720938 C14.1728571,17.1218317 13.7174436,17.5674041 13.1555639,17.5674041 L9.62616541,17.5674041 C9.06428571,17.5674041 8.60887218,17.1218317 8.60887218,16.5720938 L8.60887218,15.0597076 C8.60887218,14.5099697 9.06428571,14.0646179 9.62616541,14.0646179 L13.1555639,14.0646179 C13.7174436,14.0646179 14.1728571,14.5099697 14.1728571,15.0597076 L14.1728571,16.5720938 Z" id="Fill-5"></path>
                <path d="M21.6728571,16.5720938 C21.6728571,17.1218317 21.2174436,17.5674041 20.6555639,17.5674041 L17.1261654,17.5674041 C16.5642857,17.5674041 16.1088722,17.1218317 16.1088722,16.5720938 L16.1088722,15.0597076 C16.1088722,14.5099697 16.5642857,14.0646179 17.1261654,14.0646179 L20.6555639,14.0646179 C21.2174436,14.0646179 21.6728571,14.5099697 21.6728571,15.0597076 L21.6728571,16.5720938 Z" id="Fill-7"></path>
                <path d="M6.61646617,16.5744552 C6.84203008,16.5744552 14.2856391,31.9492414 14.2856391,31.9492414 L4.73684211,29.7423448 L6.9924812,26.1378207 L0,23.9309241 C0,23.9309241 0.45112782,16.5744552 6.61646617,16.5744552" id="Fill-9"></path>
                <path d="M23.3086466,16.5744552 C23.0830827,16.5744552 15.6394737,31.9492414 15.6394737,31.9492414 L25.1882707,29.7423448 L22.9326316,26.1378207 L29.9251128,23.9309241 C29.9251128,23.9309241 29.473985,16.5744552 23.3086466,16.5744552" id="Fill-11"></path>
                <path d="M17.3060752,21.5514041 C16.5556241,21.8519834 15.7341203,22.0181628 14.8731429,22.0181628 C14.024797,22.0181628 13.2152481,21.8570593 12.4740451,21.5646455 C12.2622406,21.4812248 11.9266015,22.7775559 11.9624662,22.7914593 C12.8615639,23.1467697 13.8438947,23.3423007 14.8731429,23.3423007 C15.9206617,23.3423007 16.9201353,23.1394869 17.8325414,22.7720386 C17.8517143,22.7643145 17.8510376,22.717749 17.869985,22.7100248 C17.869985,22.7100248 17.5059248,21.4712938 17.3060752,21.5514041" id="Fill-13"></path>
                <path d="M12.8853383,22.1733738 C12.8853383,22.5383945 12.5830827,22.8341186 12.21,22.8341186 C11.8369173,22.8341186 11.5344361,22.5383945 11.5344361,22.1733738 C11.5344361,21.8083531 11.8369173,21.5124083 12.21,21.5124083 C12.5830827,21.5124083 12.8853383,21.8083531 12.8853383,22.1733738" id="Fill-15"></path>
                <path d="M18.2343383,22.1664883 C18.2343383,22.531509 17.9320827,22.8272331 17.559,22.8272331 C17.1859173,22.8272331 16.8834361,22.531509 16.8834361,22.1664883 C16.8834361,21.8014676 17.1859173,21.5055228 17.559,21.5055228 C17.9320827,21.5055228 18.2343383,21.8014676 18.2343383,22.1664883" id="Fill-17"></path>
            </g>
        </g>
    </g>
</svg>