<?xml version="1.0" encoding="UTF-8" standalone="no"?>
<svg width="40px" height="30px" viewBox="0 0 40 30" version="1.1" xmlns="http://www.w3.org/2000/svg" xmlns:xlink="http://www.w3.org/1999/xlink">
    <!-- Generator: Sketch 39.1 (31720) - http://www.bohemiancoding.com/sketch -->
    <title>Page 1 Copy 4</title>
    <desc>Created with Sketch.</desc>
    <defs>
        <polygon id="path-1" points="40 14.5316133 40 29.0625 0 29.0625 0 14.5316133 0 0.000726562495 40 0.000726562495 40 14.5316133"></polygon>
    </defs>
    <g id="Page-1" stroke="none" stroke-width="1" fill="none" fill-rule="evenodd">
        <g id="MegaMenu-1024" transform="translate(-562.000000, -598.000000)">
            <g id="Page-1-Copy-4" transform="translate(562.000000, 598.000000)">
                <mask id="mask-2" fill="white">
                    <use xlink:href="#path-1"></use>
                </mask>
                <g id="Clip-2"></g>
                <path d="M30.9090909,20.8893984 C32.4145455,20.8893984 33.6363636,22.108207 33.6363636,23.6140078 C33.6363636,25.1179922 32.4145455,26.3386172 30.9090909,26.3386172 C29.4036364,26.3386172 28.1818182,25.1179922 28.1818182,23.6140078 C28.1818182,22.108207 29.4036364,20.8893984 30.9090909,20.8893984 M9.09090909,20.8893984 C10.5981818,20.8893984 11.8181818,22.108207 11.8181818,23.6140078 C11.8181818,25.1179922 10.5981818,26.3386172 9.09090909,26.3386172 C7.58363636,26.3386172 6.36363636,25.1179922 6.36363636,23.6140078 C6.36363636,22.108207 7.58363636,20.8893984 9.09090909,20.8893984 M29.0909091,9.99096094 L33.6363636,9.99096094 L37.2181818,14.5319766 L29.0909091,14.5319766 M16.3636364,3.63353906 L23.6363636,10.8991641 L16.3636364,18.1647891 L16.3636364,12.7155703 L5.45454545,12.7155703 L5.45454545,9.08275781 L16.3636364,9.08275781 M3.63636364,0.000726562495 C1.62909091,0.000726562495 0,1.62641016 0,3.63353906 L0,23.6140078 L3.63636364,23.6140078 C3.63636364,26.6219766 6.07818182,29.0632266 9.09090909,29.0632266 C12.1036364,29.0632266 14.5454545,26.6219766 14.5454545,23.6140078 L25.4545455,23.6140078 C25.4545455,26.6219766 27.8963636,29.0632266 30.9090909,29.0632266 C33.9218182,29.0632266 36.3636364,26.6219766 36.3636364,23.6140078 L40,23.6140078 L40,14.5319766 L34.5454545,7.26635156 L29.0909091,7.26635156 L29.0909091,0.000726562495" id="Fill-1" fill="#B8B8B8" mask="url(#mask-2)"></path>
            </g>
        </g>
    </g>
</svg>