<?xml version="1.0" encoding="UTF-8" standalone="no"?>
<svg width="31px" height="33px" viewBox="0 0 31 33" version="1.1" xmlns="http://www.w3.org/2000/svg" xmlns:xlink="http://www.w3.org/1999/xlink">
    <!-- Generator: Sketch 39.1 (31720) - http://www.bohemiancoding.com/sketch -->
    <title>Page 1</title>
    <desc>Created with Sketch.</desc>
    <defs></defs>
    <g id="Page-1" stroke="none" stroke-width="1" fill="none" fill-rule="evenodd">
        <g id="MegaMenu-1024" transform="translate(-877.000000, -595.000000)" fill="#B8B8B8">
            <g id="Page-1" transform="translate(877.000000, 595.000000)">
                <path d="M9.67465714,14.967489 L28.4314286,14.967489 L28.4314286,12.822489 L9.67465714,12.822489 L9.67465714,14.967489 Z M28.9690571,10.2308589 L9.1326,10.2308589 C8.02634286,10.2308589 7.12911429,11.1453658 7.12911429,12.2745986 L7.12911429,26.5776123 C7.12911429,27.7068452 8.02634286,28.6218041 9.1326,28.6218041 L11.7959429,28.6218041 C11.7299571,28.2217356 11.6967429,27.8139822 11.6967429,27.3994479 C11.6967429,26.9324753 11.7432429,26.4772562 11.8220714,26.0297219 L9.6751,26.0297219 L9.6751,19.1829 L28.4314286,19.1829 L28.4314286,26.0233932 L26.2795857,26.0233932 C26.3575286,26.4713795 26.4035857,26.9252425 26.4035857,27.3926671 C26.4035857,27.8072014 26.3703714,28.2145027 26.3043857,28.6154753 L28.9690571,28.6154753 C30.0739857,28.6154753 30.9716571,27.6996123 30.9716571,26.5712836 L30.9716571,12.2745986 C30.9716571,11.1453658 30.0739857,10.2308589 28.9690571,10.2308589 L28.9690571,10.2308589 Z" id="Fill-1"></path>
                <path d="M24.6880014,8.4133274 C25.1530014,8.4133274 25.2840871,7.77186164 24.8647014,7.57793014 L8.51043,0.175984932 C7.51533,-0.277878082 6.34397286,0.175984932 5.89934429,1.19808082 L0.172758571,14.3054096 C-0.272755714,15.3211767 0.172758571,16.5168616 1.17405857,16.9716288 L4.47201571,18.4276973 C4.88387286,18.6143959 5.35595857,18.3074507 5.35595857,17.8463548 L5.35595857,12.2824644 C5.35595857,10.150574 7.05121571,8.41965616 9.13884429,8.41965616 L24.6880014,8.41965616 L24.6880014,8.4133274 Z" id="Fill-3"></path>
                <path d="M20.5323186,29.4643438 C20.3100043,29.7446178 20.0150614,29.9313164 19.67539,30.0253438 C19.5252614,30.0646726 19.4592757,30.1451384 19.4654757,30.3056178 C19.4725614,30.4593164 19.4654757,30.6134671 19.4654757,30.7734945 C19.4654757,30.9131795 19.3937329,30.9877685 19.2635329,30.9877685 C19.0996757,30.9940973 18.9362614,30.9940973 18.7724043,30.9877685 C18.6280329,30.9877685 18.5633757,30.9000699 18.5633757,30.7594808 L18.5633757,30.4190836 C18.5633757,30.1718096 18.55009,30.1582479 18.3136043,30.1180151 C18.0129043,30.0719055 17.7184043,29.9986726 17.4438329,29.8644123 C17.2277186,29.7581795 17.20159,29.7043849 17.2671329,29.4706726 C17.3123043,29.2970836 17.3588043,29.1230425 17.4101757,28.9557822 C17.4699614,28.755974 17.5226614,28.7365356 17.7051186,28.8292068 C18.0129043,28.9896863 18.3339757,29.0823575 18.6745329,29.1230425 C18.8906471,29.1497137 19.1054329,29.1302753 19.3087043,29.0362479 C19.6886757,28.8694397 19.7475757,28.4214534 19.4260614,28.1547411 C19.3149043,28.0607137 19.1975471,27.9947137 19.0664614,27.9409192 C18.73299,27.7935493 18.3862329,27.6800836 18.0784471,27.4861521 C17.5682757,27.1787548 17.2476471,26.7520151 17.2861757,26.1177822 C17.32559,25.4021795 17.7246043,24.961426 18.3658614,24.7213849 C18.6280329,24.6201247 18.6351186,24.6273575 18.6351186,24.3470836 L18.6351186,24.0591247 C18.6408757,23.8453027 18.6745329,23.8123027 18.8831186,23.8050699 L19.0735471,23.8050699 C19.5181757,23.8050699 19.5181757,23.8050699 19.5181757,24.259837 C19.5181757,24.5807959 19.5181757,24.5807959 19.8321614,24.6273575 C20.0677614,24.6675904 20.2971614,24.7335904 20.5194757,24.8348507 C20.6434757,24.887289 20.6899757,24.9745356 20.6510043,25.1078918 C20.5978614,25.3018233 20.5456043,25.5029877 20.4800614,25.6892342 C20.4211614,25.8700562 20.3627043,25.8967274 20.1917614,25.8167137 C19.8454471,25.6431247 19.4858471,25.5757685 19.1054329,25.5956589 C19.0080043,25.6028918 18.90969,25.6160014 18.8180186,25.6566863 C18.4907471,25.8027 18.4318471,26.1774534 18.7130614,26.4039329 C18.8574329,26.5173986 19.0137614,26.6046452 19.1847043,26.6787822 C19.4787614,26.7985767 19.7666186,26.9188233 20.0482757,27.0788507 C20.91229,27.5666178 21.1545329,28.6958507 20.5323186,29.4643438 M19.0531757,22.1419603 C16.2131329,22.1419603 13.9098329,24.4930973 13.9098329,27.3925767 C13.9098329,30.2925082 16.2131329,32.6440973 19.0531757,32.6440973 C21.8932186,32.6440973 24.1978471,30.2925082 24.1978471,27.3925767 C24.1978471,24.4930973 21.8932186,22.1419603 19.0531757,22.1419603" id="Fill-4"></path>
            </g>
        </g>
    </g>
</svg>