<?xml version="1.0" encoding="UTF-8" standalone="no"?>
<svg width="31px" height="31px" viewBox="0 0 31 31" version="1.1" xmlns="http://www.w3.org/2000/svg" xmlns:xlink="http://www.w3.org/1999/xlink">
    <!-- Generator: Sketch 39.1 (31720) - http://www.bohemiancoding.com/sketch -->
    <title>Page 1</title>
    <desc>Created with Sketch.</desc>
    <defs>
        <polygon id="path-1" points="0.000500000002 31 31 31 31 0.000399999997 0.000500000002 0.000399999997"></polygon>
    </defs>
    <g id="Page-1" stroke="none" stroke-width="1" fill="none" fill-rule="evenodd">
        <g id="Home-320" transform="translate(-143.000000, -2479.000000)">
            <g id="Group-10" transform="translate(0.000000, 2199.000000)">
                <g id="Page-1" transform="translate(143.000000, 280.000000)">
                    <mask id="mask-2" fill="white">
                        <use xlink:href="#path-1"></use>
                    </mask>
                    <g id="Clip-2"></g>
                    <path d="M23.8675,12.0664 C23.9675,14.0944 23.5075,15.8414 22.8655,17.2554 C22.7745,17.4584 22.6795,17.6534 22.5815,17.8414 C21.1015,20.7444 18.4315,22.7474 15.3455,23.6844 C15.1075,23.7524 14.8725,23.8094 14.6395,23.8594 C9.7695,24.8984 6.2025,22.2694 6.2025,22.2694 C9.5875,22.7474 12.2105,20.5774 12.2105,20.5774 C9.3255,20.5054 8.4435,17.8834 8.4435,17.8834 C9.4925,18.0034 10.3035,17.7164 10.3035,17.7164 C6.8935,16.9294 7.0385,13.7594 7.0385,13.7594 C7.3745,14.1404 8.8725,14.2354 8.8725,14.2354 C5.7495,11.8994 7.5605,8.8724 7.5605,8.8724 C11.2795,13.0914 15.8335,13.0204 15.8335,13.0204 C15.5235,11.8524 16.0715,8.9204 18.6945,8.3004 C21.3165,7.6804 22.7225,9.4204 22.7225,9.4204 C24.2485,9.1824 25.2745,8.4434 25.2745,8.4434 C25.1545,9.4444 23.6525,10.6604 23.6525,10.6604 C24.8915,10.4934 25.8695,10.0404 25.8695,10.0404 C25.3925,10.9944 23.8675,12.0664 23.8675,12.0664 M15.5005,0.000399999997 C6.9395,0.000399999997 0.000500000002,6.9394 0.000500000002,15.5004 C0.000500000002,24.0604 6.9395,31.0004 15.5005,31.0004 C24.0595,31.0004 31.0005,24.0604 31.0005,15.5004 C31.0005,6.9394 24.0595,0.000399999997 15.5005,0.000399999997" id="Fill-1" fill="#FEFEFE" mask="url(#mask-2)"></path>
                </g>
            </g>
        </g>
    </g>
</svg>