<?xml version="1.0" encoding="UTF-8" standalone="no"?>
<svg width="31px" height="31px" viewBox="0 0 31 31" version="1.1" xmlns="http://www.w3.org/2000/svg" xmlns:xlink="http://www.w3.org/1999/xlink">
    <!-- Generator: Sketch 39.1 (31720) - http://www.bohemiancoding.com/sketch -->
    <title>Page 1</title>
    <desc>Created with Sketch.</desc>
    <defs>
        <polygon id="path-1" points="30.9995 0 0 0 0 30.9997 30.9995 30.9997 30.9995 7.10542736e-15"></polygon>
    </defs>
    <g id="Page-1" stroke="none" stroke-width="1" fill="none" fill-rule="evenodd">
        <g id="Home-320" transform="translate(-21.000000, -2479.000000)">
            <g id="Group-10" transform="translate(0.000000, 2199.000000)">
                <g id="Page-1" transform="translate(21.000000, 280.000000)">
                    <mask id="mask-2" fill="white">
                        <use xlink:href="#path-1"></use>
                    </mask>
                    <g id="Clip-2"></g>
                    <path d="M11.8655,15.6377 C11.8655,15.8607 11.8285,16.0737 11.7815,16.2867 L18.3985,20.1387 C18.8805,19.7017 19.5115,19.4237 20.2175,19.4237 C21.7135,19.4237 22.9265,20.6367 22.9265,22.1337 C22.9265,23.6267 21.7105,24.8337 20.2175,24.8337 C18.7225,24.8337 17.5075,23.6267 17.5075,22.1337 C17.5075,21.9197 17.5345,21.7157 17.5815,21.5207 L10.9745,17.6697 C10.4735,18.1337 9.8145,18.4217 9.0815,18.4217 C7.5435,18.4217 6.2975,17.1757 6.2975,15.6377 C6.2975,14.0997 7.5435,12.8537 9.0815,12.8537 C9.8145,12.8537 10.4735,13.1417 10.9745,13.6057 L17.5165,9.7917 C17.4695,9.5777 17.4325,9.3647 17.4325,9.1417 C17.4325,7.6047 18.6795,6.3577 20.2175,6.3577 C21.7545,6.3577 23.0005,7.6047 23.0005,9.1417 C23.0005,10.6797 21.7545,11.9257 20.2175,11.9257 C19.4835,11.9257 18.8245,11.6377 18.3235,11.1747 L11.7815,14.9887 C11.8285,15.2017 11.8655,15.4147 11.8655,15.6377 M15.4995,-0.0003 C6.9395,-0.0003 -0.000500000002,6.9397 -0.000500000002,15.4997 C-0.000500000002,24.0607 6.9395,30.9997 15.4995,30.9997 C24.0605,30.9997 30.9995,24.0607 30.9995,15.4997 C30.9995,6.9397 24.0605,-0.0003 15.4995,-0.0003" id="Fill-1" fill="#424242" mask="url(#mask-2)"></path>
                </g>
            </g>
        </g>
    </g>
</svg>