<?xml version="1.0" encoding="UTF-8" standalone="no"?>
<svg width="31px" height="31px" viewBox="0 0 31 31" version="1.1" xmlns="http://www.w3.org/2000/svg" xmlns:xlink="http://www.w3.org/1999/xlink">
    <!-- Generator: Sketch 39.1 (31720) - http://www.bohemiancoding.com/sketch -->
    <title>Page 1</title>
    <desc>Created with Sketch.</desc>
    <defs>
        <polygon id="path-1" points="31 30.9998 31 0 0 0 0 30.9998"></polygon>
    </defs>
    <g id="Page-1" stroke="none" stroke-width="1" fill="none" fill-rule="evenodd">
        <g id="Home-320" transform="translate(-102.000000, -2479.000000)">
            <g id="Group-10" transform="translate(0.000000, 2199.000000)">
                <g id="Page-1" transform="translate(102.000000, 280.000000)">
                    <mask id="mask-2" fill="white">
                        <use xlink:href="#path-1"></use>
                    </mask>
                    <g id="Clip-2"></g>
                    <path d="M20.4476,13.8418 L20.3056,15.4018 L17.3596,15.4018 L17.3596,25.3258 L13.3866,25.3258 L13.3866,15.4018 L11.4036,15.4018 L11.4036,13.8278 L11.4036,11.4338 L13.3736,11.4338 L13.3736,9.6358 C13.3736,8.0128 14.1446,5.4768 17.5516,5.4768 L20.6166,5.4908 L20.6166,8.8928 L18.3906,8.8928 C18.0256,8.8928 17.5096,9.0708 17.5096,9.8458 L17.5096,11.4338 L20.6666,11.4338 L20.4476,13.8418 Z M15.5006,-0.000200000002 C6.9396,-0.000200000002 -0.000399999997,6.9398 -0.000399999997,15.4998 C-0.000399999997,24.0608 6.9396,30.9998 15.5006,30.9998 C24.0596,30.9998 31.0006,24.0608 31.0006,15.4998 C31.0006,6.9398 24.0596,-0.000200000002 15.5006,-0.000200000002 L15.5006,-0.000200000002 Z" id="Fill-1" fill="#FEFEFE" mask="url(#mask-2)"></path>
                </g>
            </g>
        </g>
    </g>
</svg>