<?xml version="1.0" encoding="UTF-8" standalone="no"?>
<svg width="31px" height="31px" viewBox="0 0 31 31" version="1.1" xmlns="http://www.w3.org/2000/svg" xmlns:xlink="http://www.w3.org/1999/xlink">
    <!-- Generator: Sketch 39.1 (31720) - http://www.bohemiancoding.com/sketch -->
    <title>Page 1</title>
    <desc>Created with Sketch.</desc>
    <defs>
        <polygon id="path-1" points="31 15.5002 31 31 0 31 0 15.5002 0 0.0004 31 0.0004"></polygon>
    </defs>
    <g id="Page-1" stroke="none" stroke-width="1" fill="none" fill-rule="evenodd">
        <g id="Artboard">
            <g id="Page-1">
                <path d="M20.7905,18.5742 C20.5825,19.1502 19.5665,19.7062 19.1115,19.7462 C18.6555,19.7882 18.6555,20.1182 16.1265,19.1302 C13.5985,18.1412 12.0025,15.5692 11.8785,15.4042 C11.7535,15.2402 10.8635,14.0662 10.8635,12.8522 C10.8635,11.6382 11.5065,11.0412 11.7335,10.7952 C11.9615,10.5482 12.2305,10.4862 12.3965,10.4862 C12.5625,10.4862 12.7275,10.5062 12.8735,10.5062 C13.0195,10.5062 13.2265,10.4252 13.4325,10.9182 C13.6405,11.4122 14.1375,12.6272 14.1995,12.7502 C14.2625,12.8732 14.3035,13.0172 14.2205,13.1812 C14.1375,13.3462 14.0965,13.4492 13.9715,13.5952 C13.8475,13.7382 13.7105,13.9152 13.5985,14.0262 C13.4755,14.1492 13.3455,14.2822 13.4895,14.5292 C13.6355,14.7762 14.1345,15.5832 14.8735,16.2382 C15.8225,17.0782 16.6245,17.3402 16.8735,17.4632 C17.1225,17.5862 17.2675,17.5662 17.4115,17.4012 C17.5575,17.2362 18.0345,16.6802 18.1995,16.4332 C18.3645,16.1862 18.5315,16.2282 18.7595,16.3102 C18.9865,16.3922 20.2105,16.9892 20.4595,17.1122 C20.7075,17.2362 20.8725,17.2982 20.9365,17.4012 C20.9975,17.5032 20.9975,17.9972 20.7905,18.5742 M15.8125,6.6182 C11.1085,6.6182 7.2825,10.4142 7.2825,15.0822 C7.2825,16.9332 7.8855,18.6492 8.9075,20.0452 L7.8425,23.1872 L11.1195,22.1462 C12.4655,23.0292 14.0795,23.5462 15.8125,23.5462 C20.5155,23.5462 24.3425,19.7492 24.3425,15.0822 C24.3425,10.4142 20.5155,6.6182 15.8125,6.6182" id="Fill-1" fill="#424242"></path>
                <g id="Group-5">
                    <mask id="mask-2" fill="white">
                        <use xlink:href="#path-1"></use>
                    </mask>
                    <g id="Clip-4"></g>
                    <path d="M15.813,25.1484 C14.034,25.1484 12.362,24.6944 10.909,23.8964 L5.291,25.6814 L7.122,20.2804 C6.198,18.7624 5.667,16.9834 5.667,15.0824 C5.667,9.5224 10.209,5.0144 15.813,5.0144 C21.416,5.0144 25.958,9.5224 25.958,15.0824 C25.958,20.6414 21.416,25.1484 15.813,25.1484 M15.5,0.0004 C6.939,0.0004 0,6.9394 0,15.5004 C0,24.0594 6.939,31.0004 15.5,31.0004 C24.059,31.0004 31,24.0594 31,15.5004 C31,6.9394 24.059,0.0004 15.5,0.0004" id="Fill-3" fill="#424242" mask="url(#mask-2)"></path>
                </g>
            </g>
        </g>
    </g>
</svg>