<?xml version="1.0" encoding="UTF-8" standalone="no"?>
<svg width="47px" height="46px" viewBox="0 0 47 46" version="1.1" xmlns="http://www.w3.org/2000/svg" xmlns:xlink="http://www.w3.org/1999/xlink">
    <!-- Generator: Sketch 39.1 (31720) - http://www.bohemiancoding.com/sketch -->
    <title>Page 1 Copy 22</title>
    <desc>Created with Sketch.</desc>
    <defs>
        <polygon id="path-1" points="46.4772949 22.7418584 46.4772949 0 0 0 0 22.7418584 0 45.4837168 46.4772949 45.4837168"></polygon>
    </defs>
    <g id="Page-1" stroke="none" stroke-width="1" fill="none" fill-rule="evenodd">
        <g id="Busca-Detalhada-1024" transform="translate(-568.000000, -2600.000000)">
            <g id="Group-8-Copy-2" transform="translate(-1.000000, 1571.000000)">
                <g id="Page-1-Copy-22" transform="translate(569.000000, 1029.000000)">
                    <path d="M23.238805,18.3724002 C20.7731451,18.3724002 18.7738337,20.3289776 18.7738337,22.7419355 C18.7738337,25.1548934 20.7731451,27.1114707 23.238805,27.1114707 C25.7044649,27.1114707 27.7029886,25.1548934 27.7029886,22.7419355 C27.7029886,20.3289776 25.7044649,18.3724002 23.238805,18.3724002" id="Fill-1" fill="#FEFEFE"></path>
                    <path d="M30.3885885,17.3177141 C29.5007934,17.3177141 28.7807892,16.6130995 28.7807892,15.7450514 C28.7807892,14.8762324 29.5007934,14.1716178 30.3885885,14.1716178 C31.2763836,14.1716178 31.9963878,14.8762324 31.9963878,15.7450514 C31.9963878,16.6130995 31.2763836,17.3177141 30.3885885,17.3177141 M23.2389626,29.4734713 C19.4404284,29.4734713 16.3603229,26.4592012 16.3603229,22.7418584 C16.3603229,19.0245156 19.4404284,16.0110164 23.2389626,16.0110164 C27.0374967,16.0110164 30.1168145,19.0245156 30.1168145,22.7418584 C30.1168145,26.4592012 27.0374967,29.4734713 23.2389626,29.4734713 M33.6805989,15.0111422 C33.4379717,14.3990372 33.1472916,13.9627004 32.6785799,13.5040071 C32.2098682,13.0453138 31.7640013,12.7608469 31.1385272,12.5234057 C30.6666645,12.3437829 29.9569011,12.13024 28.6508103,12.0716506 C27.2383732,12.0092067 26.815351,11.9953302 23.2389626,11.9953302 C19.6625741,11.9953302 19.2387642,12.0092067 17.8263271,12.0716506 C16.5202363,12.13024 15.8112606,12.3437829 15.3393979,12.5234057 C14.7139238,12.7608469 14.2680569,13.0453138 13.7985574,13.5040071 C13.3306335,13.9627004 13.0399535,14.3990372 12.7965385,15.0111422 C12.6137803,15.4729191 12.3955733,16.1675118 12.3357043,17.4456856 C12.2711087,18.8271618 12.2577169,19.2419131 12.2577169,22.7418584 C12.2577169,26.2418037 12.2711087,26.6565549 12.3357043,28.0388021 C12.3955733,29.3169759 12.6137803,30.0107977 12.7965385,30.4725746 C13.0399535,31.0846796 13.3306335,31.5210164 13.7985574,31.9804806 C14.2680569,32.438403 14.7139238,32.7228699 15.3393979,32.961082 C15.8112606,33.1399338 16.5202363,33.3534768 17.8263271,33.4112952 C19.2387642,33.4745101 19.6617864,33.4883866 23.2389626,33.4883866 C26.815351,33.4883866 27.2383732,33.4745101 28.6508103,33.4112952 C29.9569011,33.3534768 30.6666645,33.1399338 31.1385272,32.961082 C31.7640013,32.7228699 32.2098682,32.438403 32.6785799,31.9804806 C33.1472916,31.5210164 33.4379717,31.0846796 33.6805989,30.4725746 C33.8641448,30.0107977 34.081564,29.3169759 34.1414331,28.0388021 C34.2060287,26.6565549 34.2194204,26.2418037 34.2194204,22.7418584 C34.2194204,19.2419131 34.2060287,18.8271618 34.1414331,17.4456856 C34.081564,16.1675118 33.8641448,15.4729191 33.6805989,15.0111422" id="Fill-3" fill="#FEFEFE"></path>
                    <g id="Group-7">
                        <mask id="mask-2" fill="white">
                            <use xlink:href="#path-1"></use>
                        </mask>
                        <g id="Clip-6"></g>
                        <path d="M14.4646795,35.1619617 C13.5839741,34.8266145 12.8371864,34.3787141 12.0927619,33.6502012 C11.3475497,32.9209174 10.8898665,32.1900919 10.5471949,31.328211 C10.2163396,30.4940831 9.98946741,29.5412346 9.92487184,28.1458819 C9.85948853,26.7482165 9.84452127,26.3018578 9.84452127,22.7417813 C9.84452127,19.1817048 9.85948853,18.7353461 9.92487184,17.3376807 C9.98946741,15.942328 10.2163396,14.9894795 10.5471949,14.1553516 C10.8898665,13.2934707 11.3475497,12.5626452 12.0927619,11.8341323 C12.8371864,11.1048486 13.5839741,10.6569481 14.4646795,10.3216009 C15.3170258,9.99781739 16.2906857,9.77656534 17.7157269,9.71257955 C19.1447068,9.64859377 19.6008144,9.63394642 23.2386475,9.63394642 C26.8764805,9.63394642 27.3325882,9.64859377 28.7607803,9.71257955 C30.1866092,9.77656534 31.1602691,9.99781739 32.0126154,10.3216009 C32.8933208,10.6569481 33.6401085,11.1048486 34.3853207,11.8341323 C35.1297452,12.5626452 35.5874284,13.2934707 35.9301,14.1553516 C36.2609553,14.9894795 36.4878275,15.942328 36.5524231,17.3376807 C36.6178064,18.7353461 36.6327737,19.1817048 36.6327737,22.7417813 C36.6327737,26.3018578 36.6178064,26.7482165 36.5524231,28.1458819 C36.4878275,29.5412346 36.2609553,30.4940831 35.9301,31.328211 C35.5874284,32.1900919 35.1297452,32.9209174 34.3853207,33.6502012 C33.6401085,34.3787141 32.8933208,34.8266145 32.0126154,35.1619617 C31.1602691,35.4857452 30.1866092,35.7077682 28.7607803,35.771754 C27.3325882,35.8349688 26.8764805,35.8503871 23.2386475,35.8503871 C19.6008144,35.8503871 19.1447068,35.8349688 17.7157269,35.771754 C16.2906857,35.7077682 15.3170258,35.4857452 14.4646795,35.1619617 M46.4772949,22.7417813 C46.4772949,10.1820656 36.0734706,-0.00015418262 23.2386475,-0.00015418262 C10.4046121,-0.00015418262 0,10.1820656 0,22.7417813 C0,35.3022679 10.4046121,45.4837168 23.2386475,45.4837168 C36.0734706,45.4837168 46.4772949,35.3022679 46.4772949,22.7417813" id="Fill-5" fill="#FEFEFE" mask="url(#mask-2)"></path>
                    </g>
                </g>
            </g>
        </g>
    </g>
</svg>