<?xml version="1.0" encoding="utf-8"?>
<!-- Generator: Adobe Illustrator 15.0.0, SVG Export Plug-In . SVG Version: 6.00 Build 0)  -->
<!DOCTYPE svg PUBLIC "-//W3C//DTD SVG 1.1//EN" "http://www.w3.org/Graphics/SVG/1.1/DTD/svg11.dtd">
<svg version="1.1" id="Layer_1" xmlns="http://www.w3.org/2000/svg" xmlns:xlink="http://www.w3.org/1999/xlink" x="0px" y="0px"
     width="42px" height="42px" viewBox="0 0 42 42" enable-background="new 0 0 42 42" xml:space="preserve">
<g>
    <defs>
        <path id="SVGID_1_" d="M65.347-1734c-0.958,0-1.835,0.517-2.326,1.34c-0.489-0.836-1.329-1.34-2.271-1.34
            c-1.438,0-2.586,1.178-2.732,2.799c-0.013,0.072-0.061,0.448,0.085,1.063c0.21,0.888,0.692,1.694,1.397,2.333l3.518,3.191
            l3.577-3.191c0.706-0.639,1.189-1.445,1.399-2.333c0.145-0.613,0.096-0.991,0.086-1.063C67.934-1732.822,66.784-1734,65.347-1734z
            "/>
    </defs>
    <clipPath id="SVGID_2_">
        <use xlink:href="#SVGID_1_"  overflow="visible"/>
    </clipPath>
    <g clip-path="url(#SVGID_2_)">
        <defs>
            <rect id="SVGID_3_" x="-359.952" y="-2039.73" width="768" height="4122"/>
        </defs>
        <clipPath id="SVGID_4_">
            <use xlink:href="#SVGID_3_"  overflow="visible"/>
        </clipPath>
        <rect x="53" y="-1739" clip-path="url(#SVGID_4_)" fill="#B8B8B8" width="20.096" height="19.387"/>
    </g>
</g>
<g>
    <defs>
        <path id="SVGID_5_" d="M65.347-1733c-0.958,0-1.835,0.517-2.326,1.34c-0.489-0.836-1.329-1.34-2.271-1.34
            c-1.438,0-2.586,1.178-2.732,2.799c-0.013,0.072-0.061,0.448,0.085,1.063c0.21,0.888,0.692,1.694,1.397,2.333l3.518,3.191
            l3.577-3.191c0.706-0.639,1.189-1.445,1.399-2.333c0.145-0.613,0.096-0.991,0.086-1.063C67.934-1731.822,66.784-1733,65.347-1733z
            "/>
    </defs>
    <clipPath id="SVGID_6_">
        <use xlink:href="#SVGID_5_"  overflow="visible"/>
    </clipPath>
    <g clip-path="url(#SVGID_6_)">
        <defs>
            <rect id="SVGID_7_" x="-359.952" y="-2038.73" width="768" height="4122"/>
        </defs>
        <clipPath id="SVGID_8_">
            <use xlink:href="#SVGID_7_"  overflow="visible"/>
        </clipPath>
        <rect x="53" y="-1738" clip-path="url(#SVGID_8_)" fill="#B8B8B8" width="20.096" height="19.387"/>
    </g>
</g>
<path fill="#B8B8B8" d="M21,0C9.402,0,0,9.402,0,21c0,11.598,9.402,21,21,21c11.598,0,21-9.402,21-21C42,9.402,32.598,0,21,0z
     M32.204,28.184c0,0.831-0.673,1.504-1.504,1.504h-9.226l4.675-4.675c0.793-0.598,1.313-1.539,1.313-2.609
    c0-1.809-1.467-3.275-3.276-3.275c-1.388,0-2.567,0.865-3.045,2.083c-0.478-1.218-1.657-2.083-3.044-2.083
    c-1.81,0-3.276,1.466-3.276,3.275c0,1.123,0.566,2.112,1.427,2.703l4.58,4.581h-9.244c-0.831,0-1.504-0.673-1.504-1.504V16.629
    c0-0.831,0.673-1.504,1.504-1.504h4.87v-1.541v-0.626v-0.427h9.453v2.562H24.87v-1.672h-7.458v1.672h-0.897v0.031h0.897h0.072h7.219
    h0.167h1.036h0.234h4.56c0.831,0,1.504,0.673,1.504,1.504V28.184z"/>
</svg>
