<?xml version="1.0" encoding="utf-8"?>
<!-- Generator: Adobe Illustrator 15.0.0, SVG Export Plug-In . SVG Version: 6.00 Build 0)  -->
<!DOCTYPE svg PUBLIC "-//W3C//DTD SVG 1.1//EN" "http://www.w3.org/Graphics/SVG/1.1/DTD/svg11.dtd">
<svg version="1.1" id="Layer_1" xmlns="http://www.w3.org/2000/svg" xmlns:xlink="http://www.w3.org/1999/xlink" x="0px" y="0px"
	 width="100px" height="100px" viewBox="0 0 100 100" enable-background="new 0 0 100 100" xml:space="preserve">
<path fill="#B8B7B8" d="M50,1.149c-26.978,0-48.851,21.872-48.851,48.852c0,26.979,21.873,48.85,48.851,48.85
	c26.98,0,48.851-21.871,48.851-48.85C98.851,23.021,76.98,1.149,50,1.149z M42.064,33.922l1.35-11.617
	c0-3.632,2.947-6.576,6.578-6.576c3.634,0,6.578,2.944,6.578,6.576l1.355,11.69l0.398,0.002H58.25l-2.034,8.872
	c-1.841-0.033-4.366,0.242-6.058,1.719h-0.223c-1.688-1.477-4.22-1.752-6.056-1.719l-1.931-8.412l-0.01-0.027l-0.096-0.509
	L42.064,33.922z M25.601,49.565L40.88,34.06l-0.007-0.144l0.111,0l0.148,0.935l0.029-0.014l0.326,2.006l0.6,3.362l-0.047,0.039
	l0.438,2.692c-0.236,0.023-0.421,0.044-0.571,0.07l-0.711-1.689l-0.016-0.364l-10.455,8.612l7.61,10.026l2.377,0.49l-2.126,4.258
	L25.601,49.565z M39.044,65.752c0,0,1.061-0.14,2.491-0.13l0.504,9.659h-2.35L39.044,65.752z M49.13,80.887h-9.062l-0.272-3.975
	h9.335C49.13,79.139,49.13,80.887,49.13,80.887z M49.13,75.281h-5.994l-0.591-9.63c2.913,0.161,6.585,1.047,6.585,4.531
	C49.13,71.639,49.13,73.509,49.13,75.281z M41.645,58.698l1.833-10.61h13.311c0.5,2.788,1.68,9.556,1.346,9.943
	C50.622,61.619,41.645,58.698,41.645,58.698z M57.077,65.635l-0.584,9.646h-6.3c0-1.772,0-3.643,0-5.099
	C50.193,66.576,54.125,65.75,57.077,65.635z M59.248,80.887h-9.055c0,0,0-1.748,0-3.975h9.328L59.248,80.887z M59.635,75.281h-2.059
	l0.504-9.659c1.277,0.013,2.199,0.13,2.199,0.13L59.635,75.281z M60.812,63.826l-2.008-4.236l2.447-0.226l8.023-9.799l-10.999-9.061
	l-0.648,2.432c-0.005,0-0.01,0-0.014,0l0.428-2.625l-0.128-0.105l1.112-6.242l15.374,15.602L60.812,63.826z"/>
</svg>
