<?xml version="1.0" encoding="UTF-8" standalone="no"?>
<svg width="19px" height="19px" viewBox="0 0 19 19" version="1.1" xmlns="http://www.w3.org/2000/svg" xmlns:xlink="http://www.w3.org/1999/xlink">
    <!-- Generator: Sketch 39.1 (31720) - http://www.bohemiancoding.com/sketch -->
    <title>Fill 1</title>
    <desc>Created with Sketch.</desc>
    <defs></defs>
    <g id="Page-1" stroke="none" stroke-width="1" fill="none" fill-rule="evenodd">
        <g id="Detalhes-768" transform="translate(-533.000000, -28.000000)" fill="#FEFEFE">
            <path d="M545.281,36.236 L545.189,37.257 L543.26,37.257 L543.26,43.756 L540.658,43.756 L540.658,37.257 L539.359,37.257 L539.359,36.227 L539.359,34.659 L540.649,34.659 L540.649,33.483 C540.649,32.419 541.154,30.759 543.385,30.759 L545.391,30.768 L545.391,32.996 L543.934,32.996 C543.696,32.996 543.358,33.112 543.358,33.62 L543.358,34.659 L545.425,34.659 L545.281,36.236 Z M542.124,28 C537.085,28 533,32.085 533,37.124 C533,42.163 537.085,46.248 542.124,46.248 C547.163,46.248 551.248,42.163 551.248,37.124 C551.248,32.085 547.163,28 542.124,28 L542.124,28 Z" id="Fill-1"></path>
        </g>
    </g>
</svg>