<?xml version="1.0" encoding="UTF-8" standalone="no"?>
<svg width="19px" height="19px" viewBox="0 0 19 19" version="1.1" xmlns="http://www.w3.org/2000/svg" xmlns:xlink="http://www.w3.org/1999/xlink">
    <!-- Generator: Sketch 39.1 (31720) - http://www.bohemiancoding.com/sketch -->
    <title>Page 1</title>
    <desc>Created with Sketch.</desc>
    <defs>
        <polygon id="path-1" points="18.2477 18.248 0 18.248 0 0.000200000002 18.2477 0.000200000002 18.2477 18.248"></polygon>
    </defs>
    <g id="Page-1" stroke="none" stroke-width="1" fill="none" fill-rule="evenodd">
        <g id="Detalhes-768" transform="translate(-555.000000, -28.000000)">
            <g id="Page-1" transform="translate(555.000000, 28.000000)">
                <mask id="mask-2" fill="white">
                    <use xlink:href="#path-1"></use>
                </mask>
                <g id="Clip-2"></g>
                <path d="M13.5497,12.3082 C13.3317,12.6752 13.0707,13.0112 12.7427,13.2892 C12.1847,13.8192 11.5257,14.1722 10.7847,14.3602 C9.0377,14.8012 7.4267,14.5222 5.9967,13.3932 C5.4047,12.9272 4.9407,12.3502 4.6117,11.6682 C4.3347,11.1512 4.1737,10.5962 4.0987,10.0182 C3.9697,9.0162 4.1117,8.0532 4.5367,7.1342 C4.5607,7.0832 4.5897,7.0362 4.6167,6.9872 C4.6357,7.0022 4.6557,7.0172 4.6757,7.0322 C4.6557,7.0172 4.6357,7.0022 4.6167,6.9862 C4.8297,6.5172 5.1317,6.1082 5.4847,5.7382 C6.2837,4.8992 7.2527,4.3632 8.3987,4.1802 C10.0027,3.9232 11.4387,4.3022 12.6787,5.3702 C12.7577,5.4372 12.7767,5.4772 12.6917,5.5602 C12.2537,5.9892 11.8227,6.4252 11.3887,6.8582 C11.3447,6.9032 11.3147,6.9572 11.2357,6.8852 C10.1437,5.8842 8.3607,5.8952 7.1997,6.9752 C6.8007,7.3452 6.5177,7.7892 6.3327,8.2982 C6.1037,8.9782 6.1157,9.6602 6.3197,10.3432 C6.4757,10.7402 6.6707,11.1162 6.9597,11.4352 C7.6957,12.2472 8.6067,12.5982 9.6987,12.4852 C10.2057,12.4322 10.6687,12.2602 11.1007,11.9962 C11.4437,11.7352 11.7287,11.4252 11.9167,11.0332 C11.9917,10.8762 12.0437,10.7122 12.0937,10.5462 C12.1287,10.4322 12.1177,10.3872 11.9757,10.3892 C11.1337,10.3952 10.2917,10.3922 9.4497,10.3922 C9.2707,10.3922 9.2707,10.3922 9.2707,10.2072 C9.2707,9.6372 9.2737,9.0662 9.2687,8.4952 C9.2677,8.3852 9.2867,8.3432 9.4107,8.3432 C10.9647,8.3482 12.5177,8.3472 14.0707,8.3442 C14.1547,8.3442 14.2077,8.3502 14.2217,8.4532 C14.4157,9.8112 14.2607,11.1092 13.5497,12.3082 M9.1237,0.000200000002 C4.0847,0.000200000002 -0.0003,4.0852 -0.0003,9.1242 C-0.0003,14.1632 4.0847,18.2482 9.1237,18.2482 C14.1627,18.2482 18.2477,14.1632 18.2477,9.1242 C18.2477,4.0852 14.1627,0.000200000002 9.1237,0.000200000002" id="Fill-1" fill="#FEFEFE" mask="url(#mask-2)"></path>
            </g>
        </g>
    </g>
</svg>