<?xml version="1.0" encoding="UTF-8" standalone="no"?>
<svg width="180px" height="58px" viewBox="0 0 180 58" version="1.1" xmlns="http://www.w3.org/2000/svg" xmlns:xlink="http://www.w3.org/1999/xlink">
    <!-- Generator: Sketch 39.1 (31720) - http://www.bohemiancoding.com/sketch -->
    <title>Page 1 Copy 3</title>
    <desc>Created with Sketch.</desc>
    <defs>
        <polygon id="path-1" points="0 0.338558793 0 26.0843528 25.9151723 26.0843528 25.9151723 0.338558793"></polygon>
    </defs>
    <g id="Page-1" stroke="none" stroke-width="1" fill="none" fill-rule="evenodd">
        <g id="Home-768-Copy" transform="translate(-27.000000, -71.000000)">
            <g id="Page-1-Copy-3" transform="translate(27.000000, 71.000000)">
                <path d="M57.6633934,43.7624161 C58.0434285,43.7624161 58.3603582,43.9059204 58.6134812,44.1922325 C58.8666043,44.4785446 58.9935164,44.7829688 58.9935164,45.1048087 C58.9935164,45.4677493 58.8560867,45.786106 58.5819285,46.0591822 C58.3070691,46.3315618 58.0013582,46.4680999 57.6633934,46.4680999 L54.0320242,46.4680999 C53.8630418,46.4680999 53.7186004,46.5168635 53.5994012,46.6150874 C53.4795008,46.7126146 53.4192,46.8526358 53.4192,47.0344545 C53.4192,47.2302055 53.4795008,47.3799795 53.5994012,47.4851696 C53.7186004,47.5903596 53.8630418,47.6426064 54.0320242,47.6426064 L56.4174109,47.6426064 C56.8535398,47.6426064 57.2588172,47.7331674 57.6318406,47.9156826 C58.0041629,48.0975012 58.3288055,48.3385328 58.6029637,48.6387773 C58.8771219,48.9404151 59.0916805,49.2580752 59.2466395,49.5938475 C59.4015984,49.9296198 59.4794285,50.3071895 59.4794285,50.7265565 C59.4927508,51.187721 59.412116,51.6210205 59.2361219,52.0264551 C59.0601277,52.4325863 58.824534,52.7753248 58.5293406,53.0546707 C58.2334461,53.3347131 57.8884695,53.554846 57.4944109,53.7150693 C57.1003523,53.8766859 56.6565105,53.9567975 56.1642879,53.9567975 L52.2790945,53.9567975 C51.9130828,53.9567975 51.5968543,53.8307087 51.3290066,53.5792278 C51.0618602,53.3270503 50.9286375,53.0121767 50.9286375,52.634607 C50.9286375,52.2855989 51.0548484,51.9672421 51.3086727,51.6802334 C51.5617957,51.3939214 51.8710125,51.2434508 52.2370242,51.230215 L56.1222176,51.230215 C56.5022527,51.230215 56.6922703,51.0623288 56.6922703,50.7265565 C56.6922703,50.3489868 56.5022527,50.160202 56.1222176,50.160202 L53.7992352,50.160202 C53.3771297,50.160202 52.9795652,50.0731241 52.6065418,49.8975751 C52.2335184,49.7234194 51.909577,49.4816912 51.6354187,49.1744804 C51.3612605,48.866573 51.1460008,48.5314973 50.991743,48.1671635 C50.836784,47.8042229 50.7589539,47.4120241 50.7589539,46.9926571 C50.7589539,46.57329 50.8402898,46.1678554 51.0022605,45.7763533 C51.1635301,45.3841545 51.3851004,45.0421126 51.6669715,44.7481377 C51.9488426,44.4541627 52.2790945,44.2200974 52.6591297,44.045245 C53.0391648,43.8703926 53.4549598,43.7763485 53.9051121,43.7624161 L57.6633934,43.7624161 Z" id="Fill-1" fill="#911373"></path>
                <path d="M67.1853775,47.7060687 C66.9455768,47.2720726 66.6644068,46.9676483 66.3404654,46.7927959 C66.016524,46.6179435 65.657524,46.5308657 65.2641666,46.5308657 C64.8553834,46.5308657 64.4935787,46.6179435 64.176649,46.7927959 C63.8597193,46.9676483 63.5820553,47.2720726 63.3429557,47.7060687 L67.1853775,47.7060687 Z M65.2641666,43.8042831 C65.9400963,43.8042831 66.5865768,43.9443044 67.2064127,44.2236502 C67.8255475,44.502996 68.3710592,44.8770826 68.8429479,45.3452133 C69.3141354,45.8147372 69.6906646,46.3525302 69.9725357,46.9613787 C70.2537057,47.5695306 70.3946412,48.2097272 70.3946412,48.8805751 C70.3946412,49.2442124 70.2572115,49.5305244 69.9830533,49.740208 C69.7081939,49.9505881 69.3667232,50.0481153 68.9586412,50.0341829 L63.3429557,50.0341829 C63.8071314,50.8311196 64.4473014,51.2302846 65.2641666,51.2302846 C65.4892428,51.2302846 65.6792604,51.2086893 65.8342193,51.1668919 C65.9884771,51.1243979 66.1259068,51.0763309 66.2458072,51.0199045 C66.3650064,50.9648713 66.4849068,50.9147144 66.6048072,50.872917 C66.7240064,50.8311196 66.8614361,50.8102209 67.0163951,50.8102209 C67.3122896,50.82485 67.5682174,50.9084448 67.786983,51.0617019 C68.0050475,51.2163522 68.1670182,51.4072269 68.2728951,51.6385057 C68.3780709,51.8697846 68.4131295,52.1177824 68.3780709,52.3831957 C68.3430123,52.6493057 68.2203072,52.8938204 68.0085533,53.118133 C67.6285182,53.4253438 67.2064127,53.6385104 66.7422369,53.757633 C66.27736,53.8760589 65.7844361,53.9429347 65.2641666,53.9568672 C64.5882369,53.9847321 63.9410553,53.8621264 63.3212193,53.5890502 C62.7020846,53.3166706 62.1565729,52.9460672 61.6853854,52.4779365 C61.2134967,52.0091092 60.8404732,51.4608669 60.566315,50.8311196 C60.2914557,50.202069 60.1547271,49.5514231 60.1547271,48.8805751 C60.1547271,48.222963 60.2914557,47.5869462 60.566315,46.9711314 C60.8404732,46.3567099 61.2099908,45.8147372 61.6748678,45.3452133 C62.1390436,44.8770826 62.6810494,44.502996 63.3001842,44.2236502 C63.9200201,43.9443044 64.5742135,43.8042831 65.2641666,43.8042831 L65.2641666,43.8042831 Z" id="Fill-3" fill="#911373"></path>
                <path d="M78.9666076,44.2025425 C79.2337541,43.9371291 79.5471779,43.8082539 79.9061779,43.8145235 C80.2651779,43.8214897 80.5849123,43.9573312 80.8667834,44.2234412 C81.1199064,44.4756187 81.2468186,44.7904923 81.2468186,45.168062 C81.2468186,45.5456317 81.1199064,45.8667749 80.8667834,46.1328849 L78.1216955,48.8803662 L80.8667834,51.6278474 C81.1199064,51.8800249 81.2538303,52.1983817 81.2678537,52.5822209 C81.2818771,52.9674535 81.1479533,53.2997427 80.8667834,53.5790885 C80.6136604,53.8305694 80.2932248,53.9566582 79.9061779,53.9566582 C79.5191311,53.9566582 79.1846721,53.8096707 78.9035021,53.5156958 L76.1584143,50.8316073 L73.4140275,53.5790885 C73.1602033,53.8027045 72.8439748,53.9287933 72.4639396,53.9566582 C72.0839045,53.9845231 71.7522502,53.859131 71.4710803,53.5790885 C71.2179572,53.3276076 71.0805275,53.0155205 71.0594924,52.644917 C71.0384572,52.2750102 71.1611623,51.9503839 71.42901,51.6703414 L74.2372033,48.8803662 L71.42901,46.0903909 C71.1611623,45.8249775 71.0419631,45.5177668 71.07001,45.168062 C71.0980568,44.8183573 71.2319807,44.5034837 71.4710803,44.2234412 C71.7809982,43.9162304 72.1112502,43.7762092 72.4639396,43.8047708 C72.8152268,43.8319391 73.1321564,43.9719603 73.4140275,44.2234412 L76.1584143,46.9507204 L78.9666076,44.2025425 Z" id="Fill-5" fill="#911373"></path>
                <path d="M93.3649617,43.7624161 C93.7449969,43.7624161 94.0619266,43.9059204 94.3150496,44.1922325 C94.5681727,44.4785446 94.6950848,44.7829688 94.6950848,45.1048087 C94.6950848,45.4677493 94.5583562,45.786106 94.2834969,46.0591822 C94.0086375,46.3315618 93.7022254,46.4680999 93.3649617,46.4680999 L89.7335926,46.4680999 C89.5646102,46.4680999 89.4201687,46.5168635 89.3009695,46.6150874 C89.1810691,46.7126146 89.1207684,46.8526358 89.1207684,47.0344545 C89.1207684,47.2302055 89.1810691,47.3799795 89.3009695,47.4851696 C89.4201687,47.5903596 89.5646102,47.6426064 89.7335926,47.6426064 L92.1189793,47.6426064 C92.5558094,47.6426064 92.9603855,47.7331674 93.333409,47.9156826 C93.7057312,48.0975012 94.0303738,48.3385328 94.304532,48.6387773 C94.5786902,48.9404151 94.79395,49.2580752 94.9482078,49.5938475 C95.1031668,49.9296198 95.1802957,50.3071895 95.1802957,50.7265565 C95.1950203,51.187721 95.1136844,51.6210205 94.9383914,52.0264551 C94.7616961,52.4325863 94.5261023,52.7753248 94.2302078,53.0546707 C93.9350145,53.3347131 93.5900379,53.554846 93.1959793,53.7150693 C92.8019207,53.8766859 92.3580789,53.9567975 91.8658562,53.9567975 L87.9806629,53.9567975 C87.6146512,53.9567975 87.2977215,53.8307087 87.030575,53.5792278 C86.7634285,53.3270503 86.6302059,53.0121767 86.6302059,52.634607 C86.6302059,52.2855989 86.7564168,51.9672421 87.010241,51.6802334 C87.2633641,51.3939214 87.5725809,51.2434508 87.9385926,51.230215 L91.8237859,51.230215 C92.2038211,51.230215 92.3938387,51.0623288 92.3938387,50.7265565 C92.3938387,50.3489868 92.2038211,50.160202 91.8237859,50.160202 L89.5008035,50.160202 C89.078698,50.160202 88.6811336,50.0731241 88.3088113,49.8975751 C87.9350867,49.7234194 87.6118465,49.4816912 87.3369871,49.1744804 C87.0628289,48.866573 86.8475691,48.5314973 86.6933113,48.1671635 C86.5376512,47.8042229 86.4605223,47.4120241 86.4605223,46.9926571 C86.4605223,46.57329 86.5418582,46.1678554 86.7038289,45.7763533 C86.8650984,45.3841545 87.0866687,45.0421126 87.3685398,44.7481377 C87.6504109,44.4541627 87.9806629,44.2200974 88.360698,44.045245 C88.7407332,43.8703926 89.155827,43.7763485 89.6066805,43.7624161 L93.3649617,43.7624161 Z" id="Fill-7" fill="#A51383"></path>
                <path d="M97.460717,40.6364596 C97.8260275,40.6364596 98.1394514,40.7625483 98.4002873,41.0140292 C98.6604221,41.2655102 98.8048635,41.5943162 98.8329104,42.0004474 L98.8329104,44.412853 C99.1561506,44.2024728 99.5361857,44.056182 99.9730158,43.9718906 C100.409145,43.8882959 100.824238,43.8458019 101.218998,43.8458019 C101.908951,43.8458019 102.563145,43.9718906 103.182279,44.2233715 C103.801414,44.4755491 104.34342,44.8252538 104.808297,45.2724858 C105.272473,45.7197178 105.64199,46.244275 105.91685,46.8454606 C106.191008,47.4473429 106.327737,48.090326 106.327737,48.775803 L106.327737,52.6141959 C106.327737,52.9917656 106.19802,53.3136055 105.937885,53.5790188 C105.677049,53.8451288 105.349602,53.9844534 104.955543,53.9990825 C104.589531,53.9990825 104.280315,53.8764769 104.02649,53.6312656 C103.773367,53.3867509 103.61911,53.0753604 103.562315,52.6977907 L103.562315,48.9227905 C103.562315,48.6148831 103.502715,48.3174251 103.382815,48.0304164 C103.262914,47.7441043 103.098139,47.4926234 102.886385,47.275277 C102.675332,47.0593239 102.429221,46.8879546 102.148051,46.7618659 C101.86618,46.6357771 101.556262,46.573081 101.218998,46.573081 C100.58584,46.573081 100.04734,46.7897308 99.6041994,47.2230303 C99.1603576,47.6570265 98.9030275,48.1885498 98.8329104,48.8176004 L98.8329104,52.6141959 C98.8329104,52.9917656 98.7024924,53.3136055 98.4423576,53.5790188 C98.1822229,53.8451288 97.8547756,53.9844534 97.460717,53.9990825 C97.1087287,53.9990825 96.8093283,53.8764769 96.5639182,53.6312656 C96.3171057,53.3867509 96.1586408,53.0753604 96.0885236,52.6977907 L96.0885236,41.9168527 C96.1165705,41.5664513 96.2540002,41.2655102 96.5001115,41.0140292 C96.7462229,40.7625483 97.0666584,40.6364596 97.460717,40.6364596" id="Fill-9" fill="#BC138C"></path>
                <path d="M112.197667,46.531214 C111.873726,46.531214 111.570819,46.5904269 111.289649,46.7095495 C111.007778,46.828672 110.758161,46.9923784 110.540097,47.2027586 C110.322032,47.4124421 110.149544,47.6604399 110.022632,47.946752 C109.896421,48.233064 109.832614,48.5451512 109.832614,48.8802268 C109.832614,49.2027633 109.896421,49.5064909 110.022632,49.792803 C110.149544,50.0798117 110.322032,50.3312926 110.540097,50.5479424 C110.758161,50.7645921 111.007778,50.9359614 111.289649,51.0620502 C111.570819,51.1881389 111.873726,51.2501384 112.197667,51.2501384 C112.520907,51.2501384 112.827319,51.1881389 113.116202,51.0620502 C113.404384,50.9359614 113.654702,50.7645921 113.865054,50.5479424 C114.076808,50.3312926 114.245089,50.0798117 114.372001,49.792803 C114.498913,49.5064909 114.562019,49.2027633 114.562019,48.8802268 C114.534673,48.2365472 114.301884,47.6917879 113.865054,47.2438593 C113.428925,46.797324 112.872896,46.5590789 112.197667,46.531214 M112.197667,43.7837327 C112.88762,43.7837327 113.541813,43.9160911 114.160948,44.1822011 C114.780083,44.4476145 115.322089,44.8112517 115.786966,45.2724162 C116.251142,45.7335806 116.62136,46.2727668 116.895519,46.887885 C117.169677,47.5030031 117.307106,48.1675815 117.307106,48.8802268 C117.307106,49.580333 117.173183,50.2330688 116.905335,50.8412207 C116.638188,51.4500692 116.275683,51.9850757 115.818519,52.4462401 C115.361354,52.9074046 114.822153,53.2717384 114.203019,53.5371518 C113.584585,53.8025652 112.914966,53.9356202 112.197667,53.9356202 C111.49369,53.9356202 110.831784,53.8095314 110.212649,53.5580505 C109.593515,53.3065696 109.051509,52.9533817 108.587333,52.4984869 C108.122456,52.0442886 107.756444,51.5092822 107.489298,50.894164 C107.22145,50.2790459 107.088228,49.6075013 107.088228,48.8802268 C107.088228,48.1815139 107.217944,47.5273849 107.479481,46.919233 C107.739616,46.3110811 108.097915,45.7795577 108.55578,45.3253595 C109.012944,44.8704647 109.55495,44.5068275 110.181798,44.2337512 C110.807243,43.9613716 111.479667,43.8115977 112.197667,43.7837327" id="Fill-11" fill="#D1188B"></path>
                <g id="Group-15" transform="translate(0.000000, 5.636795)">
                    <mask id="mask-2" fill="white">
                        <use xlink:href="#path-1"></use>
                    </mask>
                    <g id="Clip-14"></g>
                    <path d="M12.9568148,20.2515281 C9.04287344,20.2515281 5.87077188,17.1000055 5.87077188,13.2114558 C5.87077188,9.32290602 9.04287344,6.17138343 12.9568148,6.17138343 C16.8693539,6.17138343 20.0407543,9.32151277 20.0428578,13.207276 L20.023225,13.207276 L20.023225,13.7102379 C19.7651938,17.3654189 16.7010727,20.2515281 12.9568148,20.2515281 M25.9123676,23.0519527 L25.9123676,13.297837 C25.9123676,13.2692755 25.9137699,13.2407139 25.9137699,13.2114558 C25.9137699,6.10172112 20.112975,0.338558793 12.9568148,0.338558793 C5.80065469,0.338558793 -0.000140234377,6.10172112 -0.000140234377,13.2114558 C-0.000140234377,20.3211904 5.80065469,26.0843528 12.9568148,26.0843528 C15.6177621,26.0843528 18.0907953,25.2867194 20.1480336,23.9192484 C20.4993207,25.143215 21.6303109,26.0404655 22.9744574,26.0404655 C24.5983715,26.0404655 25.9151723,24.7322075 25.9151723,23.1188285 C25.9151723,23.09584 25.9130687,23.0742446 25.9123676,23.0519527" id="Fill-13" fill="#6B1951" mask="url(#mask-2)"></path>
                </g>
                <path d="M81.4118043,25.888323 C77.4978629,25.888323 74.3257613,22.7368004 74.3257613,18.8482507 C74.3257613,14.9597009 77.4978629,11.8081783 81.4118043,11.8081783 C85.3243434,11.8081783 88.4957437,14.9583077 88.4978473,18.844071 L88.4782145,18.844071 L88.4782145,19.3470328 C88.2201832,23.0022138 85.1560621,25.888323 81.4118043,25.888323 M94.367357,28.6887476 L94.367357,18.9346319 C94.367357,18.9060704 94.3687594,18.8775089 94.3687594,18.8482507 C94.3687594,11.738516 88.5679645,5.97535371 81.4118043,5.97535371 C74.2556441,5.97535371 68.4548492,11.738516 68.4548492,18.8482507 C68.4548492,25.9579853 74.2556441,31.7211477 81.4118043,31.7211477 C84.0727516,31.7211477 86.5457848,30.9235143 88.603023,29.5560433 C88.9543102,30.78001 90.0853004,31.6772604 91.4294469,31.6772604 C93.0533609,31.6772604 94.3694605,30.3690024 94.3694605,28.7556234 C94.3694605,28.7326349 94.3680582,28.7110396 94.367357,28.6887476" id="Fill-16" fill="#911373"></path>
                <path d="M47.915141,22.8643521 C47.1045863,22.8643521 46.3711605,23.1903717 45.8389711,23.7177153 L45.8298559,23.7086592 C44.5396996,25.0510518 42.7222621,25.8883927 40.706393,25.8883927 C36.806475,25.8883927 33.6427875,22.7584654 33.6210512,18.8887245 L33.6280629,18.8887245 L33.6280629,11.7859561 L43.3413969,11.7859561 L43.3413969,11.7734169 C43.3547191,11.7734169 43.3680414,11.7755067 43.3813637,11.7755067 C45.0059789,11.7755067 46.3220785,10.4679453 46.3220785,8.85386973 C46.3220785,7.24049079 45.0059789,5.93223274 43.3813637,5.93223274 C43.362432,5.93223274 43.3442016,5.93501923 43.3252699,5.93571586 L33.6280629,5.93571586 L33.6280629,3.06841546 L33.6154418,3.06841546 C33.616143,3.05517963 33.6175453,3.04194379 33.6175453,3.02870795 C33.6175453,1.41463239 32.3014457,0.10707096 30.6775316,0.10707096 C29.0536176,0.10707096 27.7368168,1.41463239 27.7368168,3.02870795 C27.7368168,3.04751677 27.7396215,3.06562897 27.7396215,3.08443779 L27.7396215,18.8887245 L27.7501391,18.8887245 C27.7725766,25.9796503 33.5642562,31.7212173 40.706393,31.7212173 C44.2052406,31.7212173 47.3759398,30.3384206 49.7073363,28.0987776 C50.4043012,27.5644677 50.8558559,26.7285201 50.8558559,25.7859891 C50.8558559,24.1726102 49.5390551,22.8643521 47.915141,22.8643521" id="Fill-18" fill="#7F1965"></path>
                <path d="M159.439122,18.8482507 C159.439122,14.9597009 162.611925,11.8081783 166.525165,11.8081783 C170.439106,11.8081783 173.611909,14.9597009 173.611909,18.8482507 C173.611909,22.7368004 170.439106,25.888323 166.525165,25.888323 C162.611925,25.888323 159.439122,22.7368004 159.439122,18.8482507 M179.48212,18.8482507 C179.48212,11.738516 173.681325,5.97535371 166.525165,5.97535371 C159.369706,5.97535371 153.568911,11.738516 153.568911,18.8482507 C153.568911,25.2488231 158.27097,30.5556973 164.429362,31.5511717 L164.429362,33.115787 L161.030782,33.115787 L161.030782,33.1318093 C159.962196,33.1729101 159.106767,34.0402057 159.106767,35.111612 C159.106767,36.1830182 159.962196,37.0503139 161.030782,37.0914146 L161.030782,37.0955944 L161.074255,37.0955944 C161.086175,37.0955944 161.095991,37.0990775 161.10721,37.0990775 C161.11913,37.0990775 161.128946,37.0955944 161.140165,37.0955944 L164.429362,37.0955944 L164.429362,40.4742161 L164.44619,40.4742161 C164.48756,41.5358695 165.359817,42.3857496 166.43822,42.3857496 C167.517323,42.3857496 168.390282,41.5358695 168.43095,40.4742161 L168.435858,40.4742161 L168.435858,40.4310254 C168.435858,40.4191828 168.438663,40.4094301 168.438663,40.3982841 C168.438663,40.3864415 168.435858,40.3766888 168.435858,40.3655429 L168.435858,37.0955944 L171.658444,37.0955944 L171.658444,37.0781788 C171.692802,37.0802686 171.724354,37.0886281 171.759413,37.0886281 C172.863759,37.0886281 173.759856,36.1990405 173.759856,35.1011626 C173.759856,34.0039813 172.863759,33.1143937 171.759413,33.1143937 C171.724354,33.1143937 171.692802,33.1227532 171.658444,33.1241465 L171.658444,33.115787 L168.435858,33.115787 L168.435858,31.5804298 C174.685403,30.6629773 179.48212,25.3129124 179.48212,18.8482507" id="Fill-20" fill="#E20B7C"></path>
                <path d="M65.4642811,5.69029556 C65.1536619,5.69029556 64.8535604,5.73905918 64.5730916,5.82822692 L64.5716893,5.82335056 C58.0851482,7.38657264 53.5520721,12.4719208 53.5520721,18.6161359 L53.5415545,18.6161359 L53.5415545,28.7436415 C53.5408533,28.7624503 53.5387498,28.7805625 53.5387498,28.7993714 C53.5387498,30.4127503 54.8548494,31.7210083 56.4794646,31.7210083 C58.1026775,31.7210083 59.4194783,30.4127503 59.4194783,28.7993714 C59.4194783,28.7861355 59.4173748,28.7728997 59.4173748,28.7589672 L59.4299959,28.7589672 L59.4299959,18.6161359 L59.4229842,18.6161359 C59.43841,15.9341372 61.1107049,12.7547497 65.8716619,11.5022215 C67.3020525,11.3050772 68.4049959,10.0873801 68.4049959,8.61193255 C68.4049959,6.99855361 67.0881951,5.69029556 65.4642811,5.69029556" id="Fill-22" fill="#891268"></path>
                <path d="M119.023435,21.8218558 C118.002529,21.8218558 117.103626,22.3394467 116.576345,23.1245408 C115.281281,24.804099 113.242974,25.8880444 110.94874,25.8880444 C107.034798,25.8880444 103.862697,22.7365218 103.862697,18.847972 C103.862697,14.9601189 107.034798,11.8078997 110.94874,11.8078997 C113.29416,11.8078997 115.371732,12.9406087 116.661888,14.6842562 L116.676613,14.6731102 C117.21371,15.3801826 118.063531,15.8399538 119.023435,15.8399538 C120.647349,15.8399538 121.96415,14.5316957 121.96415,12.9183168 C121.96415,12.0997847 121.624081,11.3613643 121.079271,10.8312342 C118.705103,7.87406944 115.051997,5.97507506 110.94874,5.97507506 C103.792579,5.97507506 97.9917846,11.738934 97.9917846,18.847972 C97.9917846,24.9169519 102.220552,30.0016034 107.908458,31.3614115 L107.908458,33.4916848 L107.908458,33.5021341 L107.908458,33.5118868 L107.908458,33.529999 L107.909861,33.529999 C107.924585,35.1301421 109.234374,36.4230745 110.849173,36.4230745 C112.463271,36.4230745 113.77306,35.1301421 113.787785,33.529999 L113.791992,33.529999 L113.791992,31.4046022 C116.778283,30.7393272 119.36771,29.0465332 121.181642,26.7232954 C121.666152,26.2022214 121.96415,25.5083848 121.96415,24.7434927 C121.96415,23.1301138 120.647349,21.8218558 119.023435,21.8218558" id="Fill-24" fill="#BC138C"></path>
                <path d="M144.337212,18.8442103 L144.337212,19.3471721 C144.079882,23.0023531 141.015761,25.8884624 137.270802,25.8884624 C133.357562,25.8884624 130.184759,22.7362431 130.184759,18.84839 C130.184759,14.9598403 133.357562,11.807621 137.270802,11.807621 C141.183341,11.807621 144.354741,14.9577504 144.356845,18.8442103 L144.337212,18.8442103 Z M154.275622,0.586417267 C153.915921,0.224869914 153.417388,-0.000139324606 152.869071,-0.000139324606 C152.819989,-0.000139324606 152.773011,0.0110066439 152.72463,0.014489759 L144.869402,0.014489759 C143.778378,0.014489759 142.887189,0.901290877 142.886487,1.98453969 C142.887189,3.0677885 143.778378,3.953893 144.869402,3.953893 L148.082171,3.953893 L144.100917,7.91001519 C142.117302,6.68465528 139.778193,5.97549303 137.270802,5.97549303 C130.115343,5.97549303 124.313847,11.7386554 124.313847,18.84839 C124.313847,25.957428 130.115343,31.721287 137.270802,31.721287 C139.931749,31.721287 142.404782,30.922957 144.462722,29.5561826 C144.813308,30.7801493 145.944298,31.6767031 147.288445,31.6767031 C148.912359,31.6767031 150.228458,30.3691417 150.228458,28.7557628 C150.228458,28.7327742 150.226355,28.7111789 150.225654,28.6881903 L150.225654,18.9347713 C150.226355,18.9055131 150.227757,18.8769516 150.227757,18.84839 C150.227757,15.6543734 149.054696,12.7348263 147.116657,10.4847339 L150.886157,6.7396885 L150.886157,9.93231185 C150.886157,11.0155607 151.778048,11.9016652 152.869071,11.9016652 C153.959394,11.9016652 154.851284,11.0155607 154.851284,9.93231185 L154.851284,2.12734741 C154.855491,2.07997704 154.86671,2.0333033 154.86671,1.98453969 C154.86671,1.43908386 154.63953,0.944481505 154.275622,0.586417267 L154.275622,0.586417267 Z" id="Fill-26" fill="#D1188B"></path>
                <path d="M125.340503,49.7925244 C125.220602,50.079533 125.055126,50.331014 124.844073,50.5476637 C124.63302,50.7650101 124.386208,50.9363794 124.105038,51.0617715 C123.823868,51.1878603 123.51395,51.2505564 123.175985,51.2505564 C122.866067,51.2505564 122.567368,51.1913434 122.279186,51.0722209 C121.990304,50.9537949 121.73718,50.7893919 121.519116,50.5797084 C121.30035,50.3693282 121.128563,50.1213304 121.001651,49.8350184 C120.874739,49.5480097 120.811634,49.2296529 120.811634,48.8799482 C120.811634,48.558805 120.871233,48.2578638 120.991134,47.978518 C121.110333,47.6991722 121.275809,47.4546575 121.486862,47.2442773 C121.698616,47.0345938 121.948233,46.8667076 122.237116,46.7406189 C122.525298,46.6145301 122.838721,46.5525306 123.175985,46.5525306 C123.499927,46.5525306 123.802833,46.6117436 124.084003,46.7301695 C124.365173,46.8485954 124.611985,47.0136951 124.823038,47.2233786 C125.034091,47.4330622 125.203073,47.6817566 125.329284,47.9680686 C125.456196,48.2543807 125.519302,48.558805 125.519302,48.8799482 C125.519302,49.2024847 125.459702,49.5062123 125.340503,49.7925244 M127.873837,46.908505 C127.599679,46.2940835 127.22946,45.7548973 126.765284,45.2937328 C126.301108,44.8318718 125.759102,44.4675379 125.139266,44.2028212 C124.520833,43.9374078 123.865938,43.8043528 123.175985,43.8043528 C122.472009,43.8043528 121.810804,43.9408909 121.191669,44.2125739 C120.571833,44.4856501 120.030528,44.8527704 119.565651,45.3146315 C119.101475,45.775796 118.731958,46.3149822 118.4578,46.9301003 C118.18294,47.5445218 118.045511,48.1951677 118.045511,48.8799482 L118.045511,55.9067847 C118.059534,56.2711185 118.204677,56.5748462 118.478835,56.8200575 C118.752993,57.0638756 119.065716,57.1864812 119.418405,57.1864812 C119.811762,57.1864812 120.142716,57.0534262 120.410563,56.7880128 C120.67771,56.5225995 120.811634,56.2077258 120.811634,55.8447852 L120.811634,53.4323797 C121.514909,53.7820845 122.303026,53.9569368 123.175985,53.9569368 C123.893985,53.9569368 124.566409,53.8238818 125.192555,53.5577718 C125.818702,53.2923585 126.360708,52.9287212 126.818573,52.4675568 C127.275737,52.0056957 127.634036,51.4679027 127.895573,50.852088 C128.155708,50.2369699 128.285425,49.5800543 128.285425,48.8799482 C128.285425,48.1812353 128.148696,47.5236231 127.873837,46.908505" id="Fill-28" fill="#D8138D"></path>
            </g>
        </g>
    </g>
</svg>