<?xml version="1.0" encoding="UTF-8" standalone="no"?>
<svg width="29px" height="32px" viewBox="0 0 29 32" version="1.1" xmlns="http://www.w3.org/2000/svg" xmlns:xlink="http://www.w3.org/1999/xlink">
    <!-- Generator: Sketch 39.1 (31720) - http://www.bohemiancoding.com/sketch -->
    <title>Group 9 Copy 2</title>
    <desc>Created with Sketch.</desc>
    <defs></defs>
    <g id="Page-1" stroke="none" stroke-width="1" fill="none" fill-rule="evenodd">
        <g id="Home-1024-Copy-6" transform="translate(-14.000000, -9.000000)" fill="#FFFFFF">
            <g id="Group-9-Copy-2" transform="translate(14.000000, 9.000000)">
                <path d="M7.55000015,26.3 L7.65000015,25.25 L7.60000015,25.25 L7.22000015,26.21 L5.40000015,29.37 L5.15000015,29.37 L3.22000015,26.2 L2.86000015,25.25 L2.81000015,25.25 L2.95000015,26.29 L2.95000015,31 L2.17000015,31 L2.17000015,24 L2.79000015,24 L4.98000015,27.58 L5.31000015,28.36 L5.33000015,28.36 L5.64000015,27.56 L7.73000015,24 L8.38000015,24 L8.38000015,31 L7.55000015,31 L7.55000015,26.3 Z M10.3700001,24 L14.1800001,24 L14.1800001,24.74 L11.2000001,24.74 L11.2000001,27.03 L13.9300001,27.03 L13.9300001,27.77 L11.2000001,27.77 L11.2000001,30.26 L14.2300001,30.26 L14.2300001,31 L10.3700001,31 L10.3700001,24 Z M17.2800001,26.42 L16.7400001,25.41 L16.7000001,25.41 L16.8000001,26.42 L16.8000001,31 L16.0200001,31 L16.0200001,23.89 L16.4600001,23.89 L19.8100001,28.56 L20.3300001,29.52 L20.3800001,29.52 L20.2700001,28.56 L20.2700001,24 L21.0500001,24 L21.0500001,31.11 L20.6100001,31.11 L17.2800001,26.42 Z M27.06,24 L27.86,24 L27.86,28.67 C27.86,29.0900021 27.8050006,29.4533318 27.695,29.76 C27.5849995,30.0666682 27.4283344,30.3183323 27.225,30.515 C27.0216657,30.7116676 26.7766681,30.8566662 26.49,30.95 C26.2033319,31.0433338 25.8866684,31.09 25.54,31.09 C24.7133292,31.09 24.0900021,30.9033352 23.67,30.53 C23.2499979,30.1566648 23.04,29.5900038 23.04,28.83 L23.04,24 L23.87,24 L23.87,28.44 C23.87,28.7933351 23.9049997,29.0916655 23.975,29.335 C24.0450004,29.5783346 24.1499993,29.7749993 24.29,29.925 C24.4300007,30.0750008 24.604999,30.183333 24.815,30.25 C25.0250011,30.316667 25.2699986,30.35 25.55,30.35 C26.0900027,30.35 26.4766655,30.2016681 26.71,29.905 C26.9433345,29.6083318 27.06,29.1200034 27.06,28.44 L27.06,24 Z" id="MENU"></path>
                <g id="Group">
                    <rect id="Rectangle-34" x="0" y="0" width="29" height="3" rx="1.5"></rect>
                    <rect id="Rectangle-34-Copy" x="0" y="8" width="29" height="3" rx="1.5"></rect>
                    <rect id="Rectangle-34-Copy-2" x="0" y="16" width="29" height="3" rx="1.5"></rect>
                </g>
            </g>
        </g>
    </g>
</svg>