<?xml version="1.0" encoding="utf-8"?>
<!-- Generator: Adobe Illustrator 15.0.0, SVG Export Plug-In . SVG Version: 6.00 Build 0)  -->
<!DOCTYPE svg PUBLIC "-//W3C//DTD SVG 1.1//EN" "http://www.w3.org/Graphics/SVG/1.1/DTD/svg11.dtd">
<svg version="1.1" id="Layer_1" xmlns="http://www.w3.org/2000/svg" xmlns:xlink="http://www.w3.org/1999/xlink" x="0px" y="0px"
	 width="42px" height="42px" viewBox="0 0 42 42" enable-background="new 0 0 42 42" xml:space="preserve">
<path fill="#B8B8B8" d="M37.738,21.125c-0.067,2.253-1.905,4.062-4.175,4.062s-4.107-1.809-4.175-4.062h-4.213
	c-0.067,2.253-1.905,4.062-4.175,4.062s-4.107-1.809-4.175-4.062h-4.213c-0.067,2.253-1.905,4.062-4.175,4.062
	c-2.312,0-4.188-1.875-4.188-4.188s1.875-4.188,4.188-4.188c2.27,0,4.107,1.809,4.175,4.062h4.213
	c0.067-2.253,1.905-4.062,4.175-4.062s4.107,1.809,4.175,4.062h4.213c0.067-2.253,1.905-4.062,4.175-4.062s4.107,1.809,4.175,4.062
	h4.257C41.926,9.335,32.554,0,21,0C9.402,0,0,9.402,0,21s9.401,21,21,21c11.554,0,20.926-9.335,20.994-20.875H37.738z"/>
</svg>
