<?xml version="1.0" encoding="UTF-8" standalone="no"?>
<svg width="56px" height="30px" viewBox="0 0 56 30" version="1.1" xmlns="http://www.w3.org/2000/svg" xmlns:xlink="http://www.w3.org/1999/xlink">
    <!-- Generator: Sketch 39.1 (31720) - http://www.bohemiancoding.com/sketch -->
    <title>Page 1 Copy 8</title>
    <desc>Created with Sketch.</desc>
    <defs>
        <polygon id="path-1" points="27.58335 30 0 30 0 0.833 27.58335 0.833 55.1667 0.833 55.1667 30"></polygon>
    </defs>
    <g id="Page-1" stroke="none" stroke-width="1" fill="none" fill-rule="evenodd">
        <g id="Home-320" transform="translate(-81.000000, -2851.000000)">
            <g id="Group-10" transform="translate(0.000000, 2199.000000)">
                <g id="Page-1-Copy-8" transform="translate(81.000000, 651.000000)">
                    <g id="Group-3" transform="translate(0.000000, 0.166700)">
                        <mask id="mask-2" fill="white">
                            <use xlink:href="#path-1"></use>
                        </mask>
                        <g id="Clip-2"></g>
                        <path d="M52.1667,30 L2.9997,30 C1.3497,30 -0.0003,28.65 -0.0003,27 L-0.0003,3.833 C-0.0003,2.183 1.3497,0.833 2.9997,0.833 L52.1667,0.833 C53.8167,0.833 55.1667,2.183 55.1667,3.833 L55.1667,27 C55.1667,28.65 53.8167,30 52.1667,30" id="Fill-1" fill="#FFFFFF" mask="url(#mask-2)"></path>
                    </g>
                    <polygon id="Fill-4" fill="#283A8C" points="23.1811 22.9932 19.5261 22.9932 21.7831 8.3712 25.4391 8.3712"></polygon>
                    <path d="M16.4079,8.3716 L12.8599,18.3706 L12.4299,16.2196 L11.2469,9.7696 C11.2469,9.7696 11.1399,8.4796 9.5269,8.4796 L3.7219,8.4796 L3.6139,8.6946 C3.6139,8.6946 5.4419,9.1246 7.4849,10.3066 L10.7099,22.8856 L14.5799,22.8856 L20.4929,8.3716 L16.4079,8.3716 Z" id="Fill-6" fill="#283A8C"></path>
                    <path d="M41.3506,17.8326 L43.2856,12.3496 L44.3606,17.8326 L41.3506,17.8326 Z M45.4356,22.9936 L48.7686,22.9936 L45.8656,8.3716 L42.8556,8.3716 C41.4586,8.3716 41.1356,9.4466 41.1356,9.4466 L35.6526,22.8856 L39.5226,22.8856 L40.2756,20.7356 L45.0056,20.7356 L45.4356,22.9936 Z" id="Fill-8" fill="#283A8C"></path>
                    <path d="M35.975,11.9195 L36.513,8.8015 C36.513,8.8015 34.9,8.1565 33.18,8.1565 C31.352,8.1565 27.052,9.0165 27.052,12.9945 C27.052,16.7575 32.105,16.7575 32.105,18.8005 C32.105,20.8425 27.482,20.4125 25.976,19.1225 L25.439,22.3485 C25.439,22.3485 27.052,23.2085 29.632,23.2085 C32.105,23.2085 35.975,21.9185 35.975,18.2625 C35.975,14.4995 30.814,14.1775 30.814,12.4575 C30.814,10.8445 34.362,11.0595 35.975,11.9195" id="Fill-10" fill="#283A8C"></path>
                    <path d="M12.43,16.22 L11.247,9.769 C11.247,9.769 11.14,8.479 9.527,8.479 L3.722,8.479 L3.614,8.694 C3.614,8.694 6.409,9.339 9.097,11.49 C11.677,13.64 12.43,16.22 12.43,16.22" id="Fill-12" fill="#F9A533"></path>
                </g>
            </g>
        </g>
    </g>
</svg>