<?xml version="1.0" encoding="UTF-8" standalone="no"?>
<svg width="56px" height="30px" viewBox="0 0 56 30" version="1.1" xmlns="http://www.w3.org/2000/svg" xmlns:xlink="http://www.w3.org/1999/xlink">
    <!-- Generator: Sketch 39.1 (31720) - http://www.bohemiancoding.com/sketch -->
    <title>Page 1 Copy 10</title>
    <desc>Created with Sketch.</desc>
    <defs>
        <polygon id="path-1" points="27.58335 30 0 30 0 0.833 27.58335 0.833 55.1667 0.833 55.1667 30"></polygon>
        <polygon id="path-3" points="0 30.1667 55.167 30.1667 55.167 0.9997 0 0.9997"></polygon>
    </defs>
    <g id="Page-1" stroke="none" stroke-width="1" fill="none" fill-rule="evenodd">
        <g id="Home-320" transform="translate(-203.000000, -2851.000000)">
            <g id="Group-10" transform="translate(0.000000, 2199.000000)">
                <g id="Page-1-Copy-10" transform="translate(203.000000, 651.000000)">
                    <g id="Group-3" transform="translate(0.000000, 0.166700)">
                        <mask id="mask-2" fill="white">
                            <use xlink:href="#path-1"></use>
                        </mask>
                        <g id="Clip-2"></g>
                        <path d="M52.1667,30 L2.9997,30 C1.3497,30 -0.0003,28.65 -0.0003,27 L-0.0003,3.833 C-0.0003,2.183 1.3497,0.833 2.9997,0.833 L52.1667,0.833 C53.8167,0.833 55.1667,2.183 55.1667,3.833 L55.1667,27 C55.1667,28.65 53.8167,30 52.1667,30" id="Fill-1" fill="#FFFFFF" mask="url(#mask-2)"></path>
                    </g>
                    <mask id="mask-4" fill="white">
                        <use xlink:href="#path-3"></use>
                    </mask>
                    <g id="Clip-5"></g>
                    <polygon id="Fill-4" fill="#231F1F" mask="url(#mask-4)" points="10.719 18.7987 12.354 18.7987 12.354 3.4897 10.719 3.4897"></polygon>
                    <polygon id="Fill-6" fill="#231F1F" mask="url(#mask-4)" points="12.869 18.7987 13.376 18.7987 13.376 3.4897 12.869 3.4897"></polygon>
                    <polygon id="Fill-7" fill="#231F1F" mask="url(#mask-4)" points="13.817 18.7987 14.724 18.7987 14.724 3.4897 13.817 3.4897"></polygon>
                    <polygon id="Fill-8" fill="#231F1F" mask="url(#mask-4)" points="15.599 18.7987 16.106 18.7987 16.106 3.4897 15.599 3.4897"></polygon>
                    <polygon id="Fill-9" fill="#231F1F" mask="url(#mask-4)" points="16.326 18.7987 16.716 18.7987 16.716 3.4897 16.326 3.4897"></polygon>
                    <polygon id="Fill-10" fill="#231F1F" mask="url(#mask-4)" points="9.476 18.7987 9.983 18.7987 9.983 3.4897 9.476 3.4897"></polygon>
                    <polygon id="Fill-11" fill="#231F1F" mask="url(#mask-4)" points="8.358 18.7987 9.265 18.7987 9.265 3.4897 8.358 3.4897"></polygon>
                    <polygon id="Fill-12" fill="#231F1F" mask="url(#mask-4)" points="19.424 18.7987 21.059 18.7987 21.059 3.4897 19.424 3.4897"></polygon>
                    <polygon id="Fill-13" fill="#231F1F" mask="url(#mask-4)" points="21.574 18.7987 22.081 18.7987 22.081 3.4897 21.574 3.4897"></polygon>
                    <polygon id="Fill-14" fill="#231F1F" mask="url(#mask-4)" points="22.523 18.7987 23.43 18.7987 23.43 3.4897 22.523 3.4897"></polygon>
                    <polygon id="Fill-15" fill="#231F1F" mask="url(#mask-4)" points="24.304 18.7987 24.811 18.7987 24.811 3.4897 24.304 3.4897"></polygon>
                    <polygon id="Fill-16" fill="#231F1F" mask="url(#mask-4)" points="25.031 18.7987 25.421 18.7987 25.421 3.4897 25.031 3.4897"></polygon>
                    <polygon id="Fill-17" fill="#231F1F" mask="url(#mask-4)" points="18.181 18.7987 18.688 18.7987 18.688 3.4897 18.181 3.4897"></polygon>
                    <polygon id="Fill-18" fill="#231F1F" mask="url(#mask-4)" points="17.063 18.7987 17.97 18.7987 17.97 3.4897 17.063 3.4897"></polygon>
                    <polygon id="Fill-19" fill="#231F1F" mask="url(#mask-4)" points="26.064 18.7987 26.971 18.7987 26.971 3.4897 26.064 3.4897"></polygon>
                    <polygon id="Fill-20" fill="#231F1F" mask="url(#mask-4)" points="27.845 18.7987 28.352 18.7987 28.352 3.4897 27.845 3.4897"></polygon>
                    <polygon id="Fill-21" fill="#231F1F" mask="url(#mask-4)" points="28.572 18.7987 28.962 18.7987 28.962 3.4897 28.572 3.4897"></polygon>
                    <polygon id="Fill-22" fill="#231F1F" mask="url(#mask-4)" points="30.427 18.7987 30.934 18.7987 30.934 3.4897 30.427 3.4897"></polygon>
                    <polygon id="Fill-23" fill="#231F1F" mask="url(#mask-4)" points="29.31 18.7987 30.217 18.7987 30.217 3.4897 29.31 3.4897"></polygon>
                    <polygon id="Fill-24" fill="#231F1F" mask="url(#mask-4)" points="31.608 18.7987 32.115 18.7987 32.115 3.4897 31.608 3.4897"></polygon>
                    <polygon id="Fill-25" fill="#231F1F" mask="url(#mask-4)" points="32.335 18.7987 32.725 18.7987 32.725 3.4897 32.335 3.4897"></polygon>
                    <polygon id="Fill-26" fill="#231F1F" mask="url(#mask-4)" points="45.173 18.7987 46.808 18.7987 46.808 3.4897 45.173 3.4897"></polygon>
                    <polygon id="Fill-27" fill="#231F1F" mask="url(#mask-4)" points="44.151 18.7987 44.658 18.7987 44.658 3.4897 44.151 3.4897"></polygon>
                    <polygon id="Fill-28" fill="#231F1F" mask="url(#mask-4)" points="42.803 18.7987 43.71 18.7987 43.71 3.4897 42.803 3.4897"></polygon>
                    <polygon id="Fill-29" fill="#231F1F" mask="url(#mask-4)" points="41.422 18.7987 41.929 18.7987 41.929 3.4897 41.422 3.4897"></polygon>
                    <polygon id="Fill-30" fill="#231F1F" mask="url(#mask-4)" points="40.812 18.7987 41.202 18.7987 41.202 3.4897 40.812 3.4897"></polygon>
                    <polygon id="Fill-31" fill="#231F1F" mask="url(#mask-4)" points="39.262 18.7987 40.169 18.7987 40.169 3.4897 39.262 3.4897"></polygon>
                    <polygon id="Fill-32" fill="#231F1F" mask="url(#mask-4)" points="37.88 18.7987 38.387 18.7987 38.387 3.4897 37.88 3.4897"></polygon>
                    <polygon id="Fill-33" fill="#231F1F" mask="url(#mask-4)" points="37.27 18.7987 37.66 18.7987 37.66 3.4897 37.27 3.4897"></polygon>
                    <polygon id="Fill-34" fill="#231F1F" mask="url(#mask-4)" points="35.298 18.7987 35.805 18.7987 35.805 3.4897 35.298 3.4897"></polygon>
                    <polygon id="Fill-35" fill="#231F1F" mask="url(#mask-4)" points="36.016 18.7987 36.923 18.7987 36.923 3.4897 36.016 3.4897"></polygon>
                    <polygon id="Fill-36" fill="#231F1F" mask="url(#mask-4)" points="34.118 18.7987 34.625 18.7987 34.625 3.4897 34.118 3.4897"></polygon>
                    <polygon id="Fill-37" fill="#231F1F" mask="url(#mask-4)" points="33.508 18.7987 33.898 18.7987 33.898 3.4897 33.508 3.4897"></polygon>
                    <path d="M16.3792,24.7151 L16.3792,26.6871 L16.9772,26.6871 C17.3282,26.6871 17.5182,26.5301 17.5182,26.0541 L17.5182,25.4941 C17.5182,24.8991 17.3182,24.7151 16.8442,24.7151 L16.3792,24.7151 Z M16.3792,22.1021 L16.3792,23.7981 L16.7872,23.7981 C17.1762,23.7981 17.4132,23.6331 17.4132,23.1191 L17.4132,22.7621 C17.4132,22.3031 17.2522,22.1021 16.8822,22.1021 L16.3792,22.1021 Z M18.4572,22.6601 L18.4572,22.8901 C18.4572,23.5501 18.2482,23.9631 17.7832,24.1741 L17.7832,24.1931 C18.3442,24.4031 18.5622,24.8801 18.5622,25.5591 L18.5622,26.0811 C18.5622,27.0711 18.0212,27.6041 16.9772,27.6041 L15.3352,27.6041 L15.3352,21.1851 L16.9102,21.1851 C17.9922,21.1851 18.4572,21.6701 18.4572,22.6601 L18.4572,22.6601 Z" id="Fill-38" fill="#000000" mask="url(#mask-4)"></path>
                    <path d="M20.8548,26.1273 C20.8548,26.5863 21.0638,26.7603 21.3958,26.7603 C21.7278,26.7603 21.9368,26.5863 21.9368,26.1273 L21.9368,22.6603 C21.9368,22.2023 21.7278,22.0283 21.3958,22.0283 C21.0638,22.0283 20.8548,22.2023 20.8548,22.6603 L20.8548,26.1273 Z M19.8108,22.7253 C19.8108,21.6973 20.3718,21.1103 21.3958,21.1103 C22.4208,21.1103 22.9808,21.6973 22.9808,22.7253 L22.9808,26.0633 C22.9808,27.0903 22.4208,27.6773 21.3958,27.6773 C20.3718,27.6773 19.8108,27.0903 19.8108,26.0633 L19.8108,22.7253 Z" id="Fill-39" fill="#000000" mask="url(#mask-4)"></path>
                    <polygon id="Fill-40" fill="#000000" mask="url(#mask-4)" points="24.3636 21.1849 25.4076 21.1849 25.4076 26.6869 27.1256 26.6869 27.1256 27.6039 24.3636 27.6039"></polygon>
                    <polygon id="Fill-41" fill="#000000" mask="url(#mask-4)" points="29.3333 23.89 30.7663 23.89 30.7663 24.807 29.3333 24.807 29.3333 26.687 31.1363 26.687 31.1363 27.604 28.2893 27.604 28.2893 21.185 31.1363 21.185 31.1363 22.102 29.3333 22.102"></polygon>
                    <polygon id="Fill-42" fill="#000000" mask="url(#mask-4)" points="32.1868 21.1849 35.4138 21.1849 35.4138 22.1019 34.3218 22.1019 34.3218 27.6039 33.2778 27.6039 33.2778 22.1019 32.1868 22.1019"></polygon>
                    <path d="M37.5364,26.1273 C37.5364,26.5863 37.7454,26.7603 38.0774,26.7603 C38.4094,26.7603 38.6184,26.5863 38.6184,26.1273 L38.6184,22.6603 C38.6184,22.2023 38.4094,22.0283 38.0774,22.0283 C37.7454,22.0283 37.5364,22.2023 37.5364,22.6603 L37.5364,26.1273 Z M36.4924,22.7253 C36.4924,21.6973 37.0534,21.1103 38.0774,21.1103 C39.1024,21.1103 39.6624,21.6973 39.6624,22.7253 L39.6624,26.0633 C39.6624,27.0903 39.1024,27.6773 38.0774,27.6773 C37.0534,27.6773 36.4924,27.0903 36.4924,26.0633 L36.4924,22.7253 Z" id="Fill-43" fill="#000000" mask="url(#mask-4)"></path>
                </g>
            </g>
        </g>
    </g>
</svg>