<?xml version="1.0" encoding="UTF-8" standalone="no"?>
<svg width="56px" height="30px" viewBox="0 0 56 30" version="1.1" xmlns="http://www.w3.org/2000/svg" xmlns:xlink="http://www.w3.org/1999/xlink">
    <!-- Generator: Sketch 39.1 (31720) - http://www.bohemiancoding.com/sketch -->
    <title>Page 1 Copy 7</title>
    <desc>Created with Sketch.</desc>
    <defs>
        <polygon id="path-1" points="27.58335 30 0 30 0 0.833 27.58335 0.833 55.1667 0.833 55.1667 30"></polygon>
        <path d="M0.515,15.156154 C1.51744674,15.0016116 2.55336492,14.7186916 3.595,14.31 C8.224,12.491 10.651,7.787 8.914,4.219 C7.801,1.933 5.18,0.727 2.213,0.727 C1.65655417,0.727 1.08800215,0.769371667 0.515,0.854978185 L0.515,15.156154 L0.515,15.156154 Z" id="path-3"></path>
    </defs>
    <g id="Page-1" stroke="none" stroke-width="1" fill="none" fill-rule="evenodd">
        <g id="Home-320" transform="translate(-20.000000, -2851.000000)">
            <g id="Group-10" transform="translate(0.000000, 2199.000000)">
                <g id="Page-1-Copy-7" transform="translate(20.000000, 651.000000)">
                    <g id="Group-42" transform="translate(0.000000, 0.166700)">
                        <path d="M39.5774,26.8382 L39.8004,26.8492 C39.9924,26.8442 40.1734,26.8082 40.3504,26.7502 C40.5154,26.6942 40.6774,26.6152 40.8164,26.5172 C40.7284,26.5592 40.6354,26.5902 40.5364,26.5942 C40.5054,26.6012 40.4684,26.6012 40.4334,26.6012 C40.1784,26.7662 39.8934,26.8442 39.5774,26.8382" id="Fill-1" fill="#D74838"></path>
                        <g id="Group-5">
                            <mask id="mask-2" fill="white">
                                <use xlink:href="#path-1"></use>
                            </mask>
                            <g id="Clip-4"></g>
                            <path d="M52.1667,30 L2.9997,30 C1.3497,30 -0.0003,28.65 -0.0003,27 L-0.0003,3.833 C-0.0003,2.183 1.3497,0.833 2.9997,0.833 L52.1667,0.833 C53.8167,0.833 55.1667,2.183 55.1667,3.833 L55.1667,27 C55.1667,28.65 53.8167,30 52.1667,30" id="Fill-3" fill="#FFFFFF" mask="url(#mask-2)"></path>
                        </g>
                        <path d="M9.3057,21.7192 C9.9777,21.1562 9.9707,20.1332 9.5087,19.8392 C9.0477,19.5462 8.0037,19.7802 7.6637,20.6202 C7.3247,21.4602 7.2967,21.9732 7.1107,22.4302 C7.4997,22.4012 8.6337,22.2822 9.3057,21.7192 L9.3057,21.7192 Z M4.9067,24.9562 C5.5667,22.9512 6.1947,20.9172 6.6697,18.8182 C7.0387,18.8182 7.4617,18.8272 7.8317,18.8272 L7.6917,19.6192 C8.6317,19.0102 9.2497,18.8522 9.8657,18.9022 C12.0937,19.0842 10.8957,22.0112 9.7187,22.7142 C9.0277,23.1272 8.0927,23.3112 6.7997,23.1282 C6.6477,23.7372 6.4947,24.3462 6.3427,24.9562 L4.9067,24.9562 Z" id="Fill-6" fill="#231F1F"></path>
                        <path d="M13.2859,20.3248 C12.7009,20.8878 12.7079,21.9108 13.1089,22.2048 C13.5099,22.4978 14.4179,22.2638 14.7139,21.4238 C15.0099,20.5838 15.0339,20.0708 15.1949,19.6138 C14.8569,19.6428 13.8709,19.7618 13.2859,20.3248 M15.7959,23.2378 C15.3769,23.2378 15.0109,23.2458 14.5919,23.2458 L14.6699,22.3388 C13.8079,23.1518 12.4119,23.6898 11.7719,22.9228 C10.8939,21.7248 11.7259,20.1658 12.7139,19.5258 C13.8119,18.8148 15.2689,18.8518 16.7209,18.8208 C16.2009,20.2658 15.8519,21.7468 15.7959,23.2378" id="Fill-8" fill="#231F1F"></path>
                        <path d="M18.4812,20.3248 C17.8962,20.8878 17.9032,21.9108 18.3042,22.2048 C18.7052,22.4978 19.6132,22.2638 19.9092,21.4238 C20.2052,20.5838 20.2292,20.0708 20.3902,19.6138 C20.0522,19.6428 19.0662,19.7618 18.4812,20.3248 M16.2732,24.9898 L16.4842,23.8688 C17.4202,24.1728 18.2322,24.3188 18.8432,24.0118 C19.3182,23.7738 19.6712,23.2618 19.8652,22.3388 C19.0032,23.1518 17.6072,23.6898 16.9672,22.9228 C16.0892,21.7248 16.9212,20.1658 17.9092,19.5258 C19.0072,18.8148 20.4642,18.8518 21.9162,18.8208 C21.4672,20.0698 21.4582,22.0308 20.8612,23.4268 C20.5462,24.1628 20.0162,24.6358 19.3822,24.9068 C18.4552,25.3028 17.3052,25.2658 16.2732,24.9898" id="Fill-10" fill="#231F1F"></path>
                        <path d="M32.8668,20.3248 C32.2818,20.8878 32.2888,21.9108 32.6898,22.2048 C33.0908,22.4978 33.9988,22.2638 34.2948,21.4238 C34.5908,20.5838 34.6148,20.0708 34.7758,19.6138 C34.4378,19.6428 33.4518,19.7618 32.8668,20.3248 L32.8668,20.3248 Z M22.1388,22.1368 C21.9988,22.4388 21.8418,22.7578 21.7028,23.0608 C23.4058,23.4308 24.7098,23.2078 25.2248,22.6598 C25.7268,22.0398 25.6428,21.3388 24.7708,20.8288 C24.5858,20.6998 24.0598,20.4398 24.0738,20.1318 C24.0988,19.4308 25.1638,19.5978 25.8178,19.8008 L26.0268,18.8408 C25.5698,18.7348 24.9888,18.7038 24.5228,18.7488 C23.9548,18.8048 23.3448,19.0498 22.8708,19.5208 C22.5038,19.9028 22.4278,20.4178 22.5628,20.7308 C22.7238,21.1068 23.2488,21.2638 23.5158,21.4208 C23.9638,21.6298 24.2298,21.7868 24.1538,22.1038 C24.0908,22.3708 23.7668,22.5878 23.1858,22.4848 C22.8258,22.4198 22.4038,22.2918 22.1388,22.1368 L22.1388,22.1368 Z M27.7438,20.6718 C27.9538,20.2068 28.3098,19.7358 29.0338,19.6428 C29.6038,19.5878 29.6648,20.1888 29.3298,20.4198 C28.7218,20.6818 28.6538,20.3228 27.7438,20.6718 L27.7438,20.6718 Z M30.1058,22.2238 C30.0708,22.5138 29.9668,22.8048 29.9318,23.0958 C28.5778,23.2808 27.1248,23.5948 26.3748,22.5378 C25.5988,21.0408 26.7188,19.6698 27.6998,19.1548 C29.4238,18.3818 30.6208,18.7758 30.8728,19.5388 C31.3838,20.8768 29.8038,21.7598 27.5258,21.4918 C27.2878,22.6548 28.4768,22.6378 30.1058,22.2238 L30.1058,22.2238 Z M37.2538,18.8068 C37.6728,18.8178 38.0908,18.8298 38.5088,18.8418 C38.2888,19.7708 37.9278,20.6658 37.7068,21.5958 C37.3798,22.7268 38.7288,22.6098 39.3108,21.9098 C39.8298,20.9988 40.0618,19.9058 40.3918,18.8068 L41.6478,18.8068 C41.1738,20.2588 40.7608,21.7118 40.5668,23.1648 C40.1948,23.1418 39.7528,23.1188 39.3808,23.0958 C39.3928,22.8628 39.4038,22.6308 39.4158,22.3978 C38.1578,23.5528 36.0878,23.8578 36.3478,21.9098 C36.4958,20.8748 36.9158,19.8408 37.2538,18.8068 L37.2538,18.8068 Z M41.3338,23.0958 C41.8948,21.6708 42.2718,19.8538 42.5538,18.8418 L43.5648,18.8418 L43.5298,19.7478 C43.9718,19.1378 44.7738,18.8008 45.5878,18.8418 L45.2038,19.9918 C44.1928,19.8588 43.4798,20.6688 43.0858,22.0058 C42.9848,22.3468 42.9048,22.7218 42.8458,23.1248 L41.3338,23.0958 Z M46.4948,19.3818 C45.2158,20.2388 44.7028,21.6828 45.3498,22.6068 C45.9958,23.5318 47.5568,23.5858 48.8358,22.7288 C50.1148,21.8728 50.6268,20.4278 49.9808,19.5038 C49.3338,18.5798 47.7728,18.5248 46.4948,19.3818 L46.4948,19.3818 Z M46.8628,20.6958 C46.4498,21.4348 46.5018,22.2178 46.9778,22.4448 C47.4548,22.6718 48.1768,22.2578 48.5898,21.5198 C49.0028,20.7818 48.9508,19.9988 48.4738,19.7708 C47.9968,19.5438 47.2758,19.9578 46.8628,20.6958 L46.8628,20.6958 Z M30.6588,24.9898 L30.8698,23.8688 C31.8058,24.1728 32.6178,24.3188 33.2288,24.0118 C33.7038,23.7738 34.0568,23.2618 34.2508,22.3388 C33.3888,23.1518 31.9928,23.6898 31.3528,22.9228 C30.4748,21.7248 31.3068,20.1658 32.2948,19.5258 C33.3928,18.8148 34.8498,18.8518 36.3018,18.8208 C35.8528,20.0698 35.8438,22.0308 35.2468,23.4268 C34.9318,24.1628 34.4018,24.6358 33.7678,24.9068 C32.8408,25.3028 31.6908,25.2658 30.6588,24.9898 L30.6588,24.9898 Z" id="Fill-12" fill="#A5CD39"></path>
                        <path d="M38.4079,24.7653 C38.2619,24.9373 38.1519,25.1323 38.0709,25.3453 C37.9869,25.5683 37.9409,25.7963 37.9409,26.0393 C37.9409,26.3153 37.9999,26.5713 38.1009,26.8123 C38.2019,27.0523 38.3399,27.2583 38.5209,27.4393 C38.6979,27.6153 38.9049,27.7563 39.1429,27.8593 C39.3819,27.9633 39.6419,28.0213 39.9109,28.0213 C40.1849,28.0213 40.4409,27.9663 40.6839,27.8593 C40.9169,27.7573 41.1259,27.6183 41.3059,27.4393 C41.4839,27.2613 41.6209,27.0503 41.7189,26.8123 C41.8229,26.5683 41.8809,26.3153 41.8809,26.0393 C41.8809,25.7963 41.8359,25.5683 41.7509,25.3453 C41.6689,25.1323 41.5599,24.9413 41.4149,24.7653 C41.2689,24.5933 41.1019,24.4503 40.9109,24.3403 C40.6129,24.1683 40.3039,24.0653 39.9459,24.0653 L39.8949,24.0653 C39.5429,24.0653 39.2199,24.1663 38.9159,24.3403 C38.7239,24.4503 38.5539,24.5943 38.4079,24.7653" id="Fill-14" fill="#231F1F"></path>
                        <path d="M46.5598,25.6358 C46.6898,25.6358 46.7938,25.6778 46.8708,25.7708 C46.9488,25.8588 46.9908,25.9728 46.9908,26.1228 C46.9908,26.2628 46.9488,26.3828 46.8708,26.4658 C46.7938,26.5528 46.6898,26.5948 46.5598,26.5948 C46.4318,26.5948 46.3318,26.5548 46.2548,26.4658 C46.1718,26.3828 46.1348,26.2628 46.1348,26.1228 C46.1348,25.9728 46.1718,25.8588 46.2548,25.7708 C46.3318,25.6778 46.4318,25.6358 46.5598,25.6358 M46.5598,24.7858 C46.3688,24.7858 46.1928,24.8168 46.0258,24.8838 C45.8608,24.9518 45.7148,25.0438 45.5918,25.1698 C45.4668,25.2948 45.3688,25.4338 45.3058,25.5938 C45.2388,25.7558 45.2088,25.9328 45.2088,26.1228 C45.2088,26.3038 45.2388,26.4808 45.3058,26.6428 C45.3688,26.7958 45.4668,26.9428 45.5918,27.0678 C45.7218,27.1858 45.8658,27.2838 46.0328,27.3508 C46.1928,27.4138 46.3738,27.4498 46.5598,27.4498 C46.7518,27.4498 46.9238,27.4138 47.0948,27.3508 C47.2558,27.2838 47.4048,27.1858 47.5298,27.0678 C47.6588,26.9428 47.7528,26.7958 47.8198,26.6358 C47.8868,26.4758 47.9188,26.3038 47.9188,26.1228 C47.9188,25.9328 47.8868,25.7558 47.8198,25.5938 C47.7568,25.4338 47.6638,25.2948 47.5348,25.1698 C47.4108,25.0438 47.2598,24.9518 47.0948,24.8838 C46.9288,24.8168 46.7518,24.7858 46.5598,24.7858" id="Fill-16" fill="#231F1F"></path>
                        <path d="M44.7887,26.6682 C44.8097,26.5482 44.8187,26.3992 44.8187,26.2162 L44.8187,24.8422 L43.9067,24.8422 L43.9067,26.2272 C43.9067,26.3832 43.8907,26.4922 43.8497,26.5592 C43.8077,26.6212 43.7467,26.6522 43.6517,26.6522 C43.5597,26.6522 43.4967,26.6212 43.4567,26.5592 C43.4197,26.5012 43.3987,26.3882 43.3987,26.2272 L43.3987,24.8422 L42.4917,24.8422 L42.4917,26.2162 C42.4867,26.4082 42.5027,26.5542 42.5237,26.6682 C42.5427,26.7872 42.5847,26.8792 42.6307,26.9582 C42.7357,27.1182 42.8747,27.2372 43.0507,27.3202 C43.2227,27.4082 43.4247,27.4502 43.6517,27.4502 C43.8817,27.4502 44.0787,27.4082 44.2537,27.3202 C44.4297,27.2372 44.5707,27.1182 44.6687,26.9582 C44.7197,26.8792 44.7617,26.7822 44.7887,26.6682" id="Fill-18" fill="#231F1F"></path>
                        <polygon id="Fill-20" fill="#231F1F" points="49.2142 24.8422 48.3022 24.8422 48.3022 27.3832 50.1002 27.3832 50.1002 26.5592 49.2142 26.5592"></polygon>
                        <path d="M41.2272,24.7815 C40.9832,24.4855 40.6672,24.2945 40.2782,24.2205 C39.8952,24.1485 39.5332,24.2065 39.1902,24.3925 C39.0132,24.4915 38.8642,24.6145 38.7442,24.7605 C38.6212,24.9095 38.5262,25.0815 38.4652,25.2735 C38.4032,25.4705 38.3872,25.6775 38.4082,25.8795 C38.4592,25.7495 38.5372,25.6305 38.6302,25.5175 C38.7652,25.3565 38.9322,25.2365 39.1182,25.1485 C39.3032,25.0645 39.5072,25.0185 39.7192,25.0135 C39.9322,25.0135 40.1392,25.0555 40.3312,25.1385 C40.5332,25.2205 40.7092,25.3455 40.8602,25.5125 C40.9162,25.5685 40.9622,25.6355 41.0092,25.7035 C41.0762,25.7035 41.1442,25.7075 41.2012,25.7245 C41.3522,25.7655 41.4712,25.8425 41.5632,25.9575 L41.5682,25.8845 C41.5842,25.6825 41.5632,25.4915 41.5082,25.3045 C41.4502,25.1175 41.3572,24.9415 41.2272,24.7815" id="Fill-22" fill="#FAA81E"></path>
                        <path d="M38.366,26.6472 C38.392,26.8032 38.438,26.9512 38.516,27.0882 C38.589,27.2222 38.688,27.3462 38.812,27.4552 L38.874,27.5062 C39.087,27.6522 39.315,27.7562 39.563,27.8082 C39.724,27.8382 39.886,27.8282 40.041,27.7912 C40.206,27.7562 40.362,27.6892 40.507,27.5902 C40.373,27.5592 40.252,27.4872 40.159,27.3782 L40.123,27.3362 C39.927,27.3572 39.73,27.3512 39.533,27.3112 C39.283,27.2532 39.066,27.1492 38.864,27.0042 C38.672,26.8592 38.512,26.6732 38.392,26.4552 L38.361,26.3922 C38.356,26.4752 38.356,26.5632 38.366,26.6472" id="Fill-24" fill="#FAA81E"></path>
                        <path d="M40.2108,25.3409 C40.0298,25.2619 39.8328,25.2269 39.6308,25.2269 C39.4338,25.2319 39.2478,25.2739 39.0758,25.3569 C38.9048,25.4339 38.7558,25.5479 38.6308,25.6939 C38.5428,25.8029 38.4698,25.9209 38.4238,26.0459 C38.4588,26.2019 38.5168,26.3459 38.5998,26.4919 C38.7188,26.6939 38.8738,26.8649 39.0658,26.9999 C39.2528,27.1339 39.4658,27.2229 39.6928,27.2739 C39.8328,27.2999 39.9788,27.3109 40.1228,27.3039 C40.0668,27.2119 40.0298,27.1139 40.0138,26.9999 C39.9948,26.8849 39.9998,26.7709 40.0198,26.6469 C40.0458,26.4959 40.1018,26.3569 40.1798,26.2269 C40.2638,26.0969 40.3728,25.9789 40.5008,25.8839 C40.5848,25.8229 40.6728,25.7769 40.7608,25.7399 L40.7138,25.6869 C40.5678,25.5379 40.4028,25.4179 40.2108,25.3409" id="Fill-26" fill="#D74838"></path>
                        <path d="M41.5956,26.2273 L41.5496,26.1483 C41.4816,26.3823 41.3566,26.5893 41.1966,26.7773 C41.1596,26.9323 41.0976,27.0723 41.0156,27.2023 C40.9326,27.3303 40.8226,27.4453 40.6986,27.5433 C40.7866,27.5483 40.8746,27.5333 40.9626,27.5013 C41.0456,27.4713 41.1226,27.4243 41.2016,27.3623 C41.3056,27.2643 41.4036,27.1493 41.4866,27.0303 L41.5016,27.0093 C41.5386,26.9323 41.5746,26.8543 41.6006,26.7823 C41.6266,26.7033 41.6426,26.6263 41.6476,26.5543 C41.6516,26.4753 41.6516,26.4083 41.6376,26.3413 C41.6266,26.2993 41.6106,26.2623 41.5956,26.2273" id="Fill-28" fill="#F28A32"></path>
                        <path d="M38.1847,25.315 C38.1177,25.501 38.0807,25.698 38.0707,25.912 C38.0667,26.185 38.1177,26.45 38.2217,26.699 C38.2727,26.817 38.3357,26.933 38.4127,27.042 C38.4867,27.144 38.5677,27.244 38.6607,27.33 C38.4587,27.107 38.3397,26.849 38.3037,26.559 C38.2937,26.46 38.2937,26.367 38.2987,26.269 C38.2317,26.081 38.1947,25.896 38.1947,25.703 C38.1947,25.522 38.2267,25.346 38.2827,25.164 C38.3307,25.04 38.3917,24.921 38.4587,24.812 C38.3397,24.968 38.2527,25.134 38.1847,25.315" id="Fill-30" fill="#E26B36"></path>
                        <path d="M41.7239,25.4243 C41.6769,25.2733 41.6169,25.1273 41.5379,24.9933 C41.4609,24.8633 41.3659,24.7443 41.2529,24.6363 C41.1499,24.5263 41.0299,24.4333 40.8949,24.3553 C41.0089,24.4333 41.1129,24.5263 41.2059,24.6313 C41.3519,24.7963 41.4609,24.9723 41.5289,25.1693 C41.5959,25.3713 41.6259,25.5803 41.6099,25.7963 C41.6049,25.8633 41.5959,25.9263 41.5849,25.9933 C41.6099,26.0353 41.6379,26.0863 41.6579,26.1393 C41.7099,26.2903 41.7189,26.4503 41.6939,26.6103 C41.7719,26.3873 41.8119,26.1533 41.8069,25.9113 C41.7979,25.7453 41.7719,25.5803 41.7239,25.4243" id="Fill-32" fill="#E26B36"></path>
                        <path d="M41.113,25.9163 C41.164,26.0253 41.197,26.1443 41.211,26.2623 C41.227,26.3823 41.232,26.4963 41.222,26.6103 L41.201,26.7243 C41.357,26.5433 41.461,26.3413 41.522,26.1073 C41.487,26.0723 41.45,26.0353 41.408,26.0043 C41.325,25.9473 41.227,25.9163 41.113,25.9163" id="Fill-34" fill="#E26B36"></path>
                        <path d="M40.8022,27.2836 C40.8652,27.1956 40.9162,27.0976 40.9532,26.9996 C40.7442,27.1486 40.5172,27.2536 40.2682,27.3046 C40.3042,27.3616 40.3522,27.4086 40.4032,27.4456 C40.4542,27.4806 40.5122,27.5066 40.5792,27.5276 C40.6632,27.4556 40.7402,27.3716 40.8022,27.2836" id="Fill-36" fill="#D74838"></path>
                        <path d="M40.9946,26.3361 C40.9626,26.2021 40.9166,26.0771 40.8486,25.9581 C40.7296,25.9931 40.6256,26.0561 40.5286,26.1391 C40.4236,26.2271 40.3356,26.3361 40.2686,26.4601 C40.2106,26.5841 40.1756,26.7031 40.1646,26.8281 C40.1496,26.9471 40.1646,27.0561 40.1966,27.1601 C40.2106,27.1951 40.2216,27.2271 40.2426,27.2581 C40.3726,27.2431 40.4916,27.2061 40.6096,27.1551 C40.7346,27.1071 40.8486,27.0421 40.9576,26.9581 L40.9676,26.9521 C40.9886,26.8741 41.0046,26.7961 41.0156,26.7191 C41.0246,26.5891 41.0206,26.4661 40.9946,26.3361" id="Fill-38" fill="#FFE600"></path>
                        <path d="M24.1074,3.8841 C19.4434,6.0531 17.5154,10.6901 19.4804,14.0731 C21.4464,17.4571 25.9634,18.1271 30.5944,16.3101 C35.2244,14.4911 37.6504,9.7871 35.9134,6.2191 C34.1784,2.6531 28.7704,1.7161 24.1074,3.8841" id="Fill-40" fill="#A5CD39"></path>
                    </g>
                    <g id="Group-45" transform="translate(27.000000, 2.166700)">
                        <mask id="mask-4" fill="white">
                            <use xlink:href="#path-3"></use>
                        </mask>
                        <g id="Clip-44"></g>
                        <polygon id="Fill-43" fill="#A5CD39" mask="url(#mask-4)" points="0.515 16.128 20.65 16.128 20.65 -0.284 0.515 -0.284"></polygon>
                    </g>
                    <g id="Group-50" transform="translate(19.000000, 4.166700)">
                        <path d="M11.5098,4.4011 C10.9478,4.1141 8.5138,3.5521 8.5138,4.6291 C8.5138,5.2881 10.7308,5.7851 11.1508,6.3171 C11.3248,6.5371 11.4128,6.7741 11.4128,7.0291 C11.4128,7.4741 11.1788,7.8201 10.7158,8.0691 C10.2508,8.3181 9.6038,8.4551 8.7738,8.4811 C8.7518,8.5921 8.7538,8.6901 8.7768,8.7751 C9.1208,10.0411 14.2318,8.2701 14.1378,4.8491 C14.0958,3.3391 13.0708,1.9231 10.9088,1.6841 C9.6898,1.5491 8.2658,1.8861 7.0088,2.5091 C4.4398,3.9271 3.0308,6.4961 4.4488,9.3881 C6.2178,11.5941 8.7498,11.0721 11.7368,10.6041 C11.6348,10.6651 11.5308,10.7241 11.4238,10.7821 C8.1948,12.4261 4.9578,12.2631 2.9508,10.0971 C1.1448,7.7001 1.9908,3.9921 5.3448,1.9131 C6.3268,1.3041 8.6598,0.4211 10.8758,0.5931 C15.5738,0.9571 16.7718,6.8351 12.1668,9.0791 C10.7108,9.8581 8.2358,10.1331 7.3878,9.3091 C7.0618,8.9911 7.2278,8.7901 7.3488,8.4021 C6.7888,8.3261 6.2728,8.2111 5.8058,8.0591 L6.3328,7.1281 C6.8798,7.3961 9.7168,8.1401 9.7168,6.9971 C9.7168,6.8771 9.6528,6.7541 9.5218,6.6301 C8.8098,5.9501 6.8248,5.9401 6.8248,4.6561 C6.8248,4.2361 7.0308,3.8951 7.4418,3.6321 C7.8518,3.3691 8.4188,3.2141 9.1418,3.1701 L9.3748,2.4471 L10.8008,2.5081 L10.5728,3.2121 C11.2138,3.2661 11.6938,3.3471 12.0108,3.4541 L11.5098,4.4011 Z" id="Fill-46" fill="#FFFFFF"></path>
                        <path d="M0.5356,4.9042 C-0.1124,6.5852 -0.0534,8.3712 0.8296,9.8922 C2.7076,13.1252 7.0236,13.7652 11.4476,12.0282 C14.2236,10.9382 16.1686,8.7622 16.8236,6.4492 C16.0246,8.5342 14.1816,10.4372 11.6456,11.4342 C7.2216,13.1702 2.9056,12.5302 1.0286,9.2972 C0.2486,7.9552 0.1116,6.4052 0.5356,4.9042" id="Fill-48" fill="#D8DE86"></path>
                    </g>
                </g>
            </g>
        </g>
    </g>
</svg>