<?xml version="1.0" encoding="UTF-8" standalone="no"?>
<svg width="56px" height="30px" viewBox="0 0 56 30" version="1.1" xmlns="http://www.w3.org/2000/svg" xmlns:xlink="http://www.w3.org/1999/xlink">
    <!-- Generator: Sketch 39.1 (31720) - http://www.bohemiancoding.com/sketch -->
    <title>Page 1 Copy 9</title>
    <desc>Created with Sketch.</desc>
    <defs>
        <polygon id="path-1" points="27.58335 30 0 30 0 0.833 27.58335 0.833 55.1667 0.833 55.1667 30"></polygon>
    </defs>
    <g id="Page-1" stroke="none" stroke-width="1" fill="none" fill-rule="evenodd">
        <g id="Home-320" transform="translate(-142.000000, -2851.000000)">
            <g id="Group-10" transform="translate(0.000000, 2199.000000)">
                <g id="Page-1-Copy-9" transform="translate(142.000000, 651.000000)">
                    <g id="Group-3" transform="translate(0.000000, 0.166700)">
                        <mask id="mask-2" fill="white">
                            <use xlink:href="#path-1"></use>
                        </mask>
                        <g id="Clip-2"></g>
                        <path d="M52.1667,30 L2.9997,30 C1.3497,30 -0.0003,28.65 -0.0003,27 L-0.0003,3.833 C-0.0003,2.183 1.3497,0.833 2.9997,0.833 L52.1667,0.833 C53.8167,0.833 55.1667,2.183 55.1667,3.833 L55.1667,27 C55.1667,28.65 53.8167,30 52.1667,30" id="Fill-1" fill="#FFFFFF" mask="url(#mask-2)"></path>
                    </g>
                    <path d="M20.0424,4.4853 C26.2894,4.4853 31.3534,9.4093 31.3534,15.4823 C31.3534,21.5563 26.2894,26.4793 20.0424,26.4793 C13.7954,26.4793 8.7314,21.5563 8.7314,15.4823 C8.7314,9.4093 13.7954,4.4853 20.0424,4.4853" id="Fill-4" fill="#ED1C2E"></path>
                    <path d="M35.1243,4.4853 C32.1913,4.4853 29.5733,5.5323 27.5833,7.3133 C27.1643,7.6273 26.7453,8.0463 26.4313,8.4653 L28.7353,8.4653 C29.0493,8.8843 29.3643,9.1983 29.5733,9.6173 L25.5933,9.6173 C25.3843,10.0363 25.1743,10.3503 24.9653,10.7693 L30.3063,10.7693 C30.5163,11.1883 30.6203,11.5023 30.8303,11.9213 L24.5463,11.9213 C24.4413,12.3403 24.3363,12.6543 24.2313,13.0733 L31.1443,13.0733 C31.3543,13.8063 31.3543,14.6443 31.3543,15.3783 C31.3543,16.6343 31.1443,17.7863 30.7253,18.8343 L24.4413,18.8343 C24.5463,19.2533 24.7553,19.6723 24.9653,19.9863 L30.3063,19.9863 C30.0973,20.4053 29.8873,20.8243 29.6783,21.1383 L25.6983,21.1383 C25.9073,21.5573 26.2213,21.9763 26.5363,22.2903 L28.8403,22.2903 C28.5263,22.7093 28.1073,23.1283 27.6883,23.4423 C29.6783,25.2233 32.2963,26.2703 35.2293,26.2703 C41.4083,26.4793 46.4353,21.5573 46.4353,15.4823 C46.4353,9.4083 41.4083,4.4853 35.1243,4.4853" id="Fill-6" fill="#FCB131"></path>
                    <path d="M45.2836,21.5572 L45.2836,21.5572 L45.3886,21.5572 L45.2836,21.5572 Z M45.2836,21.7662 L45.2836,21.7662 L45.1786,21.4522 L45.2836,21.4522 L45.3886,21.4522 L45.3886,21.5572 C45.3886,21.5572 45.3886,21.6622 45.2836,21.6622 L45.3886,21.7662 L45.2836,21.7662 L45.3886,21.6622 L45.2836,21.6622 L45.2836,21.7662 Z M45.2836,21.8712 C45.3886,21.8712 45.5976,21.7662 45.5976,21.5572 C45.5976,21.4522 45.4926,21.2432 45.2836,21.2432 C45.1786,21.2432 44.9696,21.3482 44.9696,21.5572 C44.9696,21.7662 45.1786,21.8712 45.2836,21.8712 L45.2836,21.8712 Z M44.9696,21.6622 C44.9696,21.4522 45.1786,21.3482 45.2836,21.3482 C45.4926,21.3482 45.5976,21.5572 45.5976,21.6622 C45.5976,21.8712 45.3886,21.9762 45.2836,21.9762 C45.0746,21.9762 44.9696,21.7662 44.9696,21.6622 L44.9696,21.6622 Z" id="Fill-8" fill="#FCB131"></path>
                    <path d="M18.2619,18.7293 L17.2149,18.7293 L17.2149,18.3103 C16.8999,18.7293 16.4809,18.8343 15.9579,18.8343 C15.3289,18.8343 14.8059,18.3103 14.8059,17.5773 C14.8059,16.4253 15.6439,15.7963 17.0049,15.7963 L17.5289,15.7963 L17.5289,15.4823 C17.5289,15.1683 17.3189,15.0633 16.7959,15.0633 C16.1669,15.0633 15.7479,15.1683 15.5389,15.2733 C15.5389,15.1683 15.7479,14.2253 15.7479,14.2253 C16.3769,14.0163 16.7959,14.0163 17.2149,14.0163 C18.2619,14.0163 18.7859,14.4353 18.7859,15.3773 C18.7859,15.5873 18.7859,15.9013 18.6809,16.3203 C18.5759,16.9483 18.2619,18.4153 18.2619,18.7293 M17.4239,16.6343 L17.1099,16.6343 C16.3769,16.6343 16.0629,16.8443 16.0629,17.3673 C16.0629,17.6823 16.2719,17.7863 16.4809,17.7863 C17.0049,17.7863 17.3189,17.3673 17.4239,16.6343" id="Fill-10" fill="#003473"></path>
                    <polygon id="Fill-12" fill="#003473" points="14.3867 18.7293 13.1297 18.7293 13.8627 14.4353 12.2917 18.7293 11.4537 18.7293 11.3497 14.4353 10.6167 18.7293 9.4637 18.7293 10.4067 13.1783 12.1877 13.1783 12.2917 16.2153 13.3397 13.1783 15.3297 13.1783"></polygon>
                    <path d="M37.5332,18.7293 L36.4862,18.7293 L36.4862,18.3103 C36.1712,18.7293 35.7522,18.8343 35.2292,18.8343 C34.6002,18.8343 34.0772,18.3103 34.0772,17.5773 C34.0772,16.4253 34.9152,15.7963 36.2762,15.7963 L36.8002,15.7963 L36.8002,15.4823 C36.8002,15.1683 36.5902,15.0633 36.0672,15.0633 C35.4382,15.0633 35.0192,15.1683 34.8102,15.2733 C34.8102,15.1683 35.0192,14.2253 35.0192,14.2253 C35.6482,14.0163 36.0672,14.0163 36.4862,14.0163 C37.5332,14.0163 38.0572,14.4353 38.0572,15.3773 C38.0572,15.5873 38.0572,15.9013 37.9522,16.3203 C37.8472,16.9483 37.6382,18.4153 37.5332,18.7293 M36.6952,16.6343 L36.3812,16.6343 C35.6482,16.6343 35.3342,16.8443 35.3342,17.3673 C35.3342,17.6823 35.5432,17.7863 35.7522,17.7863 C36.2762,17.7863 36.6952,17.3673 36.6952,16.6343" id="Fill-14" fill="#003473"></path>
                    <path d="M23.7081,18.6246 C23.3941,18.7296 23.0801,18.7296 22.8701,18.7296 C22.2421,18.7296 21.9271,18.4156 21.9271,17.6816 C21.9271,17.4726 22.0321,16.9486 22.1371,16.4256 C22.2421,16.0066 22.6611,13.2826 22.6611,13.2826 L23.9171,13.2826 L23.8131,14.0166 L24.5461,14.0166 L24.3361,15.0636 L23.6031,15.0636 C23.4991,15.9016 23.2891,16.9486 23.2891,17.1586 C23.2891,17.3676 23.3941,17.4726 23.7081,17.4726 L24.0221,17.4726 L23.7081,18.6246 Z" id="Fill-16" fill="#003473"></path>
                    <path d="M26.7455,15.9015 C26.7455,15.7965 26.8505,15.0635 26.2215,15.0635 C25.8025,15.0635 25.5935,15.3775 25.4885,15.9015 L26.7455,15.9015 Z M27.4785,18.6245 C27.0595,18.7295 26.6405,18.8345 26.2215,18.8345 C24.8605,18.8345 24.1275,18.1005 24.1275,16.8445 C24.1275,15.2735 25.0695,14.1205 26.2215,14.1205 C27.2695,14.1205 27.8975,14.7495 27.8975,15.7965 C27.8975,16.1105 27.8975,16.4255 27.7925,16.9485 L25.3835,16.9485 C25.2795,17.5775 25.6985,17.8915 26.4315,17.8915 C26.8505,17.8915 27.2695,17.7865 27.6885,17.5775 L27.4785,18.6245 Z" id="Fill-18" fill="#003473"></path>
                    <path d="M18.995,15.5873 C18.995,16.1113 19.309,16.5303 19.938,16.8443 C20.461,17.0533 20.461,17.1583 20.461,17.3683 C20.461,17.6823 20.252,17.7863 19.728,17.7863 C19.414,17.7863 18.995,17.6823 18.681,17.5773 L18.471,18.6243 C18.786,18.7293 18.995,18.7293 19.728,18.7293 C20.985,18.7293 21.613,18.2053 21.613,17.2633 C21.613,16.6343 21.404,16.3203 20.776,16.0063 C20.252,15.7963 20.252,15.6923 20.252,15.4823 C20.252,15.2733 20.461,15.0633 20.88,15.0633 C21.09,15.0633 21.404,15.0633 21.718,15.1683 L21.928,14.1213 C21.613,14.1213 21.09,14.0163 20.88,14.0163 C19.519,14.1213 18.995,14.7493 18.995,15.5873" id="Fill-20" fill="#003473"></path>
                    <path d="M33.4485,14.2257 C33.7625,14.2257 34.0765,14.3307 34.4955,14.5397 L34.7055,13.2827 C34.4955,13.1787 33.8675,12.7597 33.3435,12.7597 C32.5055,12.7597 31.8775,13.1787 31.3535,13.8067 C30.6205,13.5977 30.3065,14.0167 29.9925,14.5397 L29.6785,14.6447 L29.6785,14.2257 L28.6305,14.2257 C28.5255,15.5877 28.2115,17.0537 28.0025,18.4147 L27.8975,18.7297 L29.1545,18.7297 C29.3635,17.4727 29.4685,16.6347 29.5735,16.0067 L29.9925,15.7967 C30.0965,15.5877 30.3065,15.4827 30.7255,15.4827 C30.6205,15.7967 30.6205,16.1107 30.6205,16.4247 C30.6205,17.8917 31.4585,18.8337 32.7155,18.8337 C33.0295,18.8337 33.3435,18.8337 33.7625,18.6247 L33.9725,17.3677 C33.5535,17.5777 33.2395,17.6817 32.9245,17.6817 C32.1915,17.6817 31.7725,17.1587 31.7725,16.3207 C31.8775,15.0637 32.5055,14.2257 33.4485,14.2257" id="Fill-22" fill="#003473"></path>
                    <path d="M42.2463,17.682 C41.8273,17.682 41.6183,17.368 41.6183,16.739 C41.6183,15.797 42.0373,15.168 42.5603,15.168 C42.9793,15.168 43.1893,15.483 43.1893,16.006 C43.1893,17.054 42.7703,17.682 42.2463,17.682 L42.2463,17.682 Z M43.8173,13.178 L43.5033,14.749 C43.1893,14.33 42.7703,14.016 42.3513,14.016 C41.7223,14.016 41.1993,14.435 40.7803,15.168 C40.2563,15.064 39.7323,14.854 39.7323,14.854 C39.7323,14.435 39.8373,14.226 39.8373,14.121 L38.6853,14.121 C38.5803,15.483 38.2663,16.949 38.0573,18.31 L37.9523,18.625 L39.2093,18.625 C39.4183,17.577 39.5233,16.739 39.6283,16.006 C40.0473,15.587 40.2563,15.273 40.6753,15.378 C40.4653,15.797 40.3613,16.32 40.3613,16.844 C40.3613,17.996 40.9893,18.729 41.8273,18.729 C42.2463,18.729 42.6653,18.625 42.9793,18.206 L42.8743,18.625 L44.0273,18.625 L44.9693,13.074 L43.8173,13.074 L43.8173,13.178 Z" id="Fill-24" fill="#003473"></path>
                    <polygon id="Fill-26" fill="#FFFFFF" points="14.7009 18.4151 13.4439 18.4151 14.1769 14.1211 12.6059 18.4151 11.7679 18.4151 11.6639 14.1211 10.9309 18.4151 9.7779 18.4151 10.7209 12.7591 12.5019 12.7591 12.6059 16.2161 13.7579 12.7591 15.6439 12.7591"></polygon>
                    <path d="M18.5761,18.4151 L17.5291,18.4151 L17.5291,17.9961 C17.2141,18.4151 16.7951,18.5201 16.2721,18.5201 C15.6431,18.5201 15.1201,17.9961 15.1201,17.2631 C15.1201,16.1111 15.9581,15.4821 17.3191,15.4821 L17.8431,15.4821 L17.8431,15.1681 C17.9481,14.9591 17.7381,14.7491 17.1101,14.7491 C16.5861,14.7491 16.0621,14.9591 15.8531,14.9591 C15.8531,14.8541 16.0621,13.9111 16.0621,13.9111 C16.6911,13.7021 17.1101,13.7021 17.5291,13.7021 C18.5761,13.7021 19.1001,14.1211 19.1001,15.0631 C19.1001,15.2731 19.1001,15.5871 18.9951,16.0061 C18.8901,16.6341 18.6811,17.9961 18.5761,18.4151 M17.7381,16.3201 L17.4241,16.3201 C16.6911,16.3201 16.3771,16.5301 16.3771,17.0531 C16.3771,17.3681 16.5861,17.4721 16.7951,17.4721 C17.3191,17.4721 17.7381,17.0531 17.7381,16.3201" id="Fill-28" fill="#FFFFFF"></path>
                    <path d="M35.0196,12.9689 L34.8106,14.2259 C34.3916,14.0159 34.0766,13.9119 33.7626,13.9119 C32.8206,13.9119 32.1916,14.7499 32.1916,16.0059 C32.1916,16.8439 32.6106,17.3679 33.3436,17.3679 C33.6576,17.3679 33.9726,17.2629 34.3916,17.0539 L34.1816,18.3109 C33.7626,18.4149 33.4486,18.5199 33.1346,18.5199 C31.7726,18.5199 31.0396,17.5769 31.0396,16.1109 C31.0396,14.1209 32.1916,12.7599 33.7626,12.7599 C34.2866,12.6549 34.9146,12.8639 35.0196,12.9689" id="Fill-30" fill="#FFFFFF"></path>
                    <path d="M37.9521,18.4151 L36.9051,18.4151 L36.9051,17.9961 C36.5901,18.4151 36.1711,18.5201 35.6481,18.5201 C35.0191,18.5201 34.4961,17.9961 34.4961,17.2631 C34.4961,16.1111 35.3341,15.4821 36.6951,15.4821 L37.2191,15.4821 L37.2191,15.1681 C37.2191,14.8541 37.0091,14.7491 36.4861,14.7491 C35.8571,14.7491 35.4381,14.8541 35.2291,14.9591 C35.2291,14.8541 35.4381,13.9111 35.4381,13.9111 C36.0671,13.7021 36.4861,13.7021 36.9051,13.7021 C37.9521,13.7021 38.4761,14.1211 38.4761,15.0631 C38.4761,15.2731 38.4761,15.5871 38.3711,16.0061 C38.1611,16.6341 37.9521,17.9961 37.9521,18.4151 M37.0091,16.3201 L36.6951,16.3201 C35.9621,16.3201 35.6481,16.5301 35.6481,17.0531 C35.6481,17.3681 35.8571,17.4721 36.0671,17.4721 C36.5901,17.4721 37.0091,17.0531 37.0091,16.3201" id="Fill-32" fill="#FFFFFF"></path>
                    <path d="M24.0223,18.3104 C23.7083,18.4154 23.3943,18.4154 23.1843,18.4154 C22.5563,18.4154 22.2413,18.1014 22.2413,17.3674 C22.2413,17.1584 22.3463,16.6344 22.4513,16.1114 C22.5563,15.6924 22.9753,12.9684 22.9753,12.9684 L24.2313,12.9684 L24.1273,13.7024 L24.7553,13.7024 L24.4413,14.9584 L23.8133,14.9584 C23.7083,15.7964 23.4983,16.8444 23.4983,17.0534 C23.4983,17.2634 23.6033,17.3674 23.9173,17.3674 L24.2313,17.3674 L24.0223,18.3104 Z" id="Fill-34" fill="#FFFFFF"></path>
                    <path d="M27.0597,15.5873 C27.0597,15.4823 27.1647,14.7493 26.5357,14.7493 C26.1167,14.7493 25.9077,15.0633 25.8027,15.5873 L27.0597,15.5873 Z M27.7927,18.3103 C27.3737,18.4153 26.9547,18.5203 26.5357,18.5203 C25.1747,18.5203 24.4417,17.7863 24.4417,16.5303 C24.4417,14.9593 25.3837,13.8063 26.5357,13.8063 C27.5837,13.8063 28.2117,14.4353 28.2117,15.4823 C28.2117,15.7963 28.2117,16.1113 28.1067,16.6343 L25.6977,16.6343 C25.5937,17.2633 26.0127,17.5773 26.7457,17.5773 C27.1647,17.5773 27.5837,17.4723 28.0027,17.2633 L27.7927,18.3103 Z" id="Fill-36" fill="#FFFFFF"></path>
                    <path d="M19.3092,15.2731 C19.3092,15.7971 19.6232,16.2161 20.2522,16.5301 C20.7752,16.7391 20.7752,16.8441 20.7752,17.0541 C20.7752,17.3681 20.5662,17.4721 20.0422,17.4721 C19.7282,17.4721 19.3092,17.3681 18.9952,17.2631 L18.7852,18.3101 C19.1002,18.4151 19.3092,18.4151 20.0422,18.4151 C21.2992,18.4151 21.9272,17.8911 21.9272,16.9491 C21.9272,16.3201 21.7182,16.0061 21.0902,15.6921 C20.5662,15.4821 20.5662,15.3781 20.5662,15.1681 C20.5662,14.9591 20.7752,14.7491 21.1942,14.7491 C21.4042,14.7491 21.7182,14.7491 22.0322,14.8541 L22.2422,13.8071 C21.9272,13.8071 21.4042,13.7021 21.1942,13.7021 C19.8332,13.7021 19.3092,14.4351 19.3092,15.2731" id="Fill-38" fill="#FFFFFF"></path>
                    <path d="M42.5605,17.3678 C43.0845,17.3678 43.5035,16.7398 43.5035,15.7968 C43.5035,15.1688 43.2935,14.9588 42.8745,14.9588 C42.3515,14.9588 41.9325,15.5868 41.9325,16.5298 C41.9325,17.0538 42.1415,17.3678 42.5605,17.3678 L42.5605,17.3678 Z M44.4455,18.4148 L43.2935,18.4148 L43.3985,17.9958 C43.0845,18.3108 42.7695,18.5198 42.2465,18.5198 C41.4085,18.5198 40.7795,17.7868 40.7795,16.6348 C40.7795,15.1688 41.7225,13.8068 42.7695,13.8068 C43.2935,13.8068 43.6075,14.0158 43.9225,14.4348 L44.2365,12.8638 L45.4935,12.8638 L44.4455,18.4148 Z" id="Fill-40" fill="#FFFFFF"></path>
                    <path d="M38.9995,13.8068 C38.8945,15.1688 38.5805,16.6348 38.3715,17.9958 L38.2665,18.3108 L39.5235,18.3108 C39.9425,15.5878 40.0465,14.9588 40.7805,15.0638 C40.8845,14.5398 41.0945,14.0158 41.1985,13.7018 C40.6755,13.5978 40.3615,13.9118 40.0465,14.4348 C40.0465,14.2258 40.1515,14.0158 40.1515,13.7018 L38.9995,13.7018 L38.9995,13.8068 Z" id="Fill-42" fill="#FFFFFF"></path>
                    <path d="M28.9449,13.8068 C28.8399,15.1688 28.5259,16.6348 28.3169,17.9958 L28.2119,18.3108 L29.4689,18.3108 C29.8879,15.5878 29.9919,14.9588 30.7259,15.0638 C30.8299,14.5398 31.0399,14.0158 31.1439,13.7018 C30.6209,13.5978 30.3069,13.9118 29.9919,14.4348 C29.9919,14.2258 30.0969,14.0158 30.0969,13.7018 L28.9449,13.7018 L28.9449,13.8068 Z" id="Fill-44" fill="#FFFFFF"></path>
                    <path d="M45.2836,17.9962 L45.2836,17.9962 L45.3886,17.9962 C45.3886,17.9962 45.3886,17.8912 45.2836,17.9962 C45.2836,17.8912 45.2836,17.8912 45.2836,17.9962 L45.2836,17.9962 Z M45.2836,18.2052 L45.2836,18.2052 L45.1786,17.8912 L45.2836,17.8912 L45.3886,17.8912 L45.3886,17.9962 C45.3886,17.9962 45.3886,18.1012 45.2836,18.1012 L45.3886,18.2052 L45.2836,18.2052 L45.3886,18.1012 L45.2836,18.1012 L45.2836,18.2052 Z M45.2836,18.3102 C45.3886,18.3102 45.5976,18.2052 45.5976,17.9962 C45.5976,17.8912 45.4926,17.6822 45.2836,17.6822 C45.1786,17.6822 44.9696,17.7872 44.9696,17.9962 C44.9696,18.2052 45.1786,18.3102 45.2836,18.3102 L45.2836,18.3102 Z M44.9696,17.9962 C44.9696,17.7872 45.1786,17.6822 45.2836,17.6822 C45.4926,17.6822 45.5976,17.8912 45.5976,17.9962 C45.5976,18.2052 45.3886,18.3102 45.2836,18.3102 C45.0746,18.4152 44.9696,18.2052 44.9696,17.9962 L44.9696,17.9962 Z" id="Fill-46" fill="#FFFFFF"></path>
                </g>
            </g>
        </g>
    </g>
</svg>