<svg xmlns="http://www.w3.org/2000/svg" width="32" height="33" viewBox="0 0 32 33"><path fill="#b8b8b8" d="M10.55 14.74H29.3v-2.15H10.55zM29.84 10c1.1 0 2 .91 2 2.04v14.3c0 1.13-.9 2.04-2 2.04h-2.66a8.15 8.15 0 0 0-.03-2.59h2.15v-6.84H10.55v6.85h2.14a7.76 7.76 0 0 0-.02 2.59H10c-1.1 0-2-.91-2-2.04V12.04c0-1.13.9-2.04 2-2.04z"/><path fill="#b8b8b8" d="M25.69 8.41c.46 0 .59-.64.17-.83L9.51.18C8.52-.28 7.34.18 6.9 1.2L1.17 14.31a2.03 2.03 0 0 0 1 2.66l3.3 1.46c.41.18.89-.12.89-.58v-5.57a3.82 3.82 0 0 1 3.78-3.86h15.55zM20.77 29.88c-.15.04-.22.12-.21.28v.47c0 .14-.08.22-.21.22h-.49c-.14 0-.21-.09-.21-.23v-.34c0-.25-.01-.26-.25-.3a3 3 0 0 1-.87-.26c-.21-.1-.24-.16-.17-.39l.14-.52c.06-.2.11-.22.3-.12.3.16.62.25.96.29.22.03.44.01.64-.09.38-.16.44-.61.12-.88a1.3 1.3 0 0 0-.36-.21c-.34-.15-.68-.26-.99-.46-.51-.3-.83-.73-.79-1.36.04-.72.43-1.16 1.08-1.4.26-.1.27-.09.27-.37v-.29c0-.22.03-.25.24-.26h.19c.45 0 .45 0 .45.46 0 .32 0 .32.31.37.24.04.47.1.69.2.12.06.17.14.13.28-.05.19-.1.39-.17.58-.06.18-.12.2-.29.12-.34-.17-.7-.24-1.08-.22-.1.01-.2.02-.29.06-.33.15-.39.53-.11.75.15.12.3.2.47.28.3.12.59.24.87.4.86.48 1.1 1.61.48 2.38-.22.28-.51.47-.85.56zM15 27.25a5.2 5.2 0 0 0 5.14 5.25 5.2 5.2 0 0 0 5.15-5.25A5.2 5.2 0 0 0 20.14 22 5.2 5.2 0 0 0 15 27.25z"/></svg>