<svg xmlns="http://www.w3.org/2000/svg" width="21" height="18" viewBox="0 0 21 18"><path fill="#fff" d="M20.86 5.84a6.73 6.73 0 0 1-5.35-.6v.53c0 .87.26 1.52.8 1.93.54.42 1.36.63 2.48.63.79 0 1.33-.13 1.63-.41.29-.27.44-.77.44-1.51zm-8.85 5.56h1.37v1.02h-1.37zm0-1.75h1.37v1.02h-1.37zm0-1.76h1.37v1.02h-1.37zM9.68 11.4h1.37v1.02H9.68zm0-1.75h1.37v1.02H9.68zm0-1.76h1.37v1.02H9.68zM7.34 11.4h1.37v1.02H7.34zm0-1.75h1.37v1.02H7.34zm0-1.76h1.37v1.02H7.34zm1.45-3.5H6.32V6.6l-2.88 4.94a7.29 7.29 0 0 0-1.11 3.67v2.77h16.2v-2.77c0-.76-.07-1.37-.2-1.83a7.97 7.97 0 0 0-.84-1.79L14.55 6.6V4.39h-2.47v1.6H8.79zm-3.44.93a6.36 6.36 0 0 1-3.31.96A6.3 6.3 0 0 1 0 5.89v.51c0 .81.15 1.35.44 1.64.29.29.85.43 1.66.43 1.14 0 1.96-.21 2.48-.64.51-.43.77-1.12.77-2.07zm15.51 0a8.7 8.7 0 0 1-1.94.23 7.5 7.5 0 0 1-3.41-.92v-.24c0-1.17-1.67-1.76-5-1.76-3.44 0-5.16.59-5.16 1.76v.24a6.31 6.31 0 0 1-3.38 1.08c-.66 0-1.32-.13-1.97-.39.21-1.28.62-2.49 1.23-3.65C2.64 1.11 4.11.69 5.63.41a28.31 28.31 0 0 1 9.61 0c1.54.28 3 .7 4.39 1.26.6 1.08 1.01 2.29 1.23 3.65z"/></svg>