<?xml version="1.0" encoding="utf-8"?>
<!-- Generator: Adobe Illustrator 15.0.0, SVG Export Plug-In . SVG Version: 6.00 Build 0)  -->
<!DOCTYPE svg PUBLIC "-//W3C//DTD SVG 1.1//EN" "http://www.w3.org/Graphics/SVG/1.1/DTD/svg11.dtd">
<svg version="1.1" id="Layer_1" xmlns="http://www.w3.org/2000/svg" xmlns:xlink="http://www.w3.org/1999/xlink" x="0px" y="0px"
	 width="100px" height="100px" viewBox="0 0 100 100" enable-background="new 0 0 100 100" xml:space="preserve">
<g>
	<path fill="#B8B7B8" d="M45.359,26.587c-2.747-2.277-5.918-2.993-7.073-1.588c-1.16,1.392,0.13,4.377,2.873,6.655
		c2.747,2.269,5.915,2.993,7.069,1.588C49.392,31.851,48.107,28.866,45.359,26.587z"/>
	<path fill="#B8B7B8" d="M62.498,25c-1.158-1.405-4.322-0.689-7.07,1.588c-2.744,2.278-4.027,5.264-2.873,6.655
		c1.162,1.405,4.328,0.681,7.072-1.588C62.375,29.376,63.664,26.392,62.498,25z"/>
	<path fill="#B8B7B8" d="M50,1.149c-26.978,0-48.851,21.872-48.851,48.852c0,26.979,21.873,48.85,48.851,48.85
		c26.98,0,48.851-21.871,48.851-48.85C98.851,23.021,76.98,1.149,50,1.149z M48.087,70.775H31.949c-2.071,0-3.747-1.377-3.747-3.094
		V54.828h19.885V70.775z M71.799,67.682c0,1.717-1.676,3.094-3.744,3.094H52.189V54.828h19.609V67.682z M71.799,50.725H52.189
		V36.711c-0.682-0.245-1.293-0.607-1.793-1.104c-0.625,0.619-1.414,1.037-2.309,1.266v13.852H28.202V37.859
		c0-1.708,1.676-3.096,3.747-3.096h7.925c-0.268-0.192-0.532-0.396-0.792-0.611c-4.111-3.4-5.567-8.422-3.257-11.201
		c2.306-2.779,7.507-2.281,11.618,1.139c1.23,1.021,2.221,2.191,2.953,3.408c0.721-1.217,1.717-2.387,2.956-3.408
		c4.105-3.419,9.309-3.918,11.613-1.139c2.307,2.779,0.848,7.801-3.254,11.201c-0.26,0.216-0.525,0.419-0.793,0.611h7.137
		c2.068,0,3.744,1.388,3.744,3.096V50.725z"/>
</g>
</svg>
