<?xml version="1.0" encoding="utf-8"?>
<!-- Generator: Adobe Illustrator 15.0.0, SVG Export Plug-In . SVG Version: 6.00 Build 0)  -->
<!DOCTYPE svg PUBLIC "-//W3C//DTD SVG 1.1//EN" "http://www.w3.org/Graphics/SVG/1.1/DTD/svg11.dtd">
<svg version="1.1" id="Layer_1" xmlns="http://www.w3.org/2000/svg" xmlns:xlink="http://www.w3.org/1999/xlink" x="0px" y="0px"
	 width="100px" height="100px" viewBox="0 0 100 100" enable-background="new 0 0 100 100" xml:space="preserve">
<g>
	<path fill="#B8B7B8" d="M52.655,27.578v-2.535c0.008,0.001,0.014,0.004,0.02,0.005v-1.953c0-1.791-1.327-3.243-2.962-3.243
		c-1.635,0-2.959,1.452-2.959,3.243v2.089v1.27v1.305c-5.018,1.65-8.112,7.005-8.112,13.372l0.154,28.406h22.472l0.052-28.406
		C61.319,34.512,57.979,28.982,52.655,27.578z"/>
	<path fill="#B8B7B8" d="M50,1.149c-26.978,0-48.851,21.872-48.851,48.852c0,26.979,21.873,48.85,48.851,48.85
		c26.98,0,48.851-21.871,48.851-48.85C98.851,23.021,76.98,1.149,50,1.149z M67.245,76.783H32.754c-2.003,0-3.621-1.623-3.621-3.622
		c0-2.003,1.618-3.625,3.621-3.625h3.142V39.484c0-6.264,3.776-11.569,9.068-13.688V22.76c0-2.622,2.126-4.748,4.748-4.748
		s4.749,2.126,4.749,4.748v2.788c5.604,1.947,9.655,7.441,9.655,13.937v30.052h3.129c1.999,0,3.622,1.622,3.622,3.625
		C70.867,75.16,69.244,76.783,67.245,76.783z"/>
</g>
</svg>
