<?xml version="1.0" encoding="UTF-8" standalone="no"?>
<svg width="5px" height="9px" viewBox="0 0 5 9" version="1.1" xmlns="http://www.w3.org/2000/svg" xmlns:xlink="http://www.w3.org/1999/xlink">
    <!-- Generator: Sketch 39.1 (31720) - http://www.bohemiancoding.com/sketch -->
    <title>Page 1 Copy 34</title>
    <desc>Created with Sketch.</desc>
    <defs>
        <polygon id="path-1" points="4.92586818 8.65117087 0 8.65117087 0 1.68643237e-05 4.92586818 1.68643237e-05"></polygon>
    </defs>
    <g id="Page-1" stroke="none" stroke-width="1" fill="none" fill-rule="evenodd">
        <g id="MegaMenu-1024" transform="translate(-53.000000, -3742.000000)">
            <g id="Page-1-Copy-34" transform="translate(55.500000, 3746.500000) scale(-1, 1) translate(-55.500000, -3746.500000) translate(53.000000, 3742.000000)">
                <mask id="mask-2" fill="white">
                    <use xlink:href="#path-1"></use>
                </mask>
                <g id="Clip-2"></g>
                <path d="M1.31311675,4.32558983 L4.79688596,0.781871098 C5.0003485,0.574887006 4.95847822,0.270273881 4.70390693,0.104879845 L4.70390693,0.104879845 C4.44928161,-0.0605141905 4.07455613,-0.0265218954 3.87109359,0.180462196 L0.128376974,3.98755533 C0.0310758502,4.08654582 -0.00949779984,4.20784649 0.00184769485,4.32558983 C-0.00949779984,4.44333316 0.0310758502,4.56463383 0.128376974,4.66362432 L3.87109359,8.47071745 C4.07455613,8.67770155 4.44928161,8.71173776 4.70390693,8.54629981 L4.70390693,8.54629981 C4.95847822,8.38090577 5.0003485,8.07629264 4.79688596,7.86930855 L1.31311675,4.32558983 Z" id="Fill-1" fill="#B8B8B8" mask="url(#mask-2)"></path>
            </g>
        </g>
    </g>
</svg>