<?xml version="1.0" encoding="UTF-8" standalone="no"?>
<svg width="29px" height="36px" viewBox="0 0 29 36" version="1.1" xmlns="http://www.w3.org/2000/svg" xmlns:xlink="http://www.w3.org/1999/xlink">
    <!-- Generator: Sketch 39.1 (31720) - http://www.bohemiancoding.com/sketch -->
    <title>Group 11</title>
    <desc>Created with Sketch.</desc>
    <defs></defs>
    <g id="Page-1" stroke="none" stroke-width="1" fill="none" fill-rule="evenodd">
        <g id="Home-1024-Copy-6" transform="translate(-107.000000, -592.000000)">
            <g id="Group-11" transform="translate(107.000000, 592.000000)">
                <g id="Page-1">
                    <polygon id="Fill-1" fill="#FFFFFF" points="0 35.625 28.346 35.625 28.346 0.53 0 0.53"></polygon>
                    <g id="Group-12" transform="translate(3.000000, 4.625000)" fill="#19CE3F">
                        <path d="M14.7324,20.373 C14.7324,20.992 14.9204,21.522 15.2954,21.963 C15.6704,22.403 16.1614,22.623 16.7714,22.623 C17.4774,22.623 17.9824,22.42 18.2874,22.012 C18.5914,21.604 18.7444,21.058 18.7444,20.373 L18.7444,19.117 C18.7444,18.497 18.5704,17.967 18.2224,17.526 C17.8744,17.087 17.3794,16.866 16.7384,16.866 C16.0864,16.866 15.5884,17.087 15.2464,17.526 C14.9034,17.967 14.7324,18.497 14.7324,19.117 L14.7324,20.373 Z M11.5684,19.117 C11.5684,17.726 12.0244,16.562 12.9384,15.627 C13.8514,14.691 15.1184,14.225 16.7384,14.225 C18.3694,14.225 19.6384,14.689 20.5464,15.618 C21.4544,16.548 21.9084,17.715 21.9084,19.117 L21.9084,20.373 C21.9084,21.786 21.4574,22.955 20.5544,23.879 C19.6514,24.804 18.3914,25.266 16.7714,25.266 C15.1404,25.266 13.8654,24.801 12.9464,23.871 C12.0274,22.941 11.5684,21.775 11.5684,20.373 L11.5684,19.117 Z M6.1864,23.162 L3.8704,21.938 L15.4664,3.379 L17.7824,4.602 L6.1864,23.162 Z M3.3804,7.016 C3.3804,7.646 3.5544,8.176 3.9024,8.605 C4.2504,9.035 4.7514,9.25 5.4034,9.25 C6.0334,9.25 6.5204,9.035 6.8624,8.605 C7.2054,8.176 7.3764,7.646 7.3764,7.016 L7.3764,5.76 C7.3764,5.129 7.2024,4.594 6.8554,4.153 C6.5064,3.713 6.0124,3.492 5.3704,3.492 C4.7294,3.492 4.2374,3.713 3.8944,4.153 C3.5524,4.594 3.3804,5.129 3.3804,5.76 L3.3804,7.016 Z M0.2164,5.76 C0.2164,4.357 0.6704,3.188 1.5784,2.253 C2.4864,1.318 3.7504,0.851 5.3704,0.851 C7.0124,0.851 8.2844,1.315 9.1874,2.245 C10.0894,3.175 10.5404,4.347 10.5404,5.76 L10.5404,7.016 C10.5404,8.418 10.0894,9.582 9.1874,10.506 C8.2844,11.43 7.0234,11.892 5.4034,11.892 C3.7724,11.892 2.5004,11.43 1.5864,10.506 C0.6734,9.582 0.2164,8.418 0.2164,7.016 L0.2164,5.76 Z" id="Fill-10"></path>
                    </g>
                </g>
            </g>
        </g>
    </g>
</svg>