<?xml version="1.0" encoding="UTF-8" standalone="no"?>
<svg width="32px" height="20px" viewBox="0 0 32 20" version="1.1" xmlns="http://www.w3.org/2000/svg" xmlns:xlink="http://www.w3.org/1999/xlink">
    <!-- Generator: Sketch 39.1 (31720) - http://www.bohemiancoding.com/sketch -->
    <title>Page 1 Copy</title>
    <desc>Created with Sketch.</desc>
    <defs></defs>
    <g id="Page-1" stroke="none" stroke-width="1" fill="none" fill-rule="evenodd">
        <g id="Home-1024-Copy-6" transform="translate(-107.000000, -573.000000)">
            <g id="Page-1-Copy" transform="translate(107.000000, 572.000000)">
                <g id="Group-12" transform="translate(0.000000, 0.625000)">
                    <path d="M14.3984,17.7832 C11.9364,17.7832 9.9394,15.7862 9.9394,13.3242 C9.9394,10.8632 11.9364,8.8662 14.3984,8.8662 C16.8604,8.8662 18.8564,10.8632 18.8564,13.3242 C18.8564,15.7862 16.8604,17.7832 14.3984,17.7832 L14.3984,17.7832 Z M18.2224,6.8562 L10.1234,6.8562 L0.00039999999,19.9052 L28.3454,19.9052 L18.2224,6.8562 Z" id="Fill-2" fill="#FFFFFF"></path>
                    <path d="M15.8335,11.833 L12.0005,11.833 C12.0005,11.833 13.4165,0.375 20.6665,0.375 L23.0005,0.375 C15.7505,0.375 15.8335,11.833 15.8335,11.833" id="Fill-6" fill="#0EAAE0"></path>
                    <path d="M27.8877,8.666 L31.3067,8.666 C30.3207,5.275 28.0767,0.375 23.3327,0.375 L20.9997,0.375 C25.7427,0.375 27.3457,5.275 27.8877,8.666" id="Fill-8" fill="#005C9B"></path>
                </g>
            </g>
        </g>
    </g>
</svg>