<?xml version="1.0" encoding="UTF-8" standalone="no"?>
<svg width="36px" height="36px" viewBox="0 0 36 36" version="1.1" xmlns="http://www.w3.org/2000/svg" xmlns:xlink="http://www.w3.org/1999/xlink">
    <!-- Generator: Sketch 39.1 (31720) - http://www.bohemiancoding.com/sketch -->
    <title>Group 18</title>
    <desc>Created with Sketch.</desc>
    <defs></defs>
    <g id="Page-1" stroke="none" stroke-width="1" fill="none" fill-rule="evenodd">
        <g id="Detalhes_grade_1024" transform="translate(-525.000000, -829.000000)">
            <g id="Group-18" transform="translate(526.000000, 830.000000)">
                <g id="Group-10">
                    <path d="M21.5390625,23 L13.7734375,23 L13.7734375,21.5078125 L17.453125,17.5625 C17.9843777,16.953122 18.361978,16.4388042 18.5859375,16.0195312 C18.809897,15.6002583 18.921875,15.2109393 18.921875,14.8515625 C18.921875,14.3723934 18.79297,13.9804703 18.5351562,13.6757812 C18.2773425,13.3710922 17.9114607,13.21875 17.4375,13.21875 C16.9114557,13.21875 16.5117201,13.3971336 16.2382812,13.7539062 C15.9648424,14.1106789 15.828125,14.5859345 15.828125,15.1796875 L13.609375,15.1796875 L13.59375,15.1328125 C13.5677082,14.1067657 13.9049444,13.2382848 14.6054687,12.5273438 C15.3059931,11.8164027 16.2499941,11.4609375 17.4375,11.4609375 C18.6093809,11.4609375 19.5299446,11.765622 20.1992187,12.375 C20.8684929,12.984378 21.203125,13.7968699 21.203125,14.8125 C21.203125,15.5000034 21.0143248,16.1341117 20.6367187,16.7148438 C20.2591127,17.2955758 19.635421,18.057287 18.765625,19 L16.7421875,21.2109375 L16.7578125,21.25 L21.5390625,21.25 L21.5390625,23 Z" id="2" fill="#444444"></path>
                    <circle id="Oval-7-Copy" stroke="#979797" cx="17" cy="17" r="17"></circle>
                </g>
            </g>
        </g>
    </g>
</svg>