<?xml version="1.0" encoding="UTF-8" standalone="no"?>
<svg width="40px" height="80px" viewBox="0 0 24 25" version="1.1" xmlns="http://www.w3.org/2000/svg" xmlns:xlink="http://www.w3.org/1999/xlink">
    <!-- Generator: Sketch 39.1 (31720) - http://www.bohemiancoding.com/sketch -->
    <title>Page 1 Copy 12</title>
    <desc>Created with Sketch.</desc>
    <defs>
        <polygon id="path-1" points="24 5.46794643 24 10.7142857 0 10.7142857 0 5.46794643 0 0.221607143 24 0.221607143"></polygon>
    </defs>
    <g id="Page-1" stroke="none" stroke-width="1" fill="none" fill-rule="evenodd">
        <g id="Home-768-Copy" transform="translate(-236.000000, -11.000000)">
            <g id="Page-1-Copy-12" transform="translate(236.000000, 11.000000)">
                <g id="Group-3" transform="translate(0.000000, 13.393571)">
                    <mask id="mask-2" fill="white">
                        <use xlink:href="#path-1"></use>
                    </mask>
                    <g id="Clip-2"></g>
                    <path d="M12,0.221607143 C5.36953846,0.221607143 0,3.71267857 0,6.91892857 L0,10.7144643 L2.56523077,10.7144643 L2.56523077,8.10732143 C2.56523077,5.58678571 6.78738462,2.84214286 12,2.84214286 C17.2126154,2.84214286 21.4347692,5.58678571 21.4347692,8.10732143 L21.4347692,10.7144643 L24,10.7144643 L24,6.91892857 C24,3.71267857 18.6304615,0.221607143 12,0.221607143" id="Fill-1" fill="#FFFFFF" mask="url(#mask-2)"></path>
                </g>
                <path d="M12.1153846,9.15178571 C10.2673846,9.15178571 8.76923077,7.70267857 8.76923077,5.91517857 C8.76923077,4.12767857 10.2673846,2.67857143 12.1153846,2.67857143 C13.9633846,2.67857143 15.4615385,4.12767857 15.4615385,5.91517857 C15.4615385,7.70267857 13.9633846,9.15178571 12.1153846,9.15178571 M12,0 C8.68615385,0 6,2.59821429 6,5.80357143 C6,9.00892857 8.68615385,11.6071429 12,11.6071429 C15.3138462,11.6071429 18,9.00892857 18,5.80357143 C18,2.59821429 15.3138462,0 12,0" id="Fill-4" fill="#FFFFFF"></path>
            </g>
        </g>
    </g>
</svg>