<?xml version="1.0" encoding="utf-8"?>
<!-- Generator: Adobe Illustrator 15.0.0, SVG Export Plug-In . SVG Version: 6.00 Build 0)  -->
<!DOCTYPE svg PUBLIC "-//W3C//DTD SVG 1.1//EN" "http://www.w3.org/Graphics/SVG/1.1/DTD/svg11.dtd">
<svg version="1.1" id="Layer_1" xmlns="http://www.w3.org/2000/svg" xmlns:xlink="http://www.w3.org/1999/xlink" x="0px" y="0px"
	 width="100px" height="100px" viewBox="0 0 100 100" enable-background="new 0 0 100 100" xml:space="preserve">
<path fill="#B8B7B8" d="M50,1.149c-26.978,0-48.851,21.872-48.851,48.852c0,26.979,21.873,48.85,48.851,48.85
	c26.98,0,48.851-21.871,48.851-48.85C98.851,23.021,76.98,1.149,50,1.149z M31.441,54.611c-1.935,3.936-1.192,5.645-0.887,6.109
	c0.062,0.093,0.147,0.299,0.147,0.299l-0.004,0.001c0.034,0.105,0.05,0.219,0.041,0.334c-0.035,0.472-0.447,0.829-0.92,0.792
	c-0.295-0.021-0.532-0.199-0.668-0.44l-0.019,0.009c0,0-1.944-2.42,0.503-7.273c0.453-0.809,2.104-3.351,0.994-5.383
	c-0.372-0.679-1.269-2.567-2.231-4.021c-2.443-3.354,0.28-7.534,0.28-7.534l0.012,0.004c0.15-0.308,0.472-0.51,0.834-0.482
	c0.474,0.034,0.828,0.45,0.791,0.919c-0.002,0.038-0.021,0.068-0.03,0.104c-0.002,0.034-0.01,0.127-0.044,0.182
	c-0.004,0.006-0.01,0.017-0.014,0.023c-0.008,0.018-0.019,0.032-0.028,0.048c-0.443,0.755-2.082,3.901-0.017,6.334
	c1.499,2.096,1.894,3.296,2.227,4.07C33.348,50.887,31.939,53.805,31.441,54.611z M37.147,54.611
	c-1.938,3.936-1.193,5.645-0.89,6.109c0.063,0.093,0.148,0.299,0.148,0.299l-0.004,0.001c0.034,0.105,0.05,0.219,0.041,0.334
	c-0.037,0.472-0.447,0.829-0.92,0.792c-0.295-0.021-0.532-0.199-0.668-0.44l-0.019,0.009c0,0-1.944-2.42,0.505-7.273
	c0.45-0.809,2.103-3.351,0.993-5.383c-0.37-0.679-1.27-2.567-2.23-4.021c-2.444-3.354,0.277-7.534,0.277-7.534l0.014,0.004
	c0.15-0.309,0.472-0.51,0.834-0.482c0.474,0.034,0.828,0.45,0.792,0.919c-0.003,0.038-0.022,0.068-0.029,0.104
	c-0.002,0.033-0.01,0.127-0.044,0.182c-0.003,0.007-0.011,0.019-0.015,0.025c-0.008,0.016-0.016,0.028-0.024,0.042
	c-0.44,0.749-2.088,3.9-0.02,6.338c1.499,2.096,1.895,3.296,2.228,4.07C39.052,50.887,37.645,53.805,37.147,54.611z M56.072,75.115
	v0.003c0,0.136,0,0.229,0,0.229h-0.035c-0.18,2.317-2.973,4.161-6.424,4.161c-3.452,0-6.246-1.844-6.426-4.161h-0.036
	c0,0,0-37.792,0-43.618c0-5.826,5.827-12.698,5.827-12.698s0.744-0.747,1.492,0c0.746,0.747,5.525,6.796,5.525,12.996
	c0,5.926,0.07,40.068,0.076,43.086C56.072,75.113,56.072,75.113,56.072,75.115z M65.619,61.67l-0.014-0.004
	c-0.146,0.307-0.471,0.51-0.832,0.481c-0.473-0.034-0.828-0.449-0.791-0.919c0.002-0.038,0.021-0.071,0.027-0.105
	c0.002-0.035,0.012-0.127,0.043-0.182c0.004-0.007,0.012-0.019,0.016-0.027c0.008-0.014,0.016-0.025,0.023-0.04
	c0.441-0.748,2.09-3.899,0.021-6.339c-1.498-2.095-1.895-3.295-2.225-4.069c-0.941-2.18,0.467-5.097,0.969-5.904
	c1.932-3.935,1.188-5.645,0.887-6.108c-0.061-0.093-0.15-0.299-0.15-0.299l0.004-0.001c-0.035-0.104-0.049-0.217-0.043-0.334
	c0.037-0.472,0.451-0.828,0.924-0.792c0.297,0.022,0.533,0.2,0.668,0.44l0.02-0.008c0,0,1.943,2.42-0.504,7.273
	c-0.451,0.81-2.105,3.35-0.992,5.383c0.371,0.679,1.268,2.568,2.23,4.021C68.342,57.489,65.619,61.67,65.619,61.67z M71.322,61.67
	l-0.01-0.004c-0.15,0.307-0.475,0.51-0.836,0.481c-0.471-0.034-0.828-0.449-0.791-0.919c0.002-0.038,0.021-0.071,0.031-0.105
	c0.002-0.035,0.008-0.127,0.041-0.182c0.004-0.007,0.01-0.019,0.016-0.027c0.006-0.014,0.018-0.025,0.023-0.04
	c0.439-0.748,2.088-3.899,0.021-6.339c-1.498-2.095-1.896-3.295-2.227-4.069c-0.939-2.18,0.469-5.097,0.969-5.904
	c1.932-3.935,1.189-5.645,0.887-6.108c-0.061-0.093-0.148-0.299-0.148-0.299l0.006-0.002c-0.037-0.104-0.051-0.217-0.045-0.333
	c0.037-0.472,0.449-0.828,0.922-0.792c0.297,0.022,0.533,0.2,0.668,0.439l0.018-0.007c0,0,1.945,2.42-0.5,7.273
	c-0.451,0.81-2.107,3.35-0.994,5.383c0.371,0.679,1.268,2.568,2.229,4.021C74.045,57.489,71.322,61.67,71.322,61.67z"/>
</svg>
